G04 #@! TF.FileFunction,Copper,L2,Bot,Signal*
%FSLAX46Y46*%
G04 Gerber Fmt 4.6, Leading zero omitted, Abs format (unit mm)*
G04 Created by KiCad (PCBNEW 4.0.4-stable) date 10/20/16 10:06:23*
%MOMM*%
%LPD*%
G01*
G04 APERTURE LIST*
%ADD10C,0.100000*%
%ADD11R,1.727200X1.727200*%
%ADD12O,1.727200X1.727200*%
%ADD13C,1.998980*%
%ADD14R,1.727200X2.032000*%
%ADD15O,1.727200X2.032000*%
%ADD16R,2.000000X2.000000*%
%ADD17C,2.000000*%
%ADD18O,2.032000X1.727200*%
%ADD19R,2.032000X1.727200*%
%ADD20C,0.254000*%
G04 APERTURE END LIST*
D10*
D11*
X119634000Y-40132000D03*
D12*
X119634000Y-37592000D03*
X122174000Y-40132000D03*
X122174000Y-37592000D03*
X124714000Y-40132000D03*
X124714000Y-37592000D03*
X127254000Y-40132000D03*
X127254000Y-37592000D03*
X129794000Y-40132000D03*
X129794000Y-37592000D03*
X132334000Y-40132000D03*
X132334000Y-37592000D03*
X134874000Y-40132000D03*
X134874000Y-37592000D03*
X137414000Y-40132000D03*
X137414000Y-37592000D03*
X139954000Y-40132000D03*
X139954000Y-37592000D03*
X142494000Y-40132000D03*
X142494000Y-37592000D03*
X145034000Y-40132000D03*
X145034000Y-37592000D03*
X147574000Y-40132000D03*
X147574000Y-37592000D03*
X150114000Y-40132000D03*
X150114000Y-37592000D03*
X152654000Y-40132000D03*
X152654000Y-37592000D03*
X155194000Y-40132000D03*
X155194000Y-37592000D03*
X157734000Y-40132000D03*
X157734000Y-37592000D03*
X160274000Y-40132000D03*
X160274000Y-37592000D03*
X162814000Y-40132000D03*
X162814000Y-37592000D03*
X165354000Y-40132000D03*
X165354000Y-37592000D03*
X167894000Y-40132000D03*
X167894000Y-37592000D03*
D13*
X140335000Y-82550000D03*
X140335000Y-72390000D03*
D14*
X114300000Y-52705000D03*
D15*
X116840000Y-52705000D03*
X119380000Y-52705000D03*
X121920000Y-52705000D03*
D14*
X114300000Y-55880000D03*
D15*
X116840000Y-55880000D03*
X119380000Y-55880000D03*
D16*
X139065000Y-86995000D03*
D17*
X139065000Y-89535000D03*
D16*
X143510000Y-86995000D03*
D17*
X143510000Y-89535000D03*
D16*
X147955000Y-86995000D03*
D17*
X147955000Y-89535000D03*
D13*
X143510000Y-82550000D03*
X143510000Y-72390000D03*
X146685000Y-82550000D03*
X146685000Y-72390000D03*
X113665000Y-46990000D03*
X123825000Y-46990000D03*
X123825000Y-43815000D03*
X113665000Y-43815000D03*
D18*
X114300000Y-67945000D03*
D19*
X114300000Y-65405000D03*
D18*
X114300000Y-70485000D03*
X114300000Y-73025000D03*
X114300000Y-75565000D03*
X114300000Y-78105000D03*
X172720000Y-78105000D03*
X172720000Y-75565000D03*
X172720000Y-73025000D03*
X172720000Y-70485000D03*
D19*
X172720000Y-65405000D03*
D18*
X172720000Y-67945000D03*
D14*
X129540000Y-55880000D03*
D15*
X132080000Y-55880000D03*
X134620000Y-55880000D03*
X137160000Y-55880000D03*
X139700000Y-55880000D03*
X142240000Y-55880000D03*
X144780000Y-55880000D03*
D14*
X149860000Y-55880000D03*
D15*
X152400000Y-55880000D03*
X154940000Y-55880000D03*
X157480000Y-55880000D03*
X160020000Y-55880000D03*
X162560000Y-55880000D03*
X165100000Y-55880000D03*
X167640000Y-55880000D03*
X170180000Y-55880000D03*
X172720000Y-55880000D03*
D20*
X127254000Y-40386000D02*
X124824489Y-42815511D01*
X127254000Y-40132000D02*
X127254000Y-40386000D01*
X124824489Y-42815511D02*
X123825000Y-43815000D01*
X123825000Y-46990000D02*
X123825000Y-43815000D01*
X116840000Y-52705000D02*
X116840000Y-48756872D01*
X116840000Y-48756872D02*
X123162363Y-42434509D01*
X123162363Y-42434509D02*
X124443491Y-42434509D01*
X124443491Y-42434509D02*
X126009399Y-40868601D01*
X126009399Y-40868601D02*
X126009399Y-38836601D01*
X126009399Y-38836601D02*
X126390401Y-38455599D01*
X126390401Y-38455599D02*
X127254000Y-37592000D01*
X119380000Y-52552600D02*
X119380000Y-52705000D01*
X122402600Y-49530000D02*
X119380000Y-52552600D01*
X124757564Y-49530000D02*
X122402600Y-49530000D01*
X128549399Y-38836601D02*
X128549399Y-45738165D01*
X128549399Y-45738165D02*
X124757564Y-49530000D01*
X129794000Y-37592000D02*
X128549399Y-38836601D01*
X128016000Y-55372000D02*
X128016000Y-46990000D01*
X128016000Y-46990000D02*
X134874000Y-40132000D01*
X115443000Y-67945000D02*
X128016000Y-55372000D01*
X114300000Y-67945000D02*
X115443000Y-67945000D01*
X137160000Y-55880000D02*
X137160000Y-56032400D01*
X137160000Y-56032400D02*
X138404610Y-57277010D01*
X138404610Y-57277010D02*
X156235390Y-57277010D01*
X156235390Y-57277010D02*
X157480000Y-56032400D01*
X157480000Y-56032400D02*
X157480000Y-55880000D01*
X163855399Y-54482999D02*
X143484601Y-54482999D01*
X143484601Y-54482999D02*
X142240000Y-55727600D01*
X142240000Y-55727600D02*
X142240000Y-55880000D01*
X165100000Y-55880000D02*
X165100000Y-55727600D01*
X165100000Y-55727600D02*
X163855399Y-54482999D01*
X134620000Y-55880000D02*
X134620000Y-55727600D01*
X134620000Y-55727600D02*
X147574000Y-42773600D01*
X147574000Y-42773600D02*
X147574000Y-41353314D01*
X147574000Y-41353314D02*
X147574000Y-40132000D01*
X113665000Y-46990000D02*
X112665511Y-47989489D01*
X112665511Y-54093111D02*
X114300000Y-55727600D01*
X112665511Y-47989489D02*
X112665511Y-54093111D01*
X114300000Y-55727600D02*
X114300000Y-55880000D01*
X139954000Y-37592000D02*
X138709399Y-38836601D01*
X138709399Y-38836601D02*
X138709399Y-45440601D01*
X138709399Y-45440601D02*
X130835390Y-53314610D01*
X130835390Y-62890390D02*
X130835390Y-53314610D01*
X140335000Y-72390000D02*
X130835390Y-62890390D01*
X145034000Y-37592000D02*
X143738601Y-38887399D01*
X143738601Y-38887399D02*
X143738601Y-44848855D01*
X143738601Y-44848855D02*
X133375390Y-55212066D01*
X133375390Y-55212066D02*
X133375390Y-62255390D01*
X133375390Y-62255390D02*
X143510000Y-72390000D01*
X162814000Y-37592000D02*
X164058601Y-38836601D01*
X164058601Y-38836601D02*
X164058601Y-52926057D01*
X164058601Y-52926057D02*
X166344601Y-55212057D01*
X166344601Y-55212057D02*
X166344601Y-56547943D01*
X146685000Y-72390000D02*
X150502544Y-72390000D01*
X150502544Y-72390000D02*
X166344601Y-56547943D01*
G36*
X169418000Y-41910000D02*
X169428006Y-41959410D01*
X169456447Y-42001035D01*
X169498841Y-42028315D01*
X169545000Y-42037000D01*
X175615000Y-42037000D01*
X175615000Y-84328000D01*
X169545000Y-84328000D01*
X169495590Y-84338006D01*
X169453965Y-84366447D01*
X169426685Y-84408841D01*
X169418000Y-84455000D01*
X169418000Y-90580000D01*
X149222435Y-90580000D01*
X149340278Y-90462363D01*
X149589716Y-89861648D01*
X149590284Y-89211205D01*
X149341894Y-88610057D01*
X149275379Y-88543426D01*
X149406441Y-88459090D01*
X149551431Y-88246890D01*
X149602440Y-87995000D01*
X149602440Y-85995000D01*
X149558162Y-85759683D01*
X149419090Y-85543559D01*
X149206890Y-85398569D01*
X148955000Y-85347560D01*
X146955000Y-85347560D01*
X146719683Y-85391838D01*
X146503559Y-85530910D01*
X146358569Y-85743110D01*
X146307560Y-85995000D01*
X146307560Y-87995000D01*
X146351838Y-88230317D01*
X146490910Y-88446441D01*
X146633561Y-88543910D01*
X146569722Y-88607637D01*
X146320284Y-89208352D01*
X146319716Y-89858795D01*
X146568106Y-90459943D01*
X146687953Y-90580000D01*
X144777435Y-90580000D01*
X144895278Y-90462363D01*
X145144716Y-89861648D01*
X145145284Y-89211205D01*
X144896894Y-88610057D01*
X144830379Y-88543426D01*
X144961441Y-88459090D01*
X145106431Y-88246890D01*
X145157440Y-87995000D01*
X145157440Y-85995000D01*
X145113162Y-85759683D01*
X144974090Y-85543559D01*
X144761890Y-85398569D01*
X144510000Y-85347560D01*
X142510000Y-85347560D01*
X142274683Y-85391838D01*
X142058559Y-85530910D01*
X141913569Y-85743110D01*
X141862560Y-85995000D01*
X141862560Y-87995000D01*
X141906838Y-88230317D01*
X142045910Y-88446441D01*
X142188561Y-88543910D01*
X142124722Y-88607637D01*
X141875284Y-89208352D01*
X141874716Y-89858795D01*
X142123106Y-90459943D01*
X142242953Y-90580000D01*
X140332435Y-90580000D01*
X140450278Y-90462363D01*
X140699716Y-89861648D01*
X140700284Y-89211205D01*
X140451894Y-88610057D01*
X140385379Y-88543426D01*
X140516441Y-88459090D01*
X140661431Y-88246890D01*
X140712440Y-87995000D01*
X140712440Y-85995000D01*
X140668162Y-85759683D01*
X140529090Y-85543559D01*
X140316890Y-85398569D01*
X140065000Y-85347560D01*
X138065000Y-85347560D01*
X137829683Y-85391838D01*
X137613559Y-85530910D01*
X137468569Y-85743110D01*
X137417560Y-85995000D01*
X137417560Y-87995000D01*
X137461838Y-88230317D01*
X137600910Y-88446441D01*
X137743561Y-88543910D01*
X137679722Y-88607637D01*
X137430284Y-89208352D01*
X137429716Y-89858795D01*
X137678106Y-90459943D01*
X137797953Y-90580000D01*
X118237000Y-90580000D01*
X118237000Y-84455000D01*
X118226994Y-84405590D01*
X118198553Y-84363965D01*
X118156159Y-84336685D01*
X118110000Y-84328000D01*
X111985000Y-84328000D01*
X111985000Y-82873694D01*
X138700226Y-82873694D01*
X138948538Y-83474655D01*
X139407927Y-83934846D01*
X140008453Y-84184206D01*
X140658694Y-84184774D01*
X141259655Y-83936462D01*
X141719846Y-83477073D01*
X141922691Y-82988568D01*
X142123538Y-83474655D01*
X142582927Y-83934846D01*
X143183453Y-84184206D01*
X143833694Y-84184774D01*
X144434655Y-83936462D01*
X144894846Y-83477073D01*
X145097691Y-82988568D01*
X145298538Y-83474655D01*
X145757927Y-83934846D01*
X146358453Y-84184206D01*
X147008694Y-84184774D01*
X147609655Y-83936462D01*
X148069846Y-83477073D01*
X148319206Y-82876547D01*
X148319774Y-82226306D01*
X148071462Y-81625345D01*
X147612073Y-81165154D01*
X147011547Y-80915794D01*
X146361306Y-80915226D01*
X145760345Y-81163538D01*
X145300154Y-81622927D01*
X145097309Y-82111432D01*
X144896462Y-81625345D01*
X144437073Y-81165154D01*
X143836547Y-80915794D01*
X143186306Y-80915226D01*
X142585345Y-81163538D01*
X142125154Y-81622927D01*
X141922309Y-82111432D01*
X141721462Y-81625345D01*
X141262073Y-81165154D01*
X140661547Y-80915794D01*
X140011306Y-80915226D01*
X139410345Y-81163538D01*
X138950154Y-81622927D01*
X138700794Y-82223453D01*
X138700226Y-82873694D01*
X111985000Y-82873694D01*
X111985000Y-64415090D01*
X112649000Y-64415090D01*
X112649000Y-65119250D01*
X112807750Y-65278000D01*
X114173000Y-65278000D01*
X114173000Y-64065150D01*
X114427000Y-64065150D01*
X114427000Y-65278000D01*
X115792250Y-65278000D01*
X115951000Y-65119250D01*
X115951000Y-64415090D01*
X115854327Y-64181701D01*
X115675698Y-64003073D01*
X115442309Y-63906400D01*
X114585750Y-63906400D01*
X114427000Y-64065150D01*
X114173000Y-64065150D01*
X114014250Y-63906400D01*
X113157691Y-63906400D01*
X112924302Y-64003073D01*
X112745673Y-64181701D01*
X112649000Y-64415090D01*
X111985000Y-64415090D01*
X111985000Y-54419864D01*
X112005175Y-54450057D01*
X112126696Y-54631926D01*
X112788960Y-55294190D01*
X112788960Y-56896000D01*
X112833238Y-57131317D01*
X112972310Y-57347441D01*
X113184510Y-57492431D01*
X113436400Y-57543440D01*
X115163600Y-57543440D01*
X115398917Y-57499162D01*
X115615041Y-57360090D01*
X115760031Y-57147890D01*
X115768400Y-57106561D01*
X115780330Y-57124415D01*
X116266511Y-57449271D01*
X116840000Y-57563345D01*
X117413489Y-57449271D01*
X117899670Y-57124415D01*
X118106461Y-56814931D01*
X118477964Y-57230732D01*
X119005209Y-57484709D01*
X119020974Y-57487358D01*
X119253000Y-57366217D01*
X119253000Y-56007000D01*
X119507000Y-56007000D01*
X119507000Y-57366217D01*
X119739026Y-57487358D01*
X119754791Y-57484709D01*
X120282036Y-57230732D01*
X120671954Y-56794320D01*
X120865184Y-56241913D01*
X120720924Y-56007000D01*
X119507000Y-56007000D01*
X119253000Y-56007000D01*
X119233000Y-56007000D01*
X119233000Y-55753000D01*
X119253000Y-55753000D01*
X119253000Y-55733000D01*
X119507000Y-55733000D01*
X119507000Y-55753000D01*
X120720924Y-55753000D01*
X120865184Y-55518087D01*
X120671954Y-54965680D01*
X120282036Y-54529268D01*
X119811362Y-54302542D01*
X119953489Y-54274271D01*
X120439670Y-53949415D01*
X120646461Y-53639931D01*
X121017964Y-54055732D01*
X121545209Y-54309709D01*
X121560974Y-54312358D01*
X121793000Y-54191217D01*
X121793000Y-52832000D01*
X122047000Y-52832000D01*
X122047000Y-54191217D01*
X122279026Y-54312358D01*
X122294791Y-54309709D01*
X122822036Y-54055732D01*
X123211954Y-53619320D01*
X123405184Y-53066913D01*
X123260924Y-52832000D01*
X122047000Y-52832000D01*
X121793000Y-52832000D01*
X121773000Y-52832000D01*
X121773000Y-52578000D01*
X121793000Y-52578000D01*
X121793000Y-52558000D01*
X122047000Y-52558000D01*
X122047000Y-52578000D01*
X123260924Y-52578000D01*
X123405184Y-52343087D01*
X123211954Y-51790680D01*
X122822036Y-51354268D01*
X122294791Y-51100291D01*
X122279026Y-51097642D01*
X122047002Y-51218782D01*
X122047002Y-51054000D01*
X121956230Y-51054000D01*
X122718230Y-50292000D01*
X124757564Y-50292000D01*
X125049169Y-50233996D01*
X125296379Y-50068815D01*
X127254000Y-48111195D01*
X127254000Y-55056370D01*
X115951000Y-66359370D01*
X115951000Y-65690750D01*
X115792250Y-65532000D01*
X114427000Y-65532000D01*
X114427000Y-65552000D01*
X114173000Y-65552000D01*
X114173000Y-65532000D01*
X112807750Y-65532000D01*
X112649000Y-65690750D01*
X112649000Y-66394910D01*
X112745673Y-66628299D01*
X112924302Y-66806927D01*
X113077780Y-66870500D01*
X113055585Y-66885330D01*
X112730729Y-67371511D01*
X112616655Y-67945000D01*
X112730729Y-68518489D01*
X113055585Y-69004670D01*
X113370366Y-69215000D01*
X113055585Y-69425330D01*
X112730729Y-69911511D01*
X112616655Y-70485000D01*
X112730729Y-71058489D01*
X113055585Y-71544670D01*
X113370366Y-71755000D01*
X113055585Y-71965330D01*
X112730729Y-72451511D01*
X112616655Y-73025000D01*
X112730729Y-73598489D01*
X113055585Y-74084670D01*
X113370366Y-74295000D01*
X113055585Y-74505330D01*
X112730729Y-74991511D01*
X112616655Y-75565000D01*
X112730729Y-76138489D01*
X113055585Y-76624670D01*
X113370366Y-76835000D01*
X113055585Y-77045330D01*
X112730729Y-77531511D01*
X112616655Y-78105000D01*
X112730729Y-78678489D01*
X113055585Y-79164670D01*
X113541766Y-79489526D01*
X114115255Y-79603600D01*
X114484745Y-79603600D01*
X115058234Y-79489526D01*
X115544415Y-79164670D01*
X115869271Y-78678489D01*
X115983345Y-78105000D01*
X115869271Y-77531511D01*
X115544415Y-77045330D01*
X115229634Y-76835000D01*
X115544415Y-76624670D01*
X115869271Y-76138489D01*
X115983345Y-75565000D01*
X115869271Y-74991511D01*
X115544415Y-74505330D01*
X115229634Y-74295000D01*
X115544415Y-74084670D01*
X115869271Y-73598489D01*
X115983345Y-73025000D01*
X115869271Y-72451511D01*
X115544415Y-71965330D01*
X115229634Y-71755000D01*
X115544415Y-71544670D01*
X115869271Y-71058489D01*
X115983345Y-70485000D01*
X115869271Y-69911511D01*
X115544415Y-69425330D01*
X115229634Y-69215000D01*
X115544415Y-69004670D01*
X115820352Y-68591702D01*
X115981815Y-68483815D01*
X128028960Y-56436670D01*
X128028960Y-56896000D01*
X128073238Y-57131317D01*
X128212310Y-57347441D01*
X128424510Y-57492431D01*
X128676400Y-57543440D01*
X130073390Y-57543440D01*
X130073390Y-62890390D01*
X130131394Y-63181995D01*
X130296575Y-63429205D01*
X138768285Y-71900916D01*
X138700794Y-72063453D01*
X138700226Y-72713694D01*
X138948538Y-73314655D01*
X139407927Y-73774846D01*
X140008453Y-74024206D01*
X140658694Y-74024774D01*
X141259655Y-73776462D01*
X141719846Y-73317073D01*
X141922691Y-72828568D01*
X142123538Y-73314655D01*
X142582927Y-73774846D01*
X143183453Y-74024206D01*
X143833694Y-74024774D01*
X144434655Y-73776462D01*
X144894846Y-73317073D01*
X145097691Y-72828568D01*
X145298538Y-73314655D01*
X145757927Y-73774846D01*
X146358453Y-74024206D01*
X147008694Y-74024774D01*
X147609655Y-73776462D01*
X148069846Y-73317073D01*
X148138390Y-73152000D01*
X150502544Y-73152000D01*
X150794149Y-73093996D01*
X151041359Y-72928815D01*
X156025174Y-67945000D01*
X171036655Y-67945000D01*
X171150729Y-68518489D01*
X171475585Y-69004670D01*
X171790366Y-69215000D01*
X171475585Y-69425330D01*
X171150729Y-69911511D01*
X171036655Y-70485000D01*
X171150729Y-71058489D01*
X171475585Y-71544670D01*
X171790366Y-71755000D01*
X171475585Y-71965330D01*
X171150729Y-72451511D01*
X171036655Y-73025000D01*
X171150729Y-73598489D01*
X171475585Y-74084670D01*
X171790366Y-74295000D01*
X171475585Y-74505330D01*
X171150729Y-74991511D01*
X171036655Y-75565000D01*
X171150729Y-76138489D01*
X171475585Y-76624670D01*
X171790366Y-76835000D01*
X171475585Y-77045330D01*
X171150729Y-77531511D01*
X171036655Y-78105000D01*
X171150729Y-78678489D01*
X171475585Y-79164670D01*
X171961766Y-79489526D01*
X172535255Y-79603600D01*
X172904745Y-79603600D01*
X173478234Y-79489526D01*
X173964415Y-79164670D01*
X174289271Y-78678489D01*
X174403345Y-78105000D01*
X174289271Y-77531511D01*
X173964415Y-77045330D01*
X173649634Y-76835000D01*
X173964415Y-76624670D01*
X174289271Y-76138489D01*
X174403345Y-75565000D01*
X174289271Y-74991511D01*
X173964415Y-74505330D01*
X173649634Y-74295000D01*
X173964415Y-74084670D01*
X174289271Y-73598489D01*
X174403345Y-73025000D01*
X174289271Y-72451511D01*
X173964415Y-71965330D01*
X173649634Y-71755000D01*
X173964415Y-71544670D01*
X174289271Y-71058489D01*
X174403345Y-70485000D01*
X174289271Y-69911511D01*
X173964415Y-69425330D01*
X173649634Y-69215000D01*
X173964415Y-69004670D01*
X174289271Y-68518489D01*
X174403345Y-67945000D01*
X174289271Y-67371511D01*
X173964415Y-66885330D01*
X173942220Y-66870500D01*
X174095698Y-66806927D01*
X174274327Y-66628299D01*
X174371000Y-66394910D01*
X174371000Y-65690750D01*
X174212250Y-65532000D01*
X172847000Y-65532000D01*
X172847000Y-65552000D01*
X172593000Y-65552000D01*
X172593000Y-65532000D01*
X171227750Y-65532000D01*
X171069000Y-65690750D01*
X171069000Y-66394910D01*
X171165673Y-66628299D01*
X171344302Y-66806927D01*
X171497780Y-66870500D01*
X171475585Y-66885330D01*
X171150729Y-67371511D01*
X171036655Y-67945000D01*
X156025174Y-67945000D01*
X159555084Y-64415090D01*
X171069000Y-64415090D01*
X171069000Y-65119250D01*
X171227750Y-65278000D01*
X172593000Y-65278000D01*
X172593000Y-64065150D01*
X172847000Y-64065150D01*
X172847000Y-65278000D01*
X174212250Y-65278000D01*
X174371000Y-65119250D01*
X174371000Y-64415090D01*
X174274327Y-64181701D01*
X174095698Y-64003073D01*
X173862309Y-63906400D01*
X173005750Y-63906400D01*
X172847000Y-64065150D01*
X172593000Y-64065150D01*
X172434250Y-63906400D01*
X171577691Y-63906400D01*
X171344302Y-64003073D01*
X171165673Y-64181701D01*
X171069000Y-64415090D01*
X159555084Y-64415090D01*
X166739443Y-57230731D01*
X167066511Y-57449271D01*
X167640000Y-57563345D01*
X168213489Y-57449271D01*
X168699670Y-57124415D01*
X168910000Y-56809634D01*
X169120330Y-57124415D01*
X169606511Y-57449271D01*
X170180000Y-57563345D01*
X170753489Y-57449271D01*
X171239670Y-57124415D01*
X171446461Y-56814931D01*
X171817964Y-57230732D01*
X172345209Y-57484709D01*
X172360974Y-57487358D01*
X172593000Y-57366217D01*
X172593000Y-56007000D01*
X172847000Y-56007000D01*
X172847000Y-57366217D01*
X173079026Y-57487358D01*
X173094791Y-57484709D01*
X173622036Y-57230732D01*
X174011954Y-56794320D01*
X174205184Y-56241913D01*
X174060924Y-56007000D01*
X172847000Y-56007000D01*
X172593000Y-56007000D01*
X172573000Y-56007000D01*
X172573000Y-55753000D01*
X172593000Y-55753000D01*
X172593000Y-54393783D01*
X172847000Y-54393783D01*
X172847000Y-55753000D01*
X174060924Y-55753000D01*
X174205184Y-55518087D01*
X174011954Y-54965680D01*
X173622036Y-54529268D01*
X173094791Y-54275291D01*
X173079026Y-54272642D01*
X172847000Y-54393783D01*
X172593000Y-54393783D01*
X172360974Y-54272642D01*
X172345209Y-54275291D01*
X171817964Y-54529268D01*
X171446461Y-54945069D01*
X171239670Y-54635585D01*
X170753489Y-54310729D01*
X170180000Y-54196655D01*
X169606511Y-54310729D01*
X169120330Y-54635585D01*
X168910000Y-54950366D01*
X168699670Y-54635585D01*
X168213489Y-54310729D01*
X167640000Y-54196655D01*
X167066511Y-54310729D01*
X166739444Y-54529269D01*
X164820601Y-52610427D01*
X164820601Y-41553859D01*
X165354000Y-41659959D01*
X165927489Y-41545885D01*
X166413670Y-41221029D01*
X166629664Y-40897772D01*
X166687179Y-41020490D01*
X167119053Y-41414688D01*
X167534974Y-41586958D01*
X167767000Y-41465817D01*
X167767000Y-40259000D01*
X168021000Y-40259000D01*
X168021000Y-41465817D01*
X168253026Y-41586958D01*
X168668947Y-41414688D01*
X169100821Y-41020490D01*
X169348968Y-40491027D01*
X169228469Y-40259000D01*
X168021000Y-40259000D01*
X167767000Y-40259000D01*
X167747000Y-40259000D01*
X167747000Y-40005000D01*
X167767000Y-40005000D01*
X167767000Y-39985000D01*
X168021000Y-39985000D01*
X168021000Y-40005000D01*
X169228469Y-40005000D01*
X169348968Y-39772973D01*
X169100821Y-39243510D01*
X168682839Y-38861992D01*
X168953670Y-38681029D01*
X169278526Y-38194848D01*
X169392600Y-37621359D01*
X169392600Y-37562641D01*
X169278526Y-36989152D01*
X168953670Y-36502971D01*
X168467489Y-36178115D01*
X167894000Y-36064041D01*
X167320511Y-36178115D01*
X166834330Y-36502971D01*
X166624000Y-36817752D01*
X166413670Y-36502971D01*
X165927489Y-36178115D01*
X165354000Y-36064041D01*
X164780511Y-36178115D01*
X164294330Y-36502971D01*
X164084000Y-36817752D01*
X163873670Y-36502971D01*
X163387489Y-36178115D01*
X162814000Y-36064041D01*
X162240511Y-36178115D01*
X161754330Y-36502971D01*
X161538336Y-36826228D01*
X161480821Y-36703510D01*
X161048947Y-36309312D01*
X160633026Y-36137042D01*
X160401000Y-36258183D01*
X160401000Y-37465000D01*
X160421000Y-37465000D01*
X160421000Y-37719000D01*
X160401000Y-37719000D01*
X160401000Y-37739000D01*
X160147000Y-37739000D01*
X160147000Y-37719000D01*
X160127000Y-37719000D01*
X160127000Y-37465000D01*
X160147000Y-37465000D01*
X160147000Y-36258183D01*
X159914974Y-36137042D01*
X159499053Y-36309312D01*
X159067179Y-36703510D01*
X159009664Y-36826228D01*
X158793670Y-36502971D01*
X158307489Y-36178115D01*
X157734000Y-36064041D01*
X157160511Y-36178115D01*
X156674330Y-36502971D01*
X156458336Y-36826228D01*
X156400821Y-36703510D01*
X155968947Y-36309312D01*
X155553026Y-36137042D01*
X155321000Y-36258183D01*
X155321000Y-37465000D01*
X155341000Y-37465000D01*
X155341000Y-37719000D01*
X155321000Y-37719000D01*
X155321000Y-37739000D01*
X155067000Y-37739000D01*
X155067000Y-37719000D01*
X155047000Y-37719000D01*
X155047000Y-37465000D01*
X155067000Y-37465000D01*
X155067000Y-36258183D01*
X154834974Y-36137042D01*
X154419053Y-36309312D01*
X153987179Y-36703510D01*
X153929664Y-36826228D01*
X153713670Y-36502971D01*
X153227489Y-36178115D01*
X152654000Y-36064041D01*
X152080511Y-36178115D01*
X151594330Y-36502971D01*
X151384000Y-36817752D01*
X151173670Y-36502971D01*
X150687489Y-36178115D01*
X150114000Y-36064041D01*
X149540511Y-36178115D01*
X149054330Y-36502971D01*
X148844000Y-36817752D01*
X148633670Y-36502971D01*
X148147489Y-36178115D01*
X147574000Y-36064041D01*
X147000511Y-36178115D01*
X146514330Y-36502971D01*
X146304000Y-36817752D01*
X146093670Y-36502971D01*
X145607489Y-36178115D01*
X145034000Y-36064041D01*
X144460511Y-36178115D01*
X143974330Y-36502971D01*
X143758336Y-36826228D01*
X143700821Y-36703510D01*
X143268947Y-36309312D01*
X142853026Y-36137042D01*
X142621000Y-36258183D01*
X142621000Y-37465000D01*
X142641000Y-37465000D01*
X142641000Y-37719000D01*
X142621000Y-37719000D01*
X142621000Y-37739000D01*
X142367000Y-37739000D01*
X142367000Y-37719000D01*
X142347000Y-37719000D01*
X142347000Y-37465000D01*
X142367000Y-37465000D01*
X142367000Y-36258183D01*
X142134974Y-36137042D01*
X141719053Y-36309312D01*
X141287179Y-36703510D01*
X141229664Y-36826228D01*
X141013670Y-36502971D01*
X140527489Y-36178115D01*
X139954000Y-36064041D01*
X139380511Y-36178115D01*
X138894330Y-36502971D01*
X138684000Y-36817752D01*
X138473670Y-36502971D01*
X137987489Y-36178115D01*
X137414000Y-36064041D01*
X136840511Y-36178115D01*
X136354330Y-36502971D01*
X136138336Y-36826228D01*
X136080821Y-36703510D01*
X135648947Y-36309312D01*
X135233026Y-36137042D01*
X135001000Y-36258183D01*
X135001000Y-37465000D01*
X135021000Y-37465000D01*
X135021000Y-37719000D01*
X135001000Y-37719000D01*
X135001000Y-37739000D01*
X134747000Y-37739000D01*
X134747000Y-37719000D01*
X134727000Y-37719000D01*
X134727000Y-37465000D01*
X134747000Y-37465000D01*
X134747000Y-36258183D01*
X134514974Y-36137042D01*
X134099053Y-36309312D01*
X133667179Y-36703510D01*
X133609664Y-36826228D01*
X133393670Y-36502971D01*
X132907489Y-36178115D01*
X132334000Y-36064041D01*
X131760511Y-36178115D01*
X131274330Y-36502971D01*
X131064000Y-36817752D01*
X130853670Y-36502971D01*
X130367489Y-36178115D01*
X129794000Y-36064041D01*
X129220511Y-36178115D01*
X128734330Y-36502971D01*
X128524000Y-36817752D01*
X128313670Y-36502971D01*
X127827489Y-36178115D01*
X127254000Y-36064041D01*
X126680511Y-36178115D01*
X126194330Y-36502971D01*
X125978336Y-36826228D01*
X125920821Y-36703510D01*
X125488947Y-36309312D01*
X125073026Y-36137042D01*
X124841000Y-36258183D01*
X124841000Y-37465000D01*
X124861000Y-37465000D01*
X124861000Y-37719000D01*
X124841000Y-37719000D01*
X124841000Y-37739000D01*
X124587000Y-37739000D01*
X124587000Y-37719000D01*
X124567000Y-37719000D01*
X124567000Y-37465000D01*
X124587000Y-37465000D01*
X124587000Y-36258183D01*
X124354974Y-36137042D01*
X123939053Y-36309312D01*
X123507179Y-36703510D01*
X123449664Y-36826228D01*
X123233670Y-36502971D01*
X122747489Y-36178115D01*
X122174000Y-36064041D01*
X121600511Y-36178115D01*
X121114330Y-36502971D01*
X120904000Y-36817752D01*
X120693670Y-36502971D01*
X120207489Y-36178115D01*
X119634000Y-36064041D01*
X119060511Y-36178115D01*
X118574330Y-36502971D01*
X118249474Y-36989152D01*
X118135400Y-37562641D01*
X118135400Y-37621359D01*
X118249474Y-38194848D01*
X118560574Y-38660442D01*
X118535083Y-38665238D01*
X118318959Y-38804310D01*
X118173969Y-39016510D01*
X118122960Y-39268400D01*
X118122960Y-40995600D01*
X118167238Y-41230917D01*
X118306310Y-41447041D01*
X118518510Y-41592031D01*
X118770400Y-41643040D01*
X120497600Y-41643040D01*
X120732917Y-41598762D01*
X120949041Y-41459690D01*
X121094031Y-41247490D01*
X121102864Y-41203869D01*
X121114330Y-41221029D01*
X121600511Y-41545885D01*
X122174000Y-41659959D01*
X122747489Y-41545885D01*
X123233670Y-41221029D01*
X123444000Y-40906248D01*
X123654330Y-41221029D01*
X124140511Y-41545885D01*
X124235575Y-41564794D01*
X124127861Y-41672509D01*
X123162363Y-41672509D01*
X122870759Y-41730512D01*
X122623548Y-41895693D01*
X116301185Y-48218057D01*
X116136004Y-48465267D01*
X116078000Y-48756872D01*
X116078000Y-51261688D01*
X115780330Y-51460585D01*
X115770757Y-51474913D01*
X115766762Y-51453683D01*
X115627690Y-51237559D01*
X115415490Y-51092569D01*
X115163600Y-51041560D01*
X113436400Y-51041560D01*
X113427511Y-51043233D01*
X113427511Y-48624284D01*
X113988694Y-48624774D01*
X114589655Y-48376462D01*
X115049846Y-47917073D01*
X115299206Y-47316547D01*
X115299774Y-46666306D01*
X115051462Y-46065345D01*
X114592073Y-45605154D01*
X114118035Y-45408316D01*
X114538958Y-45233965D01*
X114637557Y-44967163D01*
X113665000Y-43994605D01*
X112692443Y-44967163D01*
X112791042Y-45233965D01*
X113235333Y-45399013D01*
X112740345Y-45603538D01*
X112280154Y-46062927D01*
X112030794Y-46663453D01*
X112030226Y-47313694D01*
X112102060Y-47487545D01*
X111985000Y-47662736D01*
X111985000Y-43550582D01*
X112019599Y-43550582D01*
X112043659Y-44200377D01*
X112246035Y-44688958D01*
X112512837Y-44787557D01*
X113485395Y-43815000D01*
X113844605Y-43815000D01*
X114817163Y-44787557D01*
X115083965Y-44688958D01*
X115310401Y-44079418D01*
X115286341Y-43429623D01*
X115083965Y-42941042D01*
X114817163Y-42842443D01*
X113844605Y-43815000D01*
X113485395Y-43815000D01*
X112512837Y-42842443D01*
X112246035Y-42941042D01*
X112019599Y-43550582D01*
X111985000Y-43550582D01*
X111985000Y-42662837D01*
X112692443Y-42662837D01*
X113665000Y-43635395D01*
X114637557Y-42662837D01*
X114538958Y-42396035D01*
X113929418Y-42169599D01*
X113279623Y-42193659D01*
X112791042Y-42396035D01*
X112692443Y-42662837D01*
X111985000Y-42662837D01*
X111985000Y-42037000D01*
X117475000Y-42037000D01*
X117524410Y-42026994D01*
X117566035Y-41998553D01*
X117593315Y-41956159D01*
X117602000Y-41910000D01*
X117602000Y-35950000D01*
X169418000Y-35950000D01*
X169418000Y-41910000D01*
X169418000Y-41910000D01*
G37*
X169418000Y-41910000D02*
X169428006Y-41959410D01*
X169456447Y-42001035D01*
X169498841Y-42028315D01*
X169545000Y-42037000D01*
X175615000Y-42037000D01*
X175615000Y-84328000D01*
X169545000Y-84328000D01*
X169495590Y-84338006D01*
X169453965Y-84366447D01*
X169426685Y-84408841D01*
X169418000Y-84455000D01*
X169418000Y-90580000D01*
X149222435Y-90580000D01*
X149340278Y-90462363D01*
X149589716Y-89861648D01*
X149590284Y-89211205D01*
X149341894Y-88610057D01*
X149275379Y-88543426D01*
X149406441Y-88459090D01*
X149551431Y-88246890D01*
X149602440Y-87995000D01*
X149602440Y-85995000D01*
X149558162Y-85759683D01*
X149419090Y-85543559D01*
X149206890Y-85398569D01*
X148955000Y-85347560D01*
X146955000Y-85347560D01*
X146719683Y-85391838D01*
X146503559Y-85530910D01*
X146358569Y-85743110D01*
X146307560Y-85995000D01*
X146307560Y-87995000D01*
X146351838Y-88230317D01*
X146490910Y-88446441D01*
X146633561Y-88543910D01*
X146569722Y-88607637D01*
X146320284Y-89208352D01*
X146319716Y-89858795D01*
X146568106Y-90459943D01*
X146687953Y-90580000D01*
X144777435Y-90580000D01*
X144895278Y-90462363D01*
X145144716Y-89861648D01*
X145145284Y-89211205D01*
X144896894Y-88610057D01*
X144830379Y-88543426D01*
X144961441Y-88459090D01*
X145106431Y-88246890D01*
X145157440Y-87995000D01*
X145157440Y-85995000D01*
X145113162Y-85759683D01*
X144974090Y-85543559D01*
X144761890Y-85398569D01*
X144510000Y-85347560D01*
X142510000Y-85347560D01*
X142274683Y-85391838D01*
X142058559Y-85530910D01*
X141913569Y-85743110D01*
X141862560Y-85995000D01*
X141862560Y-87995000D01*
X141906838Y-88230317D01*
X142045910Y-88446441D01*
X142188561Y-88543910D01*
X142124722Y-88607637D01*
X141875284Y-89208352D01*
X141874716Y-89858795D01*
X142123106Y-90459943D01*
X142242953Y-90580000D01*
X140332435Y-90580000D01*
X140450278Y-90462363D01*
X140699716Y-89861648D01*
X140700284Y-89211205D01*
X140451894Y-88610057D01*
X140385379Y-88543426D01*
X140516441Y-88459090D01*
X140661431Y-88246890D01*
X140712440Y-87995000D01*
X140712440Y-85995000D01*
X140668162Y-85759683D01*
X140529090Y-85543559D01*
X140316890Y-85398569D01*
X140065000Y-85347560D01*
X138065000Y-85347560D01*
X137829683Y-85391838D01*
X137613559Y-85530910D01*
X137468569Y-85743110D01*
X137417560Y-85995000D01*
X137417560Y-87995000D01*
X137461838Y-88230317D01*
X137600910Y-88446441D01*
X137743561Y-88543910D01*
X137679722Y-88607637D01*
X137430284Y-89208352D01*
X137429716Y-89858795D01*
X137678106Y-90459943D01*
X137797953Y-90580000D01*
X118237000Y-90580000D01*
X118237000Y-84455000D01*
X118226994Y-84405590D01*
X118198553Y-84363965D01*
X118156159Y-84336685D01*
X118110000Y-84328000D01*
X111985000Y-84328000D01*
X111985000Y-82873694D01*
X138700226Y-82873694D01*
X138948538Y-83474655D01*
X139407927Y-83934846D01*
X140008453Y-84184206D01*
X140658694Y-84184774D01*
X141259655Y-83936462D01*
X141719846Y-83477073D01*
X141922691Y-82988568D01*
X142123538Y-83474655D01*
X142582927Y-83934846D01*
X143183453Y-84184206D01*
X143833694Y-84184774D01*
X144434655Y-83936462D01*
X144894846Y-83477073D01*
X145097691Y-82988568D01*
X145298538Y-83474655D01*
X145757927Y-83934846D01*
X146358453Y-84184206D01*
X147008694Y-84184774D01*
X147609655Y-83936462D01*
X148069846Y-83477073D01*
X148319206Y-82876547D01*
X148319774Y-82226306D01*
X148071462Y-81625345D01*
X147612073Y-81165154D01*
X147011547Y-80915794D01*
X146361306Y-80915226D01*
X145760345Y-81163538D01*
X145300154Y-81622927D01*
X145097309Y-82111432D01*
X144896462Y-81625345D01*
X144437073Y-81165154D01*
X143836547Y-80915794D01*
X143186306Y-80915226D01*
X142585345Y-81163538D01*
X142125154Y-81622927D01*
X141922309Y-82111432D01*
X141721462Y-81625345D01*
X141262073Y-81165154D01*
X140661547Y-80915794D01*
X140011306Y-80915226D01*
X139410345Y-81163538D01*
X138950154Y-81622927D01*
X138700794Y-82223453D01*
X138700226Y-82873694D01*
X111985000Y-82873694D01*
X111985000Y-64415090D01*
X112649000Y-64415090D01*
X112649000Y-65119250D01*
X112807750Y-65278000D01*
X114173000Y-65278000D01*
X114173000Y-64065150D01*
X114427000Y-64065150D01*
X114427000Y-65278000D01*
X115792250Y-65278000D01*
X115951000Y-65119250D01*
X115951000Y-64415090D01*
X115854327Y-64181701D01*
X115675698Y-64003073D01*
X115442309Y-63906400D01*
X114585750Y-63906400D01*
X114427000Y-64065150D01*
X114173000Y-64065150D01*
X114014250Y-63906400D01*
X113157691Y-63906400D01*
X112924302Y-64003073D01*
X112745673Y-64181701D01*
X112649000Y-64415090D01*
X111985000Y-64415090D01*
X111985000Y-54419864D01*
X112005175Y-54450057D01*
X112126696Y-54631926D01*
X112788960Y-55294190D01*
X112788960Y-56896000D01*
X112833238Y-57131317D01*
X112972310Y-57347441D01*
X113184510Y-57492431D01*
X113436400Y-57543440D01*
X115163600Y-57543440D01*
X115398917Y-57499162D01*
X115615041Y-57360090D01*
X115760031Y-57147890D01*
X115768400Y-57106561D01*
X115780330Y-57124415D01*
X116266511Y-57449271D01*
X116840000Y-57563345D01*
X117413489Y-57449271D01*
X117899670Y-57124415D01*
X118106461Y-56814931D01*
X118477964Y-57230732D01*
X119005209Y-57484709D01*
X119020974Y-57487358D01*
X119253000Y-57366217D01*
X119253000Y-56007000D01*
X119507000Y-56007000D01*
X119507000Y-57366217D01*
X119739026Y-57487358D01*
X119754791Y-57484709D01*
X120282036Y-57230732D01*
X120671954Y-56794320D01*
X120865184Y-56241913D01*
X120720924Y-56007000D01*
X119507000Y-56007000D01*
X119253000Y-56007000D01*
X119233000Y-56007000D01*
X119233000Y-55753000D01*
X119253000Y-55753000D01*
X119253000Y-55733000D01*
X119507000Y-55733000D01*
X119507000Y-55753000D01*
X120720924Y-55753000D01*
X120865184Y-55518087D01*
X120671954Y-54965680D01*
X120282036Y-54529268D01*
X119811362Y-54302542D01*
X119953489Y-54274271D01*
X120439670Y-53949415D01*
X120646461Y-53639931D01*
X121017964Y-54055732D01*
X121545209Y-54309709D01*
X121560974Y-54312358D01*
X121793000Y-54191217D01*
X121793000Y-52832000D01*
X122047000Y-52832000D01*
X122047000Y-54191217D01*
X122279026Y-54312358D01*
X122294791Y-54309709D01*
X122822036Y-54055732D01*
X123211954Y-53619320D01*
X123405184Y-53066913D01*
X123260924Y-52832000D01*
X122047000Y-52832000D01*
X121793000Y-52832000D01*
X121773000Y-52832000D01*
X121773000Y-52578000D01*
X121793000Y-52578000D01*
X121793000Y-52558000D01*
X122047000Y-52558000D01*
X122047000Y-52578000D01*
X123260924Y-52578000D01*
X123405184Y-52343087D01*
X123211954Y-51790680D01*
X122822036Y-51354268D01*
X122294791Y-51100291D01*
X122279026Y-51097642D01*
X122047002Y-51218782D01*
X122047002Y-51054000D01*
X121956230Y-51054000D01*
X122718230Y-50292000D01*
X124757564Y-50292000D01*
X125049169Y-50233996D01*
X125296379Y-50068815D01*
X127254000Y-48111195D01*
X127254000Y-55056370D01*
X115951000Y-66359370D01*
X115951000Y-65690750D01*
X115792250Y-65532000D01*
X114427000Y-65532000D01*
X114427000Y-65552000D01*
X114173000Y-65552000D01*
X114173000Y-65532000D01*
X112807750Y-65532000D01*
X112649000Y-65690750D01*
X112649000Y-66394910D01*
X112745673Y-66628299D01*
X112924302Y-66806927D01*
X113077780Y-66870500D01*
X113055585Y-66885330D01*
X112730729Y-67371511D01*
X112616655Y-67945000D01*
X112730729Y-68518489D01*
X113055585Y-69004670D01*
X113370366Y-69215000D01*
X113055585Y-69425330D01*
X112730729Y-69911511D01*
X112616655Y-70485000D01*
X112730729Y-71058489D01*
X113055585Y-71544670D01*
X113370366Y-71755000D01*
X113055585Y-71965330D01*
X112730729Y-72451511D01*
X112616655Y-73025000D01*
X112730729Y-73598489D01*
X113055585Y-74084670D01*
X113370366Y-74295000D01*
X113055585Y-74505330D01*
X112730729Y-74991511D01*
X112616655Y-75565000D01*
X112730729Y-76138489D01*
X113055585Y-76624670D01*
X113370366Y-76835000D01*
X113055585Y-77045330D01*
X112730729Y-77531511D01*
X112616655Y-78105000D01*
X112730729Y-78678489D01*
X113055585Y-79164670D01*
X113541766Y-79489526D01*
X114115255Y-79603600D01*
X114484745Y-79603600D01*
X115058234Y-79489526D01*
X115544415Y-79164670D01*
X115869271Y-78678489D01*
X115983345Y-78105000D01*
X115869271Y-77531511D01*
X115544415Y-77045330D01*
X115229634Y-76835000D01*
X115544415Y-76624670D01*
X115869271Y-76138489D01*
X115983345Y-75565000D01*
X115869271Y-74991511D01*
X115544415Y-74505330D01*
X115229634Y-74295000D01*
X115544415Y-74084670D01*
X115869271Y-73598489D01*
X115983345Y-73025000D01*
X115869271Y-72451511D01*
X115544415Y-71965330D01*
X115229634Y-71755000D01*
X115544415Y-71544670D01*
X115869271Y-71058489D01*
X115983345Y-70485000D01*
X115869271Y-69911511D01*
X115544415Y-69425330D01*
X115229634Y-69215000D01*
X115544415Y-69004670D01*
X115820352Y-68591702D01*
X115981815Y-68483815D01*
X128028960Y-56436670D01*
X128028960Y-56896000D01*
X128073238Y-57131317D01*
X128212310Y-57347441D01*
X128424510Y-57492431D01*
X128676400Y-57543440D01*
X130073390Y-57543440D01*
X130073390Y-62890390D01*
X130131394Y-63181995D01*
X130296575Y-63429205D01*
X138768285Y-71900916D01*
X138700794Y-72063453D01*
X138700226Y-72713694D01*
X138948538Y-73314655D01*
X139407927Y-73774846D01*
X140008453Y-74024206D01*
X140658694Y-74024774D01*
X141259655Y-73776462D01*
X141719846Y-73317073D01*
X141922691Y-72828568D01*
X142123538Y-73314655D01*
X142582927Y-73774846D01*
X143183453Y-74024206D01*
X143833694Y-74024774D01*
X144434655Y-73776462D01*
X144894846Y-73317073D01*
X145097691Y-72828568D01*
X145298538Y-73314655D01*
X145757927Y-73774846D01*
X146358453Y-74024206D01*
X147008694Y-74024774D01*
X147609655Y-73776462D01*
X148069846Y-73317073D01*
X148138390Y-73152000D01*
X150502544Y-73152000D01*
X150794149Y-73093996D01*
X151041359Y-72928815D01*
X156025174Y-67945000D01*
X171036655Y-67945000D01*
X171150729Y-68518489D01*
X171475585Y-69004670D01*
X171790366Y-69215000D01*
X171475585Y-69425330D01*
X171150729Y-69911511D01*
X171036655Y-70485000D01*
X171150729Y-71058489D01*
X171475585Y-71544670D01*
X171790366Y-71755000D01*
X171475585Y-71965330D01*
X171150729Y-72451511D01*
X171036655Y-73025000D01*
X171150729Y-73598489D01*
X171475585Y-74084670D01*
X171790366Y-74295000D01*
X171475585Y-74505330D01*
X171150729Y-74991511D01*
X171036655Y-75565000D01*
X171150729Y-76138489D01*
X171475585Y-76624670D01*
X171790366Y-76835000D01*
X171475585Y-77045330D01*
X171150729Y-77531511D01*
X171036655Y-78105000D01*
X171150729Y-78678489D01*
X171475585Y-79164670D01*
X171961766Y-79489526D01*
X172535255Y-79603600D01*
X172904745Y-79603600D01*
X173478234Y-79489526D01*
X173964415Y-79164670D01*
X174289271Y-78678489D01*
X174403345Y-78105000D01*
X174289271Y-77531511D01*
X173964415Y-77045330D01*
X173649634Y-76835000D01*
X173964415Y-76624670D01*
X174289271Y-76138489D01*
X174403345Y-75565000D01*
X174289271Y-74991511D01*
X173964415Y-74505330D01*
X173649634Y-74295000D01*
X173964415Y-74084670D01*
X174289271Y-73598489D01*
X174403345Y-73025000D01*
X174289271Y-72451511D01*
X173964415Y-71965330D01*
X173649634Y-71755000D01*
X173964415Y-71544670D01*
X174289271Y-71058489D01*
X174403345Y-70485000D01*
X174289271Y-69911511D01*
X173964415Y-69425330D01*
X173649634Y-69215000D01*
X173964415Y-69004670D01*
X174289271Y-68518489D01*
X174403345Y-67945000D01*
X174289271Y-67371511D01*
X173964415Y-66885330D01*
X173942220Y-66870500D01*
X174095698Y-66806927D01*
X174274327Y-66628299D01*
X174371000Y-66394910D01*
X174371000Y-65690750D01*
X174212250Y-65532000D01*
X172847000Y-65532000D01*
X172847000Y-65552000D01*
X172593000Y-65552000D01*
X172593000Y-65532000D01*
X171227750Y-65532000D01*
X171069000Y-65690750D01*
X171069000Y-66394910D01*
X171165673Y-66628299D01*
X171344302Y-66806927D01*
X171497780Y-66870500D01*
X171475585Y-66885330D01*
X171150729Y-67371511D01*
X171036655Y-67945000D01*
X156025174Y-67945000D01*
X159555084Y-64415090D01*
X171069000Y-64415090D01*
X171069000Y-65119250D01*
X171227750Y-65278000D01*
X172593000Y-65278000D01*
X172593000Y-64065150D01*
X172847000Y-64065150D01*
X172847000Y-65278000D01*
X174212250Y-65278000D01*
X174371000Y-65119250D01*
X174371000Y-64415090D01*
X174274327Y-64181701D01*
X174095698Y-64003073D01*
X173862309Y-63906400D01*
X173005750Y-63906400D01*
X172847000Y-64065150D01*
X172593000Y-64065150D01*
X172434250Y-63906400D01*
X171577691Y-63906400D01*
X171344302Y-64003073D01*
X171165673Y-64181701D01*
X171069000Y-64415090D01*
X159555084Y-64415090D01*
X166739443Y-57230731D01*
X167066511Y-57449271D01*
X167640000Y-57563345D01*
X168213489Y-57449271D01*
X168699670Y-57124415D01*
X168910000Y-56809634D01*
X169120330Y-57124415D01*
X169606511Y-57449271D01*
X170180000Y-57563345D01*
X170753489Y-57449271D01*
X171239670Y-57124415D01*
X171446461Y-56814931D01*
X171817964Y-57230732D01*
X172345209Y-57484709D01*
X172360974Y-57487358D01*
X172593000Y-57366217D01*
X172593000Y-56007000D01*
X172847000Y-56007000D01*
X172847000Y-57366217D01*
X173079026Y-57487358D01*
X173094791Y-57484709D01*
X173622036Y-57230732D01*
X174011954Y-56794320D01*
X174205184Y-56241913D01*
X174060924Y-56007000D01*
X172847000Y-56007000D01*
X172593000Y-56007000D01*
X172573000Y-56007000D01*
X172573000Y-55753000D01*
X172593000Y-55753000D01*
X172593000Y-54393783D01*
X172847000Y-54393783D01*
X172847000Y-55753000D01*
X174060924Y-55753000D01*
X174205184Y-55518087D01*
X174011954Y-54965680D01*
X173622036Y-54529268D01*
X173094791Y-54275291D01*
X173079026Y-54272642D01*
X172847000Y-54393783D01*
X172593000Y-54393783D01*
X172360974Y-54272642D01*
X172345209Y-54275291D01*
X171817964Y-54529268D01*
X171446461Y-54945069D01*
X171239670Y-54635585D01*
X170753489Y-54310729D01*
X170180000Y-54196655D01*
X169606511Y-54310729D01*
X169120330Y-54635585D01*
X168910000Y-54950366D01*
X168699670Y-54635585D01*
X168213489Y-54310729D01*
X167640000Y-54196655D01*
X167066511Y-54310729D01*
X166739444Y-54529269D01*
X164820601Y-52610427D01*
X164820601Y-41553859D01*
X165354000Y-41659959D01*
X165927489Y-41545885D01*
X166413670Y-41221029D01*
X166629664Y-40897772D01*
X166687179Y-41020490D01*
X167119053Y-41414688D01*
X167534974Y-41586958D01*
X167767000Y-41465817D01*
X167767000Y-40259000D01*
X168021000Y-40259000D01*
X168021000Y-41465817D01*
X168253026Y-41586958D01*
X168668947Y-41414688D01*
X169100821Y-41020490D01*
X169348968Y-40491027D01*
X169228469Y-40259000D01*
X168021000Y-40259000D01*
X167767000Y-40259000D01*
X167747000Y-40259000D01*
X167747000Y-40005000D01*
X167767000Y-40005000D01*
X167767000Y-39985000D01*
X168021000Y-39985000D01*
X168021000Y-40005000D01*
X169228469Y-40005000D01*
X169348968Y-39772973D01*
X169100821Y-39243510D01*
X168682839Y-38861992D01*
X168953670Y-38681029D01*
X169278526Y-38194848D01*
X169392600Y-37621359D01*
X169392600Y-37562641D01*
X169278526Y-36989152D01*
X168953670Y-36502971D01*
X168467489Y-36178115D01*
X167894000Y-36064041D01*
X167320511Y-36178115D01*
X166834330Y-36502971D01*
X166624000Y-36817752D01*
X166413670Y-36502971D01*
X165927489Y-36178115D01*
X165354000Y-36064041D01*
X164780511Y-36178115D01*
X164294330Y-36502971D01*
X164084000Y-36817752D01*
X163873670Y-36502971D01*
X163387489Y-36178115D01*
X162814000Y-36064041D01*
X162240511Y-36178115D01*
X161754330Y-36502971D01*
X161538336Y-36826228D01*
X161480821Y-36703510D01*
X161048947Y-36309312D01*
X160633026Y-36137042D01*
X160401000Y-36258183D01*
X160401000Y-37465000D01*
X160421000Y-37465000D01*
X160421000Y-37719000D01*
X160401000Y-37719000D01*
X160401000Y-37739000D01*
X160147000Y-37739000D01*
X160147000Y-37719000D01*
X160127000Y-37719000D01*
X160127000Y-37465000D01*
X160147000Y-37465000D01*
X160147000Y-36258183D01*
X159914974Y-36137042D01*
X159499053Y-36309312D01*
X159067179Y-36703510D01*
X159009664Y-36826228D01*
X158793670Y-36502971D01*
X158307489Y-36178115D01*
X157734000Y-36064041D01*
X157160511Y-36178115D01*
X156674330Y-36502971D01*
X156458336Y-36826228D01*
X156400821Y-36703510D01*
X155968947Y-36309312D01*
X155553026Y-36137042D01*
X155321000Y-36258183D01*
X155321000Y-37465000D01*
X155341000Y-37465000D01*
X155341000Y-37719000D01*
X155321000Y-37719000D01*
X155321000Y-37739000D01*
X155067000Y-37739000D01*
X155067000Y-37719000D01*
X155047000Y-37719000D01*
X155047000Y-37465000D01*
X155067000Y-37465000D01*
X155067000Y-36258183D01*
X154834974Y-36137042D01*
X154419053Y-36309312D01*
X153987179Y-36703510D01*
X153929664Y-36826228D01*
X153713670Y-36502971D01*
X153227489Y-36178115D01*
X152654000Y-36064041D01*
X152080511Y-36178115D01*
X151594330Y-36502971D01*
X151384000Y-36817752D01*
X151173670Y-36502971D01*
X150687489Y-36178115D01*
X150114000Y-36064041D01*
X149540511Y-36178115D01*
X149054330Y-36502971D01*
X148844000Y-36817752D01*
X148633670Y-36502971D01*
X148147489Y-36178115D01*
X147574000Y-36064041D01*
X147000511Y-36178115D01*
X146514330Y-36502971D01*
X146304000Y-36817752D01*
X146093670Y-36502971D01*
X145607489Y-36178115D01*
X145034000Y-36064041D01*
X144460511Y-36178115D01*
X143974330Y-36502971D01*
X143758336Y-36826228D01*
X143700821Y-36703510D01*
X143268947Y-36309312D01*
X142853026Y-36137042D01*
X142621000Y-36258183D01*
X142621000Y-37465000D01*
X142641000Y-37465000D01*
X142641000Y-37719000D01*
X142621000Y-37719000D01*
X142621000Y-37739000D01*
X142367000Y-37739000D01*
X142367000Y-37719000D01*
X142347000Y-37719000D01*
X142347000Y-37465000D01*
X142367000Y-37465000D01*
X142367000Y-36258183D01*
X142134974Y-36137042D01*
X141719053Y-36309312D01*
X141287179Y-36703510D01*
X141229664Y-36826228D01*
X141013670Y-36502971D01*
X140527489Y-36178115D01*
X139954000Y-36064041D01*
X139380511Y-36178115D01*
X138894330Y-36502971D01*
X138684000Y-36817752D01*
X138473670Y-36502971D01*
X137987489Y-36178115D01*
X137414000Y-36064041D01*
X136840511Y-36178115D01*
X136354330Y-36502971D01*
X136138336Y-36826228D01*
X136080821Y-36703510D01*
X135648947Y-36309312D01*
X135233026Y-36137042D01*
X135001000Y-36258183D01*
X135001000Y-37465000D01*
X135021000Y-37465000D01*
X135021000Y-37719000D01*
X135001000Y-37719000D01*
X135001000Y-37739000D01*
X134747000Y-37739000D01*
X134747000Y-37719000D01*
X134727000Y-37719000D01*
X134727000Y-37465000D01*
X134747000Y-37465000D01*
X134747000Y-36258183D01*
X134514974Y-36137042D01*
X134099053Y-36309312D01*
X133667179Y-36703510D01*
X133609664Y-36826228D01*
X133393670Y-36502971D01*
X132907489Y-36178115D01*
X132334000Y-36064041D01*
X131760511Y-36178115D01*
X131274330Y-36502971D01*
X131064000Y-36817752D01*
X130853670Y-36502971D01*
X130367489Y-36178115D01*
X129794000Y-36064041D01*
X129220511Y-36178115D01*
X128734330Y-36502971D01*
X128524000Y-36817752D01*
X128313670Y-36502971D01*
X127827489Y-36178115D01*
X127254000Y-36064041D01*
X126680511Y-36178115D01*
X126194330Y-36502971D01*
X125978336Y-36826228D01*
X125920821Y-36703510D01*
X125488947Y-36309312D01*
X125073026Y-36137042D01*
X124841000Y-36258183D01*
X124841000Y-37465000D01*
X124861000Y-37465000D01*
X124861000Y-37719000D01*
X124841000Y-37719000D01*
X124841000Y-37739000D01*
X124587000Y-37739000D01*
X124587000Y-37719000D01*
X124567000Y-37719000D01*
X124567000Y-37465000D01*
X124587000Y-37465000D01*
X124587000Y-36258183D01*
X124354974Y-36137042D01*
X123939053Y-36309312D01*
X123507179Y-36703510D01*
X123449664Y-36826228D01*
X123233670Y-36502971D01*
X122747489Y-36178115D01*
X122174000Y-36064041D01*
X121600511Y-36178115D01*
X121114330Y-36502971D01*
X120904000Y-36817752D01*
X120693670Y-36502971D01*
X120207489Y-36178115D01*
X119634000Y-36064041D01*
X119060511Y-36178115D01*
X118574330Y-36502971D01*
X118249474Y-36989152D01*
X118135400Y-37562641D01*
X118135400Y-37621359D01*
X118249474Y-38194848D01*
X118560574Y-38660442D01*
X118535083Y-38665238D01*
X118318959Y-38804310D01*
X118173969Y-39016510D01*
X118122960Y-39268400D01*
X118122960Y-40995600D01*
X118167238Y-41230917D01*
X118306310Y-41447041D01*
X118518510Y-41592031D01*
X118770400Y-41643040D01*
X120497600Y-41643040D01*
X120732917Y-41598762D01*
X120949041Y-41459690D01*
X121094031Y-41247490D01*
X121102864Y-41203869D01*
X121114330Y-41221029D01*
X121600511Y-41545885D01*
X122174000Y-41659959D01*
X122747489Y-41545885D01*
X123233670Y-41221029D01*
X123444000Y-40906248D01*
X123654330Y-41221029D01*
X124140511Y-41545885D01*
X124235575Y-41564794D01*
X124127861Y-41672509D01*
X123162363Y-41672509D01*
X122870759Y-41730512D01*
X122623548Y-41895693D01*
X116301185Y-48218057D01*
X116136004Y-48465267D01*
X116078000Y-48756872D01*
X116078000Y-51261688D01*
X115780330Y-51460585D01*
X115770757Y-51474913D01*
X115766762Y-51453683D01*
X115627690Y-51237559D01*
X115415490Y-51092569D01*
X115163600Y-51041560D01*
X113436400Y-51041560D01*
X113427511Y-51043233D01*
X113427511Y-48624284D01*
X113988694Y-48624774D01*
X114589655Y-48376462D01*
X115049846Y-47917073D01*
X115299206Y-47316547D01*
X115299774Y-46666306D01*
X115051462Y-46065345D01*
X114592073Y-45605154D01*
X114118035Y-45408316D01*
X114538958Y-45233965D01*
X114637557Y-44967163D01*
X113665000Y-43994605D01*
X112692443Y-44967163D01*
X112791042Y-45233965D01*
X113235333Y-45399013D01*
X112740345Y-45603538D01*
X112280154Y-46062927D01*
X112030794Y-46663453D01*
X112030226Y-47313694D01*
X112102060Y-47487545D01*
X111985000Y-47662736D01*
X111985000Y-43550582D01*
X112019599Y-43550582D01*
X112043659Y-44200377D01*
X112246035Y-44688958D01*
X112512837Y-44787557D01*
X113485395Y-43815000D01*
X113844605Y-43815000D01*
X114817163Y-44787557D01*
X115083965Y-44688958D01*
X115310401Y-44079418D01*
X115286341Y-43429623D01*
X115083965Y-42941042D01*
X114817163Y-42842443D01*
X113844605Y-43815000D01*
X113485395Y-43815000D01*
X112512837Y-42842443D01*
X112246035Y-42941042D01*
X112019599Y-43550582D01*
X111985000Y-43550582D01*
X111985000Y-42662837D01*
X112692443Y-42662837D01*
X113665000Y-43635395D01*
X114637557Y-42662837D01*
X114538958Y-42396035D01*
X113929418Y-42169599D01*
X113279623Y-42193659D01*
X112791042Y-42396035D01*
X112692443Y-42662837D01*
X111985000Y-42662837D01*
X111985000Y-42037000D01*
X117475000Y-42037000D01*
X117524410Y-42026994D01*
X117566035Y-41998553D01*
X117593315Y-41956159D01*
X117602000Y-41910000D01*
X117602000Y-35950000D01*
X169418000Y-35950000D01*
X169418000Y-41910000D01*
G36*
X141434330Y-41221029D02*
X141920511Y-41545885D01*
X142494000Y-41659959D01*
X142976601Y-41563964D01*
X142976601Y-44533224D01*
X132981038Y-54528787D01*
X132454791Y-54275291D01*
X132439026Y-54272642D01*
X132207000Y-54393783D01*
X132207000Y-55753000D01*
X132227000Y-55753000D01*
X132227000Y-56007000D01*
X132207000Y-56007000D01*
X132207000Y-57366217D01*
X132439026Y-57487358D01*
X132454791Y-57484709D01*
X132613390Y-57408311D01*
X132613390Y-62255390D01*
X132671394Y-62546995D01*
X132706000Y-62598786D01*
X132836575Y-62794205D01*
X140895175Y-70852805D01*
X140661547Y-70755794D01*
X140011306Y-70755226D01*
X139846113Y-70823482D01*
X131597390Y-62574760D01*
X131597390Y-57432772D01*
X131705209Y-57484709D01*
X131720974Y-57487358D01*
X131953000Y-57366217D01*
X131953000Y-56007000D01*
X131933000Y-56007000D01*
X131933000Y-55753000D01*
X131953000Y-55753000D01*
X131953000Y-54393783D01*
X131720974Y-54272642D01*
X131705209Y-54275291D01*
X131597390Y-54327228D01*
X131597390Y-53630240D01*
X139248214Y-45979417D01*
X139413395Y-45732206D01*
X139438667Y-45605154D01*
X139471399Y-45440601D01*
X139471399Y-41563964D01*
X139954000Y-41659959D01*
X140527489Y-41545885D01*
X141013670Y-41221029D01*
X141224000Y-40906248D01*
X141434330Y-41221029D01*
X141434330Y-41221029D01*
G37*
X141434330Y-41221029D02*
X141920511Y-41545885D01*
X142494000Y-41659959D01*
X142976601Y-41563964D01*
X142976601Y-44533224D01*
X132981038Y-54528787D01*
X132454791Y-54275291D01*
X132439026Y-54272642D01*
X132207000Y-54393783D01*
X132207000Y-55753000D01*
X132227000Y-55753000D01*
X132227000Y-56007000D01*
X132207000Y-56007000D01*
X132207000Y-57366217D01*
X132439026Y-57487358D01*
X132454791Y-57484709D01*
X132613390Y-57408311D01*
X132613390Y-62255390D01*
X132671394Y-62546995D01*
X132706000Y-62598786D01*
X132836575Y-62794205D01*
X140895175Y-70852805D01*
X140661547Y-70755794D01*
X140011306Y-70755226D01*
X139846113Y-70823482D01*
X131597390Y-62574760D01*
X131597390Y-57432772D01*
X131705209Y-57484709D01*
X131720974Y-57487358D01*
X131953000Y-57366217D01*
X131953000Y-56007000D01*
X131933000Y-56007000D01*
X131933000Y-55753000D01*
X131953000Y-55753000D01*
X131953000Y-54393783D01*
X131720974Y-54272642D01*
X131705209Y-54275291D01*
X131597390Y-54327228D01*
X131597390Y-53630240D01*
X139248214Y-45979417D01*
X139413395Y-45732206D01*
X139438667Y-45605154D01*
X139471399Y-45440601D01*
X139471399Y-41563964D01*
X139954000Y-41659959D01*
X140527489Y-41545885D01*
X141013670Y-41221029D01*
X141224000Y-40906248D01*
X141434330Y-41221029D01*
G36*
X148348960Y-56515010D02*
X146169656Y-56515010D01*
X146265184Y-56241913D01*
X146120924Y-56007000D01*
X144907000Y-56007000D01*
X144907000Y-56027000D01*
X144653000Y-56027000D01*
X144653000Y-56007000D01*
X144633000Y-56007000D01*
X144633000Y-55753000D01*
X144653000Y-55753000D01*
X144653000Y-55733000D01*
X144907000Y-55733000D01*
X144907000Y-55753000D01*
X146120924Y-55753000D01*
X146265184Y-55518087D01*
X146169659Y-55244999D01*
X148348960Y-55244999D01*
X148348960Y-56515010D01*
X148348960Y-56515010D01*
G37*
X148348960Y-56515010D02*
X146169656Y-56515010D01*
X146265184Y-56241913D01*
X146120924Y-56007000D01*
X144907000Y-56007000D01*
X144907000Y-56027000D01*
X144653000Y-56027000D01*
X144653000Y-56007000D01*
X144633000Y-56007000D01*
X144633000Y-55753000D01*
X144653000Y-55753000D01*
X144653000Y-55733000D01*
X144907000Y-55733000D01*
X144907000Y-55753000D01*
X146120924Y-55753000D01*
X146265184Y-55518087D01*
X146169659Y-55244999D01*
X148348960Y-55244999D01*
X148348960Y-56515010D01*
G36*
X152527000Y-55753000D02*
X152547000Y-55753000D01*
X152547000Y-56007000D01*
X152527000Y-56007000D01*
X152527000Y-56027000D01*
X152273000Y-56027000D01*
X152273000Y-56007000D01*
X152253000Y-56007000D01*
X152253000Y-55753000D01*
X152273000Y-55753000D01*
X152273000Y-55733000D01*
X152527000Y-55733000D01*
X152527000Y-55753000D01*
X152527000Y-55753000D01*
G37*
X152527000Y-55753000D02*
X152547000Y-55753000D01*
X152547000Y-56007000D01*
X152527000Y-56007000D01*
X152527000Y-56027000D01*
X152273000Y-56027000D01*
X152273000Y-56007000D01*
X152253000Y-56007000D01*
X152253000Y-55753000D01*
X152273000Y-55753000D01*
X152273000Y-55733000D01*
X152527000Y-55733000D01*
X152527000Y-55753000D01*
G36*
X150241000Y-40005000D02*
X150261000Y-40005000D01*
X150261000Y-40259000D01*
X150241000Y-40259000D01*
X150241000Y-41465817D01*
X150473026Y-41586958D01*
X150888947Y-41414688D01*
X151320821Y-41020490D01*
X151378336Y-40897772D01*
X151594330Y-41221029D01*
X152080511Y-41545885D01*
X152654000Y-41659959D01*
X153227489Y-41545885D01*
X153713670Y-41221029D01*
X153924000Y-40906248D01*
X154134330Y-41221029D01*
X154620511Y-41545885D01*
X155194000Y-41659959D01*
X155767489Y-41545885D01*
X156253670Y-41221029D01*
X156464000Y-40906248D01*
X156674330Y-41221029D01*
X157160511Y-41545885D01*
X157734000Y-41659959D01*
X158307489Y-41545885D01*
X158793670Y-41221029D01*
X159004000Y-40906248D01*
X159214330Y-41221029D01*
X159700511Y-41545885D01*
X160274000Y-41659959D01*
X160847489Y-41545885D01*
X161333670Y-41221029D01*
X161544000Y-40906248D01*
X161754330Y-41221029D01*
X162240511Y-41545885D01*
X162814000Y-41659959D01*
X163296601Y-41563964D01*
X163296601Y-52926057D01*
X163354605Y-53217662D01*
X163419384Y-53314610D01*
X163519786Y-53464872D01*
X163775913Y-53720999D01*
X143484601Y-53720999D01*
X143192996Y-53779003D01*
X143093978Y-53845165D01*
X142945786Y-53944183D01*
X142618105Y-54271865D01*
X142240000Y-54196655D01*
X141666511Y-54310729D01*
X141180330Y-54635585D01*
X140970000Y-54950366D01*
X140759670Y-54635585D01*
X140273489Y-54310729D01*
X139700000Y-54196655D01*
X139126511Y-54310729D01*
X138640330Y-54635585D01*
X138430000Y-54950366D01*
X138219670Y-54635585D01*
X137733489Y-54310729D01*
X137217198Y-54208032D01*
X148112815Y-43312416D01*
X148277996Y-43065205D01*
X148296272Y-42973324D01*
X148336000Y-42773600D01*
X148336000Y-41419926D01*
X148633670Y-41221029D01*
X148849664Y-40897772D01*
X148907179Y-41020490D01*
X149339053Y-41414688D01*
X149754974Y-41586958D01*
X149987000Y-41465817D01*
X149987000Y-40259000D01*
X149967000Y-40259000D01*
X149967000Y-40005000D01*
X149987000Y-40005000D01*
X149987000Y-39985000D01*
X150241000Y-39985000D01*
X150241000Y-40005000D01*
X150241000Y-40005000D01*
G37*
X150241000Y-40005000D02*
X150261000Y-40005000D01*
X150261000Y-40259000D01*
X150241000Y-40259000D01*
X150241000Y-41465817D01*
X150473026Y-41586958D01*
X150888947Y-41414688D01*
X151320821Y-41020490D01*
X151378336Y-40897772D01*
X151594330Y-41221029D01*
X152080511Y-41545885D01*
X152654000Y-41659959D01*
X153227489Y-41545885D01*
X153713670Y-41221029D01*
X153924000Y-40906248D01*
X154134330Y-41221029D01*
X154620511Y-41545885D01*
X155194000Y-41659959D01*
X155767489Y-41545885D01*
X156253670Y-41221029D01*
X156464000Y-40906248D01*
X156674330Y-41221029D01*
X157160511Y-41545885D01*
X157734000Y-41659959D01*
X158307489Y-41545885D01*
X158793670Y-41221029D01*
X159004000Y-40906248D01*
X159214330Y-41221029D01*
X159700511Y-41545885D01*
X160274000Y-41659959D01*
X160847489Y-41545885D01*
X161333670Y-41221029D01*
X161544000Y-40906248D01*
X161754330Y-41221029D01*
X162240511Y-41545885D01*
X162814000Y-41659959D01*
X163296601Y-41563964D01*
X163296601Y-52926057D01*
X163354605Y-53217662D01*
X163419384Y-53314610D01*
X163519786Y-53464872D01*
X163775913Y-53720999D01*
X143484601Y-53720999D01*
X143192996Y-53779003D01*
X143093978Y-53845165D01*
X142945786Y-53944183D01*
X142618105Y-54271865D01*
X142240000Y-54196655D01*
X141666511Y-54310729D01*
X141180330Y-54635585D01*
X140970000Y-54950366D01*
X140759670Y-54635585D01*
X140273489Y-54310729D01*
X139700000Y-54196655D01*
X139126511Y-54310729D01*
X138640330Y-54635585D01*
X138430000Y-54950366D01*
X138219670Y-54635585D01*
X137733489Y-54310729D01*
X137217198Y-54208032D01*
X148112815Y-43312416D01*
X148277996Y-43065205D01*
X148296272Y-42973324D01*
X148336000Y-42773600D01*
X148336000Y-41419926D01*
X148633670Y-41221029D01*
X148849664Y-40897772D01*
X148907179Y-41020490D01*
X149339053Y-41414688D01*
X149754974Y-41586958D01*
X149987000Y-41465817D01*
X149987000Y-40259000D01*
X149967000Y-40259000D01*
X149967000Y-40005000D01*
X149987000Y-40005000D01*
X149987000Y-39985000D01*
X150241000Y-39985000D01*
X150241000Y-40005000D01*
G36*
X129921000Y-40005000D02*
X129941000Y-40005000D01*
X129941000Y-40259000D01*
X129921000Y-40259000D01*
X129921000Y-41465817D01*
X130153026Y-41586958D01*
X130568947Y-41414688D01*
X131000821Y-41020490D01*
X131058336Y-40897772D01*
X131274330Y-41221029D01*
X131760511Y-41545885D01*
X132279292Y-41649077D01*
X129311399Y-44616971D01*
X129311399Y-41535775D01*
X129434974Y-41586958D01*
X129667000Y-41465817D01*
X129667000Y-40259000D01*
X129647000Y-40259000D01*
X129647000Y-40005000D01*
X129667000Y-40005000D01*
X129667000Y-39985000D01*
X129921000Y-39985000D01*
X129921000Y-40005000D01*
X129921000Y-40005000D01*
G37*
X129921000Y-40005000D02*
X129941000Y-40005000D01*
X129941000Y-40259000D01*
X129921000Y-40259000D01*
X129921000Y-41465817D01*
X130153026Y-41586958D01*
X130568947Y-41414688D01*
X131000821Y-41020490D01*
X131058336Y-40897772D01*
X131274330Y-41221029D01*
X131760511Y-41545885D01*
X132279292Y-41649077D01*
X129311399Y-44616971D01*
X129311399Y-41535775D01*
X129434974Y-41586958D01*
X129667000Y-41465817D01*
X129667000Y-40259000D01*
X129647000Y-40259000D01*
X129647000Y-40005000D01*
X129667000Y-40005000D01*
X129667000Y-39985000D01*
X129921000Y-39985000D01*
X129921000Y-40005000D01*
M02*
