G04 #@! TF.GenerationSoftware,KiCad,Pcbnew,(5.1.0-0)*
G04 #@! TF.CreationDate,2019-04-27T17:28:38+08:00*
G04 #@! TF.ProjectId,RASPmini,52415350-6d69-46e6-992e-6b696361645f,rev?*
G04 #@! TF.SameCoordinates,Original*
G04 #@! TF.FileFunction,Copper,L2,Bot*
G04 #@! TF.FilePolarity,Positive*
%FSLAX46Y46*%
G04 Gerber Fmt 4.6, Leading zero omitted, Abs format (unit mm)*
G04 Created by KiCad (PCBNEW (5.1.0-0)) date 2019-04-27 17:28:38*
%MOMM*%
%LPD*%
G04 APERTURE LIST*
%ADD10R,1.727200X1.727200*%
%ADD11O,1.727200X1.727200*%
%ADD12C,1.998980*%
%ADD13R,1.727200X2.032000*%
%ADD14O,1.727200X2.032000*%
%ADD15R,2.000000X2.000000*%
%ADD16C,2.000000*%
%ADD17O,2.032000X1.727200*%
%ADD18R,2.032000X1.727200*%
%ADD19C,0.254000*%
G04 APERTURE END LIST*
D10*
X119634000Y-40132000D03*
D11*
X119634000Y-37592000D03*
X122174000Y-40132000D03*
X122174000Y-37592000D03*
X124714000Y-40132000D03*
X124714000Y-37592000D03*
X127254000Y-40132000D03*
X127254000Y-37592000D03*
X129794000Y-40132000D03*
X129794000Y-37592000D03*
X132334000Y-40132000D03*
X132334000Y-37592000D03*
X134874000Y-40132000D03*
X134874000Y-37592000D03*
X137414000Y-40132000D03*
X137414000Y-37592000D03*
X139954000Y-40132000D03*
X139954000Y-37592000D03*
X142494000Y-40132000D03*
X142494000Y-37592000D03*
X145034000Y-40132000D03*
X145034000Y-37592000D03*
X147574000Y-40132000D03*
X147574000Y-37592000D03*
X150114000Y-40132000D03*
X150114000Y-37592000D03*
X152654000Y-40132000D03*
X152654000Y-37592000D03*
X155194000Y-40132000D03*
X155194000Y-37592000D03*
X157734000Y-40132000D03*
X157734000Y-37592000D03*
X160274000Y-40132000D03*
X160274000Y-37592000D03*
X162814000Y-40132000D03*
X162814000Y-37592000D03*
X165354000Y-40132000D03*
X165354000Y-37592000D03*
X167894000Y-40132000D03*
X167894000Y-37592000D03*
D12*
X140335000Y-82550000D03*
X140335000Y-72390000D03*
D13*
X114300000Y-52705000D03*
D14*
X116840000Y-52705000D03*
X119380000Y-52705000D03*
X121920000Y-52705000D03*
D13*
X114300000Y-55880000D03*
D14*
X116840000Y-55880000D03*
X119380000Y-55880000D03*
D15*
X139065000Y-86995000D03*
D16*
X139065000Y-89535000D03*
D15*
X143510000Y-86995000D03*
D16*
X143510000Y-89535000D03*
D15*
X147955000Y-86995000D03*
D16*
X147955000Y-89535000D03*
D12*
X143510000Y-82550000D03*
X143510000Y-72390000D03*
X146685000Y-82550000D03*
X146685000Y-72390000D03*
X113665000Y-46990000D03*
X123825000Y-46990000D03*
X123825000Y-43815000D03*
X113665000Y-43815000D03*
D17*
X114300000Y-67945000D03*
D18*
X114300000Y-65405000D03*
D17*
X114300000Y-70485000D03*
X114300000Y-73025000D03*
X114300000Y-75565000D03*
X114300000Y-78105000D03*
X172720000Y-78105000D03*
X172720000Y-75565000D03*
X172720000Y-73025000D03*
X172720000Y-70485000D03*
D18*
X172720000Y-65405000D03*
D17*
X172720000Y-67945000D03*
D13*
X129540000Y-55880000D03*
D14*
X132080000Y-55880000D03*
X134620000Y-55880000D03*
X137160000Y-55880000D03*
X139700000Y-55880000D03*
X142240000Y-55880000D03*
X144780000Y-55880000D03*
D13*
X149860000Y-55880000D03*
D14*
X152400000Y-55880000D03*
X154940000Y-55880000D03*
X157480000Y-55880000D03*
X160020000Y-55880000D03*
X162560000Y-55880000D03*
X165100000Y-55880000D03*
X167640000Y-55880000D03*
X170180000Y-55880000D03*
X172720000Y-55880000D03*
D19*
X127254000Y-40386000D02*
X124824489Y-42815511D01*
X127254000Y-40132000D02*
X127254000Y-40386000D01*
X124824489Y-42815511D02*
X123825000Y-43815000D01*
X123825000Y-46990000D02*
X123825000Y-43815000D01*
X116840000Y-52705000D02*
X116840000Y-48756872D01*
X116840000Y-48756872D02*
X123162363Y-42434509D01*
X123162363Y-42434509D02*
X124443491Y-42434509D01*
X124443491Y-42434509D02*
X126009399Y-40868601D01*
X126009399Y-40868601D02*
X126009399Y-38836601D01*
X126009399Y-38836601D02*
X126390401Y-38455599D01*
X126390401Y-38455599D02*
X127254000Y-37592000D01*
X119380000Y-52552600D02*
X119380000Y-52705000D01*
X122402600Y-49530000D02*
X119380000Y-52552600D01*
X124757564Y-49530000D02*
X122402600Y-49530000D01*
X128549399Y-38836601D02*
X128549399Y-45738165D01*
X128549399Y-45738165D02*
X124757564Y-49530000D01*
X129794000Y-37592000D02*
X128549399Y-38836601D01*
X128016000Y-55372000D02*
X128016000Y-46990000D01*
X128016000Y-46990000D02*
X134874000Y-40132000D01*
X115443000Y-67945000D02*
X128016000Y-55372000D01*
X114300000Y-67945000D02*
X115443000Y-67945000D01*
X137160000Y-55880000D02*
X137160000Y-56032400D01*
X137160000Y-56032400D02*
X138404610Y-57277010D01*
X138404610Y-57277010D02*
X156235390Y-57277010D01*
X156235390Y-57277010D02*
X157480000Y-56032400D01*
X157480000Y-56032400D02*
X157480000Y-55880000D01*
X163855399Y-54482999D02*
X143484601Y-54482999D01*
X143484601Y-54482999D02*
X142240000Y-55727600D01*
X142240000Y-55727600D02*
X142240000Y-55880000D01*
X165100000Y-55880000D02*
X165100000Y-55727600D01*
X165100000Y-55727600D02*
X163855399Y-54482999D01*
X134620000Y-55880000D02*
X134620000Y-55727600D01*
X134620000Y-55727600D02*
X147574000Y-42773600D01*
X147574000Y-42773600D02*
X147574000Y-41353314D01*
X147574000Y-41353314D02*
X147574000Y-40132000D01*
X113665000Y-46990000D02*
X112665511Y-47989489D01*
X112665511Y-54093111D02*
X114300000Y-55727600D01*
X112665511Y-47989489D02*
X112665511Y-54093111D01*
X114300000Y-55727600D02*
X114300000Y-55880000D01*
X139954000Y-37592000D02*
X138709399Y-38836601D01*
X138709399Y-38836601D02*
X138709399Y-45440601D01*
X138709399Y-45440601D02*
X130835390Y-53314610D01*
X130835390Y-62890390D02*
X130835390Y-53314610D01*
X140335000Y-72390000D02*
X130835390Y-62890390D01*
X145034000Y-37592000D02*
X143738601Y-38887399D01*
X143738601Y-38887399D02*
X143738601Y-44848855D01*
X143738601Y-44848855D02*
X133375390Y-55212066D01*
X133375390Y-55212066D02*
X133375390Y-62255390D01*
X133375390Y-62255390D02*
X143510000Y-72390000D01*
X162814000Y-37592000D02*
X164058601Y-38836601D01*
X164058601Y-38836601D02*
X164058601Y-52926057D01*
X164058601Y-52926057D02*
X166344601Y-55212057D01*
X166344601Y-55212057D02*
X166344601Y-56547943D01*
X146685000Y-72390000D02*
X150502544Y-72390000D01*
X150502544Y-72390000D02*
X166344601Y-56547943D01*
G36*
X169418000Y-41910000D02*
G01*
X169420440Y-41934776D01*
X169427667Y-41958601D01*
X169439403Y-41980557D01*
X169455197Y-41999803D01*
X169474443Y-42015597D01*
X169496399Y-42027333D01*
X169520224Y-42034560D01*
X169545000Y-42037000D01*
X175615000Y-42037000D01*
X175615001Y-84328000D01*
X169545000Y-84328000D01*
X169520224Y-84330440D01*
X169496399Y-84337667D01*
X169474443Y-84349403D01*
X169455197Y-84365197D01*
X169439403Y-84384443D01*
X169427667Y-84406399D01*
X169420440Y-84430224D01*
X169418000Y-84455000D01*
X169418000Y-90580000D01*
X149222239Y-90580000D01*
X149224987Y-90577252D01*
X149403918Y-90309463D01*
X149527168Y-90011912D01*
X149590000Y-89696033D01*
X149590000Y-89373967D01*
X149527168Y-89058088D01*
X149403918Y-88760537D01*
X149263370Y-88550191D01*
X149309494Y-88525537D01*
X149406185Y-88446185D01*
X149485537Y-88349494D01*
X149544502Y-88239180D01*
X149580812Y-88119482D01*
X149593072Y-87995000D01*
X149593072Y-85995000D01*
X149580812Y-85870518D01*
X149544502Y-85750820D01*
X149485537Y-85640506D01*
X149406185Y-85543815D01*
X149309494Y-85464463D01*
X149199180Y-85405498D01*
X149079482Y-85369188D01*
X148955000Y-85356928D01*
X146955000Y-85356928D01*
X146830518Y-85369188D01*
X146710820Y-85405498D01*
X146600506Y-85464463D01*
X146503815Y-85543815D01*
X146424463Y-85640506D01*
X146365498Y-85750820D01*
X146329188Y-85870518D01*
X146316928Y-85995000D01*
X146316928Y-87995000D01*
X146329188Y-88119482D01*
X146365498Y-88239180D01*
X146424463Y-88349494D01*
X146503815Y-88446185D01*
X146600506Y-88525537D01*
X146646630Y-88550191D01*
X146506082Y-88760537D01*
X146382832Y-89058088D01*
X146320000Y-89373967D01*
X146320000Y-89696033D01*
X146382832Y-90011912D01*
X146506082Y-90309463D01*
X146685013Y-90577252D01*
X146687761Y-90580000D01*
X144777239Y-90580000D01*
X144779987Y-90577252D01*
X144958918Y-90309463D01*
X145082168Y-90011912D01*
X145145000Y-89696033D01*
X145145000Y-89373967D01*
X145082168Y-89058088D01*
X144958918Y-88760537D01*
X144818370Y-88550191D01*
X144864494Y-88525537D01*
X144961185Y-88446185D01*
X145040537Y-88349494D01*
X145099502Y-88239180D01*
X145135812Y-88119482D01*
X145148072Y-87995000D01*
X145148072Y-85995000D01*
X145135812Y-85870518D01*
X145099502Y-85750820D01*
X145040537Y-85640506D01*
X144961185Y-85543815D01*
X144864494Y-85464463D01*
X144754180Y-85405498D01*
X144634482Y-85369188D01*
X144510000Y-85356928D01*
X142510000Y-85356928D01*
X142385518Y-85369188D01*
X142265820Y-85405498D01*
X142155506Y-85464463D01*
X142058815Y-85543815D01*
X141979463Y-85640506D01*
X141920498Y-85750820D01*
X141884188Y-85870518D01*
X141871928Y-85995000D01*
X141871928Y-87995000D01*
X141884188Y-88119482D01*
X141920498Y-88239180D01*
X141979463Y-88349494D01*
X142058815Y-88446185D01*
X142155506Y-88525537D01*
X142201630Y-88550191D01*
X142061082Y-88760537D01*
X141937832Y-89058088D01*
X141875000Y-89373967D01*
X141875000Y-89696033D01*
X141937832Y-90011912D01*
X142061082Y-90309463D01*
X142240013Y-90577252D01*
X142242761Y-90580000D01*
X140332239Y-90580000D01*
X140334987Y-90577252D01*
X140513918Y-90309463D01*
X140637168Y-90011912D01*
X140700000Y-89696033D01*
X140700000Y-89373967D01*
X140637168Y-89058088D01*
X140513918Y-88760537D01*
X140373370Y-88550191D01*
X140419494Y-88525537D01*
X140516185Y-88446185D01*
X140595537Y-88349494D01*
X140654502Y-88239180D01*
X140690812Y-88119482D01*
X140703072Y-87995000D01*
X140703072Y-85995000D01*
X140690812Y-85870518D01*
X140654502Y-85750820D01*
X140595537Y-85640506D01*
X140516185Y-85543815D01*
X140419494Y-85464463D01*
X140309180Y-85405498D01*
X140189482Y-85369188D01*
X140065000Y-85356928D01*
X138065000Y-85356928D01*
X137940518Y-85369188D01*
X137820820Y-85405498D01*
X137710506Y-85464463D01*
X137613815Y-85543815D01*
X137534463Y-85640506D01*
X137475498Y-85750820D01*
X137439188Y-85870518D01*
X137426928Y-85995000D01*
X137426928Y-87995000D01*
X137439188Y-88119482D01*
X137475498Y-88239180D01*
X137534463Y-88349494D01*
X137613815Y-88446185D01*
X137710506Y-88525537D01*
X137756630Y-88550191D01*
X137616082Y-88760537D01*
X137492832Y-89058088D01*
X137430000Y-89373967D01*
X137430000Y-89696033D01*
X137492832Y-90011912D01*
X137616082Y-90309463D01*
X137795013Y-90577252D01*
X137797761Y-90580000D01*
X118237000Y-90580000D01*
X118237000Y-84455000D01*
X118234560Y-84430224D01*
X118227333Y-84406399D01*
X118215597Y-84384443D01*
X118199803Y-84365197D01*
X118180557Y-84349403D01*
X118158601Y-84337667D01*
X118134776Y-84330440D01*
X118110000Y-84328000D01*
X111985000Y-84328000D01*
X111985000Y-82389017D01*
X138700510Y-82389017D01*
X138700510Y-82710983D01*
X138763322Y-83026763D01*
X138886533Y-83324222D01*
X139065408Y-83591927D01*
X139293073Y-83819592D01*
X139560778Y-83998467D01*
X139858237Y-84121678D01*
X140174017Y-84184490D01*
X140495983Y-84184490D01*
X140811763Y-84121678D01*
X141109222Y-83998467D01*
X141376927Y-83819592D01*
X141604592Y-83591927D01*
X141783467Y-83324222D01*
X141906678Y-83026763D01*
X141922500Y-82947220D01*
X141938322Y-83026763D01*
X142061533Y-83324222D01*
X142240408Y-83591927D01*
X142468073Y-83819592D01*
X142735778Y-83998467D01*
X143033237Y-84121678D01*
X143349017Y-84184490D01*
X143670983Y-84184490D01*
X143986763Y-84121678D01*
X144284222Y-83998467D01*
X144551927Y-83819592D01*
X144779592Y-83591927D01*
X144958467Y-83324222D01*
X145081678Y-83026763D01*
X145097500Y-82947220D01*
X145113322Y-83026763D01*
X145236533Y-83324222D01*
X145415408Y-83591927D01*
X145643073Y-83819592D01*
X145910778Y-83998467D01*
X146208237Y-84121678D01*
X146524017Y-84184490D01*
X146845983Y-84184490D01*
X147161763Y-84121678D01*
X147459222Y-83998467D01*
X147726927Y-83819592D01*
X147954592Y-83591927D01*
X148133467Y-83324222D01*
X148256678Y-83026763D01*
X148319490Y-82710983D01*
X148319490Y-82389017D01*
X148256678Y-82073237D01*
X148133467Y-81775778D01*
X147954592Y-81508073D01*
X147726927Y-81280408D01*
X147459222Y-81101533D01*
X147161763Y-80978322D01*
X146845983Y-80915510D01*
X146524017Y-80915510D01*
X146208237Y-80978322D01*
X145910778Y-81101533D01*
X145643073Y-81280408D01*
X145415408Y-81508073D01*
X145236533Y-81775778D01*
X145113322Y-82073237D01*
X145097500Y-82152780D01*
X145081678Y-82073237D01*
X144958467Y-81775778D01*
X144779592Y-81508073D01*
X144551927Y-81280408D01*
X144284222Y-81101533D01*
X143986763Y-80978322D01*
X143670983Y-80915510D01*
X143349017Y-80915510D01*
X143033237Y-80978322D01*
X142735778Y-81101533D01*
X142468073Y-81280408D01*
X142240408Y-81508073D01*
X142061533Y-81775778D01*
X141938322Y-82073237D01*
X141922500Y-82152780D01*
X141906678Y-82073237D01*
X141783467Y-81775778D01*
X141604592Y-81508073D01*
X141376927Y-81280408D01*
X141109222Y-81101533D01*
X140811763Y-80978322D01*
X140495983Y-80915510D01*
X140174017Y-80915510D01*
X139858237Y-80978322D01*
X139560778Y-81101533D01*
X139293073Y-81280408D01*
X139065408Y-81508073D01*
X138886533Y-81775778D01*
X138763322Y-82073237D01*
X138700510Y-82389017D01*
X111985000Y-82389017D01*
X111985000Y-64541400D01*
X112645928Y-64541400D01*
X112649000Y-65119250D01*
X112807750Y-65278000D01*
X114173000Y-65278000D01*
X114173000Y-64065150D01*
X114427000Y-64065150D01*
X114427000Y-65278000D01*
X115792250Y-65278000D01*
X115951000Y-65119250D01*
X115954072Y-64541400D01*
X115941812Y-64416918D01*
X115905502Y-64297220D01*
X115846537Y-64186906D01*
X115767185Y-64090215D01*
X115670494Y-64010863D01*
X115560180Y-63951898D01*
X115440482Y-63915588D01*
X115316000Y-63903328D01*
X114585750Y-63906400D01*
X114427000Y-64065150D01*
X114173000Y-64065150D01*
X114014250Y-63906400D01*
X113284000Y-63903328D01*
X113159518Y-63915588D01*
X113039820Y-63951898D01*
X112929506Y-64010863D01*
X112832815Y-64090215D01*
X112753463Y-64186906D01*
X112694498Y-64297220D01*
X112658188Y-64416918D01*
X112645928Y-64541400D01*
X111985000Y-64541400D01*
X111985000Y-54436434D01*
X112028866Y-54518503D01*
X112075578Y-54575421D01*
X112124090Y-54634533D01*
X112153160Y-54658390D01*
X112798328Y-55303558D01*
X112798328Y-56896000D01*
X112810588Y-57020482D01*
X112846898Y-57140180D01*
X112905863Y-57250494D01*
X112985215Y-57347185D01*
X113081906Y-57426537D01*
X113192220Y-57485502D01*
X113311918Y-57521812D01*
X113436400Y-57534072D01*
X115163600Y-57534072D01*
X115288082Y-57521812D01*
X115407780Y-57485502D01*
X115518094Y-57426537D01*
X115614785Y-57347185D01*
X115694137Y-57250494D01*
X115753102Y-57140180D01*
X115768586Y-57089135D01*
X115775203Y-57097197D01*
X116003395Y-57284469D01*
X116263737Y-57423625D01*
X116546224Y-57509316D01*
X116840000Y-57538251D01*
X117133777Y-57509316D01*
X117416264Y-57423625D01*
X117676606Y-57284469D01*
X117904797Y-57097197D01*
X118092069Y-56869006D01*
X118113424Y-56829053D01*
X118261514Y-57031729D01*
X118477965Y-57230733D01*
X118729081Y-57383686D01*
X119005211Y-57484709D01*
X119020974Y-57487358D01*
X119253000Y-57366217D01*
X119253000Y-56007000D01*
X119507000Y-56007000D01*
X119507000Y-57366217D01*
X119739026Y-57487358D01*
X119754789Y-57484709D01*
X120030919Y-57383686D01*
X120282035Y-57230733D01*
X120498486Y-57031729D01*
X120671954Y-56794321D01*
X120795773Y-56527633D01*
X120865185Y-56241914D01*
X120720925Y-56007000D01*
X119507000Y-56007000D01*
X119253000Y-56007000D01*
X119233000Y-56007000D01*
X119233000Y-55753000D01*
X119253000Y-55753000D01*
X119253000Y-55733000D01*
X119507000Y-55733000D01*
X119507000Y-55753000D01*
X120720925Y-55753000D01*
X120865185Y-55518086D01*
X120795773Y-55232367D01*
X120671954Y-54965679D01*
X120498486Y-54728271D01*
X120282035Y-54529267D01*
X120030919Y-54376314D01*
X119806269Y-54294125D01*
X119956264Y-54248625D01*
X120216606Y-54109469D01*
X120444797Y-53922197D01*
X120632069Y-53694006D01*
X120653424Y-53654053D01*
X120801514Y-53856729D01*
X121017965Y-54055733D01*
X121269081Y-54208686D01*
X121545211Y-54309709D01*
X121560974Y-54312358D01*
X121793000Y-54191217D01*
X121793000Y-52832000D01*
X122047000Y-52832000D01*
X122047000Y-54191217D01*
X122279026Y-54312358D01*
X122294789Y-54309709D01*
X122570919Y-54208686D01*
X122822035Y-54055733D01*
X123038486Y-53856729D01*
X123211954Y-53619321D01*
X123335773Y-53352633D01*
X123405185Y-53066914D01*
X123260925Y-52832000D01*
X122047000Y-52832000D01*
X121793000Y-52832000D01*
X121773000Y-52832000D01*
X121773000Y-52578000D01*
X121793000Y-52578000D01*
X121793000Y-52558000D01*
X122047000Y-52558000D01*
X122047000Y-52578000D01*
X123260925Y-52578000D01*
X123405185Y-52343086D01*
X123335773Y-52057367D01*
X123211954Y-51790679D01*
X123038486Y-51553271D01*
X122822035Y-51354267D01*
X122570919Y-51201314D01*
X122294789Y-51100291D01*
X122279026Y-51097642D01*
X122047002Y-51218782D01*
X122047002Y-51054000D01*
X121956231Y-51054000D01*
X122718231Y-50292000D01*
X124720141Y-50292000D01*
X124757564Y-50295686D01*
X124794987Y-50292000D01*
X124794990Y-50292000D01*
X124906942Y-50280974D01*
X125050579Y-50237402D01*
X125182956Y-50166645D01*
X125298986Y-50071422D01*
X125322848Y-50042346D01*
X127254001Y-48111194D01*
X127254000Y-55056369D01*
X115944491Y-66365879D01*
X115954072Y-66268600D01*
X115951000Y-65690750D01*
X115792250Y-65532000D01*
X114427000Y-65532000D01*
X114427000Y-65552000D01*
X114173000Y-65552000D01*
X114173000Y-65532000D01*
X112807750Y-65532000D01*
X112649000Y-65690750D01*
X112645928Y-66268600D01*
X112658188Y-66393082D01*
X112694498Y-66512780D01*
X112753463Y-66623094D01*
X112832815Y-66719785D01*
X112929506Y-66799137D01*
X113039820Y-66858102D01*
X113090865Y-66873586D01*
X113082803Y-66880203D01*
X112895531Y-67108394D01*
X112756375Y-67368736D01*
X112670684Y-67651223D01*
X112641749Y-67945000D01*
X112670684Y-68238777D01*
X112756375Y-68521264D01*
X112895531Y-68781606D01*
X113082803Y-69009797D01*
X113310994Y-69197069D01*
X113344540Y-69215000D01*
X113310994Y-69232931D01*
X113082803Y-69420203D01*
X112895531Y-69648394D01*
X112756375Y-69908736D01*
X112670684Y-70191223D01*
X112641749Y-70485000D01*
X112670684Y-70778777D01*
X112756375Y-71061264D01*
X112895531Y-71321606D01*
X113082803Y-71549797D01*
X113310994Y-71737069D01*
X113344540Y-71755000D01*
X113310994Y-71772931D01*
X113082803Y-71960203D01*
X112895531Y-72188394D01*
X112756375Y-72448736D01*
X112670684Y-72731223D01*
X112641749Y-73025000D01*
X112670684Y-73318777D01*
X112756375Y-73601264D01*
X112895531Y-73861606D01*
X113082803Y-74089797D01*
X113310994Y-74277069D01*
X113344540Y-74295000D01*
X113310994Y-74312931D01*
X113082803Y-74500203D01*
X112895531Y-74728394D01*
X112756375Y-74988736D01*
X112670684Y-75271223D01*
X112641749Y-75565000D01*
X112670684Y-75858777D01*
X112756375Y-76141264D01*
X112895531Y-76401606D01*
X113082803Y-76629797D01*
X113310994Y-76817069D01*
X113344540Y-76835000D01*
X113310994Y-76852931D01*
X113082803Y-77040203D01*
X112895531Y-77268394D01*
X112756375Y-77528736D01*
X112670684Y-77811223D01*
X112641749Y-78105000D01*
X112670684Y-78398777D01*
X112756375Y-78681264D01*
X112895531Y-78941606D01*
X113082803Y-79169797D01*
X113310994Y-79357069D01*
X113571336Y-79496225D01*
X113853823Y-79581916D01*
X114073981Y-79603600D01*
X114526019Y-79603600D01*
X114746177Y-79581916D01*
X115028664Y-79496225D01*
X115289006Y-79357069D01*
X115517197Y-79169797D01*
X115704469Y-78941606D01*
X115843625Y-78681264D01*
X115929316Y-78398777D01*
X115958251Y-78105000D01*
X115929316Y-77811223D01*
X115843625Y-77528736D01*
X115704469Y-77268394D01*
X115517197Y-77040203D01*
X115289006Y-76852931D01*
X115255460Y-76835000D01*
X115289006Y-76817069D01*
X115517197Y-76629797D01*
X115704469Y-76401606D01*
X115843625Y-76141264D01*
X115929316Y-75858777D01*
X115958251Y-75565000D01*
X115929316Y-75271223D01*
X115843625Y-74988736D01*
X115704469Y-74728394D01*
X115517197Y-74500203D01*
X115289006Y-74312931D01*
X115255460Y-74295000D01*
X115289006Y-74277069D01*
X115517197Y-74089797D01*
X115704469Y-73861606D01*
X115843625Y-73601264D01*
X115929316Y-73318777D01*
X115958251Y-73025000D01*
X115929316Y-72731223D01*
X115843625Y-72448736D01*
X115704469Y-72188394D01*
X115517197Y-71960203D01*
X115289006Y-71772931D01*
X115255460Y-71755000D01*
X115289006Y-71737069D01*
X115517197Y-71549797D01*
X115704469Y-71321606D01*
X115843625Y-71061264D01*
X115929316Y-70778777D01*
X115958251Y-70485000D01*
X115929316Y-70191223D01*
X115843625Y-69908736D01*
X115704469Y-69648394D01*
X115517197Y-69420203D01*
X115289006Y-69232931D01*
X115255460Y-69215000D01*
X115289006Y-69197069D01*
X115517197Y-69009797D01*
X115704469Y-68781606D01*
X115788535Y-68624329D01*
X115868392Y-68581645D01*
X115984422Y-68486422D01*
X116008284Y-68457346D01*
X128038328Y-56427303D01*
X128038328Y-56896000D01*
X128050588Y-57020482D01*
X128086898Y-57140180D01*
X128145863Y-57250494D01*
X128225215Y-57347185D01*
X128321906Y-57426537D01*
X128432220Y-57485502D01*
X128551918Y-57521812D01*
X128676400Y-57534072D01*
X130073391Y-57534072D01*
X130073390Y-62852967D01*
X130069704Y-62890390D01*
X130073390Y-62927813D01*
X130073390Y-62927815D01*
X130084416Y-63039767D01*
X130127988Y-63183404D01*
X130127989Y-63183405D01*
X130198745Y-63315782D01*
X130238373Y-63364068D01*
X130293968Y-63431812D01*
X130323044Y-63455674D01*
X138768384Y-71901015D01*
X138763322Y-71913237D01*
X138700510Y-72229017D01*
X138700510Y-72550983D01*
X138763322Y-72866763D01*
X138886533Y-73164222D01*
X139065408Y-73431927D01*
X139293073Y-73659592D01*
X139560778Y-73838467D01*
X139858237Y-73961678D01*
X140174017Y-74024490D01*
X140495983Y-74024490D01*
X140811763Y-73961678D01*
X141109222Y-73838467D01*
X141376927Y-73659592D01*
X141604592Y-73431927D01*
X141783467Y-73164222D01*
X141906678Y-72866763D01*
X141922500Y-72787220D01*
X141938322Y-72866763D01*
X142061533Y-73164222D01*
X142240408Y-73431927D01*
X142468073Y-73659592D01*
X142735778Y-73838467D01*
X143033237Y-73961678D01*
X143349017Y-74024490D01*
X143670983Y-74024490D01*
X143986763Y-73961678D01*
X144284222Y-73838467D01*
X144551927Y-73659592D01*
X144779592Y-73431927D01*
X144958467Y-73164222D01*
X145081678Y-72866763D01*
X145097500Y-72787220D01*
X145113322Y-72866763D01*
X145236533Y-73164222D01*
X145415408Y-73431927D01*
X145643073Y-73659592D01*
X145910778Y-73838467D01*
X146208237Y-73961678D01*
X146524017Y-74024490D01*
X146845983Y-74024490D01*
X147161763Y-73961678D01*
X147459222Y-73838467D01*
X147726927Y-73659592D01*
X147954592Y-73431927D01*
X148133467Y-73164222D01*
X148138529Y-73152000D01*
X150465121Y-73152000D01*
X150502544Y-73155686D01*
X150539967Y-73152000D01*
X150539970Y-73152000D01*
X150651922Y-73140974D01*
X150795559Y-73097402D01*
X150927936Y-73026645D01*
X151043966Y-72931422D01*
X151067828Y-72902346D01*
X156025174Y-67945000D01*
X171061749Y-67945000D01*
X171090684Y-68238777D01*
X171176375Y-68521264D01*
X171315531Y-68781606D01*
X171502803Y-69009797D01*
X171730994Y-69197069D01*
X171764540Y-69215000D01*
X171730994Y-69232931D01*
X171502803Y-69420203D01*
X171315531Y-69648394D01*
X171176375Y-69908736D01*
X171090684Y-70191223D01*
X171061749Y-70485000D01*
X171090684Y-70778777D01*
X171176375Y-71061264D01*
X171315531Y-71321606D01*
X171502803Y-71549797D01*
X171730994Y-71737069D01*
X171764540Y-71755000D01*
X171730994Y-71772931D01*
X171502803Y-71960203D01*
X171315531Y-72188394D01*
X171176375Y-72448736D01*
X171090684Y-72731223D01*
X171061749Y-73025000D01*
X171090684Y-73318777D01*
X171176375Y-73601264D01*
X171315531Y-73861606D01*
X171502803Y-74089797D01*
X171730994Y-74277069D01*
X171764540Y-74295000D01*
X171730994Y-74312931D01*
X171502803Y-74500203D01*
X171315531Y-74728394D01*
X171176375Y-74988736D01*
X171090684Y-75271223D01*
X171061749Y-75565000D01*
X171090684Y-75858777D01*
X171176375Y-76141264D01*
X171315531Y-76401606D01*
X171502803Y-76629797D01*
X171730994Y-76817069D01*
X171764540Y-76835000D01*
X171730994Y-76852931D01*
X171502803Y-77040203D01*
X171315531Y-77268394D01*
X171176375Y-77528736D01*
X171090684Y-77811223D01*
X171061749Y-78105000D01*
X171090684Y-78398777D01*
X171176375Y-78681264D01*
X171315531Y-78941606D01*
X171502803Y-79169797D01*
X171730994Y-79357069D01*
X171991336Y-79496225D01*
X172273823Y-79581916D01*
X172493981Y-79603600D01*
X172946019Y-79603600D01*
X173166177Y-79581916D01*
X173448664Y-79496225D01*
X173709006Y-79357069D01*
X173937197Y-79169797D01*
X174124469Y-78941606D01*
X174263625Y-78681264D01*
X174349316Y-78398777D01*
X174378251Y-78105000D01*
X174349316Y-77811223D01*
X174263625Y-77528736D01*
X174124469Y-77268394D01*
X173937197Y-77040203D01*
X173709006Y-76852931D01*
X173675460Y-76835000D01*
X173709006Y-76817069D01*
X173937197Y-76629797D01*
X174124469Y-76401606D01*
X174263625Y-76141264D01*
X174349316Y-75858777D01*
X174378251Y-75565000D01*
X174349316Y-75271223D01*
X174263625Y-74988736D01*
X174124469Y-74728394D01*
X173937197Y-74500203D01*
X173709006Y-74312931D01*
X173675460Y-74295000D01*
X173709006Y-74277069D01*
X173937197Y-74089797D01*
X174124469Y-73861606D01*
X174263625Y-73601264D01*
X174349316Y-73318777D01*
X174378251Y-73025000D01*
X174349316Y-72731223D01*
X174263625Y-72448736D01*
X174124469Y-72188394D01*
X173937197Y-71960203D01*
X173709006Y-71772931D01*
X173675460Y-71755000D01*
X173709006Y-71737069D01*
X173937197Y-71549797D01*
X174124469Y-71321606D01*
X174263625Y-71061264D01*
X174349316Y-70778777D01*
X174378251Y-70485000D01*
X174349316Y-70191223D01*
X174263625Y-69908736D01*
X174124469Y-69648394D01*
X173937197Y-69420203D01*
X173709006Y-69232931D01*
X173675460Y-69215000D01*
X173709006Y-69197069D01*
X173937197Y-69009797D01*
X174124469Y-68781606D01*
X174263625Y-68521264D01*
X174349316Y-68238777D01*
X174378251Y-67945000D01*
X174349316Y-67651223D01*
X174263625Y-67368736D01*
X174124469Y-67108394D01*
X173937197Y-66880203D01*
X173929135Y-66873586D01*
X173980180Y-66858102D01*
X174090494Y-66799137D01*
X174187185Y-66719785D01*
X174266537Y-66623094D01*
X174325502Y-66512780D01*
X174361812Y-66393082D01*
X174374072Y-66268600D01*
X174371000Y-65690750D01*
X174212250Y-65532000D01*
X172847000Y-65532000D01*
X172847000Y-65552000D01*
X172593000Y-65552000D01*
X172593000Y-65532000D01*
X171227750Y-65532000D01*
X171069000Y-65690750D01*
X171065928Y-66268600D01*
X171078188Y-66393082D01*
X171114498Y-66512780D01*
X171173463Y-66623094D01*
X171252815Y-66719785D01*
X171349506Y-66799137D01*
X171459820Y-66858102D01*
X171510865Y-66873586D01*
X171502803Y-66880203D01*
X171315531Y-67108394D01*
X171176375Y-67368736D01*
X171090684Y-67651223D01*
X171061749Y-67945000D01*
X156025174Y-67945000D01*
X159428774Y-64541400D01*
X171065928Y-64541400D01*
X171069000Y-65119250D01*
X171227750Y-65278000D01*
X172593000Y-65278000D01*
X172593000Y-64065150D01*
X172847000Y-64065150D01*
X172847000Y-65278000D01*
X174212250Y-65278000D01*
X174371000Y-65119250D01*
X174374072Y-64541400D01*
X174361812Y-64416918D01*
X174325502Y-64297220D01*
X174266537Y-64186906D01*
X174187185Y-64090215D01*
X174090494Y-64010863D01*
X173980180Y-63951898D01*
X173860482Y-63915588D01*
X173736000Y-63903328D01*
X173005750Y-63906400D01*
X172847000Y-64065150D01*
X172593000Y-64065150D01*
X172434250Y-63906400D01*
X171704000Y-63903328D01*
X171579518Y-63915588D01*
X171459820Y-63951898D01*
X171349506Y-64010863D01*
X171252815Y-64090215D01*
X171173463Y-64186906D01*
X171114498Y-64297220D01*
X171078188Y-64416918D01*
X171065928Y-64541400D01*
X159428774Y-64541400D01*
X166738755Y-57231420D01*
X166803395Y-57284469D01*
X167063737Y-57423625D01*
X167346224Y-57509316D01*
X167640000Y-57538251D01*
X167933777Y-57509316D01*
X168216264Y-57423625D01*
X168476606Y-57284469D01*
X168704797Y-57097197D01*
X168892069Y-56869006D01*
X168910000Y-56835459D01*
X168927931Y-56869006D01*
X169115203Y-57097197D01*
X169343395Y-57284469D01*
X169603737Y-57423625D01*
X169886224Y-57509316D01*
X170180000Y-57538251D01*
X170473777Y-57509316D01*
X170756264Y-57423625D01*
X171016606Y-57284469D01*
X171244797Y-57097197D01*
X171432069Y-56869006D01*
X171453424Y-56829053D01*
X171601514Y-57031729D01*
X171817965Y-57230733D01*
X172069081Y-57383686D01*
X172345211Y-57484709D01*
X172360974Y-57487358D01*
X172593000Y-57366217D01*
X172593000Y-56007000D01*
X172847000Y-56007000D01*
X172847000Y-57366217D01*
X173079026Y-57487358D01*
X173094789Y-57484709D01*
X173370919Y-57383686D01*
X173622035Y-57230733D01*
X173838486Y-57031729D01*
X174011954Y-56794321D01*
X174135773Y-56527633D01*
X174205185Y-56241914D01*
X174060925Y-56007000D01*
X172847000Y-56007000D01*
X172593000Y-56007000D01*
X172573000Y-56007000D01*
X172573000Y-55753000D01*
X172593000Y-55753000D01*
X172593000Y-54393783D01*
X172847000Y-54393783D01*
X172847000Y-55753000D01*
X174060925Y-55753000D01*
X174205185Y-55518086D01*
X174135773Y-55232367D01*
X174011954Y-54965679D01*
X173838486Y-54728271D01*
X173622035Y-54529267D01*
X173370919Y-54376314D01*
X173094789Y-54275291D01*
X173079026Y-54272642D01*
X172847000Y-54393783D01*
X172593000Y-54393783D01*
X172360974Y-54272642D01*
X172345211Y-54275291D01*
X172069081Y-54376314D01*
X171817965Y-54529267D01*
X171601514Y-54728271D01*
X171453424Y-54930947D01*
X171432069Y-54890994D01*
X171244797Y-54662803D01*
X171016605Y-54475531D01*
X170756263Y-54336375D01*
X170473776Y-54250684D01*
X170180000Y-54221749D01*
X169886223Y-54250684D01*
X169603736Y-54336375D01*
X169343394Y-54475531D01*
X169115203Y-54662803D01*
X168927931Y-54890995D01*
X168910000Y-54924541D01*
X168892069Y-54890994D01*
X168704797Y-54662803D01*
X168476605Y-54475531D01*
X168216263Y-54336375D01*
X167933776Y-54250684D01*
X167640000Y-54221749D01*
X167346223Y-54250684D01*
X167063736Y-54336375D01*
X166803394Y-54475531D01*
X166738754Y-54528579D01*
X164820601Y-52610427D01*
X164820601Y-41536228D01*
X165060223Y-41608916D01*
X165280381Y-41630600D01*
X165427619Y-41630600D01*
X165647777Y-41608916D01*
X165930264Y-41523225D01*
X166190606Y-41384069D01*
X166418797Y-41196797D01*
X166606069Y-40968606D01*
X166629863Y-40924090D01*
X166687183Y-41020488D01*
X166883707Y-41238854D01*
X167119056Y-41414684D01*
X167384186Y-41541222D01*
X167534974Y-41586958D01*
X167767000Y-41465817D01*
X167767000Y-40259000D01*
X168021000Y-40259000D01*
X168021000Y-41465817D01*
X168253026Y-41586958D01*
X168403814Y-41541222D01*
X168668944Y-41414684D01*
X168904293Y-41238854D01*
X169100817Y-41020488D01*
X169250964Y-40767978D01*
X169348963Y-40491027D01*
X169228464Y-40259000D01*
X168021000Y-40259000D01*
X167767000Y-40259000D01*
X167747000Y-40259000D01*
X167747000Y-40005000D01*
X167767000Y-40005000D01*
X167767000Y-39985000D01*
X168021000Y-39985000D01*
X168021000Y-40005000D01*
X169228464Y-40005000D01*
X169348963Y-39772973D01*
X169250964Y-39496022D01*
X169100817Y-39243512D01*
X168904293Y-39025146D01*
X168690567Y-38865470D01*
X168730606Y-38844069D01*
X168958797Y-38656797D01*
X169146069Y-38428606D01*
X169285225Y-38168264D01*
X169370916Y-37885777D01*
X169399851Y-37592000D01*
X169370916Y-37298223D01*
X169285225Y-37015736D01*
X169146069Y-36755394D01*
X168958797Y-36527203D01*
X168730606Y-36339931D01*
X168470264Y-36200775D01*
X168187777Y-36115084D01*
X167967619Y-36093400D01*
X167820381Y-36093400D01*
X167600223Y-36115084D01*
X167317736Y-36200775D01*
X167057394Y-36339931D01*
X166829203Y-36527203D01*
X166641931Y-36755394D01*
X166624000Y-36788940D01*
X166606069Y-36755394D01*
X166418797Y-36527203D01*
X166190606Y-36339931D01*
X165930264Y-36200775D01*
X165647777Y-36115084D01*
X165427619Y-36093400D01*
X165280381Y-36093400D01*
X165060223Y-36115084D01*
X164777736Y-36200775D01*
X164517394Y-36339931D01*
X164289203Y-36527203D01*
X164101931Y-36755394D01*
X164084000Y-36788940D01*
X164066069Y-36755394D01*
X163878797Y-36527203D01*
X163650606Y-36339931D01*
X163390264Y-36200775D01*
X163107777Y-36115084D01*
X162887619Y-36093400D01*
X162740381Y-36093400D01*
X162520223Y-36115084D01*
X162237736Y-36200775D01*
X161977394Y-36339931D01*
X161749203Y-36527203D01*
X161561931Y-36755394D01*
X161538137Y-36799910D01*
X161480817Y-36703512D01*
X161284293Y-36485146D01*
X161048944Y-36309316D01*
X160783814Y-36182778D01*
X160633026Y-36137042D01*
X160401000Y-36258183D01*
X160401000Y-37465000D01*
X160421000Y-37465000D01*
X160421000Y-37719000D01*
X160401000Y-37719000D01*
X160401000Y-37739000D01*
X160147000Y-37739000D01*
X160147000Y-37719000D01*
X160127000Y-37719000D01*
X160127000Y-37465000D01*
X160147000Y-37465000D01*
X160147000Y-36258183D01*
X159914974Y-36137042D01*
X159764186Y-36182778D01*
X159499056Y-36309316D01*
X159263707Y-36485146D01*
X159067183Y-36703512D01*
X159009863Y-36799910D01*
X158986069Y-36755394D01*
X158798797Y-36527203D01*
X158570606Y-36339931D01*
X158310264Y-36200775D01*
X158027777Y-36115084D01*
X157807619Y-36093400D01*
X157660381Y-36093400D01*
X157440223Y-36115084D01*
X157157736Y-36200775D01*
X156897394Y-36339931D01*
X156669203Y-36527203D01*
X156481931Y-36755394D01*
X156458137Y-36799910D01*
X156400817Y-36703512D01*
X156204293Y-36485146D01*
X155968944Y-36309316D01*
X155703814Y-36182778D01*
X155553026Y-36137042D01*
X155321000Y-36258183D01*
X155321000Y-37465000D01*
X155341000Y-37465000D01*
X155341000Y-37719000D01*
X155321000Y-37719000D01*
X155321000Y-37739000D01*
X155067000Y-37739000D01*
X155067000Y-37719000D01*
X155047000Y-37719000D01*
X155047000Y-37465000D01*
X155067000Y-37465000D01*
X155067000Y-36258183D01*
X154834974Y-36137042D01*
X154684186Y-36182778D01*
X154419056Y-36309316D01*
X154183707Y-36485146D01*
X153987183Y-36703512D01*
X153929863Y-36799910D01*
X153906069Y-36755394D01*
X153718797Y-36527203D01*
X153490606Y-36339931D01*
X153230264Y-36200775D01*
X152947777Y-36115084D01*
X152727619Y-36093400D01*
X152580381Y-36093400D01*
X152360223Y-36115084D01*
X152077736Y-36200775D01*
X151817394Y-36339931D01*
X151589203Y-36527203D01*
X151401931Y-36755394D01*
X151384000Y-36788940D01*
X151366069Y-36755394D01*
X151178797Y-36527203D01*
X150950606Y-36339931D01*
X150690264Y-36200775D01*
X150407777Y-36115084D01*
X150187619Y-36093400D01*
X150040381Y-36093400D01*
X149820223Y-36115084D01*
X149537736Y-36200775D01*
X149277394Y-36339931D01*
X149049203Y-36527203D01*
X148861931Y-36755394D01*
X148844000Y-36788940D01*
X148826069Y-36755394D01*
X148638797Y-36527203D01*
X148410606Y-36339931D01*
X148150264Y-36200775D01*
X147867777Y-36115084D01*
X147647619Y-36093400D01*
X147500381Y-36093400D01*
X147280223Y-36115084D01*
X146997736Y-36200775D01*
X146737394Y-36339931D01*
X146509203Y-36527203D01*
X146321931Y-36755394D01*
X146304000Y-36788940D01*
X146286069Y-36755394D01*
X146098797Y-36527203D01*
X145870606Y-36339931D01*
X145610264Y-36200775D01*
X145327777Y-36115084D01*
X145107619Y-36093400D01*
X144960381Y-36093400D01*
X144740223Y-36115084D01*
X144457736Y-36200775D01*
X144197394Y-36339931D01*
X143969203Y-36527203D01*
X143781931Y-36755394D01*
X143758137Y-36799910D01*
X143700817Y-36703512D01*
X143504293Y-36485146D01*
X143268944Y-36309316D01*
X143003814Y-36182778D01*
X142853026Y-36137042D01*
X142621000Y-36258183D01*
X142621000Y-37465000D01*
X142641000Y-37465000D01*
X142641000Y-37719000D01*
X142621000Y-37719000D01*
X142621000Y-37739000D01*
X142367000Y-37739000D01*
X142367000Y-37719000D01*
X142347000Y-37719000D01*
X142347000Y-37465000D01*
X142367000Y-37465000D01*
X142367000Y-36258183D01*
X142134974Y-36137042D01*
X141984186Y-36182778D01*
X141719056Y-36309316D01*
X141483707Y-36485146D01*
X141287183Y-36703512D01*
X141229863Y-36799910D01*
X141206069Y-36755394D01*
X141018797Y-36527203D01*
X140790606Y-36339931D01*
X140530264Y-36200775D01*
X140247777Y-36115084D01*
X140027619Y-36093400D01*
X139880381Y-36093400D01*
X139660223Y-36115084D01*
X139377736Y-36200775D01*
X139117394Y-36339931D01*
X138889203Y-36527203D01*
X138701931Y-36755394D01*
X138684000Y-36788940D01*
X138666069Y-36755394D01*
X138478797Y-36527203D01*
X138250606Y-36339931D01*
X137990264Y-36200775D01*
X137707777Y-36115084D01*
X137487619Y-36093400D01*
X137340381Y-36093400D01*
X137120223Y-36115084D01*
X136837736Y-36200775D01*
X136577394Y-36339931D01*
X136349203Y-36527203D01*
X136161931Y-36755394D01*
X136138137Y-36799910D01*
X136080817Y-36703512D01*
X135884293Y-36485146D01*
X135648944Y-36309316D01*
X135383814Y-36182778D01*
X135233026Y-36137042D01*
X135001000Y-36258183D01*
X135001000Y-37465000D01*
X135021000Y-37465000D01*
X135021000Y-37719000D01*
X135001000Y-37719000D01*
X135001000Y-37739000D01*
X134747000Y-37739000D01*
X134747000Y-37719000D01*
X134727000Y-37719000D01*
X134727000Y-37465000D01*
X134747000Y-37465000D01*
X134747000Y-36258183D01*
X134514974Y-36137042D01*
X134364186Y-36182778D01*
X134099056Y-36309316D01*
X133863707Y-36485146D01*
X133667183Y-36703512D01*
X133609863Y-36799910D01*
X133586069Y-36755394D01*
X133398797Y-36527203D01*
X133170606Y-36339931D01*
X132910264Y-36200775D01*
X132627777Y-36115084D01*
X132407619Y-36093400D01*
X132260381Y-36093400D01*
X132040223Y-36115084D01*
X131757736Y-36200775D01*
X131497394Y-36339931D01*
X131269203Y-36527203D01*
X131081931Y-36755394D01*
X131064000Y-36788940D01*
X131046069Y-36755394D01*
X130858797Y-36527203D01*
X130630606Y-36339931D01*
X130370264Y-36200775D01*
X130087777Y-36115084D01*
X129867619Y-36093400D01*
X129720381Y-36093400D01*
X129500223Y-36115084D01*
X129217736Y-36200775D01*
X128957394Y-36339931D01*
X128729203Y-36527203D01*
X128541931Y-36755394D01*
X128524000Y-36788940D01*
X128506069Y-36755394D01*
X128318797Y-36527203D01*
X128090606Y-36339931D01*
X127830264Y-36200775D01*
X127547777Y-36115084D01*
X127327619Y-36093400D01*
X127180381Y-36093400D01*
X126960223Y-36115084D01*
X126677736Y-36200775D01*
X126417394Y-36339931D01*
X126189203Y-36527203D01*
X126001931Y-36755394D01*
X125978137Y-36799910D01*
X125920817Y-36703512D01*
X125724293Y-36485146D01*
X125488944Y-36309316D01*
X125223814Y-36182778D01*
X125073026Y-36137042D01*
X124841000Y-36258183D01*
X124841000Y-37465000D01*
X124861000Y-37465000D01*
X124861000Y-37719000D01*
X124841000Y-37719000D01*
X124841000Y-37739000D01*
X124587000Y-37739000D01*
X124587000Y-37719000D01*
X124567000Y-37719000D01*
X124567000Y-37465000D01*
X124587000Y-37465000D01*
X124587000Y-36258183D01*
X124354974Y-36137042D01*
X124204186Y-36182778D01*
X123939056Y-36309316D01*
X123703707Y-36485146D01*
X123507183Y-36703512D01*
X123449863Y-36799910D01*
X123426069Y-36755394D01*
X123238797Y-36527203D01*
X123010606Y-36339931D01*
X122750264Y-36200775D01*
X122467777Y-36115084D01*
X122247619Y-36093400D01*
X122100381Y-36093400D01*
X121880223Y-36115084D01*
X121597736Y-36200775D01*
X121337394Y-36339931D01*
X121109203Y-36527203D01*
X120921931Y-36755394D01*
X120904000Y-36788940D01*
X120886069Y-36755394D01*
X120698797Y-36527203D01*
X120470606Y-36339931D01*
X120210264Y-36200775D01*
X119927777Y-36115084D01*
X119707619Y-36093400D01*
X119560381Y-36093400D01*
X119340223Y-36115084D01*
X119057736Y-36200775D01*
X118797394Y-36339931D01*
X118569203Y-36527203D01*
X118381931Y-36755394D01*
X118242775Y-37015736D01*
X118157084Y-37298223D01*
X118128149Y-37592000D01*
X118157084Y-37885777D01*
X118242775Y-38168264D01*
X118381931Y-38428606D01*
X118569203Y-38656797D01*
X118577265Y-38663414D01*
X118526220Y-38678898D01*
X118415906Y-38737863D01*
X118319215Y-38817215D01*
X118239863Y-38913906D01*
X118180898Y-39024220D01*
X118144588Y-39143918D01*
X118132328Y-39268400D01*
X118132328Y-40995600D01*
X118144588Y-41120082D01*
X118180898Y-41239780D01*
X118239863Y-41350094D01*
X118319215Y-41446785D01*
X118415906Y-41526137D01*
X118526220Y-41585102D01*
X118645918Y-41621412D01*
X118770400Y-41633672D01*
X120497600Y-41633672D01*
X120622082Y-41621412D01*
X120741780Y-41585102D01*
X120852094Y-41526137D01*
X120948785Y-41446785D01*
X121028137Y-41350094D01*
X121087102Y-41239780D01*
X121102586Y-41188735D01*
X121109203Y-41196797D01*
X121337394Y-41384069D01*
X121597736Y-41523225D01*
X121880223Y-41608916D01*
X122100381Y-41630600D01*
X122247619Y-41630600D01*
X122467777Y-41608916D01*
X122750264Y-41523225D01*
X123010606Y-41384069D01*
X123238797Y-41196797D01*
X123426069Y-40968606D01*
X123444000Y-40935060D01*
X123461931Y-40968606D01*
X123649203Y-41196797D01*
X123877394Y-41384069D01*
X124137736Y-41523225D01*
X124244698Y-41555671D01*
X124127861Y-41672509D01*
X123199786Y-41672509D01*
X123162363Y-41668823D01*
X123124940Y-41672509D01*
X123124937Y-41672509D01*
X123012985Y-41683535D01*
X122869348Y-41727107D01*
X122807727Y-41760044D01*
X122736970Y-41797864D01*
X122694582Y-41832652D01*
X122620941Y-41893087D01*
X122597079Y-41922163D01*
X116327649Y-48191593D01*
X116298579Y-48215450D01*
X116274722Y-48244520D01*
X116274721Y-48244521D01*
X116203355Y-48331480D01*
X116132599Y-48463857D01*
X116089027Y-48607494D01*
X116074314Y-48756872D01*
X116078001Y-48794305D01*
X116078000Y-51260653D01*
X116003394Y-51300531D01*
X115775203Y-51487803D01*
X115768586Y-51495865D01*
X115753102Y-51444820D01*
X115694137Y-51334506D01*
X115614785Y-51237815D01*
X115518094Y-51158463D01*
X115407780Y-51099498D01*
X115288082Y-51063188D01*
X115163600Y-51050928D01*
X113436400Y-51050928D01*
X113427511Y-51051803D01*
X113427511Y-48609272D01*
X113504017Y-48624490D01*
X113825983Y-48624490D01*
X114141763Y-48561678D01*
X114439222Y-48438467D01*
X114706927Y-48259592D01*
X114934592Y-48031927D01*
X115113467Y-47764222D01*
X115236678Y-47466763D01*
X115299490Y-47150983D01*
X115299490Y-46829017D01*
X115236678Y-46513237D01*
X115113467Y-46215778D01*
X114934592Y-45948073D01*
X114706927Y-45720408D01*
X114439222Y-45541533D01*
X114141763Y-45418322D01*
X114070588Y-45404165D01*
X114350911Y-45307314D01*
X114524742Y-45214399D01*
X114620445Y-44950050D01*
X113665000Y-43994605D01*
X112709555Y-44950050D01*
X112805258Y-45214399D01*
X113094787Y-45355238D01*
X113271924Y-45401676D01*
X113188237Y-45418322D01*
X112890778Y-45541533D01*
X112623073Y-45720408D01*
X112395408Y-45948073D01*
X112216533Y-46215778D01*
X112093322Y-46513237D01*
X112030510Y-46829017D01*
X112030510Y-47150983D01*
X112093322Y-47466763D01*
X112098496Y-47479253D01*
X112079539Y-47502352D01*
X112028866Y-47564097D01*
X111995434Y-47626645D01*
X111985000Y-47646165D01*
X111985000Y-43877615D01*
X112023795Y-43877615D01*
X112067546Y-44196595D01*
X112172686Y-44500911D01*
X112265601Y-44674742D01*
X112529950Y-44770445D01*
X113485395Y-43815000D01*
X113844605Y-43815000D01*
X114800050Y-44770445D01*
X115064399Y-44674742D01*
X115205238Y-44385213D01*
X115286885Y-44073771D01*
X115306205Y-43752385D01*
X115262454Y-43433405D01*
X115157314Y-43129089D01*
X115064399Y-42955258D01*
X114800050Y-42859555D01*
X113844605Y-43815000D01*
X113485395Y-43815000D01*
X112529950Y-42859555D01*
X112265601Y-42955258D01*
X112124762Y-43244787D01*
X112043115Y-43556229D01*
X112023795Y-43877615D01*
X111985000Y-43877615D01*
X111985000Y-42679950D01*
X112709555Y-42679950D01*
X113665000Y-43635395D01*
X114620445Y-42679950D01*
X114524742Y-42415601D01*
X114235213Y-42274762D01*
X113923771Y-42193115D01*
X113602385Y-42173795D01*
X113283405Y-42217546D01*
X112979089Y-42322686D01*
X112805258Y-42415601D01*
X112709555Y-42679950D01*
X111985000Y-42679950D01*
X111985000Y-42037000D01*
X117475000Y-42037000D01*
X117499776Y-42034560D01*
X117523601Y-42027333D01*
X117545557Y-42015597D01*
X117564803Y-41999803D01*
X117580597Y-41980557D01*
X117592333Y-41958601D01*
X117599560Y-41934776D01*
X117602000Y-41910000D01*
X117602000Y-35950000D01*
X169418000Y-35950000D01*
X169418000Y-41910000D01*
X169418000Y-41910000D01*
G37*
X169418000Y-41910000D02*
X169420440Y-41934776D01*
X169427667Y-41958601D01*
X169439403Y-41980557D01*
X169455197Y-41999803D01*
X169474443Y-42015597D01*
X169496399Y-42027333D01*
X169520224Y-42034560D01*
X169545000Y-42037000D01*
X175615000Y-42037000D01*
X175615001Y-84328000D01*
X169545000Y-84328000D01*
X169520224Y-84330440D01*
X169496399Y-84337667D01*
X169474443Y-84349403D01*
X169455197Y-84365197D01*
X169439403Y-84384443D01*
X169427667Y-84406399D01*
X169420440Y-84430224D01*
X169418000Y-84455000D01*
X169418000Y-90580000D01*
X149222239Y-90580000D01*
X149224987Y-90577252D01*
X149403918Y-90309463D01*
X149527168Y-90011912D01*
X149590000Y-89696033D01*
X149590000Y-89373967D01*
X149527168Y-89058088D01*
X149403918Y-88760537D01*
X149263370Y-88550191D01*
X149309494Y-88525537D01*
X149406185Y-88446185D01*
X149485537Y-88349494D01*
X149544502Y-88239180D01*
X149580812Y-88119482D01*
X149593072Y-87995000D01*
X149593072Y-85995000D01*
X149580812Y-85870518D01*
X149544502Y-85750820D01*
X149485537Y-85640506D01*
X149406185Y-85543815D01*
X149309494Y-85464463D01*
X149199180Y-85405498D01*
X149079482Y-85369188D01*
X148955000Y-85356928D01*
X146955000Y-85356928D01*
X146830518Y-85369188D01*
X146710820Y-85405498D01*
X146600506Y-85464463D01*
X146503815Y-85543815D01*
X146424463Y-85640506D01*
X146365498Y-85750820D01*
X146329188Y-85870518D01*
X146316928Y-85995000D01*
X146316928Y-87995000D01*
X146329188Y-88119482D01*
X146365498Y-88239180D01*
X146424463Y-88349494D01*
X146503815Y-88446185D01*
X146600506Y-88525537D01*
X146646630Y-88550191D01*
X146506082Y-88760537D01*
X146382832Y-89058088D01*
X146320000Y-89373967D01*
X146320000Y-89696033D01*
X146382832Y-90011912D01*
X146506082Y-90309463D01*
X146685013Y-90577252D01*
X146687761Y-90580000D01*
X144777239Y-90580000D01*
X144779987Y-90577252D01*
X144958918Y-90309463D01*
X145082168Y-90011912D01*
X145145000Y-89696033D01*
X145145000Y-89373967D01*
X145082168Y-89058088D01*
X144958918Y-88760537D01*
X144818370Y-88550191D01*
X144864494Y-88525537D01*
X144961185Y-88446185D01*
X145040537Y-88349494D01*
X145099502Y-88239180D01*
X145135812Y-88119482D01*
X145148072Y-87995000D01*
X145148072Y-85995000D01*
X145135812Y-85870518D01*
X145099502Y-85750820D01*
X145040537Y-85640506D01*
X144961185Y-85543815D01*
X144864494Y-85464463D01*
X144754180Y-85405498D01*
X144634482Y-85369188D01*
X144510000Y-85356928D01*
X142510000Y-85356928D01*
X142385518Y-85369188D01*
X142265820Y-85405498D01*
X142155506Y-85464463D01*
X142058815Y-85543815D01*
X141979463Y-85640506D01*
X141920498Y-85750820D01*
X141884188Y-85870518D01*
X141871928Y-85995000D01*
X141871928Y-87995000D01*
X141884188Y-88119482D01*
X141920498Y-88239180D01*
X141979463Y-88349494D01*
X142058815Y-88446185D01*
X142155506Y-88525537D01*
X142201630Y-88550191D01*
X142061082Y-88760537D01*
X141937832Y-89058088D01*
X141875000Y-89373967D01*
X141875000Y-89696033D01*
X141937832Y-90011912D01*
X142061082Y-90309463D01*
X142240013Y-90577252D01*
X142242761Y-90580000D01*
X140332239Y-90580000D01*
X140334987Y-90577252D01*
X140513918Y-90309463D01*
X140637168Y-90011912D01*
X140700000Y-89696033D01*
X140700000Y-89373967D01*
X140637168Y-89058088D01*
X140513918Y-88760537D01*
X140373370Y-88550191D01*
X140419494Y-88525537D01*
X140516185Y-88446185D01*
X140595537Y-88349494D01*
X140654502Y-88239180D01*
X140690812Y-88119482D01*
X140703072Y-87995000D01*
X140703072Y-85995000D01*
X140690812Y-85870518D01*
X140654502Y-85750820D01*
X140595537Y-85640506D01*
X140516185Y-85543815D01*
X140419494Y-85464463D01*
X140309180Y-85405498D01*
X140189482Y-85369188D01*
X140065000Y-85356928D01*
X138065000Y-85356928D01*
X137940518Y-85369188D01*
X137820820Y-85405498D01*
X137710506Y-85464463D01*
X137613815Y-85543815D01*
X137534463Y-85640506D01*
X137475498Y-85750820D01*
X137439188Y-85870518D01*
X137426928Y-85995000D01*
X137426928Y-87995000D01*
X137439188Y-88119482D01*
X137475498Y-88239180D01*
X137534463Y-88349494D01*
X137613815Y-88446185D01*
X137710506Y-88525537D01*
X137756630Y-88550191D01*
X137616082Y-88760537D01*
X137492832Y-89058088D01*
X137430000Y-89373967D01*
X137430000Y-89696033D01*
X137492832Y-90011912D01*
X137616082Y-90309463D01*
X137795013Y-90577252D01*
X137797761Y-90580000D01*
X118237000Y-90580000D01*
X118237000Y-84455000D01*
X118234560Y-84430224D01*
X118227333Y-84406399D01*
X118215597Y-84384443D01*
X118199803Y-84365197D01*
X118180557Y-84349403D01*
X118158601Y-84337667D01*
X118134776Y-84330440D01*
X118110000Y-84328000D01*
X111985000Y-84328000D01*
X111985000Y-82389017D01*
X138700510Y-82389017D01*
X138700510Y-82710983D01*
X138763322Y-83026763D01*
X138886533Y-83324222D01*
X139065408Y-83591927D01*
X139293073Y-83819592D01*
X139560778Y-83998467D01*
X139858237Y-84121678D01*
X140174017Y-84184490D01*
X140495983Y-84184490D01*
X140811763Y-84121678D01*
X141109222Y-83998467D01*
X141376927Y-83819592D01*
X141604592Y-83591927D01*
X141783467Y-83324222D01*
X141906678Y-83026763D01*
X141922500Y-82947220D01*
X141938322Y-83026763D01*
X142061533Y-83324222D01*
X142240408Y-83591927D01*
X142468073Y-83819592D01*
X142735778Y-83998467D01*
X143033237Y-84121678D01*
X143349017Y-84184490D01*
X143670983Y-84184490D01*
X143986763Y-84121678D01*
X144284222Y-83998467D01*
X144551927Y-83819592D01*
X144779592Y-83591927D01*
X144958467Y-83324222D01*
X145081678Y-83026763D01*
X145097500Y-82947220D01*
X145113322Y-83026763D01*
X145236533Y-83324222D01*
X145415408Y-83591927D01*
X145643073Y-83819592D01*
X145910778Y-83998467D01*
X146208237Y-84121678D01*
X146524017Y-84184490D01*
X146845983Y-84184490D01*
X147161763Y-84121678D01*
X147459222Y-83998467D01*
X147726927Y-83819592D01*
X147954592Y-83591927D01*
X148133467Y-83324222D01*
X148256678Y-83026763D01*
X148319490Y-82710983D01*
X148319490Y-82389017D01*
X148256678Y-82073237D01*
X148133467Y-81775778D01*
X147954592Y-81508073D01*
X147726927Y-81280408D01*
X147459222Y-81101533D01*
X147161763Y-80978322D01*
X146845983Y-80915510D01*
X146524017Y-80915510D01*
X146208237Y-80978322D01*
X145910778Y-81101533D01*
X145643073Y-81280408D01*
X145415408Y-81508073D01*
X145236533Y-81775778D01*
X145113322Y-82073237D01*
X145097500Y-82152780D01*
X145081678Y-82073237D01*
X144958467Y-81775778D01*
X144779592Y-81508073D01*
X144551927Y-81280408D01*
X144284222Y-81101533D01*
X143986763Y-80978322D01*
X143670983Y-80915510D01*
X143349017Y-80915510D01*
X143033237Y-80978322D01*
X142735778Y-81101533D01*
X142468073Y-81280408D01*
X142240408Y-81508073D01*
X142061533Y-81775778D01*
X141938322Y-82073237D01*
X141922500Y-82152780D01*
X141906678Y-82073237D01*
X141783467Y-81775778D01*
X141604592Y-81508073D01*
X141376927Y-81280408D01*
X141109222Y-81101533D01*
X140811763Y-80978322D01*
X140495983Y-80915510D01*
X140174017Y-80915510D01*
X139858237Y-80978322D01*
X139560778Y-81101533D01*
X139293073Y-81280408D01*
X139065408Y-81508073D01*
X138886533Y-81775778D01*
X138763322Y-82073237D01*
X138700510Y-82389017D01*
X111985000Y-82389017D01*
X111985000Y-64541400D01*
X112645928Y-64541400D01*
X112649000Y-65119250D01*
X112807750Y-65278000D01*
X114173000Y-65278000D01*
X114173000Y-64065150D01*
X114427000Y-64065150D01*
X114427000Y-65278000D01*
X115792250Y-65278000D01*
X115951000Y-65119250D01*
X115954072Y-64541400D01*
X115941812Y-64416918D01*
X115905502Y-64297220D01*
X115846537Y-64186906D01*
X115767185Y-64090215D01*
X115670494Y-64010863D01*
X115560180Y-63951898D01*
X115440482Y-63915588D01*
X115316000Y-63903328D01*
X114585750Y-63906400D01*
X114427000Y-64065150D01*
X114173000Y-64065150D01*
X114014250Y-63906400D01*
X113284000Y-63903328D01*
X113159518Y-63915588D01*
X113039820Y-63951898D01*
X112929506Y-64010863D01*
X112832815Y-64090215D01*
X112753463Y-64186906D01*
X112694498Y-64297220D01*
X112658188Y-64416918D01*
X112645928Y-64541400D01*
X111985000Y-64541400D01*
X111985000Y-54436434D01*
X112028866Y-54518503D01*
X112075578Y-54575421D01*
X112124090Y-54634533D01*
X112153160Y-54658390D01*
X112798328Y-55303558D01*
X112798328Y-56896000D01*
X112810588Y-57020482D01*
X112846898Y-57140180D01*
X112905863Y-57250494D01*
X112985215Y-57347185D01*
X113081906Y-57426537D01*
X113192220Y-57485502D01*
X113311918Y-57521812D01*
X113436400Y-57534072D01*
X115163600Y-57534072D01*
X115288082Y-57521812D01*
X115407780Y-57485502D01*
X115518094Y-57426537D01*
X115614785Y-57347185D01*
X115694137Y-57250494D01*
X115753102Y-57140180D01*
X115768586Y-57089135D01*
X115775203Y-57097197D01*
X116003395Y-57284469D01*
X116263737Y-57423625D01*
X116546224Y-57509316D01*
X116840000Y-57538251D01*
X117133777Y-57509316D01*
X117416264Y-57423625D01*
X117676606Y-57284469D01*
X117904797Y-57097197D01*
X118092069Y-56869006D01*
X118113424Y-56829053D01*
X118261514Y-57031729D01*
X118477965Y-57230733D01*
X118729081Y-57383686D01*
X119005211Y-57484709D01*
X119020974Y-57487358D01*
X119253000Y-57366217D01*
X119253000Y-56007000D01*
X119507000Y-56007000D01*
X119507000Y-57366217D01*
X119739026Y-57487358D01*
X119754789Y-57484709D01*
X120030919Y-57383686D01*
X120282035Y-57230733D01*
X120498486Y-57031729D01*
X120671954Y-56794321D01*
X120795773Y-56527633D01*
X120865185Y-56241914D01*
X120720925Y-56007000D01*
X119507000Y-56007000D01*
X119253000Y-56007000D01*
X119233000Y-56007000D01*
X119233000Y-55753000D01*
X119253000Y-55753000D01*
X119253000Y-55733000D01*
X119507000Y-55733000D01*
X119507000Y-55753000D01*
X120720925Y-55753000D01*
X120865185Y-55518086D01*
X120795773Y-55232367D01*
X120671954Y-54965679D01*
X120498486Y-54728271D01*
X120282035Y-54529267D01*
X120030919Y-54376314D01*
X119806269Y-54294125D01*
X119956264Y-54248625D01*
X120216606Y-54109469D01*
X120444797Y-53922197D01*
X120632069Y-53694006D01*
X120653424Y-53654053D01*
X120801514Y-53856729D01*
X121017965Y-54055733D01*
X121269081Y-54208686D01*
X121545211Y-54309709D01*
X121560974Y-54312358D01*
X121793000Y-54191217D01*
X121793000Y-52832000D01*
X122047000Y-52832000D01*
X122047000Y-54191217D01*
X122279026Y-54312358D01*
X122294789Y-54309709D01*
X122570919Y-54208686D01*
X122822035Y-54055733D01*
X123038486Y-53856729D01*
X123211954Y-53619321D01*
X123335773Y-53352633D01*
X123405185Y-53066914D01*
X123260925Y-52832000D01*
X122047000Y-52832000D01*
X121793000Y-52832000D01*
X121773000Y-52832000D01*
X121773000Y-52578000D01*
X121793000Y-52578000D01*
X121793000Y-52558000D01*
X122047000Y-52558000D01*
X122047000Y-52578000D01*
X123260925Y-52578000D01*
X123405185Y-52343086D01*
X123335773Y-52057367D01*
X123211954Y-51790679D01*
X123038486Y-51553271D01*
X122822035Y-51354267D01*
X122570919Y-51201314D01*
X122294789Y-51100291D01*
X122279026Y-51097642D01*
X122047002Y-51218782D01*
X122047002Y-51054000D01*
X121956231Y-51054000D01*
X122718231Y-50292000D01*
X124720141Y-50292000D01*
X124757564Y-50295686D01*
X124794987Y-50292000D01*
X124794990Y-50292000D01*
X124906942Y-50280974D01*
X125050579Y-50237402D01*
X125182956Y-50166645D01*
X125298986Y-50071422D01*
X125322848Y-50042346D01*
X127254001Y-48111194D01*
X127254000Y-55056369D01*
X115944491Y-66365879D01*
X115954072Y-66268600D01*
X115951000Y-65690750D01*
X115792250Y-65532000D01*
X114427000Y-65532000D01*
X114427000Y-65552000D01*
X114173000Y-65552000D01*
X114173000Y-65532000D01*
X112807750Y-65532000D01*
X112649000Y-65690750D01*
X112645928Y-66268600D01*
X112658188Y-66393082D01*
X112694498Y-66512780D01*
X112753463Y-66623094D01*
X112832815Y-66719785D01*
X112929506Y-66799137D01*
X113039820Y-66858102D01*
X113090865Y-66873586D01*
X113082803Y-66880203D01*
X112895531Y-67108394D01*
X112756375Y-67368736D01*
X112670684Y-67651223D01*
X112641749Y-67945000D01*
X112670684Y-68238777D01*
X112756375Y-68521264D01*
X112895531Y-68781606D01*
X113082803Y-69009797D01*
X113310994Y-69197069D01*
X113344540Y-69215000D01*
X113310994Y-69232931D01*
X113082803Y-69420203D01*
X112895531Y-69648394D01*
X112756375Y-69908736D01*
X112670684Y-70191223D01*
X112641749Y-70485000D01*
X112670684Y-70778777D01*
X112756375Y-71061264D01*
X112895531Y-71321606D01*
X113082803Y-71549797D01*
X113310994Y-71737069D01*
X113344540Y-71755000D01*
X113310994Y-71772931D01*
X113082803Y-71960203D01*
X112895531Y-72188394D01*
X112756375Y-72448736D01*
X112670684Y-72731223D01*
X112641749Y-73025000D01*
X112670684Y-73318777D01*
X112756375Y-73601264D01*
X112895531Y-73861606D01*
X113082803Y-74089797D01*
X113310994Y-74277069D01*
X113344540Y-74295000D01*
X113310994Y-74312931D01*
X113082803Y-74500203D01*
X112895531Y-74728394D01*
X112756375Y-74988736D01*
X112670684Y-75271223D01*
X112641749Y-75565000D01*
X112670684Y-75858777D01*
X112756375Y-76141264D01*
X112895531Y-76401606D01*
X113082803Y-76629797D01*
X113310994Y-76817069D01*
X113344540Y-76835000D01*
X113310994Y-76852931D01*
X113082803Y-77040203D01*
X112895531Y-77268394D01*
X112756375Y-77528736D01*
X112670684Y-77811223D01*
X112641749Y-78105000D01*
X112670684Y-78398777D01*
X112756375Y-78681264D01*
X112895531Y-78941606D01*
X113082803Y-79169797D01*
X113310994Y-79357069D01*
X113571336Y-79496225D01*
X113853823Y-79581916D01*
X114073981Y-79603600D01*
X114526019Y-79603600D01*
X114746177Y-79581916D01*
X115028664Y-79496225D01*
X115289006Y-79357069D01*
X115517197Y-79169797D01*
X115704469Y-78941606D01*
X115843625Y-78681264D01*
X115929316Y-78398777D01*
X115958251Y-78105000D01*
X115929316Y-77811223D01*
X115843625Y-77528736D01*
X115704469Y-77268394D01*
X115517197Y-77040203D01*
X115289006Y-76852931D01*
X115255460Y-76835000D01*
X115289006Y-76817069D01*
X115517197Y-76629797D01*
X115704469Y-76401606D01*
X115843625Y-76141264D01*
X115929316Y-75858777D01*
X115958251Y-75565000D01*
X115929316Y-75271223D01*
X115843625Y-74988736D01*
X115704469Y-74728394D01*
X115517197Y-74500203D01*
X115289006Y-74312931D01*
X115255460Y-74295000D01*
X115289006Y-74277069D01*
X115517197Y-74089797D01*
X115704469Y-73861606D01*
X115843625Y-73601264D01*
X115929316Y-73318777D01*
X115958251Y-73025000D01*
X115929316Y-72731223D01*
X115843625Y-72448736D01*
X115704469Y-72188394D01*
X115517197Y-71960203D01*
X115289006Y-71772931D01*
X115255460Y-71755000D01*
X115289006Y-71737069D01*
X115517197Y-71549797D01*
X115704469Y-71321606D01*
X115843625Y-71061264D01*
X115929316Y-70778777D01*
X115958251Y-70485000D01*
X115929316Y-70191223D01*
X115843625Y-69908736D01*
X115704469Y-69648394D01*
X115517197Y-69420203D01*
X115289006Y-69232931D01*
X115255460Y-69215000D01*
X115289006Y-69197069D01*
X115517197Y-69009797D01*
X115704469Y-68781606D01*
X115788535Y-68624329D01*
X115868392Y-68581645D01*
X115984422Y-68486422D01*
X116008284Y-68457346D01*
X128038328Y-56427303D01*
X128038328Y-56896000D01*
X128050588Y-57020482D01*
X128086898Y-57140180D01*
X128145863Y-57250494D01*
X128225215Y-57347185D01*
X128321906Y-57426537D01*
X128432220Y-57485502D01*
X128551918Y-57521812D01*
X128676400Y-57534072D01*
X130073391Y-57534072D01*
X130073390Y-62852967D01*
X130069704Y-62890390D01*
X130073390Y-62927813D01*
X130073390Y-62927815D01*
X130084416Y-63039767D01*
X130127988Y-63183404D01*
X130127989Y-63183405D01*
X130198745Y-63315782D01*
X130238373Y-63364068D01*
X130293968Y-63431812D01*
X130323044Y-63455674D01*
X138768384Y-71901015D01*
X138763322Y-71913237D01*
X138700510Y-72229017D01*
X138700510Y-72550983D01*
X138763322Y-72866763D01*
X138886533Y-73164222D01*
X139065408Y-73431927D01*
X139293073Y-73659592D01*
X139560778Y-73838467D01*
X139858237Y-73961678D01*
X140174017Y-74024490D01*
X140495983Y-74024490D01*
X140811763Y-73961678D01*
X141109222Y-73838467D01*
X141376927Y-73659592D01*
X141604592Y-73431927D01*
X141783467Y-73164222D01*
X141906678Y-72866763D01*
X141922500Y-72787220D01*
X141938322Y-72866763D01*
X142061533Y-73164222D01*
X142240408Y-73431927D01*
X142468073Y-73659592D01*
X142735778Y-73838467D01*
X143033237Y-73961678D01*
X143349017Y-74024490D01*
X143670983Y-74024490D01*
X143986763Y-73961678D01*
X144284222Y-73838467D01*
X144551927Y-73659592D01*
X144779592Y-73431927D01*
X144958467Y-73164222D01*
X145081678Y-72866763D01*
X145097500Y-72787220D01*
X145113322Y-72866763D01*
X145236533Y-73164222D01*
X145415408Y-73431927D01*
X145643073Y-73659592D01*
X145910778Y-73838467D01*
X146208237Y-73961678D01*
X146524017Y-74024490D01*
X146845983Y-74024490D01*
X147161763Y-73961678D01*
X147459222Y-73838467D01*
X147726927Y-73659592D01*
X147954592Y-73431927D01*
X148133467Y-73164222D01*
X148138529Y-73152000D01*
X150465121Y-73152000D01*
X150502544Y-73155686D01*
X150539967Y-73152000D01*
X150539970Y-73152000D01*
X150651922Y-73140974D01*
X150795559Y-73097402D01*
X150927936Y-73026645D01*
X151043966Y-72931422D01*
X151067828Y-72902346D01*
X156025174Y-67945000D01*
X171061749Y-67945000D01*
X171090684Y-68238777D01*
X171176375Y-68521264D01*
X171315531Y-68781606D01*
X171502803Y-69009797D01*
X171730994Y-69197069D01*
X171764540Y-69215000D01*
X171730994Y-69232931D01*
X171502803Y-69420203D01*
X171315531Y-69648394D01*
X171176375Y-69908736D01*
X171090684Y-70191223D01*
X171061749Y-70485000D01*
X171090684Y-70778777D01*
X171176375Y-71061264D01*
X171315531Y-71321606D01*
X171502803Y-71549797D01*
X171730994Y-71737069D01*
X171764540Y-71755000D01*
X171730994Y-71772931D01*
X171502803Y-71960203D01*
X171315531Y-72188394D01*
X171176375Y-72448736D01*
X171090684Y-72731223D01*
X171061749Y-73025000D01*
X171090684Y-73318777D01*
X171176375Y-73601264D01*
X171315531Y-73861606D01*
X171502803Y-74089797D01*
X171730994Y-74277069D01*
X171764540Y-74295000D01*
X171730994Y-74312931D01*
X171502803Y-74500203D01*
X171315531Y-74728394D01*
X171176375Y-74988736D01*
X171090684Y-75271223D01*
X171061749Y-75565000D01*
X171090684Y-75858777D01*
X171176375Y-76141264D01*
X171315531Y-76401606D01*
X171502803Y-76629797D01*
X171730994Y-76817069D01*
X171764540Y-76835000D01*
X171730994Y-76852931D01*
X171502803Y-77040203D01*
X171315531Y-77268394D01*
X171176375Y-77528736D01*
X171090684Y-77811223D01*
X171061749Y-78105000D01*
X171090684Y-78398777D01*
X171176375Y-78681264D01*
X171315531Y-78941606D01*
X171502803Y-79169797D01*
X171730994Y-79357069D01*
X171991336Y-79496225D01*
X172273823Y-79581916D01*
X172493981Y-79603600D01*
X172946019Y-79603600D01*
X173166177Y-79581916D01*
X173448664Y-79496225D01*
X173709006Y-79357069D01*
X173937197Y-79169797D01*
X174124469Y-78941606D01*
X174263625Y-78681264D01*
X174349316Y-78398777D01*
X174378251Y-78105000D01*
X174349316Y-77811223D01*
X174263625Y-77528736D01*
X174124469Y-77268394D01*
X173937197Y-77040203D01*
X173709006Y-76852931D01*
X173675460Y-76835000D01*
X173709006Y-76817069D01*
X173937197Y-76629797D01*
X174124469Y-76401606D01*
X174263625Y-76141264D01*
X174349316Y-75858777D01*
X174378251Y-75565000D01*
X174349316Y-75271223D01*
X174263625Y-74988736D01*
X174124469Y-74728394D01*
X173937197Y-74500203D01*
X173709006Y-74312931D01*
X173675460Y-74295000D01*
X173709006Y-74277069D01*
X173937197Y-74089797D01*
X174124469Y-73861606D01*
X174263625Y-73601264D01*
X174349316Y-73318777D01*
X174378251Y-73025000D01*
X174349316Y-72731223D01*
X174263625Y-72448736D01*
X174124469Y-72188394D01*
X173937197Y-71960203D01*
X173709006Y-71772931D01*
X173675460Y-71755000D01*
X173709006Y-71737069D01*
X173937197Y-71549797D01*
X174124469Y-71321606D01*
X174263625Y-71061264D01*
X174349316Y-70778777D01*
X174378251Y-70485000D01*
X174349316Y-70191223D01*
X174263625Y-69908736D01*
X174124469Y-69648394D01*
X173937197Y-69420203D01*
X173709006Y-69232931D01*
X173675460Y-69215000D01*
X173709006Y-69197069D01*
X173937197Y-69009797D01*
X174124469Y-68781606D01*
X174263625Y-68521264D01*
X174349316Y-68238777D01*
X174378251Y-67945000D01*
X174349316Y-67651223D01*
X174263625Y-67368736D01*
X174124469Y-67108394D01*
X173937197Y-66880203D01*
X173929135Y-66873586D01*
X173980180Y-66858102D01*
X174090494Y-66799137D01*
X174187185Y-66719785D01*
X174266537Y-66623094D01*
X174325502Y-66512780D01*
X174361812Y-66393082D01*
X174374072Y-66268600D01*
X174371000Y-65690750D01*
X174212250Y-65532000D01*
X172847000Y-65532000D01*
X172847000Y-65552000D01*
X172593000Y-65552000D01*
X172593000Y-65532000D01*
X171227750Y-65532000D01*
X171069000Y-65690750D01*
X171065928Y-66268600D01*
X171078188Y-66393082D01*
X171114498Y-66512780D01*
X171173463Y-66623094D01*
X171252815Y-66719785D01*
X171349506Y-66799137D01*
X171459820Y-66858102D01*
X171510865Y-66873586D01*
X171502803Y-66880203D01*
X171315531Y-67108394D01*
X171176375Y-67368736D01*
X171090684Y-67651223D01*
X171061749Y-67945000D01*
X156025174Y-67945000D01*
X159428774Y-64541400D01*
X171065928Y-64541400D01*
X171069000Y-65119250D01*
X171227750Y-65278000D01*
X172593000Y-65278000D01*
X172593000Y-64065150D01*
X172847000Y-64065150D01*
X172847000Y-65278000D01*
X174212250Y-65278000D01*
X174371000Y-65119250D01*
X174374072Y-64541400D01*
X174361812Y-64416918D01*
X174325502Y-64297220D01*
X174266537Y-64186906D01*
X174187185Y-64090215D01*
X174090494Y-64010863D01*
X173980180Y-63951898D01*
X173860482Y-63915588D01*
X173736000Y-63903328D01*
X173005750Y-63906400D01*
X172847000Y-64065150D01*
X172593000Y-64065150D01*
X172434250Y-63906400D01*
X171704000Y-63903328D01*
X171579518Y-63915588D01*
X171459820Y-63951898D01*
X171349506Y-64010863D01*
X171252815Y-64090215D01*
X171173463Y-64186906D01*
X171114498Y-64297220D01*
X171078188Y-64416918D01*
X171065928Y-64541400D01*
X159428774Y-64541400D01*
X166738755Y-57231420D01*
X166803395Y-57284469D01*
X167063737Y-57423625D01*
X167346224Y-57509316D01*
X167640000Y-57538251D01*
X167933777Y-57509316D01*
X168216264Y-57423625D01*
X168476606Y-57284469D01*
X168704797Y-57097197D01*
X168892069Y-56869006D01*
X168910000Y-56835459D01*
X168927931Y-56869006D01*
X169115203Y-57097197D01*
X169343395Y-57284469D01*
X169603737Y-57423625D01*
X169886224Y-57509316D01*
X170180000Y-57538251D01*
X170473777Y-57509316D01*
X170756264Y-57423625D01*
X171016606Y-57284469D01*
X171244797Y-57097197D01*
X171432069Y-56869006D01*
X171453424Y-56829053D01*
X171601514Y-57031729D01*
X171817965Y-57230733D01*
X172069081Y-57383686D01*
X172345211Y-57484709D01*
X172360974Y-57487358D01*
X172593000Y-57366217D01*
X172593000Y-56007000D01*
X172847000Y-56007000D01*
X172847000Y-57366217D01*
X173079026Y-57487358D01*
X173094789Y-57484709D01*
X173370919Y-57383686D01*
X173622035Y-57230733D01*
X173838486Y-57031729D01*
X174011954Y-56794321D01*
X174135773Y-56527633D01*
X174205185Y-56241914D01*
X174060925Y-56007000D01*
X172847000Y-56007000D01*
X172593000Y-56007000D01*
X172573000Y-56007000D01*
X172573000Y-55753000D01*
X172593000Y-55753000D01*
X172593000Y-54393783D01*
X172847000Y-54393783D01*
X172847000Y-55753000D01*
X174060925Y-55753000D01*
X174205185Y-55518086D01*
X174135773Y-55232367D01*
X174011954Y-54965679D01*
X173838486Y-54728271D01*
X173622035Y-54529267D01*
X173370919Y-54376314D01*
X173094789Y-54275291D01*
X173079026Y-54272642D01*
X172847000Y-54393783D01*
X172593000Y-54393783D01*
X172360974Y-54272642D01*
X172345211Y-54275291D01*
X172069081Y-54376314D01*
X171817965Y-54529267D01*
X171601514Y-54728271D01*
X171453424Y-54930947D01*
X171432069Y-54890994D01*
X171244797Y-54662803D01*
X171016605Y-54475531D01*
X170756263Y-54336375D01*
X170473776Y-54250684D01*
X170180000Y-54221749D01*
X169886223Y-54250684D01*
X169603736Y-54336375D01*
X169343394Y-54475531D01*
X169115203Y-54662803D01*
X168927931Y-54890995D01*
X168910000Y-54924541D01*
X168892069Y-54890994D01*
X168704797Y-54662803D01*
X168476605Y-54475531D01*
X168216263Y-54336375D01*
X167933776Y-54250684D01*
X167640000Y-54221749D01*
X167346223Y-54250684D01*
X167063736Y-54336375D01*
X166803394Y-54475531D01*
X166738754Y-54528579D01*
X164820601Y-52610427D01*
X164820601Y-41536228D01*
X165060223Y-41608916D01*
X165280381Y-41630600D01*
X165427619Y-41630600D01*
X165647777Y-41608916D01*
X165930264Y-41523225D01*
X166190606Y-41384069D01*
X166418797Y-41196797D01*
X166606069Y-40968606D01*
X166629863Y-40924090D01*
X166687183Y-41020488D01*
X166883707Y-41238854D01*
X167119056Y-41414684D01*
X167384186Y-41541222D01*
X167534974Y-41586958D01*
X167767000Y-41465817D01*
X167767000Y-40259000D01*
X168021000Y-40259000D01*
X168021000Y-41465817D01*
X168253026Y-41586958D01*
X168403814Y-41541222D01*
X168668944Y-41414684D01*
X168904293Y-41238854D01*
X169100817Y-41020488D01*
X169250964Y-40767978D01*
X169348963Y-40491027D01*
X169228464Y-40259000D01*
X168021000Y-40259000D01*
X167767000Y-40259000D01*
X167747000Y-40259000D01*
X167747000Y-40005000D01*
X167767000Y-40005000D01*
X167767000Y-39985000D01*
X168021000Y-39985000D01*
X168021000Y-40005000D01*
X169228464Y-40005000D01*
X169348963Y-39772973D01*
X169250964Y-39496022D01*
X169100817Y-39243512D01*
X168904293Y-39025146D01*
X168690567Y-38865470D01*
X168730606Y-38844069D01*
X168958797Y-38656797D01*
X169146069Y-38428606D01*
X169285225Y-38168264D01*
X169370916Y-37885777D01*
X169399851Y-37592000D01*
X169370916Y-37298223D01*
X169285225Y-37015736D01*
X169146069Y-36755394D01*
X168958797Y-36527203D01*
X168730606Y-36339931D01*
X168470264Y-36200775D01*
X168187777Y-36115084D01*
X167967619Y-36093400D01*
X167820381Y-36093400D01*
X167600223Y-36115084D01*
X167317736Y-36200775D01*
X167057394Y-36339931D01*
X166829203Y-36527203D01*
X166641931Y-36755394D01*
X166624000Y-36788940D01*
X166606069Y-36755394D01*
X166418797Y-36527203D01*
X166190606Y-36339931D01*
X165930264Y-36200775D01*
X165647777Y-36115084D01*
X165427619Y-36093400D01*
X165280381Y-36093400D01*
X165060223Y-36115084D01*
X164777736Y-36200775D01*
X164517394Y-36339931D01*
X164289203Y-36527203D01*
X164101931Y-36755394D01*
X164084000Y-36788940D01*
X164066069Y-36755394D01*
X163878797Y-36527203D01*
X163650606Y-36339931D01*
X163390264Y-36200775D01*
X163107777Y-36115084D01*
X162887619Y-36093400D01*
X162740381Y-36093400D01*
X162520223Y-36115084D01*
X162237736Y-36200775D01*
X161977394Y-36339931D01*
X161749203Y-36527203D01*
X161561931Y-36755394D01*
X161538137Y-36799910D01*
X161480817Y-36703512D01*
X161284293Y-36485146D01*
X161048944Y-36309316D01*
X160783814Y-36182778D01*
X160633026Y-36137042D01*
X160401000Y-36258183D01*
X160401000Y-37465000D01*
X160421000Y-37465000D01*
X160421000Y-37719000D01*
X160401000Y-37719000D01*
X160401000Y-37739000D01*
X160147000Y-37739000D01*
X160147000Y-37719000D01*
X160127000Y-37719000D01*
X160127000Y-37465000D01*
X160147000Y-37465000D01*
X160147000Y-36258183D01*
X159914974Y-36137042D01*
X159764186Y-36182778D01*
X159499056Y-36309316D01*
X159263707Y-36485146D01*
X159067183Y-36703512D01*
X159009863Y-36799910D01*
X158986069Y-36755394D01*
X158798797Y-36527203D01*
X158570606Y-36339931D01*
X158310264Y-36200775D01*
X158027777Y-36115084D01*
X157807619Y-36093400D01*
X157660381Y-36093400D01*
X157440223Y-36115084D01*
X157157736Y-36200775D01*
X156897394Y-36339931D01*
X156669203Y-36527203D01*
X156481931Y-36755394D01*
X156458137Y-36799910D01*
X156400817Y-36703512D01*
X156204293Y-36485146D01*
X155968944Y-36309316D01*
X155703814Y-36182778D01*
X155553026Y-36137042D01*
X155321000Y-36258183D01*
X155321000Y-37465000D01*
X155341000Y-37465000D01*
X155341000Y-37719000D01*
X155321000Y-37719000D01*
X155321000Y-37739000D01*
X155067000Y-37739000D01*
X155067000Y-37719000D01*
X155047000Y-37719000D01*
X155047000Y-37465000D01*
X155067000Y-37465000D01*
X155067000Y-36258183D01*
X154834974Y-36137042D01*
X154684186Y-36182778D01*
X154419056Y-36309316D01*
X154183707Y-36485146D01*
X153987183Y-36703512D01*
X153929863Y-36799910D01*
X153906069Y-36755394D01*
X153718797Y-36527203D01*
X153490606Y-36339931D01*
X153230264Y-36200775D01*
X152947777Y-36115084D01*
X152727619Y-36093400D01*
X152580381Y-36093400D01*
X152360223Y-36115084D01*
X152077736Y-36200775D01*
X151817394Y-36339931D01*
X151589203Y-36527203D01*
X151401931Y-36755394D01*
X151384000Y-36788940D01*
X151366069Y-36755394D01*
X151178797Y-36527203D01*
X150950606Y-36339931D01*
X150690264Y-36200775D01*
X150407777Y-36115084D01*
X150187619Y-36093400D01*
X150040381Y-36093400D01*
X149820223Y-36115084D01*
X149537736Y-36200775D01*
X149277394Y-36339931D01*
X149049203Y-36527203D01*
X148861931Y-36755394D01*
X148844000Y-36788940D01*
X148826069Y-36755394D01*
X148638797Y-36527203D01*
X148410606Y-36339931D01*
X148150264Y-36200775D01*
X147867777Y-36115084D01*
X147647619Y-36093400D01*
X147500381Y-36093400D01*
X147280223Y-36115084D01*
X146997736Y-36200775D01*
X146737394Y-36339931D01*
X146509203Y-36527203D01*
X146321931Y-36755394D01*
X146304000Y-36788940D01*
X146286069Y-36755394D01*
X146098797Y-36527203D01*
X145870606Y-36339931D01*
X145610264Y-36200775D01*
X145327777Y-36115084D01*
X145107619Y-36093400D01*
X144960381Y-36093400D01*
X144740223Y-36115084D01*
X144457736Y-36200775D01*
X144197394Y-36339931D01*
X143969203Y-36527203D01*
X143781931Y-36755394D01*
X143758137Y-36799910D01*
X143700817Y-36703512D01*
X143504293Y-36485146D01*
X143268944Y-36309316D01*
X143003814Y-36182778D01*
X142853026Y-36137042D01*
X142621000Y-36258183D01*
X142621000Y-37465000D01*
X142641000Y-37465000D01*
X142641000Y-37719000D01*
X142621000Y-37719000D01*
X142621000Y-37739000D01*
X142367000Y-37739000D01*
X142367000Y-37719000D01*
X142347000Y-37719000D01*
X142347000Y-37465000D01*
X142367000Y-37465000D01*
X142367000Y-36258183D01*
X142134974Y-36137042D01*
X141984186Y-36182778D01*
X141719056Y-36309316D01*
X141483707Y-36485146D01*
X141287183Y-36703512D01*
X141229863Y-36799910D01*
X141206069Y-36755394D01*
X141018797Y-36527203D01*
X140790606Y-36339931D01*
X140530264Y-36200775D01*
X140247777Y-36115084D01*
X140027619Y-36093400D01*
X139880381Y-36093400D01*
X139660223Y-36115084D01*
X139377736Y-36200775D01*
X139117394Y-36339931D01*
X138889203Y-36527203D01*
X138701931Y-36755394D01*
X138684000Y-36788940D01*
X138666069Y-36755394D01*
X138478797Y-36527203D01*
X138250606Y-36339931D01*
X137990264Y-36200775D01*
X137707777Y-36115084D01*
X137487619Y-36093400D01*
X137340381Y-36093400D01*
X137120223Y-36115084D01*
X136837736Y-36200775D01*
X136577394Y-36339931D01*
X136349203Y-36527203D01*
X136161931Y-36755394D01*
X136138137Y-36799910D01*
X136080817Y-36703512D01*
X135884293Y-36485146D01*
X135648944Y-36309316D01*
X135383814Y-36182778D01*
X135233026Y-36137042D01*
X135001000Y-36258183D01*
X135001000Y-37465000D01*
X135021000Y-37465000D01*
X135021000Y-37719000D01*
X135001000Y-37719000D01*
X135001000Y-37739000D01*
X134747000Y-37739000D01*
X134747000Y-37719000D01*
X134727000Y-37719000D01*
X134727000Y-37465000D01*
X134747000Y-37465000D01*
X134747000Y-36258183D01*
X134514974Y-36137042D01*
X134364186Y-36182778D01*
X134099056Y-36309316D01*
X133863707Y-36485146D01*
X133667183Y-36703512D01*
X133609863Y-36799910D01*
X133586069Y-36755394D01*
X133398797Y-36527203D01*
X133170606Y-36339931D01*
X132910264Y-36200775D01*
X132627777Y-36115084D01*
X132407619Y-36093400D01*
X132260381Y-36093400D01*
X132040223Y-36115084D01*
X131757736Y-36200775D01*
X131497394Y-36339931D01*
X131269203Y-36527203D01*
X131081931Y-36755394D01*
X131064000Y-36788940D01*
X131046069Y-36755394D01*
X130858797Y-36527203D01*
X130630606Y-36339931D01*
X130370264Y-36200775D01*
X130087777Y-36115084D01*
X129867619Y-36093400D01*
X129720381Y-36093400D01*
X129500223Y-36115084D01*
X129217736Y-36200775D01*
X128957394Y-36339931D01*
X128729203Y-36527203D01*
X128541931Y-36755394D01*
X128524000Y-36788940D01*
X128506069Y-36755394D01*
X128318797Y-36527203D01*
X128090606Y-36339931D01*
X127830264Y-36200775D01*
X127547777Y-36115084D01*
X127327619Y-36093400D01*
X127180381Y-36093400D01*
X126960223Y-36115084D01*
X126677736Y-36200775D01*
X126417394Y-36339931D01*
X126189203Y-36527203D01*
X126001931Y-36755394D01*
X125978137Y-36799910D01*
X125920817Y-36703512D01*
X125724293Y-36485146D01*
X125488944Y-36309316D01*
X125223814Y-36182778D01*
X125073026Y-36137042D01*
X124841000Y-36258183D01*
X124841000Y-37465000D01*
X124861000Y-37465000D01*
X124861000Y-37719000D01*
X124841000Y-37719000D01*
X124841000Y-37739000D01*
X124587000Y-37739000D01*
X124587000Y-37719000D01*
X124567000Y-37719000D01*
X124567000Y-37465000D01*
X124587000Y-37465000D01*
X124587000Y-36258183D01*
X124354974Y-36137042D01*
X124204186Y-36182778D01*
X123939056Y-36309316D01*
X123703707Y-36485146D01*
X123507183Y-36703512D01*
X123449863Y-36799910D01*
X123426069Y-36755394D01*
X123238797Y-36527203D01*
X123010606Y-36339931D01*
X122750264Y-36200775D01*
X122467777Y-36115084D01*
X122247619Y-36093400D01*
X122100381Y-36093400D01*
X121880223Y-36115084D01*
X121597736Y-36200775D01*
X121337394Y-36339931D01*
X121109203Y-36527203D01*
X120921931Y-36755394D01*
X120904000Y-36788940D01*
X120886069Y-36755394D01*
X120698797Y-36527203D01*
X120470606Y-36339931D01*
X120210264Y-36200775D01*
X119927777Y-36115084D01*
X119707619Y-36093400D01*
X119560381Y-36093400D01*
X119340223Y-36115084D01*
X119057736Y-36200775D01*
X118797394Y-36339931D01*
X118569203Y-36527203D01*
X118381931Y-36755394D01*
X118242775Y-37015736D01*
X118157084Y-37298223D01*
X118128149Y-37592000D01*
X118157084Y-37885777D01*
X118242775Y-38168264D01*
X118381931Y-38428606D01*
X118569203Y-38656797D01*
X118577265Y-38663414D01*
X118526220Y-38678898D01*
X118415906Y-38737863D01*
X118319215Y-38817215D01*
X118239863Y-38913906D01*
X118180898Y-39024220D01*
X118144588Y-39143918D01*
X118132328Y-39268400D01*
X118132328Y-40995600D01*
X118144588Y-41120082D01*
X118180898Y-41239780D01*
X118239863Y-41350094D01*
X118319215Y-41446785D01*
X118415906Y-41526137D01*
X118526220Y-41585102D01*
X118645918Y-41621412D01*
X118770400Y-41633672D01*
X120497600Y-41633672D01*
X120622082Y-41621412D01*
X120741780Y-41585102D01*
X120852094Y-41526137D01*
X120948785Y-41446785D01*
X121028137Y-41350094D01*
X121087102Y-41239780D01*
X121102586Y-41188735D01*
X121109203Y-41196797D01*
X121337394Y-41384069D01*
X121597736Y-41523225D01*
X121880223Y-41608916D01*
X122100381Y-41630600D01*
X122247619Y-41630600D01*
X122467777Y-41608916D01*
X122750264Y-41523225D01*
X123010606Y-41384069D01*
X123238797Y-41196797D01*
X123426069Y-40968606D01*
X123444000Y-40935060D01*
X123461931Y-40968606D01*
X123649203Y-41196797D01*
X123877394Y-41384069D01*
X124137736Y-41523225D01*
X124244698Y-41555671D01*
X124127861Y-41672509D01*
X123199786Y-41672509D01*
X123162363Y-41668823D01*
X123124940Y-41672509D01*
X123124937Y-41672509D01*
X123012985Y-41683535D01*
X122869348Y-41727107D01*
X122807727Y-41760044D01*
X122736970Y-41797864D01*
X122694582Y-41832652D01*
X122620941Y-41893087D01*
X122597079Y-41922163D01*
X116327649Y-48191593D01*
X116298579Y-48215450D01*
X116274722Y-48244520D01*
X116274721Y-48244521D01*
X116203355Y-48331480D01*
X116132599Y-48463857D01*
X116089027Y-48607494D01*
X116074314Y-48756872D01*
X116078001Y-48794305D01*
X116078000Y-51260653D01*
X116003394Y-51300531D01*
X115775203Y-51487803D01*
X115768586Y-51495865D01*
X115753102Y-51444820D01*
X115694137Y-51334506D01*
X115614785Y-51237815D01*
X115518094Y-51158463D01*
X115407780Y-51099498D01*
X115288082Y-51063188D01*
X115163600Y-51050928D01*
X113436400Y-51050928D01*
X113427511Y-51051803D01*
X113427511Y-48609272D01*
X113504017Y-48624490D01*
X113825983Y-48624490D01*
X114141763Y-48561678D01*
X114439222Y-48438467D01*
X114706927Y-48259592D01*
X114934592Y-48031927D01*
X115113467Y-47764222D01*
X115236678Y-47466763D01*
X115299490Y-47150983D01*
X115299490Y-46829017D01*
X115236678Y-46513237D01*
X115113467Y-46215778D01*
X114934592Y-45948073D01*
X114706927Y-45720408D01*
X114439222Y-45541533D01*
X114141763Y-45418322D01*
X114070588Y-45404165D01*
X114350911Y-45307314D01*
X114524742Y-45214399D01*
X114620445Y-44950050D01*
X113665000Y-43994605D01*
X112709555Y-44950050D01*
X112805258Y-45214399D01*
X113094787Y-45355238D01*
X113271924Y-45401676D01*
X113188237Y-45418322D01*
X112890778Y-45541533D01*
X112623073Y-45720408D01*
X112395408Y-45948073D01*
X112216533Y-46215778D01*
X112093322Y-46513237D01*
X112030510Y-46829017D01*
X112030510Y-47150983D01*
X112093322Y-47466763D01*
X112098496Y-47479253D01*
X112079539Y-47502352D01*
X112028866Y-47564097D01*
X111995434Y-47626645D01*
X111985000Y-47646165D01*
X111985000Y-43877615D01*
X112023795Y-43877615D01*
X112067546Y-44196595D01*
X112172686Y-44500911D01*
X112265601Y-44674742D01*
X112529950Y-44770445D01*
X113485395Y-43815000D01*
X113844605Y-43815000D01*
X114800050Y-44770445D01*
X115064399Y-44674742D01*
X115205238Y-44385213D01*
X115286885Y-44073771D01*
X115306205Y-43752385D01*
X115262454Y-43433405D01*
X115157314Y-43129089D01*
X115064399Y-42955258D01*
X114800050Y-42859555D01*
X113844605Y-43815000D01*
X113485395Y-43815000D01*
X112529950Y-42859555D01*
X112265601Y-42955258D01*
X112124762Y-43244787D01*
X112043115Y-43556229D01*
X112023795Y-43877615D01*
X111985000Y-43877615D01*
X111985000Y-42679950D01*
X112709555Y-42679950D01*
X113665000Y-43635395D01*
X114620445Y-42679950D01*
X114524742Y-42415601D01*
X114235213Y-42274762D01*
X113923771Y-42193115D01*
X113602385Y-42173795D01*
X113283405Y-42217546D01*
X112979089Y-42322686D01*
X112805258Y-42415601D01*
X112709555Y-42679950D01*
X111985000Y-42679950D01*
X111985000Y-42037000D01*
X117475000Y-42037000D01*
X117499776Y-42034560D01*
X117523601Y-42027333D01*
X117545557Y-42015597D01*
X117564803Y-41999803D01*
X117580597Y-41980557D01*
X117592333Y-41958601D01*
X117599560Y-41934776D01*
X117602000Y-41910000D01*
X117602000Y-35950000D01*
X169418000Y-35950000D01*
X169418000Y-41910000D01*
G36*
X141241931Y-40968606D02*
G01*
X141429203Y-41196797D01*
X141657394Y-41384069D01*
X141917736Y-41523225D01*
X142200223Y-41608916D01*
X142420381Y-41630600D01*
X142567619Y-41630600D01*
X142787777Y-41608916D01*
X142976601Y-41551637D01*
X142976602Y-44533224D01*
X132981118Y-54528708D01*
X132730919Y-54376314D01*
X132454789Y-54275291D01*
X132439026Y-54272642D01*
X132207000Y-54393783D01*
X132207000Y-55753000D01*
X132227000Y-55753000D01*
X132227000Y-56007000D01*
X132207000Y-56007000D01*
X132207000Y-57366217D01*
X132439026Y-57487358D01*
X132454789Y-57484709D01*
X132613390Y-57426684D01*
X132613391Y-62217957D01*
X132609704Y-62255390D01*
X132624417Y-62404768D01*
X132667989Y-62548405D01*
X132738745Y-62680782D01*
X132788175Y-62741012D01*
X132833969Y-62796812D01*
X132863039Y-62820669D01*
X140895288Y-70852919D01*
X140811763Y-70818322D01*
X140495983Y-70755510D01*
X140174017Y-70755510D01*
X139858237Y-70818322D01*
X139846015Y-70823384D01*
X131597390Y-62574760D01*
X131597390Y-57445262D01*
X131705211Y-57484709D01*
X131720974Y-57487358D01*
X131953000Y-57366217D01*
X131953000Y-56007000D01*
X131933000Y-56007000D01*
X131933000Y-55753000D01*
X131953000Y-55753000D01*
X131953000Y-54393783D01*
X131720974Y-54272642D01*
X131705211Y-54275291D01*
X131597390Y-54314738D01*
X131597390Y-53630240D01*
X139221751Y-46005880D01*
X139250821Y-45982023D01*
X139346044Y-45865993D01*
X139416801Y-45733616D01*
X139460373Y-45589979D01*
X139471399Y-45478027D01*
X139471399Y-45478025D01*
X139475085Y-45440602D01*
X139471399Y-45403179D01*
X139471399Y-41551637D01*
X139660223Y-41608916D01*
X139880381Y-41630600D01*
X140027619Y-41630600D01*
X140247777Y-41608916D01*
X140530264Y-41523225D01*
X140790606Y-41384069D01*
X141018797Y-41196797D01*
X141206069Y-40968606D01*
X141224000Y-40935060D01*
X141241931Y-40968606D01*
X141241931Y-40968606D01*
G37*
X141241931Y-40968606D02*
X141429203Y-41196797D01*
X141657394Y-41384069D01*
X141917736Y-41523225D01*
X142200223Y-41608916D01*
X142420381Y-41630600D01*
X142567619Y-41630600D01*
X142787777Y-41608916D01*
X142976601Y-41551637D01*
X142976602Y-44533224D01*
X132981118Y-54528708D01*
X132730919Y-54376314D01*
X132454789Y-54275291D01*
X132439026Y-54272642D01*
X132207000Y-54393783D01*
X132207000Y-55753000D01*
X132227000Y-55753000D01*
X132227000Y-56007000D01*
X132207000Y-56007000D01*
X132207000Y-57366217D01*
X132439026Y-57487358D01*
X132454789Y-57484709D01*
X132613390Y-57426684D01*
X132613391Y-62217957D01*
X132609704Y-62255390D01*
X132624417Y-62404768D01*
X132667989Y-62548405D01*
X132738745Y-62680782D01*
X132788175Y-62741012D01*
X132833969Y-62796812D01*
X132863039Y-62820669D01*
X140895288Y-70852919D01*
X140811763Y-70818322D01*
X140495983Y-70755510D01*
X140174017Y-70755510D01*
X139858237Y-70818322D01*
X139846015Y-70823384D01*
X131597390Y-62574760D01*
X131597390Y-57445262D01*
X131705211Y-57484709D01*
X131720974Y-57487358D01*
X131953000Y-57366217D01*
X131953000Y-56007000D01*
X131933000Y-56007000D01*
X131933000Y-55753000D01*
X131953000Y-55753000D01*
X131953000Y-54393783D01*
X131720974Y-54272642D01*
X131705211Y-54275291D01*
X131597390Y-54314738D01*
X131597390Y-53630240D01*
X139221751Y-46005880D01*
X139250821Y-45982023D01*
X139346044Y-45865993D01*
X139416801Y-45733616D01*
X139460373Y-45589979D01*
X139471399Y-45478027D01*
X139471399Y-45478025D01*
X139475085Y-45440602D01*
X139471399Y-45403179D01*
X139471399Y-41551637D01*
X139660223Y-41608916D01*
X139880381Y-41630600D01*
X140027619Y-41630600D01*
X140247777Y-41608916D01*
X140530264Y-41523225D01*
X140790606Y-41384069D01*
X141018797Y-41196797D01*
X141206069Y-40968606D01*
X141224000Y-40935060D01*
X141241931Y-40968606D01*
G36*
X148358328Y-56515010D02*
G01*
X146198840Y-56515010D01*
X146265185Y-56241914D01*
X146120925Y-56007000D01*
X144907000Y-56007000D01*
X144907000Y-56027000D01*
X144653000Y-56027000D01*
X144653000Y-56007000D01*
X144633000Y-56007000D01*
X144633000Y-55753000D01*
X144653000Y-55753000D01*
X144653000Y-55733000D01*
X144907000Y-55733000D01*
X144907000Y-55753000D01*
X146120925Y-55753000D01*
X146265185Y-55518086D01*
X146198842Y-55244999D01*
X148358328Y-55244999D01*
X148358328Y-56515010D01*
X148358328Y-56515010D01*
G37*
X148358328Y-56515010D02*
X146198840Y-56515010D01*
X146265185Y-56241914D01*
X146120925Y-56007000D01*
X144907000Y-56007000D01*
X144907000Y-56027000D01*
X144653000Y-56027000D01*
X144653000Y-56007000D01*
X144633000Y-56007000D01*
X144633000Y-55753000D01*
X144653000Y-55753000D01*
X144653000Y-55733000D01*
X144907000Y-55733000D01*
X144907000Y-55753000D01*
X146120925Y-55753000D01*
X146265185Y-55518086D01*
X146198842Y-55244999D01*
X148358328Y-55244999D01*
X148358328Y-56515010D01*
G36*
X152527000Y-55753000D02*
G01*
X152547000Y-55753000D01*
X152547000Y-56007000D01*
X152527000Y-56007000D01*
X152527000Y-56027000D01*
X152273000Y-56027000D01*
X152273000Y-56007000D01*
X152253000Y-56007000D01*
X152253000Y-55753000D01*
X152273000Y-55753000D01*
X152273000Y-55733000D01*
X152527000Y-55733000D01*
X152527000Y-55753000D01*
X152527000Y-55753000D01*
G37*
X152527000Y-55753000D02*
X152547000Y-55753000D01*
X152547000Y-56007000D01*
X152527000Y-56007000D01*
X152527000Y-56027000D01*
X152273000Y-56027000D01*
X152273000Y-56007000D01*
X152253000Y-56007000D01*
X152253000Y-55753000D01*
X152273000Y-55753000D01*
X152273000Y-55733000D01*
X152527000Y-55733000D01*
X152527000Y-55753000D01*
G36*
X150241000Y-40005000D02*
G01*
X150261000Y-40005000D01*
X150261000Y-40259000D01*
X150241000Y-40259000D01*
X150241000Y-41465817D01*
X150473026Y-41586958D01*
X150623814Y-41541222D01*
X150888944Y-41414684D01*
X151124293Y-41238854D01*
X151320817Y-41020488D01*
X151378137Y-40924090D01*
X151401931Y-40968606D01*
X151589203Y-41196797D01*
X151817394Y-41384069D01*
X152077736Y-41523225D01*
X152360223Y-41608916D01*
X152580381Y-41630600D01*
X152727619Y-41630600D01*
X152947777Y-41608916D01*
X153230264Y-41523225D01*
X153490606Y-41384069D01*
X153718797Y-41196797D01*
X153906069Y-40968606D01*
X153924000Y-40935060D01*
X153941931Y-40968606D01*
X154129203Y-41196797D01*
X154357394Y-41384069D01*
X154617736Y-41523225D01*
X154900223Y-41608916D01*
X155120381Y-41630600D01*
X155267619Y-41630600D01*
X155487777Y-41608916D01*
X155770264Y-41523225D01*
X156030606Y-41384069D01*
X156258797Y-41196797D01*
X156446069Y-40968606D01*
X156464000Y-40935060D01*
X156481931Y-40968606D01*
X156669203Y-41196797D01*
X156897394Y-41384069D01*
X157157736Y-41523225D01*
X157440223Y-41608916D01*
X157660381Y-41630600D01*
X157807619Y-41630600D01*
X158027777Y-41608916D01*
X158310264Y-41523225D01*
X158570606Y-41384069D01*
X158798797Y-41196797D01*
X158986069Y-40968606D01*
X159004000Y-40935060D01*
X159021931Y-40968606D01*
X159209203Y-41196797D01*
X159437394Y-41384069D01*
X159697736Y-41523225D01*
X159980223Y-41608916D01*
X160200381Y-41630600D01*
X160347619Y-41630600D01*
X160567777Y-41608916D01*
X160850264Y-41523225D01*
X161110606Y-41384069D01*
X161338797Y-41196797D01*
X161526069Y-40968606D01*
X161544000Y-40935060D01*
X161561931Y-40968606D01*
X161749203Y-41196797D01*
X161977394Y-41384069D01*
X162237736Y-41523225D01*
X162520223Y-41608916D01*
X162740381Y-41630600D01*
X162887619Y-41630600D01*
X163107777Y-41608916D01*
X163296601Y-41551637D01*
X163296602Y-52888624D01*
X163292915Y-52926057D01*
X163307628Y-53075435D01*
X163351200Y-53219072D01*
X163421956Y-53351449D01*
X163489428Y-53433663D01*
X163517180Y-53467479D01*
X163546250Y-53491336D01*
X163775913Y-53720999D01*
X143522024Y-53720999D01*
X143484601Y-53717313D01*
X143447178Y-53720999D01*
X143447175Y-53720999D01*
X143335223Y-53732025D01*
X143191586Y-53775597D01*
X143145752Y-53800096D01*
X143059208Y-53846354D01*
X143018346Y-53879889D01*
X142943179Y-53941577D01*
X142919317Y-53970653D01*
X142614729Y-54275241D01*
X142533776Y-54250684D01*
X142240000Y-54221749D01*
X141946223Y-54250684D01*
X141663736Y-54336375D01*
X141403394Y-54475531D01*
X141175203Y-54662803D01*
X140987931Y-54890995D01*
X140970000Y-54924541D01*
X140952069Y-54890994D01*
X140764797Y-54662803D01*
X140536605Y-54475531D01*
X140276263Y-54336375D01*
X139993776Y-54250684D01*
X139700000Y-54221749D01*
X139406223Y-54250684D01*
X139123736Y-54336375D01*
X138863394Y-54475531D01*
X138635203Y-54662803D01*
X138447931Y-54890995D01*
X138430000Y-54924541D01*
X138412069Y-54890994D01*
X138224797Y-54662803D01*
X137996605Y-54475531D01*
X137736263Y-54336375D01*
X137453776Y-54250684D01*
X137199583Y-54225648D01*
X148086353Y-43338878D01*
X148115422Y-43315022D01*
X148210645Y-43198992D01*
X148281402Y-43066615D01*
X148324974Y-42922978D01*
X148336000Y-42811026D01*
X148336000Y-42811017D01*
X148339685Y-42773601D01*
X148336000Y-42736185D01*
X148336000Y-41423947D01*
X148410606Y-41384069D01*
X148638797Y-41196797D01*
X148826069Y-40968606D01*
X148849863Y-40924090D01*
X148907183Y-41020488D01*
X149103707Y-41238854D01*
X149339056Y-41414684D01*
X149604186Y-41541222D01*
X149754974Y-41586958D01*
X149987000Y-41465817D01*
X149987000Y-40259000D01*
X149967000Y-40259000D01*
X149967000Y-40005000D01*
X149987000Y-40005000D01*
X149987000Y-39985000D01*
X150241000Y-39985000D01*
X150241000Y-40005000D01*
X150241000Y-40005000D01*
G37*
X150241000Y-40005000D02*
X150261000Y-40005000D01*
X150261000Y-40259000D01*
X150241000Y-40259000D01*
X150241000Y-41465817D01*
X150473026Y-41586958D01*
X150623814Y-41541222D01*
X150888944Y-41414684D01*
X151124293Y-41238854D01*
X151320817Y-41020488D01*
X151378137Y-40924090D01*
X151401931Y-40968606D01*
X151589203Y-41196797D01*
X151817394Y-41384069D01*
X152077736Y-41523225D01*
X152360223Y-41608916D01*
X152580381Y-41630600D01*
X152727619Y-41630600D01*
X152947777Y-41608916D01*
X153230264Y-41523225D01*
X153490606Y-41384069D01*
X153718797Y-41196797D01*
X153906069Y-40968606D01*
X153924000Y-40935060D01*
X153941931Y-40968606D01*
X154129203Y-41196797D01*
X154357394Y-41384069D01*
X154617736Y-41523225D01*
X154900223Y-41608916D01*
X155120381Y-41630600D01*
X155267619Y-41630600D01*
X155487777Y-41608916D01*
X155770264Y-41523225D01*
X156030606Y-41384069D01*
X156258797Y-41196797D01*
X156446069Y-40968606D01*
X156464000Y-40935060D01*
X156481931Y-40968606D01*
X156669203Y-41196797D01*
X156897394Y-41384069D01*
X157157736Y-41523225D01*
X157440223Y-41608916D01*
X157660381Y-41630600D01*
X157807619Y-41630600D01*
X158027777Y-41608916D01*
X158310264Y-41523225D01*
X158570606Y-41384069D01*
X158798797Y-41196797D01*
X158986069Y-40968606D01*
X159004000Y-40935060D01*
X159021931Y-40968606D01*
X159209203Y-41196797D01*
X159437394Y-41384069D01*
X159697736Y-41523225D01*
X159980223Y-41608916D01*
X160200381Y-41630600D01*
X160347619Y-41630600D01*
X160567777Y-41608916D01*
X160850264Y-41523225D01*
X161110606Y-41384069D01*
X161338797Y-41196797D01*
X161526069Y-40968606D01*
X161544000Y-40935060D01*
X161561931Y-40968606D01*
X161749203Y-41196797D01*
X161977394Y-41384069D01*
X162237736Y-41523225D01*
X162520223Y-41608916D01*
X162740381Y-41630600D01*
X162887619Y-41630600D01*
X163107777Y-41608916D01*
X163296601Y-41551637D01*
X163296602Y-52888624D01*
X163292915Y-52926057D01*
X163307628Y-53075435D01*
X163351200Y-53219072D01*
X163421956Y-53351449D01*
X163489428Y-53433663D01*
X163517180Y-53467479D01*
X163546250Y-53491336D01*
X163775913Y-53720999D01*
X143522024Y-53720999D01*
X143484601Y-53717313D01*
X143447178Y-53720999D01*
X143447175Y-53720999D01*
X143335223Y-53732025D01*
X143191586Y-53775597D01*
X143145752Y-53800096D01*
X143059208Y-53846354D01*
X143018346Y-53879889D01*
X142943179Y-53941577D01*
X142919317Y-53970653D01*
X142614729Y-54275241D01*
X142533776Y-54250684D01*
X142240000Y-54221749D01*
X141946223Y-54250684D01*
X141663736Y-54336375D01*
X141403394Y-54475531D01*
X141175203Y-54662803D01*
X140987931Y-54890995D01*
X140970000Y-54924541D01*
X140952069Y-54890994D01*
X140764797Y-54662803D01*
X140536605Y-54475531D01*
X140276263Y-54336375D01*
X139993776Y-54250684D01*
X139700000Y-54221749D01*
X139406223Y-54250684D01*
X139123736Y-54336375D01*
X138863394Y-54475531D01*
X138635203Y-54662803D01*
X138447931Y-54890995D01*
X138430000Y-54924541D01*
X138412069Y-54890994D01*
X138224797Y-54662803D01*
X137996605Y-54475531D01*
X137736263Y-54336375D01*
X137453776Y-54250684D01*
X137199583Y-54225648D01*
X148086353Y-43338878D01*
X148115422Y-43315022D01*
X148210645Y-43198992D01*
X148281402Y-43066615D01*
X148324974Y-42922978D01*
X148336000Y-42811026D01*
X148336000Y-42811017D01*
X148339685Y-42773601D01*
X148336000Y-42736185D01*
X148336000Y-41423947D01*
X148410606Y-41384069D01*
X148638797Y-41196797D01*
X148826069Y-40968606D01*
X148849863Y-40924090D01*
X148907183Y-41020488D01*
X149103707Y-41238854D01*
X149339056Y-41414684D01*
X149604186Y-41541222D01*
X149754974Y-41586958D01*
X149987000Y-41465817D01*
X149987000Y-40259000D01*
X149967000Y-40259000D01*
X149967000Y-40005000D01*
X149987000Y-40005000D01*
X149987000Y-39985000D01*
X150241000Y-39985000D01*
X150241000Y-40005000D01*
G36*
X129921000Y-40005000D02*
G01*
X129941000Y-40005000D01*
X129941000Y-40259000D01*
X129921000Y-40259000D01*
X129921000Y-41465817D01*
X130153026Y-41586958D01*
X130303814Y-41541222D01*
X130568944Y-41414684D01*
X130804293Y-41238854D01*
X131000817Y-41020488D01*
X131058137Y-40924090D01*
X131081931Y-40968606D01*
X131269203Y-41196797D01*
X131497394Y-41384069D01*
X131757736Y-41523225D01*
X132040223Y-41608916D01*
X132260381Y-41630600D01*
X132297770Y-41630600D01*
X129311399Y-44616971D01*
X129311399Y-41549476D01*
X129434974Y-41586958D01*
X129667000Y-41465817D01*
X129667000Y-40259000D01*
X129647000Y-40259000D01*
X129647000Y-40005000D01*
X129667000Y-40005000D01*
X129667000Y-39985000D01*
X129921000Y-39985000D01*
X129921000Y-40005000D01*
X129921000Y-40005000D01*
G37*
X129921000Y-40005000D02*
X129941000Y-40005000D01*
X129941000Y-40259000D01*
X129921000Y-40259000D01*
X129921000Y-41465817D01*
X130153026Y-41586958D01*
X130303814Y-41541222D01*
X130568944Y-41414684D01*
X130804293Y-41238854D01*
X131000817Y-41020488D01*
X131058137Y-40924090D01*
X131081931Y-40968606D01*
X131269203Y-41196797D01*
X131497394Y-41384069D01*
X131757736Y-41523225D01*
X132040223Y-41608916D01*
X132260381Y-41630600D01*
X132297770Y-41630600D01*
X129311399Y-44616971D01*
X129311399Y-41549476D01*
X129434974Y-41586958D01*
X129667000Y-41465817D01*
X129667000Y-40259000D01*
X129647000Y-40259000D01*
X129647000Y-40005000D01*
X129667000Y-40005000D01*
X129667000Y-39985000D01*
X129921000Y-39985000D01*
X129921000Y-40005000D01*
M02*
