M48
; DRILL file {KiCad (5.1.0-0)} date 2019年04月27日 星期六 05:28:42
; FORMAT={-:-/ absolute / inch / decimal}
; #@! TF.CreationDate,2019-04-27T17:28:42+08:00
; #@! TF.GenerationSoftware,Kicad,Pcbnew,(5.1.0-0)
; #@! TF.FileFunction,Plated,1,2,PTH
FMAT,2
INCH
T1C0.0394
T2C0.0400
%
G90
G05
T1
X5.825Y-3.425
X5.825Y-3.525
X5.525Y-2.85
X5.525Y-3.25
X4.475Y-1.725
X4.875Y-1.725
X5.775Y-2.85
X5.775Y-3.25
X4.475Y-1.85
X5.65Y-2.85
X5.65Y-3.25
X4.875Y-1.85
X5.475Y-3.425
X5.475Y-3.525
X5.65Y-3.425
X5.65Y-3.525
T2
X5.1Y-2.2
X5.2Y-2.2
X5.3Y-2.2
X5.4Y-2.2
X5.5Y-2.2
X5.6Y-2.2
X5.7Y-2.2
X4.5Y-2.2
X4.6Y-2.2
X4.7Y-2.2
X4.5Y-2.075
X4.6Y-2.075
X4.7Y-2.075
X4.8Y-2.075
X5.9Y-2.2
X6.0Y-2.2
X6.1Y-2.2
X6.2Y-2.2
X6.3Y-2.2
X6.4Y-2.2
X6.5Y-2.2
X6.6Y-2.2
X6.7Y-2.2
X6.8Y-2.2
X4.5Y-2.575
X4.5Y-2.675
X4.5Y-2.775
X4.5Y-2.875
X4.5Y-2.975
X4.5Y-3.075
X6.8Y-2.575
X6.8Y-2.675
X6.8Y-2.775
X6.8Y-2.875
X6.8Y-2.975
X6.8Y-3.075
X4.71Y-1.48
X4.71Y-1.58
X4.81Y-1.48
X4.81Y-1.58
X4.91Y-1.48
X4.91Y-1.58
X5.01Y-1.48
X5.01Y-1.58
X5.11Y-1.48
X5.11Y-1.58
X5.21Y-1.48
X5.21Y-1.58
X5.31Y-1.48
X5.31Y-1.58
X5.41Y-1.48
X5.41Y-1.58
X5.51Y-1.48
X5.51Y-1.58
X5.61Y-1.48
X5.61Y-1.58
X5.71Y-1.48
X5.71Y-1.58
X5.81Y-1.48
X5.81Y-1.58
X5.91Y-1.48
X5.91Y-1.58
X6.01Y-1.48
X6.01Y-1.58
X6.11Y-1.48
X6.11Y-1.58
X6.21Y-1.48
X6.21Y-1.58
X6.31Y-1.48
X6.31Y-1.58
X6.41Y-1.48
X6.41Y-1.58
X6.51Y-1.48
X6.51Y-1.58
X6.61Y-1.48
X6.61Y-1.58
T0
M30
