G04 #@! TF.GenerationSoftware,KiCad,Pcbnew,(5.1.0-0)*
G04 #@! TF.CreationDate,2019-04-27T17:28:38+08:00*
G04 #@! TF.ProjectId,RASPmini,52415350-6d69-46e6-992e-6b696361645f,rev?*
G04 #@! TF.SameCoordinates,Original*
G04 #@! TF.FileFunction,Legend,Top*
G04 #@! TF.FilePolarity,Positive*
%FSLAX46Y46*%
G04 Gerber Fmt 4.6, Leading zero omitted, Abs format (unit mm)*
G04 Created by KiCad (PCBNEW (5.1.0-0)) date 2019-04-27 17:28:38*
%MOMM*%
%LPD*%
G04 APERTURE LIST*
%ADD10C,0.400000*%
%ADD11C,0.150000*%
G04 APERTURE END LIST*
D10*
X134803571Y-67397142D02*
X133803571Y-65968571D01*
X133089285Y-67397142D02*
X133089285Y-64397142D01*
X134232142Y-64397142D01*
X134517857Y-64540000D01*
X134660714Y-64682857D01*
X134803571Y-64968571D01*
X134803571Y-65397142D01*
X134660714Y-65682857D01*
X134517857Y-65825714D01*
X134232142Y-65968571D01*
X133089285Y-65968571D01*
X135946428Y-66540000D02*
X137375000Y-66540000D01*
X135660714Y-67397142D02*
X136660714Y-64397142D01*
X137660714Y-67397142D01*
X138517857Y-67254285D02*
X138946428Y-67397142D01*
X139660714Y-67397142D01*
X139946428Y-67254285D01*
X140089285Y-67111428D01*
X140232142Y-66825714D01*
X140232142Y-66540000D01*
X140089285Y-66254285D01*
X139946428Y-66111428D01*
X139660714Y-65968571D01*
X139089285Y-65825714D01*
X138803571Y-65682857D01*
X138660714Y-65540000D01*
X138517857Y-65254285D01*
X138517857Y-64968571D01*
X138660714Y-64682857D01*
X138803571Y-64540000D01*
X139089285Y-64397142D01*
X139803571Y-64397142D01*
X140232142Y-64540000D01*
X141517857Y-67397142D02*
X141517857Y-64397142D01*
X142660714Y-64397142D01*
X142946428Y-64540000D01*
X143089285Y-64682857D01*
X143232142Y-64968571D01*
X143232142Y-65397142D01*
X143089285Y-65682857D01*
X142946428Y-65825714D01*
X142660714Y-65968571D01*
X141517857Y-65968571D01*
X144517857Y-67397142D02*
X144517857Y-65397142D01*
X144517857Y-65682857D02*
X144660714Y-65540000D01*
X144946428Y-65397142D01*
X145375000Y-65397142D01*
X145660714Y-65540000D01*
X145803571Y-65825714D01*
X145803571Y-67397142D01*
X145803571Y-65825714D02*
X145946428Y-65540000D01*
X146232142Y-65397142D01*
X146660714Y-65397142D01*
X146946428Y-65540000D01*
X147089285Y-65825714D01*
X147089285Y-67397142D01*
X148517857Y-67397142D02*
X148517857Y-65397142D01*
X148517857Y-64397142D02*
X148375000Y-64540000D01*
X148517857Y-64682857D01*
X148660714Y-64540000D01*
X148517857Y-64397142D01*
X148517857Y-64682857D01*
X149946428Y-65397142D02*
X149946428Y-67397142D01*
X149946428Y-65682857D02*
X150089285Y-65540000D01*
X150375000Y-65397142D01*
X150803571Y-65397142D01*
X151089285Y-65540000D01*
X151232142Y-65825714D01*
X151232142Y-67397142D01*
X152660714Y-67397142D02*
X152660714Y-65397142D01*
X152660714Y-64397142D02*
X152517857Y-64540000D01*
X152660714Y-64682857D01*
X152803571Y-64540000D01*
X152660714Y-64397142D01*
X152660714Y-64682857D01*
D11*
X114109523Y-58618380D02*
X113776190Y-58142190D01*
X113538095Y-58618380D02*
X113538095Y-57618380D01*
X113919047Y-57618380D01*
X114014285Y-57666000D01*
X114061904Y-57713619D01*
X114109523Y-57808857D01*
X114109523Y-57951714D01*
X114061904Y-58046952D01*
X114014285Y-58094571D01*
X113919047Y-58142190D01*
X113538095Y-58142190D01*
X115109523Y-58523142D02*
X115061904Y-58570761D01*
X114919047Y-58618380D01*
X114823809Y-58618380D01*
X114680952Y-58570761D01*
X114585714Y-58475523D01*
X114538095Y-58380285D01*
X114490476Y-58189809D01*
X114490476Y-58046952D01*
X114538095Y-57856476D01*
X114585714Y-57761238D01*
X114680952Y-57666000D01*
X114823809Y-57618380D01*
X114919047Y-57618380D01*
X115061904Y-57666000D01*
X115109523Y-57713619D01*
X116649523Y-57618380D02*
X116173333Y-57618380D01*
X116125714Y-58094571D01*
X116173333Y-58046952D01*
X116268571Y-57999333D01*
X116506666Y-57999333D01*
X116601904Y-58046952D01*
X116649523Y-58094571D01*
X116697142Y-58189809D01*
X116697142Y-58427904D01*
X116649523Y-58523142D01*
X116601904Y-58570761D01*
X116506666Y-58618380D01*
X116268571Y-58618380D01*
X116173333Y-58570761D01*
X116125714Y-58523142D01*
X116982857Y-57618380D02*
X117316190Y-58618380D01*
X117649523Y-57618380D01*
X119126095Y-57666000D02*
X119030857Y-57618380D01*
X118888000Y-57618380D01*
X118745142Y-57666000D01*
X118649904Y-57761238D01*
X118602285Y-57856476D01*
X118554666Y-58046952D01*
X118554666Y-58189809D01*
X118602285Y-58380285D01*
X118649904Y-58475523D01*
X118745142Y-58570761D01*
X118888000Y-58618380D01*
X118983238Y-58618380D01*
X119126095Y-58570761D01*
X119173714Y-58523142D01*
X119173714Y-58189809D01*
X118983238Y-58189809D01*
X119602285Y-58618380D02*
X119602285Y-57618380D01*
X120173714Y-58618380D01*
X120173714Y-57618380D01*
X120649904Y-58618380D02*
X120649904Y-57618380D01*
X120888000Y-57618380D01*
X121030857Y-57666000D01*
X121126095Y-57761238D01*
X121173714Y-57856476D01*
X121221333Y-58046952D01*
X121221333Y-58189809D01*
X121173714Y-58380285D01*
X121126095Y-58475523D01*
X121030857Y-58570761D01*
X120888000Y-58618380D01*
X120649904Y-58618380D01*
X121793095Y-49665000D02*
X121697857Y-49617380D01*
X121555000Y-49617380D01*
X121412142Y-49665000D01*
X121316904Y-49760238D01*
X121269285Y-49855476D01*
X121221666Y-50045952D01*
X121221666Y-50188809D01*
X121269285Y-50379285D01*
X121316904Y-50474523D01*
X121412142Y-50569761D01*
X121555000Y-50617380D01*
X121650238Y-50617380D01*
X121793095Y-50569761D01*
X121840714Y-50522142D01*
X121840714Y-50188809D01*
X121650238Y-50188809D01*
X122269285Y-50617380D02*
X122269285Y-49617380D01*
X122840714Y-50617380D01*
X122840714Y-49617380D01*
X123316904Y-50617380D02*
X123316904Y-49617380D01*
X123555000Y-49617380D01*
X123697857Y-49665000D01*
X123793095Y-49760238D01*
X123840714Y-49855476D01*
X123888333Y-50045952D01*
X123888333Y-50188809D01*
X123840714Y-50379285D01*
X123793095Y-50474523D01*
X123697857Y-50569761D01*
X123555000Y-50617380D01*
X123316904Y-50617380D01*
X119213333Y-50617380D02*
X118880000Y-50141190D01*
X118641904Y-50617380D02*
X118641904Y-49617380D01*
X119022857Y-49617380D01*
X119118095Y-49665000D01*
X119165714Y-49712619D01*
X119213333Y-49807857D01*
X119213333Y-49950714D01*
X119165714Y-50045952D01*
X119118095Y-50093571D01*
X119022857Y-50141190D01*
X118641904Y-50141190D01*
X119546666Y-49617380D02*
X120213333Y-50617380D01*
X120213333Y-49617380D02*
X119546666Y-50617380D01*
X116078095Y-49617380D02*
X116649523Y-49617380D01*
X116363809Y-50617380D02*
X116363809Y-49617380D01*
X116887619Y-49617380D02*
X117554285Y-50617380D01*
X117554285Y-49617380D02*
X116887619Y-50617380D01*
X112188809Y-49617380D02*
X112807857Y-49617380D01*
X112474523Y-49998333D01*
X112617380Y-49998333D01*
X112712619Y-50045952D01*
X112760238Y-50093571D01*
X112807857Y-50188809D01*
X112807857Y-50426904D01*
X112760238Y-50522142D01*
X112712619Y-50569761D01*
X112617380Y-50617380D01*
X112331666Y-50617380D01*
X112236428Y-50569761D01*
X112188809Y-50522142D01*
X113236428Y-50522142D02*
X113284047Y-50569761D01*
X113236428Y-50617380D01*
X113188809Y-50569761D01*
X113236428Y-50522142D01*
X113236428Y-50617380D01*
X113617380Y-49617380D02*
X114236428Y-49617380D01*
X113903095Y-49998333D01*
X114045952Y-49998333D01*
X114141190Y-50045952D01*
X114188809Y-50093571D01*
X114236428Y-50188809D01*
X114236428Y-50426904D01*
X114188809Y-50522142D01*
X114141190Y-50569761D01*
X114045952Y-50617380D01*
X113760238Y-50617380D01*
X113665000Y-50569761D01*
X113617380Y-50522142D01*
X114522142Y-49617380D02*
X114855476Y-50617380D01*
X115188809Y-49617380D01*
X169164000Y-36322000D02*
X118364000Y-36322000D01*
X120904000Y-41402000D02*
X169164000Y-41402000D01*
X169164000Y-36322000D02*
X169164000Y-41402000D01*
X118364000Y-36322000D02*
X118364000Y-38862000D01*
X118084000Y-40132000D02*
X118084000Y-41682000D01*
X118364000Y-38862000D02*
X120904000Y-38862000D01*
X120904000Y-38862000D02*
X120904000Y-41402000D01*
X118084000Y-41682000D02*
X119634000Y-41682000D01*
X139065000Y-80010000D02*
X139065000Y-74930000D01*
X139065000Y-74930000D02*
X141605000Y-74930000D01*
X141605000Y-74930000D02*
X141605000Y-80010000D01*
X141605000Y-80010000D02*
X139065000Y-80010000D01*
X140335000Y-80010000D02*
X140335000Y-81280000D01*
X140335000Y-74930000D02*
X140335000Y-73660000D01*
X115570000Y-53975000D02*
X123190000Y-53975000D01*
X115570000Y-51435000D02*
X123190000Y-51435000D01*
X112750000Y-51155000D02*
X114300000Y-51155000D01*
X123190000Y-53975000D02*
X123190000Y-51435000D01*
X115570000Y-51435000D02*
X115570000Y-53975000D01*
X114300000Y-54255000D02*
X112750000Y-54255000D01*
X112750000Y-54255000D02*
X112750000Y-51155000D01*
X115570000Y-57150000D02*
X120650000Y-57150000D01*
X120650000Y-57150000D02*
X120650000Y-54610000D01*
X120650000Y-54610000D02*
X115570000Y-54610000D01*
X112750000Y-54330000D02*
X114300000Y-54330000D01*
X115570000Y-54610000D02*
X115570000Y-57150000D01*
X114300000Y-57430000D02*
X112750000Y-57430000D01*
X112750000Y-57430000D02*
X112750000Y-54330000D01*
X137751000Y-86796000D02*
X137951000Y-86796000D01*
X140345000Y-86796000D02*
X140165000Y-86796000D01*
X140034643Y-90023744D02*
G75*
G03X140351000Y-86796000I-1003643J1727744D01*
G01*
X140164068Y-89348006D02*
G75*
G03X140165000Y-87245000I-1133068J1052006D01*
G01*
X137724274Y-86808780D02*
G75*
G03X138071000Y-90046000I1306726J-1497220D01*
G01*
X137951747Y-87282111D02*
G75*
G03X137971000Y-89330000I1079253J-1013889D01*
G01*
X142196000Y-86796000D02*
X142396000Y-86796000D01*
X144790000Y-86796000D02*
X144610000Y-86796000D01*
X144479643Y-90023744D02*
G75*
G03X144796000Y-86796000I-1003643J1727744D01*
G01*
X144609068Y-89348006D02*
G75*
G03X144610000Y-87245000I-1133068J1052006D01*
G01*
X142169274Y-86808780D02*
G75*
G03X142516000Y-90046000I1306726J-1497220D01*
G01*
X142396747Y-87282111D02*
G75*
G03X142416000Y-89330000I1079253J-1013889D01*
G01*
X146641000Y-86796000D02*
X146841000Y-86796000D01*
X149235000Y-86796000D02*
X149055000Y-86796000D01*
X148924643Y-90023744D02*
G75*
G03X149241000Y-86796000I-1003643J1727744D01*
G01*
X149054068Y-89348006D02*
G75*
G03X149055000Y-87245000I-1133068J1052006D01*
G01*
X146614274Y-86808780D02*
G75*
G03X146961000Y-90046000I1306726J-1497220D01*
G01*
X146841747Y-87282111D02*
G75*
G03X146861000Y-89330000I1079253J-1013889D01*
G01*
X142240000Y-80010000D02*
X142240000Y-74930000D01*
X142240000Y-74930000D02*
X144780000Y-74930000D01*
X144780000Y-74930000D02*
X144780000Y-80010000D01*
X144780000Y-80010000D02*
X142240000Y-80010000D01*
X143510000Y-80010000D02*
X143510000Y-81280000D01*
X143510000Y-74930000D02*
X143510000Y-73660000D01*
X145415000Y-80010000D02*
X145415000Y-74930000D01*
X145415000Y-74930000D02*
X147955000Y-74930000D01*
X147955000Y-74930000D02*
X147955000Y-80010000D01*
X147955000Y-80010000D02*
X145415000Y-80010000D01*
X146685000Y-80010000D02*
X146685000Y-81280000D01*
X146685000Y-74930000D02*
X146685000Y-73660000D01*
X116205000Y-45720000D02*
X121285000Y-45720000D01*
X121285000Y-45720000D02*
X121285000Y-48260000D01*
X121285000Y-48260000D02*
X116205000Y-48260000D01*
X116205000Y-48260000D02*
X116205000Y-45720000D01*
X116205000Y-46990000D02*
X114935000Y-46990000D01*
X121285000Y-46990000D02*
X122555000Y-46990000D01*
X121285000Y-45085000D02*
X116205000Y-45085000D01*
X116205000Y-45085000D02*
X116205000Y-42545000D01*
X116205000Y-42545000D02*
X121285000Y-42545000D01*
X121285000Y-42545000D02*
X121285000Y-45085000D01*
X121285000Y-43815000D02*
X122555000Y-43815000D01*
X116205000Y-43815000D02*
X114935000Y-43815000D01*
X112750000Y-63855000D02*
X115850000Y-63855000D01*
X112750000Y-65405000D02*
X112750000Y-63855000D01*
X115570000Y-66675000D02*
X113030000Y-66675000D01*
X115850000Y-63855000D02*
X115850000Y-65405000D01*
X113030000Y-79375000D02*
X113030000Y-66675000D01*
X115570000Y-79375000D02*
X113030000Y-79375000D01*
X115570000Y-66675000D02*
X115570000Y-79375000D01*
X115570000Y-79375000D02*
X113030000Y-79375000D01*
X113030000Y-79375000D02*
X113030000Y-66675000D01*
X115850000Y-63855000D02*
X115850000Y-65405000D01*
X115570000Y-66675000D02*
X113030000Y-66675000D01*
X112750000Y-65405000D02*
X112750000Y-63855000D01*
X112750000Y-63855000D02*
X115850000Y-63855000D01*
X112750000Y-63855000D02*
X115850000Y-63855000D01*
X112750000Y-65405000D02*
X112750000Y-63855000D01*
X115570000Y-66675000D02*
X113030000Y-66675000D01*
X115850000Y-63855000D02*
X115850000Y-65405000D01*
X113030000Y-79375000D02*
X113030000Y-66675000D01*
X115570000Y-79375000D02*
X113030000Y-79375000D01*
X115570000Y-66675000D02*
X115570000Y-79375000D01*
X115570000Y-79375000D02*
X113030000Y-79375000D01*
X113030000Y-79375000D02*
X113030000Y-66675000D01*
X115850000Y-63855000D02*
X115850000Y-65405000D01*
X115570000Y-66675000D02*
X113030000Y-66675000D01*
X112750000Y-65405000D02*
X112750000Y-63855000D01*
X112750000Y-63855000D02*
X115850000Y-63855000D01*
X171170000Y-63855000D02*
X174270000Y-63855000D01*
X171170000Y-65405000D02*
X171170000Y-63855000D01*
X173990000Y-66675000D02*
X171450000Y-66675000D01*
X174270000Y-63855000D02*
X174270000Y-65405000D01*
X171450000Y-79375000D02*
X171450000Y-66675000D01*
X173990000Y-79375000D02*
X171450000Y-79375000D01*
X173990000Y-66675000D02*
X173990000Y-79375000D01*
X173990000Y-79375000D02*
X171450000Y-79375000D01*
X171450000Y-79375000D02*
X171450000Y-66675000D01*
X174270000Y-63855000D02*
X174270000Y-65405000D01*
X173990000Y-66675000D02*
X171450000Y-66675000D01*
X171170000Y-65405000D02*
X171170000Y-63855000D01*
X171170000Y-63855000D02*
X174270000Y-63855000D01*
X171170000Y-63855000D02*
X174270000Y-63855000D01*
X171170000Y-65405000D02*
X171170000Y-63855000D01*
X173990000Y-66675000D02*
X171450000Y-66675000D01*
X174270000Y-63855000D02*
X174270000Y-65405000D01*
X171450000Y-79375000D02*
X171450000Y-66675000D01*
X173990000Y-79375000D02*
X171450000Y-79375000D01*
X173990000Y-66675000D02*
X173990000Y-79375000D01*
X173990000Y-79375000D02*
X171450000Y-79375000D01*
X171450000Y-79375000D02*
X171450000Y-66675000D01*
X174270000Y-63855000D02*
X174270000Y-65405000D01*
X173990000Y-66675000D02*
X171450000Y-66675000D01*
X171170000Y-65405000D02*
X171170000Y-63855000D01*
X171170000Y-63855000D02*
X174270000Y-63855000D01*
X112395000Y-59055000D02*
X174625000Y-59055000D01*
X174625000Y-59055000D02*
X174625000Y-84455000D01*
X174625000Y-84455000D02*
X112395000Y-84455000D01*
X112395000Y-84455000D02*
X112395000Y-59055000D01*
X127635000Y-57150000D02*
X127635000Y-44069000D01*
X146685000Y-57150000D02*
X146685000Y-44069000D01*
X127635000Y-44069000D02*
X146685000Y-44069000D01*
X146685000Y-57150000D02*
X127635000Y-57150000D01*
X130810000Y-54610000D02*
X146050000Y-54610000D01*
X146050000Y-54610000D02*
X146050000Y-57150000D01*
X146050000Y-57150000D02*
X130810000Y-57150000D01*
X127990000Y-54330000D02*
X129540000Y-54330000D01*
X130810000Y-54610000D02*
X130810000Y-57150000D01*
X129540000Y-57430000D02*
X127990000Y-57430000D01*
X127990000Y-57430000D02*
X127990000Y-54330000D01*
X173990000Y-42164000D02*
X173990000Y-57150000D01*
X148336000Y-42164000D02*
X148336000Y-57150000D01*
X148336000Y-42164000D02*
X173990000Y-42164000D01*
X151130000Y-54610000D02*
X173990000Y-54610000D01*
X173990000Y-54610000D02*
X173990000Y-57150000D01*
X173990000Y-57150000D02*
X151130000Y-57150000D01*
X148310000Y-54330000D02*
X149860000Y-54330000D01*
X151130000Y-54610000D02*
X151130000Y-57150000D01*
X149860000Y-57430000D02*
X148310000Y-57430000D01*
X148310000Y-57430000D02*
X148310000Y-54330000D01*
X139882619Y-78708095D02*
X139835000Y-78660476D01*
X139787380Y-78565238D01*
X139787380Y-78327142D01*
X139835000Y-78231904D01*
X139882619Y-78184285D01*
X139977857Y-78136666D01*
X140073095Y-78136666D01*
X140215952Y-78184285D01*
X140787380Y-78755714D01*
X140787380Y-78136666D01*
X139882619Y-77755714D02*
X139835000Y-77708095D01*
X139787380Y-77612857D01*
X139787380Y-77374761D01*
X139835000Y-77279523D01*
X139882619Y-77231904D01*
X139977857Y-77184285D01*
X140073095Y-77184285D01*
X140215952Y-77231904D01*
X140787380Y-77803333D01*
X140787380Y-77184285D01*
X139787380Y-76565238D02*
X139787380Y-76470000D01*
X139835000Y-76374761D01*
X139882619Y-76327142D01*
X139977857Y-76279523D01*
X140168333Y-76231904D01*
X140406428Y-76231904D01*
X140596904Y-76279523D01*
X140692142Y-76327142D01*
X140739761Y-76374761D01*
X140787380Y-76470000D01*
X140787380Y-76565238D01*
X140739761Y-76660476D01*
X140692142Y-76708095D01*
X140596904Y-76755714D01*
X140406428Y-76803333D01*
X140168333Y-76803333D01*
X139977857Y-76755714D01*
X139882619Y-76708095D01*
X139835000Y-76660476D01*
X139787380Y-76565238D01*
X123499761Y-52157380D02*
X123499761Y-52966904D01*
X123547380Y-53062142D01*
X123595000Y-53109761D01*
X123690238Y-53157380D01*
X123880714Y-53157380D01*
X123975952Y-53109761D01*
X124023571Y-53062142D01*
X124071190Y-52966904D01*
X124071190Y-52157380D01*
X124499761Y-52871666D02*
X124975952Y-52871666D01*
X124404523Y-53157380D02*
X124737857Y-52157380D01*
X125071190Y-53157380D01*
X125975952Y-53157380D02*
X125642619Y-52681190D01*
X125404523Y-53157380D02*
X125404523Y-52157380D01*
X125785476Y-52157380D01*
X125880714Y-52205000D01*
X125928333Y-52252619D01*
X125975952Y-52347857D01*
X125975952Y-52490714D01*
X125928333Y-52585952D01*
X125880714Y-52633571D01*
X125785476Y-52681190D01*
X125404523Y-52681190D01*
X126261666Y-52157380D02*
X126833095Y-52157380D01*
X126547380Y-53157380D02*
X126547380Y-52157380D01*
X121856666Y-56332380D02*
X121523333Y-55856190D01*
X121285238Y-56332380D02*
X121285238Y-55332380D01*
X121666190Y-55332380D01*
X121761428Y-55380000D01*
X121809047Y-55427619D01*
X121856666Y-55522857D01*
X121856666Y-55665714D01*
X121809047Y-55760952D01*
X121761428Y-55808571D01*
X121666190Y-55856190D01*
X121285238Y-55856190D01*
X122856666Y-56237142D02*
X122809047Y-56284761D01*
X122666190Y-56332380D01*
X122570952Y-56332380D01*
X122428095Y-56284761D01*
X122332857Y-56189523D01*
X122285238Y-56094285D01*
X122237619Y-55903809D01*
X122237619Y-55760952D01*
X122285238Y-55570476D01*
X122332857Y-55475238D01*
X122428095Y-55380000D01*
X122570952Y-55332380D01*
X122666190Y-55332380D01*
X122809047Y-55380000D01*
X122856666Y-55427619D01*
X124047142Y-56332380D02*
X124047142Y-55332380D01*
X124523333Y-56332380D02*
X124523333Y-55332380D01*
X125094761Y-56332380D01*
X125094761Y-55332380D01*
X137882476Y-85383666D02*
X138358666Y-85383666D01*
X137787238Y-85669380D02*
X138120571Y-84669380D01*
X138453904Y-85669380D01*
X139358666Y-85669380D02*
X139025333Y-85193190D01*
X138787238Y-85669380D02*
X138787238Y-84669380D01*
X139168190Y-84669380D01*
X139263428Y-84717000D01*
X139311047Y-84764619D01*
X139358666Y-84859857D01*
X139358666Y-85002714D01*
X139311047Y-85097952D01*
X139263428Y-85145571D01*
X139168190Y-85193190D01*
X138787238Y-85193190D01*
X139787238Y-85669380D02*
X139787238Y-84669380D01*
X140120571Y-85383666D01*
X140453904Y-84669380D01*
X140453904Y-85669380D01*
X142248095Y-85574142D02*
X142200476Y-85621761D01*
X142057619Y-85669380D01*
X141962380Y-85669380D01*
X141819523Y-85621761D01*
X141724285Y-85526523D01*
X141676666Y-85431285D01*
X141629047Y-85240809D01*
X141629047Y-85097952D01*
X141676666Y-84907476D01*
X141724285Y-84812238D01*
X141819523Y-84717000D01*
X141962380Y-84669380D01*
X142057619Y-84669380D01*
X142200476Y-84717000D01*
X142248095Y-84764619D01*
X142629047Y-85383666D02*
X143105238Y-85383666D01*
X142533809Y-85669380D02*
X142867142Y-84669380D01*
X143200476Y-85669380D01*
X144010000Y-85669380D02*
X143533809Y-85669380D01*
X143533809Y-84669380D01*
X144343333Y-85669380D02*
X144343333Y-84669380D01*
X145152857Y-85145571D02*
X145295714Y-85193190D01*
X145343333Y-85240809D01*
X145390952Y-85336047D01*
X145390952Y-85478904D01*
X145343333Y-85574142D01*
X145295714Y-85621761D01*
X145200476Y-85669380D01*
X144819523Y-85669380D01*
X144819523Y-84669380D01*
X145152857Y-84669380D01*
X145248095Y-84717000D01*
X145295714Y-84764619D01*
X145343333Y-84859857D01*
X145343333Y-84955095D01*
X145295714Y-85050333D01*
X145248095Y-85097952D01*
X145152857Y-85145571D01*
X144819523Y-85145571D01*
X147113714Y-84717000D02*
X147018476Y-84669380D01*
X146875619Y-84669380D01*
X146732761Y-84717000D01*
X146637523Y-84812238D01*
X146589904Y-84907476D01*
X146542285Y-85097952D01*
X146542285Y-85240809D01*
X146589904Y-85431285D01*
X146637523Y-85526523D01*
X146732761Y-85621761D01*
X146875619Y-85669380D01*
X146970857Y-85669380D01*
X147113714Y-85621761D01*
X147161333Y-85574142D01*
X147161333Y-85240809D01*
X146970857Y-85240809D01*
X147589904Y-85669380D02*
X147589904Y-84669380D01*
X147970857Y-84669380D01*
X148066095Y-84717000D01*
X148113714Y-84764619D01*
X148161333Y-84859857D01*
X148161333Y-85002714D01*
X148113714Y-85097952D01*
X148066095Y-85145571D01*
X147970857Y-85193190D01*
X147589904Y-85193190D01*
X148542285Y-85621761D02*
X148685142Y-85669380D01*
X148923238Y-85669380D01*
X149018476Y-85621761D01*
X149066095Y-85574142D01*
X149113714Y-85478904D01*
X149113714Y-85383666D01*
X149066095Y-85288428D01*
X149018476Y-85240809D01*
X148923238Y-85193190D01*
X148732761Y-85145571D01*
X148637523Y-85097952D01*
X148589904Y-85050333D01*
X148542285Y-84955095D01*
X148542285Y-84859857D01*
X148589904Y-84764619D01*
X148637523Y-84717000D01*
X148732761Y-84669380D01*
X148970857Y-84669380D01*
X149113714Y-84717000D01*
X143057619Y-78708095D02*
X143010000Y-78660476D01*
X142962380Y-78565238D01*
X142962380Y-78327142D01*
X143010000Y-78231904D01*
X143057619Y-78184285D01*
X143152857Y-78136666D01*
X143248095Y-78136666D01*
X143390952Y-78184285D01*
X143962380Y-78755714D01*
X143962380Y-78136666D01*
X143057619Y-77755714D02*
X143010000Y-77708095D01*
X142962380Y-77612857D01*
X142962380Y-77374761D01*
X143010000Y-77279523D01*
X143057619Y-77231904D01*
X143152857Y-77184285D01*
X143248095Y-77184285D01*
X143390952Y-77231904D01*
X143962380Y-77803333D01*
X143962380Y-77184285D01*
X142962380Y-76565238D02*
X142962380Y-76470000D01*
X143010000Y-76374761D01*
X143057619Y-76327142D01*
X143152857Y-76279523D01*
X143343333Y-76231904D01*
X143581428Y-76231904D01*
X143771904Y-76279523D01*
X143867142Y-76327142D01*
X143914761Y-76374761D01*
X143962380Y-76470000D01*
X143962380Y-76565238D01*
X143914761Y-76660476D01*
X143867142Y-76708095D01*
X143771904Y-76755714D01*
X143581428Y-76803333D01*
X143343333Y-76803333D01*
X143152857Y-76755714D01*
X143057619Y-76708095D01*
X143010000Y-76660476D01*
X142962380Y-76565238D01*
X146232619Y-78708095D02*
X146185000Y-78660476D01*
X146137380Y-78565238D01*
X146137380Y-78327142D01*
X146185000Y-78231904D01*
X146232619Y-78184285D01*
X146327857Y-78136666D01*
X146423095Y-78136666D01*
X146565952Y-78184285D01*
X147137380Y-78755714D01*
X147137380Y-78136666D01*
X146232619Y-77755714D02*
X146185000Y-77708095D01*
X146137380Y-77612857D01*
X146137380Y-77374761D01*
X146185000Y-77279523D01*
X146232619Y-77231904D01*
X146327857Y-77184285D01*
X146423095Y-77184285D01*
X146565952Y-77231904D01*
X147137380Y-77803333D01*
X147137380Y-77184285D01*
X146137380Y-76565238D02*
X146137380Y-76470000D01*
X146185000Y-76374761D01*
X146232619Y-76327142D01*
X146327857Y-76279523D01*
X146518333Y-76231904D01*
X146756428Y-76231904D01*
X146946904Y-76279523D01*
X147042142Y-76327142D01*
X147089761Y-76374761D01*
X147137380Y-76470000D01*
X147137380Y-76565238D01*
X147089761Y-76660476D01*
X147042142Y-76708095D01*
X146946904Y-76755714D01*
X146756428Y-76803333D01*
X146518333Y-76803333D01*
X146327857Y-76755714D01*
X146232619Y-76708095D01*
X146185000Y-76660476D01*
X146137380Y-76565238D01*
X118054523Y-47442380D02*
X117483095Y-47442380D01*
X117768809Y-47442380D02*
X117768809Y-46442380D01*
X117673571Y-46585238D01*
X117578333Y-46680476D01*
X117483095Y-46728095D01*
X118625952Y-46870952D02*
X118530714Y-46823333D01*
X118483095Y-46775714D01*
X118435476Y-46680476D01*
X118435476Y-46632857D01*
X118483095Y-46537619D01*
X118530714Y-46490000D01*
X118625952Y-46442380D01*
X118816428Y-46442380D01*
X118911666Y-46490000D01*
X118959285Y-46537619D01*
X119006904Y-46632857D01*
X119006904Y-46680476D01*
X118959285Y-46775714D01*
X118911666Y-46823333D01*
X118816428Y-46870952D01*
X118625952Y-46870952D01*
X118530714Y-46918571D01*
X118483095Y-46966190D01*
X118435476Y-47061428D01*
X118435476Y-47251904D01*
X118483095Y-47347142D01*
X118530714Y-47394761D01*
X118625952Y-47442380D01*
X118816428Y-47442380D01*
X118911666Y-47394761D01*
X118959285Y-47347142D01*
X119006904Y-47251904D01*
X119006904Y-47061428D01*
X118959285Y-46966190D01*
X118911666Y-46918571D01*
X118816428Y-46870952D01*
X119435476Y-47442380D02*
X119435476Y-46442380D01*
X120006904Y-47442380D02*
X119578333Y-46870952D01*
X120006904Y-46442380D02*
X119435476Y-47013809D01*
X117435476Y-43267380D02*
X118054523Y-43267380D01*
X117721190Y-43648333D01*
X117864047Y-43648333D01*
X117959285Y-43695952D01*
X118006904Y-43743571D01*
X118054523Y-43838809D01*
X118054523Y-44076904D01*
X118006904Y-44172142D01*
X117959285Y-44219761D01*
X117864047Y-44267380D01*
X117578333Y-44267380D01*
X117483095Y-44219761D01*
X117435476Y-44172142D01*
X118387857Y-43267380D02*
X119006904Y-43267380D01*
X118673571Y-43648333D01*
X118816428Y-43648333D01*
X118911666Y-43695952D01*
X118959285Y-43743571D01*
X119006904Y-43838809D01*
X119006904Y-44076904D01*
X118959285Y-44172142D01*
X118911666Y-44219761D01*
X118816428Y-44267380D01*
X118530714Y-44267380D01*
X118435476Y-44219761D01*
X118387857Y-44172142D01*
X119435476Y-44267380D02*
X119435476Y-43267380D01*
X120006904Y-44267380D02*
X119578333Y-43695952D01*
X120006904Y-43267380D02*
X119435476Y-43838809D01*
X116919761Y-64587380D02*
X116919761Y-63587380D01*
X117300714Y-63587380D01*
X117395952Y-63635000D01*
X117443571Y-63682619D01*
X117491190Y-63777857D01*
X117491190Y-63920714D01*
X117443571Y-64015952D01*
X117395952Y-64063571D01*
X117300714Y-64111190D01*
X116919761Y-64111190D01*
X118491190Y-64492142D02*
X118443571Y-64539761D01*
X118300714Y-64587380D01*
X118205476Y-64587380D01*
X118062619Y-64539761D01*
X117967380Y-64444523D01*
X117919761Y-64349285D01*
X117872142Y-64158809D01*
X117872142Y-64015952D01*
X117919761Y-63825476D01*
X117967380Y-63730238D01*
X118062619Y-63635000D01*
X118205476Y-63587380D01*
X118300714Y-63587380D01*
X118443571Y-63635000D01*
X118491190Y-63682619D01*
X118872142Y-64301666D02*
X119348333Y-64301666D01*
X118776904Y-64587380D02*
X119110238Y-63587380D01*
X119443571Y-64587380D01*
X119824523Y-64587380D02*
X120015000Y-64587380D01*
X120110238Y-64539761D01*
X120157857Y-64492142D01*
X120253095Y-64349285D01*
X120300714Y-64158809D01*
X120300714Y-63777857D01*
X120253095Y-63682619D01*
X120205476Y-63635000D01*
X120110238Y-63587380D01*
X119919761Y-63587380D01*
X119824523Y-63635000D01*
X119776904Y-63682619D01*
X119729285Y-63777857D01*
X119729285Y-64015952D01*
X119776904Y-64111190D01*
X119824523Y-64158809D01*
X119919761Y-64206428D01*
X120110238Y-64206428D01*
X120205476Y-64158809D01*
X120253095Y-64111190D01*
X120300714Y-64015952D01*
X121157857Y-63587380D02*
X120967380Y-63587380D01*
X120872142Y-63635000D01*
X120824523Y-63682619D01*
X120729285Y-63825476D01*
X120681666Y-64015952D01*
X120681666Y-64396904D01*
X120729285Y-64492142D01*
X120776904Y-64539761D01*
X120872142Y-64587380D01*
X121062619Y-64587380D01*
X121157857Y-64539761D01*
X121205476Y-64492142D01*
X121253095Y-64396904D01*
X121253095Y-64158809D01*
X121205476Y-64063571D01*
X121157857Y-64015952D01*
X121062619Y-63968333D01*
X120872142Y-63968333D01*
X120776904Y-64015952D01*
X120729285Y-64063571D01*
X120681666Y-64158809D01*
X121824523Y-64015952D02*
X121729285Y-63968333D01*
X121681666Y-63920714D01*
X121634047Y-63825476D01*
X121634047Y-63777857D01*
X121681666Y-63682619D01*
X121729285Y-63635000D01*
X121824523Y-63587380D01*
X122015000Y-63587380D01*
X122110238Y-63635000D01*
X122157857Y-63682619D01*
X122205476Y-63777857D01*
X122205476Y-63825476D01*
X122157857Y-63920714D01*
X122110238Y-63968333D01*
X122015000Y-64015952D01*
X121824523Y-64015952D01*
X121729285Y-64063571D01*
X121681666Y-64111190D01*
X121634047Y-64206428D01*
X121634047Y-64396904D01*
X121681666Y-64492142D01*
X121729285Y-64539761D01*
X121824523Y-64587380D01*
X122015000Y-64587380D01*
X122110238Y-64539761D01*
X122157857Y-64492142D01*
X122205476Y-64396904D01*
X122205476Y-64206428D01*
X122157857Y-64111190D01*
X122110238Y-64063571D01*
X122015000Y-64015952D01*
X123110238Y-63587380D02*
X122634047Y-63587380D01*
X122586428Y-64063571D01*
X122634047Y-64015952D01*
X122729285Y-63968333D01*
X122967380Y-63968333D01*
X123062619Y-64015952D01*
X123110238Y-64063571D01*
X123157857Y-64158809D01*
X123157857Y-64396904D01*
X123110238Y-64492142D01*
X123062619Y-64539761D01*
X122967380Y-64587380D01*
X122729285Y-64587380D01*
X122634047Y-64539761D01*
X122586428Y-64492142D01*
X129357380Y-53514285D02*
X128357380Y-53514285D01*
X129071666Y-53180952D01*
X128357380Y-52847619D01*
X129357380Y-52847619D01*
X129309761Y-52419047D02*
X129357380Y-52276190D01*
X129357380Y-52038095D01*
X129309761Y-51942857D01*
X129262142Y-51895238D01*
X129166904Y-51847619D01*
X129071666Y-51847619D01*
X128976428Y-51895238D01*
X128928809Y-51942857D01*
X128881190Y-52038095D01*
X128833571Y-52228571D01*
X128785952Y-52323809D01*
X128738333Y-52371428D01*
X128643095Y-52419047D01*
X128547857Y-52419047D01*
X128452619Y-52371428D01*
X128405000Y-52323809D01*
X128357380Y-52228571D01*
X128357380Y-51990476D01*
X128405000Y-51847619D01*
X128357380Y-50942857D02*
X128357380Y-51419047D01*
X128833571Y-51466666D01*
X128785952Y-51419047D01*
X128738333Y-51323809D01*
X128738333Y-51085714D01*
X128785952Y-50990476D01*
X128833571Y-50942857D01*
X128928809Y-50895238D01*
X129166904Y-50895238D01*
X129262142Y-50942857D01*
X129309761Y-50990476D01*
X129357380Y-51085714D01*
X129357380Y-51323809D01*
X129309761Y-51419047D01*
X129262142Y-51466666D01*
X128357380Y-50038095D02*
X128357380Y-50228571D01*
X128405000Y-50323809D01*
X128452619Y-50371428D01*
X128595476Y-50466666D01*
X128785952Y-50514285D01*
X129166904Y-50514285D01*
X129262142Y-50466666D01*
X129309761Y-50419047D01*
X129357380Y-50323809D01*
X129357380Y-50133333D01*
X129309761Y-50038095D01*
X129262142Y-49990476D01*
X129166904Y-49942857D01*
X128928809Y-49942857D01*
X128833571Y-49990476D01*
X128785952Y-50038095D01*
X128738333Y-50133333D01*
X128738333Y-50323809D01*
X128785952Y-50419047D01*
X128833571Y-50466666D01*
X128928809Y-50514285D01*
X129357380Y-48990476D02*
X129357380Y-49561904D01*
X129357380Y-49276190D02*
X128357380Y-49276190D01*
X128500238Y-49371428D01*
X128595476Y-49466666D01*
X128643095Y-49561904D01*
X129357380Y-48038095D02*
X129357380Y-48609523D01*
X129357380Y-48323809D02*
X128357380Y-48323809D01*
X128500238Y-48419047D01*
X128595476Y-48514285D01*
X128643095Y-48609523D01*
X150312380Y-53426904D02*
X149312380Y-53426904D01*
X150026666Y-53093571D01*
X149312380Y-52760238D01*
X150312380Y-52760238D01*
X150312380Y-52284047D02*
X149312380Y-52284047D01*
X149312380Y-51903095D01*
X149360000Y-51807857D01*
X149407619Y-51760238D01*
X149502857Y-51712619D01*
X149645714Y-51712619D01*
X149740952Y-51760238D01*
X149788571Y-51807857D01*
X149836190Y-51903095D01*
X149836190Y-52284047D01*
X149312380Y-51284047D02*
X150121904Y-51284047D01*
X150217142Y-51236428D01*
X150264761Y-51188809D01*
X150312380Y-51093571D01*
X150312380Y-50903095D01*
X150264761Y-50807857D01*
X150217142Y-50760238D01*
X150121904Y-50712619D01*
X149312380Y-50712619D01*
X150312380Y-50188809D02*
X150312380Y-49998333D01*
X150264761Y-49903095D01*
X150217142Y-49855476D01*
X150074285Y-49760238D01*
X149883809Y-49712619D01*
X149502857Y-49712619D01*
X149407619Y-49760238D01*
X149360000Y-49807857D01*
X149312380Y-49903095D01*
X149312380Y-50093571D01*
X149360000Y-50188809D01*
X149407619Y-50236428D01*
X149502857Y-50284047D01*
X149740952Y-50284047D01*
X149836190Y-50236428D01*
X149883809Y-50188809D01*
X149931428Y-50093571D01*
X149931428Y-49903095D01*
X149883809Y-49807857D01*
X149836190Y-49760238D01*
X149740952Y-49712619D01*
X149407619Y-49331666D02*
X149360000Y-49284047D01*
X149312380Y-49188809D01*
X149312380Y-48950714D01*
X149360000Y-48855476D01*
X149407619Y-48807857D01*
X149502857Y-48760238D01*
X149598095Y-48760238D01*
X149740952Y-48807857D01*
X150312380Y-49379285D01*
X150312380Y-48760238D01*
X149312380Y-47855476D02*
X149312380Y-48331666D01*
X149788571Y-48379285D01*
X149740952Y-48331666D01*
X149693333Y-48236428D01*
X149693333Y-47998333D01*
X149740952Y-47903095D01*
X149788571Y-47855476D01*
X149883809Y-47807857D01*
X150121904Y-47807857D01*
X150217142Y-47855476D01*
X150264761Y-47903095D01*
X150312380Y-47998333D01*
X150312380Y-48236428D01*
X150264761Y-48331666D01*
X150217142Y-48379285D01*
X149312380Y-47188809D02*
X149312380Y-47093571D01*
X149360000Y-46998333D01*
X149407619Y-46950714D01*
X149502857Y-46903095D01*
X149693333Y-46855476D01*
X149931428Y-46855476D01*
X150121904Y-46903095D01*
X150217142Y-46950714D01*
X150264761Y-46998333D01*
X150312380Y-47093571D01*
X150312380Y-47188809D01*
X150264761Y-47284047D01*
X150217142Y-47331666D01*
X150121904Y-47379285D01*
X149931428Y-47426904D01*
X149693333Y-47426904D01*
X149502857Y-47379285D01*
X149407619Y-47331666D01*
X149360000Y-47284047D01*
X149312380Y-47188809D01*
M02*
