G04 #@! TF.FileFunction,Legend,Top*
%FSLAX46Y46*%
G04 Gerber Fmt 4.6, Leading zero omitted, Abs format (unit mm)*
G04 Created by KiCad (PCBNEW 4.0.4-stable) date 10/13/16 13:56:36*
%MOMM*%
%LPD*%
G01*
G04 APERTURE LIST*
%ADD10C,0.100000*%
%ADD11C,0.400000*%
%ADD12C,0.150000*%
G04 APERTURE END LIST*
D10*
D11*
X134803571Y-67397143D02*
X133803571Y-65968571D01*
X133089286Y-67397143D02*
X133089286Y-64397143D01*
X134232143Y-64397143D01*
X134517857Y-64540000D01*
X134660714Y-64682857D01*
X134803571Y-64968571D01*
X134803571Y-65397143D01*
X134660714Y-65682857D01*
X134517857Y-65825714D01*
X134232143Y-65968571D01*
X133089286Y-65968571D01*
X135946429Y-66540000D02*
X137375000Y-66540000D01*
X135660714Y-67397143D02*
X136660714Y-64397143D01*
X137660714Y-67397143D01*
X138517858Y-67254286D02*
X138946429Y-67397143D01*
X139660715Y-67397143D01*
X139946429Y-67254286D01*
X140089286Y-67111429D01*
X140232143Y-66825714D01*
X140232143Y-66540000D01*
X140089286Y-66254286D01*
X139946429Y-66111429D01*
X139660715Y-65968571D01*
X139089286Y-65825714D01*
X138803572Y-65682857D01*
X138660715Y-65540000D01*
X138517858Y-65254286D01*
X138517858Y-64968571D01*
X138660715Y-64682857D01*
X138803572Y-64540000D01*
X139089286Y-64397143D01*
X139803572Y-64397143D01*
X140232143Y-64540000D01*
X141517858Y-67397143D02*
X141517858Y-64397143D01*
X142660715Y-64397143D01*
X142946429Y-64540000D01*
X143089286Y-64682857D01*
X143232143Y-64968571D01*
X143232143Y-65397143D01*
X143089286Y-65682857D01*
X142946429Y-65825714D01*
X142660715Y-65968571D01*
X141517858Y-65968571D01*
X144517858Y-67397143D02*
X144517858Y-65397143D01*
X144517858Y-65682857D02*
X144660715Y-65540000D01*
X144946429Y-65397143D01*
X145375001Y-65397143D01*
X145660715Y-65540000D01*
X145803572Y-65825714D01*
X145803572Y-67397143D01*
X145803572Y-65825714D02*
X145946429Y-65540000D01*
X146232143Y-65397143D01*
X146660715Y-65397143D01*
X146946429Y-65540000D01*
X147089286Y-65825714D01*
X147089286Y-67397143D01*
X148517858Y-67397143D02*
X148517858Y-65397143D01*
X148517858Y-64397143D02*
X148375001Y-64540000D01*
X148517858Y-64682857D01*
X148660715Y-64540000D01*
X148517858Y-64397143D01*
X148517858Y-64682857D01*
X149946429Y-65397143D02*
X149946429Y-67397143D01*
X149946429Y-65682857D02*
X150089286Y-65540000D01*
X150375000Y-65397143D01*
X150803572Y-65397143D01*
X151089286Y-65540000D01*
X151232143Y-65825714D01*
X151232143Y-67397143D01*
X152660715Y-67397143D02*
X152660715Y-65397143D01*
X152660715Y-64397143D02*
X152517858Y-64540000D01*
X152660715Y-64682857D01*
X152803572Y-64540000D01*
X152660715Y-64397143D01*
X152660715Y-64682857D01*
D12*
X114109524Y-58618381D02*
X113776190Y-58142190D01*
X113538095Y-58618381D02*
X113538095Y-57618381D01*
X113919048Y-57618381D01*
X114014286Y-57666000D01*
X114061905Y-57713619D01*
X114109524Y-57808857D01*
X114109524Y-57951714D01*
X114061905Y-58046952D01*
X114014286Y-58094571D01*
X113919048Y-58142190D01*
X113538095Y-58142190D01*
X115109524Y-58523143D02*
X115061905Y-58570762D01*
X114919048Y-58618381D01*
X114823810Y-58618381D01*
X114680952Y-58570762D01*
X114585714Y-58475524D01*
X114538095Y-58380286D01*
X114490476Y-58189810D01*
X114490476Y-58046952D01*
X114538095Y-57856476D01*
X114585714Y-57761238D01*
X114680952Y-57666000D01*
X114823810Y-57618381D01*
X114919048Y-57618381D01*
X115061905Y-57666000D01*
X115109524Y-57713619D01*
X116649524Y-57618381D02*
X116173333Y-57618381D01*
X116125714Y-58094571D01*
X116173333Y-58046952D01*
X116268571Y-57999333D01*
X116506667Y-57999333D01*
X116601905Y-58046952D01*
X116649524Y-58094571D01*
X116697143Y-58189810D01*
X116697143Y-58427905D01*
X116649524Y-58523143D01*
X116601905Y-58570762D01*
X116506667Y-58618381D01*
X116268571Y-58618381D01*
X116173333Y-58570762D01*
X116125714Y-58523143D01*
X116982857Y-57618381D02*
X117316190Y-58618381D01*
X117649524Y-57618381D01*
X119126096Y-57666000D02*
X119030858Y-57618381D01*
X118888001Y-57618381D01*
X118745143Y-57666000D01*
X118649905Y-57761238D01*
X118602286Y-57856476D01*
X118554667Y-58046952D01*
X118554667Y-58189810D01*
X118602286Y-58380286D01*
X118649905Y-58475524D01*
X118745143Y-58570762D01*
X118888001Y-58618381D01*
X118983239Y-58618381D01*
X119126096Y-58570762D01*
X119173715Y-58523143D01*
X119173715Y-58189810D01*
X118983239Y-58189810D01*
X119602286Y-58618381D02*
X119602286Y-57618381D01*
X120173715Y-58618381D01*
X120173715Y-57618381D01*
X120649905Y-58618381D02*
X120649905Y-57618381D01*
X120888000Y-57618381D01*
X121030858Y-57666000D01*
X121126096Y-57761238D01*
X121173715Y-57856476D01*
X121221334Y-58046952D01*
X121221334Y-58189810D01*
X121173715Y-58380286D01*
X121126096Y-58475524D01*
X121030858Y-58570762D01*
X120888000Y-58618381D01*
X120649905Y-58618381D01*
X121793096Y-49665000D02*
X121697858Y-49617381D01*
X121555001Y-49617381D01*
X121412143Y-49665000D01*
X121316905Y-49760238D01*
X121269286Y-49855476D01*
X121221667Y-50045952D01*
X121221667Y-50188810D01*
X121269286Y-50379286D01*
X121316905Y-50474524D01*
X121412143Y-50569762D01*
X121555001Y-50617381D01*
X121650239Y-50617381D01*
X121793096Y-50569762D01*
X121840715Y-50522143D01*
X121840715Y-50188810D01*
X121650239Y-50188810D01*
X122269286Y-50617381D02*
X122269286Y-49617381D01*
X122840715Y-50617381D01*
X122840715Y-49617381D01*
X123316905Y-50617381D02*
X123316905Y-49617381D01*
X123555000Y-49617381D01*
X123697858Y-49665000D01*
X123793096Y-49760238D01*
X123840715Y-49855476D01*
X123888334Y-50045952D01*
X123888334Y-50188810D01*
X123840715Y-50379286D01*
X123793096Y-50474524D01*
X123697858Y-50569762D01*
X123555000Y-50617381D01*
X123316905Y-50617381D01*
X119213334Y-50617381D02*
X118880000Y-50141190D01*
X118641905Y-50617381D02*
X118641905Y-49617381D01*
X119022858Y-49617381D01*
X119118096Y-49665000D01*
X119165715Y-49712619D01*
X119213334Y-49807857D01*
X119213334Y-49950714D01*
X119165715Y-50045952D01*
X119118096Y-50093571D01*
X119022858Y-50141190D01*
X118641905Y-50141190D01*
X119546667Y-49617381D02*
X120213334Y-50617381D01*
X120213334Y-49617381D02*
X119546667Y-50617381D01*
X116078095Y-49617381D02*
X116649524Y-49617381D01*
X116363809Y-50617381D02*
X116363809Y-49617381D01*
X116887619Y-49617381D02*
X117554286Y-50617381D01*
X117554286Y-49617381D02*
X116887619Y-50617381D01*
X114109524Y-49617381D02*
X113633333Y-49617381D01*
X113585714Y-50093571D01*
X113633333Y-50045952D01*
X113728571Y-49998333D01*
X113966667Y-49998333D01*
X114061905Y-50045952D01*
X114109524Y-50093571D01*
X114157143Y-50188810D01*
X114157143Y-50426905D01*
X114109524Y-50522143D01*
X114061905Y-50569762D01*
X113966667Y-50617381D01*
X113728571Y-50617381D01*
X113633333Y-50569762D01*
X113585714Y-50522143D01*
X114442857Y-49617381D02*
X114776190Y-50617381D01*
X115109524Y-49617381D01*
X147955000Y-57785000D02*
X147955000Y-42545000D01*
X147955000Y-42545000D02*
X174625000Y-42545000D01*
X174625000Y-42545000D02*
X174625000Y-57785000D01*
X174625000Y-57785000D02*
X147955000Y-57785000D01*
X151130000Y-54610000D02*
X173990000Y-54610000D01*
X173990000Y-54610000D02*
X173990000Y-57150000D01*
X173990000Y-57150000D02*
X151130000Y-57150000D01*
X148310000Y-54330000D02*
X149860000Y-54330000D01*
X151130000Y-54610000D02*
X151130000Y-57150000D01*
X149860000Y-57430000D02*
X148310000Y-57430000D01*
X148310000Y-57430000D02*
X148310000Y-54330000D01*
X169164000Y-36322000D02*
X118364000Y-36322000D01*
X120904000Y-41402000D02*
X169164000Y-41402000D01*
X169164000Y-36322000D02*
X169164000Y-41402000D01*
X118364000Y-36322000D02*
X118364000Y-38862000D01*
X118084000Y-40132000D02*
X118084000Y-41682000D01*
X118364000Y-38862000D02*
X120904000Y-38862000D01*
X120904000Y-38862000D02*
X120904000Y-41402000D01*
X118084000Y-41682000D02*
X119634000Y-41682000D01*
X139065000Y-80010000D02*
X139065000Y-74930000D01*
X139065000Y-74930000D02*
X141605000Y-74930000D01*
X141605000Y-74930000D02*
X141605000Y-80010000D01*
X141605000Y-80010000D02*
X139065000Y-80010000D01*
X140335000Y-80010000D02*
X140335000Y-81280000D01*
X140335000Y-74930000D02*
X140335000Y-73660000D01*
X127635000Y-57785000D02*
X127635000Y-45085000D01*
X127635000Y-45085000D02*
X146685000Y-45085000D01*
X146685000Y-45085000D02*
X146685000Y-57785000D01*
X146685000Y-57785000D02*
X127635000Y-57785000D01*
X130810000Y-54610000D02*
X146050000Y-54610000D01*
X146050000Y-54610000D02*
X146050000Y-57150000D01*
X146050000Y-57150000D02*
X130810000Y-57150000D01*
X127990000Y-54330000D02*
X129540000Y-54330000D01*
X130810000Y-54610000D02*
X130810000Y-57150000D01*
X129540000Y-57430000D02*
X127990000Y-57430000D01*
X127990000Y-57430000D02*
X127990000Y-54330000D01*
X115570000Y-53975000D02*
X123190000Y-53975000D01*
X115570000Y-51435000D02*
X123190000Y-51435000D01*
X112750000Y-51155000D02*
X114300000Y-51155000D01*
X123190000Y-53975000D02*
X123190000Y-51435000D01*
X115570000Y-51435000D02*
X115570000Y-53975000D01*
X114300000Y-54255000D02*
X112750000Y-54255000D01*
X112750000Y-54255000D02*
X112750000Y-51155000D01*
X115570000Y-57150000D02*
X120650000Y-57150000D01*
X120650000Y-57150000D02*
X120650000Y-54610000D01*
X120650000Y-54610000D02*
X115570000Y-54610000D01*
X112750000Y-54330000D02*
X114300000Y-54330000D01*
X115570000Y-54610000D02*
X115570000Y-57150000D01*
X114300000Y-57430000D02*
X112750000Y-57430000D01*
X112750000Y-57430000D02*
X112750000Y-54330000D01*
X137751000Y-86796000D02*
X137951000Y-86796000D01*
X140345000Y-86796000D02*
X140165000Y-86796000D01*
X140034643Y-90023744D02*
G75*
G03X140351000Y-86796000I-1003643J1727744D01*
G01*
X140164068Y-89348006D02*
G75*
G03X140165000Y-87245000I-1133068J1052006D01*
G01*
X137724274Y-86808780D02*
G75*
G03X138071000Y-90046000I1306726J-1497220D01*
G01*
X137951747Y-87282111D02*
G75*
G03X137971000Y-89330000I1079253J-1013889D01*
G01*
X142196000Y-86796000D02*
X142396000Y-86796000D01*
X144790000Y-86796000D02*
X144610000Y-86796000D01*
X144479643Y-90023744D02*
G75*
G03X144796000Y-86796000I-1003643J1727744D01*
G01*
X144609068Y-89348006D02*
G75*
G03X144610000Y-87245000I-1133068J1052006D01*
G01*
X142169274Y-86808780D02*
G75*
G03X142516000Y-90046000I1306726J-1497220D01*
G01*
X142396747Y-87282111D02*
G75*
G03X142416000Y-89330000I1079253J-1013889D01*
G01*
X146641000Y-86796000D02*
X146841000Y-86796000D01*
X149235000Y-86796000D02*
X149055000Y-86796000D01*
X148924643Y-90023744D02*
G75*
G03X149241000Y-86796000I-1003643J1727744D01*
G01*
X149054068Y-89348006D02*
G75*
G03X149055000Y-87245000I-1133068J1052006D01*
G01*
X146614274Y-86808780D02*
G75*
G03X146961000Y-90046000I1306726J-1497220D01*
G01*
X146841747Y-87282111D02*
G75*
G03X146861000Y-89330000I1079253J-1013889D01*
G01*
X142240000Y-80010000D02*
X142240000Y-74930000D01*
X142240000Y-74930000D02*
X144780000Y-74930000D01*
X144780000Y-74930000D02*
X144780000Y-80010000D01*
X144780000Y-80010000D02*
X142240000Y-80010000D01*
X143510000Y-80010000D02*
X143510000Y-81280000D01*
X143510000Y-74930000D02*
X143510000Y-73660000D01*
X145415000Y-80010000D02*
X145415000Y-74930000D01*
X145415000Y-74930000D02*
X147955000Y-74930000D01*
X147955000Y-74930000D02*
X147955000Y-80010000D01*
X147955000Y-80010000D02*
X145415000Y-80010000D01*
X146685000Y-80010000D02*
X146685000Y-81280000D01*
X146685000Y-74930000D02*
X146685000Y-73660000D01*
X116205000Y-45720000D02*
X121285000Y-45720000D01*
X121285000Y-45720000D02*
X121285000Y-48260000D01*
X121285000Y-48260000D02*
X116205000Y-48260000D01*
X116205000Y-48260000D02*
X116205000Y-45720000D01*
X116205000Y-46990000D02*
X114935000Y-46990000D01*
X121285000Y-46990000D02*
X122555000Y-46990000D01*
X121285000Y-45085000D02*
X116205000Y-45085000D01*
X116205000Y-45085000D02*
X116205000Y-42545000D01*
X116205000Y-42545000D02*
X121285000Y-42545000D01*
X121285000Y-42545000D02*
X121285000Y-45085000D01*
X121285000Y-43815000D02*
X122555000Y-43815000D01*
X116205000Y-43815000D02*
X114935000Y-43815000D01*
X112750000Y-63855000D02*
X115850000Y-63855000D01*
X112750000Y-65405000D02*
X112750000Y-63855000D01*
X115570000Y-66675000D02*
X113030000Y-66675000D01*
X115850000Y-63855000D02*
X115850000Y-65405000D01*
X113030000Y-79375000D02*
X113030000Y-66675000D01*
X115570000Y-79375000D02*
X113030000Y-79375000D01*
X115570000Y-66675000D02*
X115570000Y-79375000D01*
X115570000Y-79375000D02*
X113030000Y-79375000D01*
X113030000Y-79375000D02*
X113030000Y-66675000D01*
X115850000Y-63855000D02*
X115850000Y-65405000D01*
X115570000Y-66675000D02*
X113030000Y-66675000D01*
X112750000Y-65405000D02*
X112750000Y-63855000D01*
X112750000Y-63855000D02*
X115850000Y-63855000D01*
X112750000Y-63855000D02*
X115850000Y-63855000D01*
X112750000Y-65405000D02*
X112750000Y-63855000D01*
X115570000Y-66675000D02*
X113030000Y-66675000D01*
X115850000Y-63855000D02*
X115850000Y-65405000D01*
X113030000Y-79375000D02*
X113030000Y-66675000D01*
X115570000Y-79375000D02*
X113030000Y-79375000D01*
X115570000Y-66675000D02*
X115570000Y-79375000D01*
X115570000Y-79375000D02*
X113030000Y-79375000D01*
X113030000Y-79375000D02*
X113030000Y-66675000D01*
X115850000Y-63855000D02*
X115850000Y-65405000D01*
X115570000Y-66675000D02*
X113030000Y-66675000D01*
X112750000Y-65405000D02*
X112750000Y-63855000D01*
X112750000Y-63855000D02*
X115850000Y-63855000D01*
X171170000Y-63855000D02*
X174270000Y-63855000D01*
X171170000Y-65405000D02*
X171170000Y-63855000D01*
X173990000Y-66675000D02*
X171450000Y-66675000D01*
X174270000Y-63855000D02*
X174270000Y-65405000D01*
X171450000Y-79375000D02*
X171450000Y-66675000D01*
X173990000Y-79375000D02*
X171450000Y-79375000D01*
X173990000Y-66675000D02*
X173990000Y-79375000D01*
X173990000Y-79375000D02*
X171450000Y-79375000D01*
X171450000Y-79375000D02*
X171450000Y-66675000D01*
X174270000Y-63855000D02*
X174270000Y-65405000D01*
X173990000Y-66675000D02*
X171450000Y-66675000D01*
X171170000Y-65405000D02*
X171170000Y-63855000D01*
X171170000Y-63855000D02*
X174270000Y-63855000D01*
X171170000Y-63855000D02*
X174270000Y-63855000D01*
X171170000Y-65405000D02*
X171170000Y-63855000D01*
X173990000Y-66675000D02*
X171450000Y-66675000D01*
X174270000Y-63855000D02*
X174270000Y-65405000D01*
X171450000Y-79375000D02*
X171450000Y-66675000D01*
X173990000Y-79375000D02*
X171450000Y-79375000D01*
X173990000Y-66675000D02*
X173990000Y-79375000D01*
X173990000Y-79375000D02*
X171450000Y-79375000D01*
X171450000Y-79375000D02*
X171450000Y-66675000D01*
X174270000Y-63855000D02*
X174270000Y-65405000D01*
X173990000Y-66675000D02*
X171450000Y-66675000D01*
X171170000Y-65405000D02*
X171170000Y-63855000D01*
X171170000Y-63855000D02*
X174270000Y-63855000D01*
X112395000Y-59055000D02*
X174625000Y-59055000D01*
X174625000Y-59055000D02*
X174625000Y-84455000D01*
X174625000Y-84455000D02*
X112395000Y-84455000D01*
X112395000Y-84455000D02*
X112395000Y-59055000D01*
X149677381Y-53426905D02*
X148677381Y-53426905D01*
X149391667Y-53093571D01*
X148677381Y-52760238D01*
X149677381Y-52760238D01*
X149677381Y-52284048D02*
X148677381Y-52284048D01*
X148677381Y-51903095D01*
X148725000Y-51807857D01*
X148772619Y-51760238D01*
X148867857Y-51712619D01*
X149010714Y-51712619D01*
X149105952Y-51760238D01*
X149153571Y-51807857D01*
X149201190Y-51903095D01*
X149201190Y-52284048D01*
X148677381Y-51284048D02*
X149486905Y-51284048D01*
X149582143Y-51236429D01*
X149629762Y-51188810D01*
X149677381Y-51093572D01*
X149677381Y-50903095D01*
X149629762Y-50807857D01*
X149582143Y-50760238D01*
X149486905Y-50712619D01*
X148677381Y-50712619D01*
X149677381Y-50188810D02*
X149677381Y-49998334D01*
X149629762Y-49903095D01*
X149582143Y-49855476D01*
X149439286Y-49760238D01*
X149248810Y-49712619D01*
X148867857Y-49712619D01*
X148772619Y-49760238D01*
X148725000Y-49807857D01*
X148677381Y-49903095D01*
X148677381Y-50093572D01*
X148725000Y-50188810D01*
X148772619Y-50236429D01*
X148867857Y-50284048D01*
X149105952Y-50284048D01*
X149201190Y-50236429D01*
X149248810Y-50188810D01*
X149296429Y-50093572D01*
X149296429Y-49903095D01*
X149248810Y-49807857D01*
X149201190Y-49760238D01*
X149105952Y-49712619D01*
X148772619Y-49331667D02*
X148725000Y-49284048D01*
X148677381Y-49188810D01*
X148677381Y-48950714D01*
X148725000Y-48855476D01*
X148772619Y-48807857D01*
X148867857Y-48760238D01*
X148963095Y-48760238D01*
X149105952Y-48807857D01*
X149677381Y-49379286D01*
X149677381Y-48760238D01*
X148677381Y-47855476D02*
X148677381Y-48331667D01*
X149153571Y-48379286D01*
X149105952Y-48331667D01*
X149058333Y-48236429D01*
X149058333Y-47998333D01*
X149105952Y-47903095D01*
X149153571Y-47855476D01*
X149248810Y-47807857D01*
X149486905Y-47807857D01*
X149582143Y-47855476D01*
X149629762Y-47903095D01*
X149677381Y-47998333D01*
X149677381Y-48236429D01*
X149629762Y-48331667D01*
X149582143Y-48379286D01*
X148677381Y-47188810D02*
X148677381Y-47093571D01*
X148725000Y-46998333D01*
X148772619Y-46950714D01*
X148867857Y-46903095D01*
X149058333Y-46855476D01*
X149296429Y-46855476D01*
X149486905Y-46903095D01*
X149582143Y-46950714D01*
X149629762Y-46998333D01*
X149677381Y-47093571D01*
X149677381Y-47188810D01*
X149629762Y-47284048D01*
X149582143Y-47331667D01*
X149486905Y-47379286D01*
X149296429Y-47426905D01*
X149058333Y-47426905D01*
X148867857Y-47379286D01*
X148772619Y-47331667D01*
X148725000Y-47284048D01*
X148677381Y-47188810D01*
X129357381Y-53514286D02*
X128357381Y-53514286D01*
X129071667Y-53180952D01*
X128357381Y-52847619D01*
X129357381Y-52847619D01*
X129309762Y-52419048D02*
X129357381Y-52276191D01*
X129357381Y-52038095D01*
X129309762Y-51942857D01*
X129262143Y-51895238D01*
X129166905Y-51847619D01*
X129071667Y-51847619D01*
X128976429Y-51895238D01*
X128928810Y-51942857D01*
X128881190Y-52038095D01*
X128833571Y-52228572D01*
X128785952Y-52323810D01*
X128738333Y-52371429D01*
X128643095Y-52419048D01*
X128547857Y-52419048D01*
X128452619Y-52371429D01*
X128405000Y-52323810D01*
X128357381Y-52228572D01*
X128357381Y-51990476D01*
X128405000Y-51847619D01*
X128357381Y-50942857D02*
X128357381Y-51419048D01*
X128833571Y-51466667D01*
X128785952Y-51419048D01*
X128738333Y-51323810D01*
X128738333Y-51085714D01*
X128785952Y-50990476D01*
X128833571Y-50942857D01*
X128928810Y-50895238D01*
X129166905Y-50895238D01*
X129262143Y-50942857D01*
X129309762Y-50990476D01*
X129357381Y-51085714D01*
X129357381Y-51323810D01*
X129309762Y-51419048D01*
X129262143Y-51466667D01*
X128357381Y-50038095D02*
X128357381Y-50228572D01*
X128405000Y-50323810D01*
X128452619Y-50371429D01*
X128595476Y-50466667D01*
X128785952Y-50514286D01*
X129166905Y-50514286D01*
X129262143Y-50466667D01*
X129309762Y-50419048D01*
X129357381Y-50323810D01*
X129357381Y-50133333D01*
X129309762Y-50038095D01*
X129262143Y-49990476D01*
X129166905Y-49942857D01*
X128928810Y-49942857D01*
X128833571Y-49990476D01*
X128785952Y-50038095D01*
X128738333Y-50133333D01*
X128738333Y-50323810D01*
X128785952Y-50419048D01*
X128833571Y-50466667D01*
X128928810Y-50514286D01*
X129357381Y-48990476D02*
X129357381Y-49561905D01*
X129357381Y-49276191D02*
X128357381Y-49276191D01*
X128500238Y-49371429D01*
X128595476Y-49466667D01*
X128643095Y-49561905D01*
X129357381Y-48038095D02*
X129357381Y-48609524D01*
X129357381Y-48323810D02*
X128357381Y-48323810D01*
X128500238Y-48419048D01*
X128595476Y-48514286D01*
X128643095Y-48609524D01*
X123499762Y-52157381D02*
X123499762Y-52966905D01*
X123547381Y-53062143D01*
X123595000Y-53109762D01*
X123690238Y-53157381D01*
X123880715Y-53157381D01*
X123975953Y-53109762D01*
X124023572Y-53062143D01*
X124071191Y-52966905D01*
X124071191Y-52157381D01*
X124499762Y-52871667D02*
X124975953Y-52871667D01*
X124404524Y-53157381D02*
X124737857Y-52157381D01*
X125071191Y-53157381D01*
X125975953Y-53157381D02*
X125642619Y-52681190D01*
X125404524Y-53157381D02*
X125404524Y-52157381D01*
X125785477Y-52157381D01*
X125880715Y-52205000D01*
X125928334Y-52252619D01*
X125975953Y-52347857D01*
X125975953Y-52490714D01*
X125928334Y-52585952D01*
X125880715Y-52633571D01*
X125785477Y-52681190D01*
X125404524Y-52681190D01*
X126261667Y-52157381D02*
X126833096Y-52157381D01*
X126547381Y-53157381D02*
X126547381Y-52157381D01*
X121856667Y-56332381D02*
X121523333Y-55856190D01*
X121285238Y-56332381D02*
X121285238Y-55332381D01*
X121666191Y-55332381D01*
X121761429Y-55380000D01*
X121809048Y-55427619D01*
X121856667Y-55522857D01*
X121856667Y-55665714D01*
X121809048Y-55760952D01*
X121761429Y-55808571D01*
X121666191Y-55856190D01*
X121285238Y-55856190D01*
X122856667Y-56237143D02*
X122809048Y-56284762D01*
X122666191Y-56332381D01*
X122570953Y-56332381D01*
X122428095Y-56284762D01*
X122332857Y-56189524D01*
X122285238Y-56094286D01*
X122237619Y-55903810D01*
X122237619Y-55760952D01*
X122285238Y-55570476D01*
X122332857Y-55475238D01*
X122428095Y-55380000D01*
X122570953Y-55332381D01*
X122666191Y-55332381D01*
X122809048Y-55380000D01*
X122856667Y-55427619D01*
X124047143Y-56332381D02*
X124047143Y-55332381D01*
X124523333Y-56332381D02*
X124523333Y-55332381D01*
X125094762Y-56332381D01*
X125094762Y-55332381D01*
X137882476Y-85383667D02*
X138358667Y-85383667D01*
X137787238Y-85669381D02*
X138120571Y-84669381D01*
X138453905Y-85669381D01*
X139358667Y-85669381D02*
X139025333Y-85193190D01*
X138787238Y-85669381D02*
X138787238Y-84669381D01*
X139168191Y-84669381D01*
X139263429Y-84717000D01*
X139311048Y-84764619D01*
X139358667Y-84859857D01*
X139358667Y-85002714D01*
X139311048Y-85097952D01*
X139263429Y-85145571D01*
X139168191Y-85193190D01*
X138787238Y-85193190D01*
X139787238Y-85669381D02*
X139787238Y-84669381D01*
X140120572Y-85383667D01*
X140453905Y-84669381D01*
X140453905Y-85669381D01*
X142248096Y-85574143D02*
X142200477Y-85621762D01*
X142057620Y-85669381D01*
X141962382Y-85669381D01*
X141819524Y-85621762D01*
X141724286Y-85526524D01*
X141676667Y-85431286D01*
X141629048Y-85240810D01*
X141629048Y-85097952D01*
X141676667Y-84907476D01*
X141724286Y-84812238D01*
X141819524Y-84717000D01*
X141962382Y-84669381D01*
X142057620Y-84669381D01*
X142200477Y-84717000D01*
X142248096Y-84764619D01*
X142629048Y-85383667D02*
X143105239Y-85383667D01*
X142533810Y-85669381D02*
X142867143Y-84669381D01*
X143200477Y-85669381D01*
X144010001Y-85669381D02*
X143533810Y-85669381D01*
X143533810Y-84669381D01*
X144343334Y-85669381D02*
X144343334Y-84669381D01*
X145152858Y-85145571D02*
X145295715Y-85193190D01*
X145343334Y-85240810D01*
X145390953Y-85336048D01*
X145390953Y-85478905D01*
X145343334Y-85574143D01*
X145295715Y-85621762D01*
X145200477Y-85669381D01*
X144819524Y-85669381D01*
X144819524Y-84669381D01*
X145152858Y-84669381D01*
X145248096Y-84717000D01*
X145295715Y-84764619D01*
X145343334Y-84859857D01*
X145343334Y-84955095D01*
X145295715Y-85050333D01*
X145248096Y-85097952D01*
X145152858Y-85145571D01*
X144819524Y-85145571D01*
X147113715Y-84717000D02*
X147018477Y-84669381D01*
X146875620Y-84669381D01*
X146732762Y-84717000D01*
X146637524Y-84812238D01*
X146589905Y-84907476D01*
X146542286Y-85097952D01*
X146542286Y-85240810D01*
X146589905Y-85431286D01*
X146637524Y-85526524D01*
X146732762Y-85621762D01*
X146875620Y-85669381D01*
X146970858Y-85669381D01*
X147113715Y-85621762D01*
X147161334Y-85574143D01*
X147161334Y-85240810D01*
X146970858Y-85240810D01*
X147589905Y-85669381D02*
X147589905Y-84669381D01*
X147970858Y-84669381D01*
X148066096Y-84717000D01*
X148113715Y-84764619D01*
X148161334Y-84859857D01*
X148161334Y-85002714D01*
X148113715Y-85097952D01*
X148066096Y-85145571D01*
X147970858Y-85193190D01*
X147589905Y-85193190D01*
X148542286Y-85621762D02*
X148685143Y-85669381D01*
X148923239Y-85669381D01*
X149018477Y-85621762D01*
X149066096Y-85574143D01*
X149113715Y-85478905D01*
X149113715Y-85383667D01*
X149066096Y-85288429D01*
X149018477Y-85240810D01*
X148923239Y-85193190D01*
X148732762Y-85145571D01*
X148637524Y-85097952D01*
X148589905Y-85050333D01*
X148542286Y-84955095D01*
X148542286Y-84859857D01*
X148589905Y-84764619D01*
X148637524Y-84717000D01*
X148732762Y-84669381D01*
X148970858Y-84669381D01*
X149113715Y-84717000D01*
X116919762Y-64587381D02*
X116919762Y-63587381D01*
X117300715Y-63587381D01*
X117395953Y-63635000D01*
X117443572Y-63682619D01*
X117491191Y-63777857D01*
X117491191Y-63920714D01*
X117443572Y-64015952D01*
X117395953Y-64063571D01*
X117300715Y-64111190D01*
X116919762Y-64111190D01*
X118491191Y-64492143D02*
X118443572Y-64539762D01*
X118300715Y-64587381D01*
X118205477Y-64587381D01*
X118062619Y-64539762D01*
X117967381Y-64444524D01*
X117919762Y-64349286D01*
X117872143Y-64158810D01*
X117872143Y-64015952D01*
X117919762Y-63825476D01*
X117967381Y-63730238D01*
X118062619Y-63635000D01*
X118205477Y-63587381D01*
X118300715Y-63587381D01*
X118443572Y-63635000D01*
X118491191Y-63682619D01*
X118872143Y-64301667D02*
X119348334Y-64301667D01*
X118776905Y-64587381D02*
X119110238Y-63587381D01*
X119443572Y-64587381D01*
X119824524Y-64587381D02*
X120015000Y-64587381D01*
X120110239Y-64539762D01*
X120157858Y-64492143D01*
X120253096Y-64349286D01*
X120300715Y-64158810D01*
X120300715Y-63777857D01*
X120253096Y-63682619D01*
X120205477Y-63635000D01*
X120110239Y-63587381D01*
X119919762Y-63587381D01*
X119824524Y-63635000D01*
X119776905Y-63682619D01*
X119729286Y-63777857D01*
X119729286Y-64015952D01*
X119776905Y-64111190D01*
X119824524Y-64158810D01*
X119919762Y-64206429D01*
X120110239Y-64206429D01*
X120205477Y-64158810D01*
X120253096Y-64111190D01*
X120300715Y-64015952D01*
X121157858Y-63587381D02*
X120967381Y-63587381D01*
X120872143Y-63635000D01*
X120824524Y-63682619D01*
X120729286Y-63825476D01*
X120681667Y-64015952D01*
X120681667Y-64396905D01*
X120729286Y-64492143D01*
X120776905Y-64539762D01*
X120872143Y-64587381D01*
X121062620Y-64587381D01*
X121157858Y-64539762D01*
X121205477Y-64492143D01*
X121253096Y-64396905D01*
X121253096Y-64158810D01*
X121205477Y-64063571D01*
X121157858Y-64015952D01*
X121062620Y-63968333D01*
X120872143Y-63968333D01*
X120776905Y-64015952D01*
X120729286Y-64063571D01*
X120681667Y-64158810D01*
X121824524Y-64015952D02*
X121729286Y-63968333D01*
X121681667Y-63920714D01*
X121634048Y-63825476D01*
X121634048Y-63777857D01*
X121681667Y-63682619D01*
X121729286Y-63635000D01*
X121824524Y-63587381D01*
X122015001Y-63587381D01*
X122110239Y-63635000D01*
X122157858Y-63682619D01*
X122205477Y-63777857D01*
X122205477Y-63825476D01*
X122157858Y-63920714D01*
X122110239Y-63968333D01*
X122015001Y-64015952D01*
X121824524Y-64015952D01*
X121729286Y-64063571D01*
X121681667Y-64111190D01*
X121634048Y-64206429D01*
X121634048Y-64396905D01*
X121681667Y-64492143D01*
X121729286Y-64539762D01*
X121824524Y-64587381D01*
X122015001Y-64587381D01*
X122110239Y-64539762D01*
X122157858Y-64492143D01*
X122205477Y-64396905D01*
X122205477Y-64206429D01*
X122157858Y-64111190D01*
X122110239Y-64063571D01*
X122015001Y-64015952D01*
X123110239Y-63587381D02*
X122634048Y-63587381D01*
X122586429Y-64063571D01*
X122634048Y-64015952D01*
X122729286Y-63968333D01*
X122967382Y-63968333D01*
X123062620Y-64015952D01*
X123110239Y-64063571D01*
X123157858Y-64158810D01*
X123157858Y-64396905D01*
X123110239Y-64492143D01*
X123062620Y-64539762D01*
X122967382Y-64587381D01*
X122729286Y-64587381D01*
X122634048Y-64539762D01*
X122586429Y-64492143D01*
M02*
