M48
;DRILL file {KiCad 4.0.4-stable} date 10/13/16 13:40:10
;FORMAT={3:3/ absolute / metric / suppress leading zeros}
FMAT,2
METRIC,TZ
T1C1.001
T2C1.016
%
G90
G05
M71
T1
X113665Y-43815
X113665Y-46990
X123825Y-43815
X123825Y-46990
X139065Y-86995
X139065Y-89535
X140335Y-72390
X140335Y-82550
X143510Y-72390
X143510Y-82550
X143510Y-86995
X143510Y-89535
X146685Y-72390
X146685Y-82550
X147955Y-86995
X147955Y-89535
T2
X114300Y-52705
X114300Y-55880
X114300Y-65405
X114300Y-67945
X114300Y-70485
X114300Y-73025
X114300Y-75565
X114300Y-78105
X116840Y-52705
X116840Y-55880
X119380Y-52705
X119380Y-55880
X119634Y-37592
X119634Y-40132
X121920Y-52705
X122174Y-37592
X122174Y-40132
X124714Y-37592
X124714Y-40132
X127254Y-37592
X127254Y-40132
X129540Y-55880
X129794Y-37592
X129794Y-40132
X132080Y-55880
X132334Y-37592
X132334Y-40132
X134620Y-55880
X134874Y-37592
X134874Y-40132
X137160Y-55880
X137414Y-37592
X137414Y-40132
X139700Y-55880
X139954Y-37592
X139954Y-40132
X142240Y-55880
X142494Y-37592
X142494Y-40132
X144780Y-55880
X145034Y-37592
X145034Y-40132
X147574Y-37592
X147574Y-40132
X149860Y-55880
X150114Y-37592
X150114Y-40132
X152400Y-55880
X152654Y-37592
X152654Y-40132
X154940Y-55880
X155194Y-37592
X155194Y-40132
X157480Y-55880
X157734Y-37592
X157734Y-40132
X160020Y-55880
X160274Y-37592
X160274Y-40132
X162560Y-55880
X162814Y-37592
X162814Y-40132
X165100Y-55880
X165354Y-37592
X165354Y-40132
X167640Y-55880
X167894Y-37592
X167894Y-40132
X170180Y-55880
X172720Y-55880
X172720Y-65405
X172720Y-67945
X172720Y-70485
X172720Y-73025
X172720Y-75565
X172720Y-78105
T0
M30
