G04 #@! TF.FileFunction,Legend,Bot*
%FSLAX46Y46*%
G04 Gerber Fmt 4.6, Leading zero omitted, Abs format (unit mm)*
G04 Created by KiCad (PCBNEW 4.0.4-stable) date 10/13/16 18:12:30*
%MOMM*%
%LPD*%
G01*
G04 APERTURE LIST*
%ADD10C,0.100000*%
%ADD11C,0.300000*%
%ADD12C,0.010000*%
G04 APERTURE END LIST*
D10*
D11*
X164688573Y-77513571D02*
X164688573Y-76013571D01*
X164045716Y-77513571D02*
X164045716Y-76727857D01*
X164117145Y-76585000D01*
X164260002Y-76513571D01*
X164474287Y-76513571D01*
X164617145Y-76585000D01*
X164688573Y-76656429D01*
X163545716Y-76513571D02*
X162974287Y-76513571D01*
X163331430Y-76013571D02*
X163331430Y-77299286D01*
X163260002Y-77442143D01*
X163117144Y-77513571D01*
X162974287Y-77513571D01*
X162688573Y-76513571D02*
X162117144Y-76513571D01*
X162474287Y-76013571D02*
X162474287Y-77299286D01*
X162402859Y-77442143D01*
X162260001Y-77513571D01*
X162117144Y-77513571D01*
X161617144Y-76513571D02*
X161617144Y-78013571D01*
X161617144Y-76585000D02*
X161474287Y-76513571D01*
X161188573Y-76513571D01*
X161045716Y-76585000D01*
X160974287Y-76656429D01*
X160902858Y-76799286D01*
X160902858Y-77227857D01*
X160974287Y-77370714D01*
X161045716Y-77442143D01*
X161188573Y-77513571D01*
X161474287Y-77513571D01*
X161617144Y-77442143D01*
X160331430Y-77442143D02*
X160188573Y-77513571D01*
X159902858Y-77513571D01*
X159760001Y-77442143D01*
X159688573Y-77299286D01*
X159688573Y-77227857D01*
X159760001Y-77085000D01*
X159902858Y-77013571D01*
X160117144Y-77013571D01*
X160260001Y-76942143D01*
X160331430Y-76799286D01*
X160331430Y-76727857D01*
X160260001Y-76585000D01*
X160117144Y-76513571D01*
X159902858Y-76513571D01*
X159760001Y-76585000D01*
X159045715Y-77370714D02*
X158974287Y-77442143D01*
X159045715Y-77513571D01*
X159117144Y-77442143D01*
X159045715Y-77370714D01*
X159045715Y-77513571D01*
X159045715Y-76585000D02*
X158974287Y-76656429D01*
X159045715Y-76727857D01*
X159117144Y-76656429D01*
X159045715Y-76585000D01*
X159045715Y-76727857D01*
X157260001Y-75942143D02*
X158545715Y-77870714D01*
X155688572Y-75942143D02*
X156974286Y-77870714D01*
X154545714Y-76513571D02*
X154545714Y-77727857D01*
X154617143Y-77870714D01*
X154688571Y-77942143D01*
X154831428Y-78013571D01*
X155045714Y-78013571D01*
X155188571Y-77942143D01*
X154545714Y-77442143D02*
X154688571Y-77513571D01*
X154974285Y-77513571D01*
X155117143Y-77442143D01*
X155188571Y-77370714D01*
X155260000Y-77227857D01*
X155260000Y-76799286D01*
X155188571Y-76656429D01*
X155117143Y-76585000D01*
X154974285Y-76513571D01*
X154688571Y-76513571D01*
X154545714Y-76585000D01*
X153831428Y-77513571D02*
X153831428Y-76513571D01*
X153831428Y-76013571D02*
X153902857Y-76085000D01*
X153831428Y-76156429D01*
X153760000Y-76085000D01*
X153831428Y-76013571D01*
X153831428Y-76156429D01*
X153331428Y-76513571D02*
X152759999Y-76513571D01*
X153117142Y-76013571D02*
X153117142Y-77299286D01*
X153045714Y-77442143D01*
X152902856Y-77513571D01*
X152759999Y-77513571D01*
X152259999Y-77513571D02*
X152259999Y-76013571D01*
X151617142Y-77513571D02*
X151617142Y-76727857D01*
X151688571Y-76585000D01*
X151831428Y-76513571D01*
X152045713Y-76513571D01*
X152188571Y-76585000D01*
X152259999Y-76656429D01*
X150259999Y-76513571D02*
X150259999Y-77513571D01*
X150902856Y-76513571D02*
X150902856Y-77299286D01*
X150831428Y-77442143D01*
X150688570Y-77513571D01*
X150474285Y-77513571D01*
X150331428Y-77442143D01*
X150259999Y-77370714D01*
X149545713Y-77513571D02*
X149545713Y-76013571D01*
X149545713Y-76585000D02*
X149402856Y-76513571D01*
X149117142Y-76513571D01*
X148974285Y-76585000D01*
X148902856Y-76656429D01*
X148831427Y-76799286D01*
X148831427Y-77227857D01*
X148902856Y-77370714D01*
X148974285Y-77442143D01*
X149117142Y-77513571D01*
X149402856Y-77513571D01*
X149545713Y-77442143D01*
X148188570Y-77370714D02*
X148117142Y-77442143D01*
X148188570Y-77513571D01*
X148259999Y-77442143D01*
X148188570Y-77370714D01*
X148188570Y-77513571D01*
X146831427Y-77442143D02*
X146974284Y-77513571D01*
X147259998Y-77513571D01*
X147402856Y-77442143D01*
X147474284Y-77370714D01*
X147545713Y-77227857D01*
X147545713Y-76799286D01*
X147474284Y-76656429D01*
X147402856Y-76585000D01*
X147259998Y-76513571D01*
X146974284Y-76513571D01*
X146831427Y-76585000D01*
X145974284Y-77513571D02*
X146117142Y-77442143D01*
X146188570Y-77370714D01*
X146259999Y-77227857D01*
X146259999Y-76799286D01*
X146188570Y-76656429D01*
X146117142Y-76585000D01*
X145974284Y-76513571D01*
X145759999Y-76513571D01*
X145617142Y-76585000D01*
X145545713Y-76656429D01*
X145474284Y-76799286D01*
X145474284Y-77227857D01*
X145545713Y-77370714D01*
X145617142Y-77442143D01*
X145759999Y-77513571D01*
X145974284Y-77513571D01*
X144831427Y-77513571D02*
X144831427Y-76513571D01*
X144831427Y-76656429D02*
X144759999Y-76585000D01*
X144617141Y-76513571D01*
X144402856Y-76513571D01*
X144259999Y-76585000D01*
X144188570Y-76727857D01*
X144188570Y-77513571D01*
X144188570Y-76727857D02*
X144117141Y-76585000D01*
X143974284Y-76513571D01*
X143759999Y-76513571D01*
X143617141Y-76585000D01*
X143545713Y-76727857D01*
X143545713Y-77513571D01*
X141759999Y-75942143D02*
X143045713Y-77870714D01*
X141402855Y-76513571D02*
X140617141Y-76513571D01*
X141402855Y-77513571D01*
X140617141Y-77513571D01*
X140188569Y-76513571D02*
X139902855Y-77513571D01*
X139617141Y-76799286D01*
X139331426Y-77513571D01*
X139045712Y-76513571D01*
X138474283Y-77513571D02*
X138474283Y-76013571D01*
X138474283Y-76585000D02*
X138331426Y-76513571D01*
X138045712Y-76513571D01*
X137902855Y-76585000D01*
X137831426Y-76656429D01*
X137759997Y-76799286D01*
X137759997Y-77227857D01*
X137831426Y-77370714D01*
X137902855Y-77442143D01*
X138045712Y-77513571D01*
X138331426Y-77513571D01*
X138474283Y-77442143D01*
X136902854Y-76656429D02*
X137045712Y-76585000D01*
X137117140Y-76513571D01*
X137188569Y-76370714D01*
X137188569Y-76299286D01*
X137117140Y-76156429D01*
X137045712Y-76085000D01*
X136902854Y-76013571D01*
X136617140Y-76013571D01*
X136474283Y-76085000D01*
X136402854Y-76156429D01*
X136331426Y-76299286D01*
X136331426Y-76370714D01*
X136402854Y-76513571D01*
X136474283Y-76585000D01*
X136617140Y-76656429D01*
X136902854Y-76656429D01*
X137045712Y-76727857D01*
X137117140Y-76799286D01*
X137188569Y-76942143D01*
X137188569Y-77227857D01*
X137117140Y-77370714D01*
X137045712Y-77442143D01*
X136902854Y-77513571D01*
X136617140Y-77513571D01*
X136474283Y-77442143D01*
X136402854Y-77370714D01*
X136331426Y-77227857D01*
X136331426Y-76942143D01*
X136402854Y-76799286D01*
X136474283Y-76727857D01*
X136617140Y-76656429D01*
X135402855Y-76013571D02*
X135259998Y-76013571D01*
X135117141Y-76085000D01*
X135045712Y-76156429D01*
X134974283Y-76299286D01*
X134902855Y-76585000D01*
X134902855Y-76942143D01*
X134974283Y-77227857D01*
X135045712Y-77370714D01*
X135117141Y-77442143D01*
X135259998Y-77513571D01*
X135402855Y-77513571D01*
X135545712Y-77442143D01*
X135617141Y-77370714D01*
X135688569Y-77227857D01*
X135759998Y-76942143D01*
X135759998Y-76585000D01*
X135688569Y-76299286D01*
X135617141Y-76156429D01*
X135545712Y-76085000D01*
X135402855Y-76013571D01*
X133974284Y-76013571D02*
X133831427Y-76013571D01*
X133688570Y-76085000D01*
X133617141Y-76156429D01*
X133545712Y-76299286D01*
X133474284Y-76585000D01*
X133474284Y-76942143D01*
X133545712Y-77227857D01*
X133617141Y-77370714D01*
X133688570Y-77442143D01*
X133831427Y-77513571D01*
X133974284Y-77513571D01*
X134117141Y-77442143D01*
X134188570Y-77370714D01*
X134259998Y-77227857D01*
X134331427Y-76942143D01*
X134331427Y-76585000D01*
X134259998Y-76299286D01*
X134188570Y-76156429D01*
X134117141Y-76085000D01*
X133974284Y-76013571D01*
X131759999Y-75942143D02*
X133045713Y-77870714D01*
X131259998Y-77513571D02*
X131259998Y-76513571D01*
X131259998Y-76799286D02*
X131188570Y-76656429D01*
X131117141Y-76585000D01*
X130974284Y-76513571D01*
X130831427Y-76513571D01*
X129688570Y-77513571D02*
X129688570Y-76727857D01*
X129759999Y-76585000D01*
X129902856Y-76513571D01*
X130188570Y-76513571D01*
X130331427Y-76585000D01*
X129688570Y-77442143D02*
X129831427Y-77513571D01*
X130188570Y-77513571D01*
X130331427Y-77442143D01*
X130402856Y-77299286D01*
X130402856Y-77156429D01*
X130331427Y-77013571D01*
X130188570Y-76942143D01*
X129831427Y-76942143D01*
X129688570Y-76870714D01*
X129045713Y-77442143D02*
X128902856Y-77513571D01*
X128617141Y-77513571D01*
X128474284Y-77442143D01*
X128402856Y-77299286D01*
X128402856Y-77227857D01*
X128474284Y-77085000D01*
X128617141Y-77013571D01*
X128831427Y-77013571D01*
X128974284Y-76942143D01*
X129045713Y-76799286D01*
X129045713Y-76727857D01*
X128974284Y-76585000D01*
X128831427Y-76513571D01*
X128617141Y-76513571D01*
X128474284Y-76585000D01*
X127759998Y-76513571D02*
X127759998Y-78013571D01*
X127759998Y-76585000D02*
X127617141Y-76513571D01*
X127331427Y-76513571D01*
X127188570Y-76585000D01*
X127117141Y-76656429D01*
X127045712Y-76799286D01*
X127045712Y-77227857D01*
X127117141Y-77370714D01*
X127188570Y-77442143D01*
X127331427Y-77513571D01*
X127617141Y-77513571D01*
X127759998Y-77442143D01*
X126402855Y-77513571D02*
X126402855Y-76513571D01*
X126402855Y-76656429D02*
X126331427Y-76585000D01*
X126188569Y-76513571D01*
X125974284Y-76513571D01*
X125831427Y-76585000D01*
X125759998Y-76727857D01*
X125759998Y-77513571D01*
X125759998Y-76727857D02*
X125688569Y-76585000D01*
X125545712Y-76513571D01*
X125331427Y-76513571D01*
X125188569Y-76585000D01*
X125117141Y-76727857D01*
X125117141Y-77513571D01*
X124402855Y-77513571D02*
X124402855Y-76513571D01*
X124402855Y-76013571D02*
X124474284Y-76085000D01*
X124402855Y-76156429D01*
X124331427Y-76085000D01*
X124402855Y-76013571D01*
X124402855Y-76156429D01*
X123688569Y-76513571D02*
X123688569Y-77513571D01*
X123688569Y-76656429D02*
X123617141Y-76585000D01*
X123474283Y-76513571D01*
X123259998Y-76513571D01*
X123117141Y-76585000D01*
X123045712Y-76727857D01*
X123045712Y-77513571D01*
X122331426Y-77513571D02*
X122331426Y-76513571D01*
X122331426Y-76013571D02*
X122402855Y-76085000D01*
X122331426Y-76156429D01*
X122259998Y-76085000D01*
X122331426Y-76013571D01*
X122331426Y-76156429D01*
D12*
G36*
X146775839Y-67226239D02*
X146662641Y-67277809D01*
X146571380Y-67369135D01*
X146565880Y-67377291D01*
X146543217Y-67440250D01*
X146527823Y-67539588D01*
X146519699Y-67661406D01*
X146518845Y-67791806D01*
X146525260Y-67916890D01*
X146538946Y-68022760D01*
X146559901Y-68095517D01*
X146565880Y-68106308D01*
X146655080Y-68200419D01*
X146767068Y-68255003D01*
X146890219Y-68266936D01*
X147012908Y-68233097D01*
X147021550Y-68228739D01*
X147116800Y-68179076D01*
X147116800Y-68882207D01*
X147028716Y-68845403D01*
X146892703Y-68811530D01*
X146765865Y-68825889D01*
X146682407Y-68866256D01*
X146620078Y-68914107D01*
X146574231Y-68967886D01*
X146542457Y-69035969D01*
X146522345Y-69126735D01*
X146511487Y-69248560D01*
X146507473Y-69409822D01*
X146507240Y-69475350D01*
X146507200Y-69850000D01*
X146735800Y-69850000D01*
X146735800Y-69531238D01*
X146738068Y-69373416D01*
X146745321Y-69259111D01*
X146758234Y-69181221D01*
X146772961Y-69140616D01*
X146834067Y-69065907D01*
X146910794Y-69036825D01*
X146993851Y-69054725D01*
X147054455Y-69099545D01*
X147079529Y-69126972D01*
X147096788Y-69156648D01*
X147107688Y-69198065D01*
X147113686Y-69260717D01*
X147116237Y-69354097D01*
X147116798Y-69487697D01*
X147116800Y-69505945D01*
X147116800Y-69850000D01*
X147345400Y-69850000D01*
X147345400Y-67739330D01*
X147116800Y-67739330D01*
X147102508Y-67868006D01*
X147062751Y-67965284D01*
X147002210Y-68026417D01*
X146925567Y-68046656D01*
X146838402Y-68021736D01*
X146785023Y-67968022D01*
X146751817Y-67883646D01*
X146738030Y-67781451D01*
X146742911Y-67674284D01*
X146765706Y-67574991D01*
X146805664Y-67496417D01*
X146862032Y-67451407D01*
X146871994Y-67448310D01*
X146964701Y-67446462D01*
X147038455Y-67488785D01*
X147089686Y-67571038D01*
X147114825Y-67688978D01*
X147116800Y-67739330D01*
X147345400Y-67739330D01*
X147345400Y-67233800D01*
X147231100Y-67233800D01*
X147153500Y-67239570D01*
X147119522Y-67258117D01*
X147116800Y-67269161D01*
X147107090Y-67286876D01*
X147071676Y-67278978D01*
X147021550Y-67254860D01*
X146899351Y-67217548D01*
X146775839Y-67226239D01*
X146775839Y-67226239D01*
G37*
X146775839Y-67226239D02*
X146662641Y-67277809D01*
X146571380Y-67369135D01*
X146565880Y-67377291D01*
X146543217Y-67440250D01*
X146527823Y-67539588D01*
X146519699Y-67661406D01*
X146518845Y-67791806D01*
X146525260Y-67916890D01*
X146538946Y-68022760D01*
X146559901Y-68095517D01*
X146565880Y-68106308D01*
X146655080Y-68200419D01*
X146767068Y-68255003D01*
X146890219Y-68266936D01*
X147012908Y-68233097D01*
X147021550Y-68228739D01*
X147116800Y-68179076D01*
X147116800Y-68882207D01*
X147028716Y-68845403D01*
X146892703Y-68811530D01*
X146765865Y-68825889D01*
X146682407Y-68866256D01*
X146620078Y-68914107D01*
X146574231Y-68967886D01*
X146542457Y-69035969D01*
X146522345Y-69126735D01*
X146511487Y-69248560D01*
X146507473Y-69409822D01*
X146507240Y-69475350D01*
X146507200Y-69850000D01*
X146735800Y-69850000D01*
X146735800Y-69531238D01*
X146738068Y-69373416D01*
X146745321Y-69259111D01*
X146758234Y-69181221D01*
X146772961Y-69140616D01*
X146834067Y-69065907D01*
X146910794Y-69036825D01*
X146993851Y-69054725D01*
X147054455Y-69099545D01*
X147079529Y-69126972D01*
X147096788Y-69156648D01*
X147107688Y-69198065D01*
X147113686Y-69260717D01*
X147116237Y-69354097D01*
X147116798Y-69487697D01*
X147116800Y-69505945D01*
X147116800Y-69850000D01*
X147345400Y-69850000D01*
X147345400Y-67739330D01*
X147116800Y-67739330D01*
X147102508Y-67868006D01*
X147062751Y-67965284D01*
X147002210Y-68026417D01*
X146925567Y-68046656D01*
X146838402Y-68021736D01*
X146785023Y-67968022D01*
X146751817Y-67883646D01*
X146738030Y-67781451D01*
X146742911Y-67674284D01*
X146765706Y-67574991D01*
X146805664Y-67496417D01*
X146862032Y-67451407D01*
X146871994Y-67448310D01*
X146964701Y-67446462D01*
X147038455Y-67488785D01*
X147089686Y-67571038D01*
X147114825Y-67688978D01*
X147116800Y-67739330D01*
X147345400Y-67739330D01*
X147345400Y-67233800D01*
X147231100Y-67233800D01*
X147153500Y-67239570D01*
X147119522Y-67258117D01*
X147116800Y-67269161D01*
X147107090Y-67286876D01*
X147071676Y-67278978D01*
X147021550Y-67254860D01*
X146899351Y-67217548D01*
X146775839Y-67226239D01*
G36*
X145904075Y-68813569D02*
X145782528Y-68838802D01*
X145737672Y-68856896D01*
X145664662Y-68902366D01*
X145609891Y-68954453D01*
X145596707Y-68975269D01*
X145584523Y-69029443D01*
X145575339Y-69128593D01*
X145569512Y-69266961D01*
X145567403Y-69438793D01*
X145567400Y-69444795D01*
X145567400Y-69850000D01*
X145681700Y-69850000D01*
X145758845Y-69843636D01*
X145794392Y-69825728D01*
X145796000Y-69819519D01*
X145803498Y-69801848D01*
X145826480Y-69819519D01*
X145868272Y-69836145D01*
X145946587Y-69846964D01*
X146027732Y-69850000D01*
X146126573Y-69847077D01*
X146192649Y-69835187D01*
X146243814Y-69809642D01*
X146275909Y-69784867D01*
X146351909Y-69690610D01*
X146387171Y-69577172D01*
X146383618Y-69532500D01*
X146177000Y-69532500D01*
X146154455Y-69580986D01*
X146096940Y-69618064D01*
X146019635Y-69640423D01*
X145937720Y-69644752D01*
X145866377Y-69627742D01*
X145835915Y-69606885D01*
X145806310Y-69552655D01*
X145796000Y-69492585D01*
X145798673Y-69449405D01*
X145815196Y-69427334D01*
X145858326Y-69419292D01*
X145930049Y-69418200D01*
X146037375Y-69429081D01*
X146120249Y-69458636D01*
X146168659Y-69502229D01*
X146177000Y-69532500D01*
X146383618Y-69532500D01*
X146378062Y-69462650D01*
X146339861Y-69365691D01*
X146284353Y-69300162D01*
X146202745Y-69260980D01*
X146086242Y-69243061D01*
X145993549Y-69240400D01*
X145796000Y-69240400D01*
X145796000Y-69167310D01*
X145816600Y-69090493D01*
X145873707Y-69042633D01*
X145960281Y-69026529D01*
X146069282Y-69044976D01*
X146088100Y-69051239D01*
X146156345Y-69071955D01*
X146200882Y-69070935D01*
X146244597Y-69046680D01*
X146253200Y-69040428D01*
X146305012Y-68989252D01*
X146308882Y-68941846D01*
X146264481Y-68890043D01*
X146246577Y-68876027D01*
X146154257Y-68832864D01*
X146034037Y-68811818D01*
X145904075Y-68813569D01*
X145904075Y-68813569D01*
G37*
X145904075Y-68813569D02*
X145782528Y-68838802D01*
X145737672Y-68856896D01*
X145664662Y-68902366D01*
X145609891Y-68954453D01*
X145596707Y-68975269D01*
X145584523Y-69029443D01*
X145575339Y-69128593D01*
X145569512Y-69266961D01*
X145567403Y-69438793D01*
X145567400Y-69444795D01*
X145567400Y-69850000D01*
X145681700Y-69850000D01*
X145758845Y-69843636D01*
X145794392Y-69825728D01*
X145796000Y-69819519D01*
X145803498Y-69801848D01*
X145826480Y-69819519D01*
X145868272Y-69836145D01*
X145946587Y-69846964D01*
X146027732Y-69850000D01*
X146126573Y-69847077D01*
X146192649Y-69835187D01*
X146243814Y-69809642D01*
X146275909Y-69784867D01*
X146351909Y-69690610D01*
X146387171Y-69577172D01*
X146383618Y-69532500D01*
X146177000Y-69532500D01*
X146154455Y-69580986D01*
X146096940Y-69618064D01*
X146019635Y-69640423D01*
X145937720Y-69644752D01*
X145866377Y-69627742D01*
X145835915Y-69606885D01*
X145806310Y-69552655D01*
X145796000Y-69492585D01*
X145798673Y-69449405D01*
X145815196Y-69427334D01*
X145858326Y-69419292D01*
X145930049Y-69418200D01*
X146037375Y-69429081D01*
X146120249Y-69458636D01*
X146168659Y-69502229D01*
X146177000Y-69532500D01*
X146383618Y-69532500D01*
X146378062Y-69462650D01*
X146339861Y-69365691D01*
X146284353Y-69300162D01*
X146202745Y-69260980D01*
X146086242Y-69243061D01*
X145993549Y-69240400D01*
X145796000Y-69240400D01*
X145796000Y-69167310D01*
X145816600Y-69090493D01*
X145873707Y-69042633D01*
X145960281Y-69026529D01*
X146069282Y-69044976D01*
X146088100Y-69051239D01*
X146156345Y-69071955D01*
X146200882Y-69070935D01*
X146244597Y-69046680D01*
X146253200Y-69040428D01*
X146305012Y-68989252D01*
X146308882Y-68941846D01*
X146264481Y-68890043D01*
X146246577Y-68876027D01*
X146154257Y-68832864D01*
X146034037Y-68811818D01*
X145904075Y-68813569D01*
G36*
X145174564Y-68813586D02*
X145140248Y-68830540D01*
X145135600Y-68846700D01*
X145132829Y-68875868D01*
X145116045Y-68880958D01*
X145072544Y-68861989D01*
X145043254Y-68846856D01*
X144926385Y-68812517D01*
X144802113Y-68820167D01*
X144727939Y-68847352D01*
X144677057Y-68876650D01*
X144653243Y-68896244D01*
X144653000Y-68897268D01*
X144668240Y-68921283D01*
X144706798Y-68969191D01*
X144729722Y-68995813D01*
X144780213Y-69048676D01*
X144817724Y-69068497D01*
X144860345Y-69062420D01*
X144880331Y-69055304D01*
X144971481Y-69044010D01*
X145051749Y-69075411D01*
X145106830Y-69143450D01*
X145110710Y-69152841D01*
X145120370Y-69203145D01*
X145128282Y-69291748D01*
X145133631Y-69406159D01*
X145135600Y-69533883D01*
X145135600Y-69850000D01*
X145364200Y-69850000D01*
X145364200Y-68808600D01*
X145249900Y-68808600D01*
X145174564Y-68813586D01*
X145174564Y-68813586D01*
G37*
X145174564Y-68813586D02*
X145140248Y-68830540D01*
X145135600Y-68846700D01*
X145132829Y-68875868D01*
X145116045Y-68880958D01*
X145072544Y-68861989D01*
X145043254Y-68846856D01*
X144926385Y-68812517D01*
X144802113Y-68820167D01*
X144727939Y-68847352D01*
X144677057Y-68876650D01*
X144653243Y-68896244D01*
X144653000Y-68897268D01*
X144668240Y-68921283D01*
X144706798Y-68969191D01*
X144729722Y-68995813D01*
X144780213Y-69048676D01*
X144817724Y-69068497D01*
X144860345Y-69062420D01*
X144880331Y-69055304D01*
X144971481Y-69044010D01*
X145051749Y-69075411D01*
X145106830Y-69143450D01*
X145110710Y-69152841D01*
X145120370Y-69203145D01*
X145128282Y-69291748D01*
X145133631Y-69406159D01*
X145135600Y-69533883D01*
X145135600Y-69850000D01*
X145364200Y-69850000D01*
X145364200Y-68808600D01*
X145249900Y-68808600D01*
X145174564Y-68813586D01*
G36*
X143840200Y-69850000D02*
X143954500Y-69850000D01*
X144029431Y-69845161D01*
X144063757Y-69828505D01*
X144068800Y-69811247D01*
X144073895Y-69787516D01*
X144098094Y-69789427D01*
X144143739Y-69811247D01*
X144252922Y-69844037D01*
X144375920Y-69845279D01*
X144488967Y-69815656D01*
X144518029Y-69800464D01*
X144575921Y-69759906D01*
X144616464Y-69714259D01*
X144642627Y-69653984D01*
X144657376Y-69569544D01*
X144663680Y-69451402D01*
X144664312Y-69371087D01*
X144446866Y-69371087D01*
X144432668Y-69476994D01*
X144401231Y-69559541D01*
X144383488Y-69582483D01*
X144318544Y-69615701D01*
X144236444Y-69618508D01*
X144159726Y-69592197D01*
X144129887Y-69567933D01*
X144103288Y-69527120D01*
X144088253Y-69469201D01*
X144082094Y-69380640D01*
X144081500Y-69324389D01*
X144083254Y-69223988D01*
X144090828Y-69160524D01*
X144107692Y-69120185D01*
X144137316Y-69089161D01*
X144141464Y-69085755D01*
X144223346Y-69044912D01*
X144308316Y-69043303D01*
X144379465Y-69080845D01*
X144385368Y-69086969D01*
X144423282Y-69158698D01*
X144443759Y-69259196D01*
X144446866Y-69371087D01*
X144664312Y-69371087D01*
X144664642Y-69329300D01*
X144661640Y-69173622D01*
X144651064Y-69059544D01*
X144629614Y-68978045D01*
X144593992Y-68920106D01*
X144540897Y-68876707D01*
X144488924Y-68848888D01*
X144359780Y-68812382D01*
X144233220Y-68823322D01*
X144151350Y-68859121D01*
X144068800Y-68909453D01*
X144068800Y-68402200D01*
X143840200Y-68402200D01*
X143840200Y-69850000D01*
X143840200Y-69850000D01*
G37*
X143840200Y-69850000D02*
X143954500Y-69850000D01*
X144029431Y-69845161D01*
X144063757Y-69828505D01*
X144068800Y-69811247D01*
X144073895Y-69787516D01*
X144098094Y-69789427D01*
X144143739Y-69811247D01*
X144252922Y-69844037D01*
X144375920Y-69845279D01*
X144488967Y-69815656D01*
X144518029Y-69800464D01*
X144575921Y-69759906D01*
X144616464Y-69714259D01*
X144642627Y-69653984D01*
X144657376Y-69569544D01*
X144663680Y-69451402D01*
X144664312Y-69371087D01*
X144446866Y-69371087D01*
X144432668Y-69476994D01*
X144401231Y-69559541D01*
X144383488Y-69582483D01*
X144318544Y-69615701D01*
X144236444Y-69618508D01*
X144159726Y-69592197D01*
X144129887Y-69567933D01*
X144103288Y-69527120D01*
X144088253Y-69469201D01*
X144082094Y-69380640D01*
X144081500Y-69324389D01*
X144083254Y-69223988D01*
X144090828Y-69160524D01*
X144107692Y-69120185D01*
X144137316Y-69089161D01*
X144141464Y-69085755D01*
X144223346Y-69044912D01*
X144308316Y-69043303D01*
X144379465Y-69080845D01*
X144385368Y-69086969D01*
X144423282Y-69158698D01*
X144443759Y-69259196D01*
X144446866Y-69371087D01*
X144664312Y-69371087D01*
X144664642Y-69329300D01*
X144661640Y-69173622D01*
X144651064Y-69059544D01*
X144629614Y-68978045D01*
X144593992Y-68920106D01*
X144540897Y-68876707D01*
X144488924Y-68848888D01*
X144359780Y-68812382D01*
X144233220Y-68823322D01*
X144151350Y-68859121D01*
X144068800Y-68909453D01*
X144068800Y-68402200D01*
X143840200Y-68402200D01*
X143840200Y-69850000D01*
G36*
X143434789Y-69138744D02*
X143401768Y-69257814D01*
X143371987Y-69354942D01*
X143348224Y-69421795D01*
X143333257Y-69450041D01*
X143331019Y-69449894D01*
X143317652Y-69419652D01*
X143292841Y-69350666D01*
X143259973Y-69252778D01*
X143222436Y-69135830D01*
X143217393Y-69119750D01*
X143120077Y-68808600D01*
X142954717Y-68808600D01*
X142846083Y-69137758D01*
X142806015Y-69256641D01*
X142771247Y-69355059D01*
X142744892Y-69424561D01*
X142730058Y-69456695D01*
X142728318Y-69457784D01*
X142718220Y-69432176D01*
X142697215Y-69363861D01*
X142664829Y-69251190D01*
X142620588Y-69092518D01*
X142568831Y-68903850D01*
X142549465Y-68844934D01*
X142522695Y-68817274D01*
X142471277Y-68809081D01*
X142429521Y-68808600D01*
X142357957Y-68814362D01*
X142319489Y-68829529D01*
X142316200Y-68836812D01*
X142323624Y-68868626D01*
X142344340Y-68941051D01*
X142376017Y-69046362D01*
X142416323Y-69176834D01*
X142462926Y-69324740D01*
X142473364Y-69357512D01*
X142630528Y-69850000D01*
X142733714Y-69849964D01*
X142836900Y-69849929D01*
X142883048Y-69691214D01*
X142916046Y-69578687D01*
X142954293Y-69449640D01*
X142982245Y-69356202D01*
X143035294Y-69179904D01*
X143095627Y-69381602D01*
X143130300Y-69497846D01*
X143165166Y-69615277D01*
X143193145Y-69710046D01*
X143195083Y-69716650D01*
X143219244Y-69793097D01*
X143242146Y-69832757D01*
X143276439Y-69847701D01*
X143334771Y-69849999D01*
X143334800Y-69850000D01*
X143403622Y-69842559D01*
X143443932Y-69823616D01*
X143447252Y-69818250D01*
X143460662Y-69778884D01*
X143485542Y-69702784D01*
X143519087Y-69598783D01*
X143558493Y-69475716D01*
X143600956Y-69342415D01*
X143643674Y-69207716D01*
X143683841Y-69080452D01*
X143718654Y-68969456D01*
X143745309Y-68883564D01*
X143761003Y-68831608D01*
X143764000Y-68820266D01*
X143741203Y-68813468D01*
X143683201Y-68809263D01*
X143643124Y-68808600D01*
X143522248Y-68808600D01*
X143434789Y-69138744D01*
X143434789Y-69138744D01*
G37*
X143434789Y-69138744D02*
X143401768Y-69257814D01*
X143371987Y-69354942D01*
X143348224Y-69421795D01*
X143333257Y-69450041D01*
X143331019Y-69449894D01*
X143317652Y-69419652D01*
X143292841Y-69350666D01*
X143259973Y-69252778D01*
X143222436Y-69135830D01*
X143217393Y-69119750D01*
X143120077Y-68808600D01*
X142954717Y-68808600D01*
X142846083Y-69137758D01*
X142806015Y-69256641D01*
X142771247Y-69355059D01*
X142744892Y-69424561D01*
X142730058Y-69456695D01*
X142728318Y-69457784D01*
X142718220Y-69432176D01*
X142697215Y-69363861D01*
X142664829Y-69251190D01*
X142620588Y-69092518D01*
X142568831Y-68903850D01*
X142549465Y-68844934D01*
X142522695Y-68817274D01*
X142471277Y-68809081D01*
X142429521Y-68808600D01*
X142357957Y-68814362D01*
X142319489Y-68829529D01*
X142316200Y-68836812D01*
X142323624Y-68868626D01*
X142344340Y-68941051D01*
X142376017Y-69046362D01*
X142416323Y-69176834D01*
X142462926Y-69324740D01*
X142473364Y-69357512D01*
X142630528Y-69850000D01*
X142733714Y-69849964D01*
X142836900Y-69849929D01*
X142883048Y-69691214D01*
X142916046Y-69578687D01*
X142954293Y-69449640D01*
X142982245Y-69356202D01*
X143035294Y-69179904D01*
X143095627Y-69381602D01*
X143130300Y-69497846D01*
X143165166Y-69615277D01*
X143193145Y-69710046D01*
X143195083Y-69716650D01*
X143219244Y-69793097D01*
X143242146Y-69832757D01*
X143276439Y-69847701D01*
X143334771Y-69849999D01*
X143334800Y-69850000D01*
X143403622Y-69842559D01*
X143443932Y-69823616D01*
X143447252Y-69818250D01*
X143460662Y-69778884D01*
X143485542Y-69702784D01*
X143519087Y-69598783D01*
X143558493Y-69475716D01*
X143600956Y-69342415D01*
X143643674Y-69207716D01*
X143683841Y-69080452D01*
X143718654Y-68969456D01*
X143745309Y-68883564D01*
X143761003Y-68831608D01*
X143764000Y-68820266D01*
X143741203Y-68813468D01*
X143683201Y-68809263D01*
X143643124Y-68808600D01*
X143522248Y-68808600D01*
X143434789Y-69138744D01*
G36*
X141786219Y-68818791D02*
X141655994Y-68855888D01*
X141561116Y-68926165D01*
X141536079Y-68958406D01*
X141514101Y-68994165D01*
X141498485Y-69031657D01*
X141488152Y-69079969D01*
X141482022Y-69148190D01*
X141479016Y-69245406D01*
X141478054Y-69380705D01*
X141478000Y-69447356D01*
X141478000Y-69850000D01*
X141592300Y-69850000D01*
X141660464Y-69844777D01*
X141701354Y-69831565D01*
X141706600Y-69823706D01*
X141722149Y-69810386D01*
X141755731Y-69823706D01*
X141832084Y-69845251D01*
X141935626Y-69850834D01*
X142045710Y-69841590D01*
X142141689Y-69818654D01*
X142181467Y-69800319D01*
X142258768Y-69725295D01*
X142302067Y-69622292D01*
X142305112Y-69551201D01*
X142085147Y-69551201D01*
X142060265Y-69605793D01*
X142043150Y-69619365D01*
X141965245Y-69642367D01*
X141870039Y-69642043D01*
X141784731Y-69619570D01*
X141763052Y-69607259D01*
X141715135Y-69544573D01*
X141706600Y-69492959D01*
X141709010Y-69450405D01*
X141724522Y-69428142D01*
X141765567Y-69419598D01*
X141844572Y-69418200D01*
X141847970Y-69418200D01*
X141936311Y-69422811D01*
X142009664Y-69434631D01*
X142038470Y-69444493D01*
X142077675Y-69489712D01*
X142085147Y-69551201D01*
X142305112Y-69551201D01*
X142307112Y-69504510D01*
X142295040Y-69447735D01*
X142262781Y-69363959D01*
X142218796Y-69307244D01*
X142153148Y-69272007D01*
X142055895Y-69252669D01*
X141932570Y-69244222D01*
X141706600Y-69235345D01*
X141706600Y-69164782D01*
X141719735Y-69100924D01*
X141745126Y-69062246D01*
X141803001Y-69039034D01*
X141887511Y-69031340D01*
X141976914Y-69039185D01*
X142048277Y-69061945D01*
X142093749Y-69078627D01*
X142136601Y-69068176D01*
X142186850Y-69034921D01*
X142241511Y-68987061D01*
X142252372Y-68948013D01*
X142218968Y-68905105D01*
X142180975Y-68874831D01*
X142095659Y-68835315D01*
X141969003Y-68815125D01*
X141953977Y-68814119D01*
X141786219Y-68818791D01*
X141786219Y-68818791D01*
G37*
X141786219Y-68818791D02*
X141655994Y-68855888D01*
X141561116Y-68926165D01*
X141536079Y-68958406D01*
X141514101Y-68994165D01*
X141498485Y-69031657D01*
X141488152Y-69079969D01*
X141482022Y-69148190D01*
X141479016Y-69245406D01*
X141478054Y-69380705D01*
X141478000Y-69447356D01*
X141478000Y-69850000D01*
X141592300Y-69850000D01*
X141660464Y-69844777D01*
X141701354Y-69831565D01*
X141706600Y-69823706D01*
X141722149Y-69810386D01*
X141755731Y-69823706D01*
X141832084Y-69845251D01*
X141935626Y-69850834D01*
X142045710Y-69841590D01*
X142141689Y-69818654D01*
X142181467Y-69800319D01*
X142258768Y-69725295D01*
X142302067Y-69622292D01*
X142305112Y-69551201D01*
X142085147Y-69551201D01*
X142060265Y-69605793D01*
X142043150Y-69619365D01*
X141965245Y-69642367D01*
X141870039Y-69642043D01*
X141784731Y-69619570D01*
X141763052Y-69607259D01*
X141715135Y-69544573D01*
X141706600Y-69492959D01*
X141709010Y-69450405D01*
X141724522Y-69428142D01*
X141765567Y-69419598D01*
X141844572Y-69418200D01*
X141847970Y-69418200D01*
X141936311Y-69422811D01*
X142009664Y-69434631D01*
X142038470Y-69444493D01*
X142077675Y-69489712D01*
X142085147Y-69551201D01*
X142305112Y-69551201D01*
X142307112Y-69504510D01*
X142295040Y-69447735D01*
X142262781Y-69363959D01*
X142218796Y-69307244D01*
X142153148Y-69272007D01*
X142055895Y-69252669D01*
X141932570Y-69244222D01*
X141706600Y-69235345D01*
X141706600Y-69164782D01*
X141719735Y-69100924D01*
X141745126Y-69062246D01*
X141803001Y-69039034D01*
X141887511Y-69031340D01*
X141976914Y-69039185D01*
X142048277Y-69061945D01*
X142093749Y-69078627D01*
X142136601Y-69068176D01*
X142186850Y-69034921D01*
X142241511Y-68987061D01*
X142252372Y-68948013D01*
X142218968Y-68905105D01*
X142180975Y-68874831D01*
X142095659Y-68835315D01*
X141969003Y-68815125D01*
X141953977Y-68814119D01*
X141786219Y-68818791D01*
G36*
X141085570Y-68813438D02*
X141051244Y-68830094D01*
X141046200Y-68847352D01*
X141041106Y-68871083D01*
X141016907Y-68869172D01*
X140971262Y-68847352D01*
X140847775Y-68811521D01*
X140711085Y-68823753D01*
X140668991Y-68836484D01*
X140612471Y-68863153D01*
X140594376Y-68896590D01*
X140614453Y-68946233D01*
X140664313Y-69011800D01*
X140713775Y-69065119D01*
X140746485Y-69081328D01*
X140770310Y-69068950D01*
X140831939Y-69039957D01*
X140908142Y-69045975D01*
X140979147Y-69084580D01*
X140990973Y-69095987D01*
X141013221Y-69123238D01*
X141028553Y-69155612D01*
X141038242Y-69202482D01*
X141043563Y-69273222D01*
X141045790Y-69377206D01*
X141046200Y-69502387D01*
X141046200Y-69850000D01*
X141274800Y-69850000D01*
X141274800Y-68808600D01*
X141160500Y-68808600D01*
X141085570Y-68813438D01*
X141085570Y-68813438D01*
G37*
X141085570Y-68813438D02*
X141051244Y-68830094D01*
X141046200Y-68847352D01*
X141041106Y-68871083D01*
X141016907Y-68869172D01*
X140971262Y-68847352D01*
X140847775Y-68811521D01*
X140711085Y-68823753D01*
X140668991Y-68836484D01*
X140612471Y-68863153D01*
X140594376Y-68896590D01*
X140614453Y-68946233D01*
X140664313Y-69011800D01*
X140713775Y-69065119D01*
X140746485Y-69081328D01*
X140770310Y-69068950D01*
X140831939Y-69039957D01*
X140908142Y-69045975D01*
X140979147Y-69084580D01*
X140990973Y-69095987D01*
X141013221Y-69123238D01*
X141028553Y-69155612D01*
X141038242Y-69202482D01*
X141043563Y-69273222D01*
X141045790Y-69377206D01*
X141046200Y-69502387D01*
X141046200Y-69850000D01*
X141274800Y-69850000D01*
X141274800Y-68808600D01*
X141160500Y-68808600D01*
X141085570Y-68813438D01*
G36*
X140039174Y-68832678D02*
X139939516Y-68872285D01*
X139855305Y-68948333D01*
X139807950Y-69011541D01*
X139772678Y-69078150D01*
X139755170Y-69156877D01*
X139750800Y-69256856D01*
X139750800Y-69418200D01*
X140055600Y-69418200D01*
X140184936Y-69418876D01*
X140271725Y-69421708D01*
X140324212Y-69427903D01*
X140350642Y-69438665D01*
X140359260Y-69455199D01*
X140359593Y-69462650D01*
X140336096Y-69539134D01*
X140277242Y-69595638D01*
X140195839Y-69628325D01*
X140104697Y-69633356D01*
X140016625Y-69606895D01*
X139974636Y-69577971D01*
X139943531Y-69557931D01*
X139910272Y-69562668D01*
X139858852Y-69595977D01*
X139840571Y-69609758D01*
X139786016Y-69654169D01*
X139767117Y-69683056D01*
X139777935Y-69710057D01*
X139790495Y-69724761D01*
X139871785Y-69783530D01*
X139985136Y-69826093D01*
X140113533Y-69849371D01*
X140239960Y-69850284D01*
X140347405Y-69825752D01*
X140347700Y-69825629D01*
X140423025Y-69774923D01*
X140496147Y-69694850D01*
X140550700Y-69604828D01*
X140564101Y-69568855D01*
X140587192Y-69435604D01*
X140588609Y-69288920D01*
X140575955Y-69195950D01*
X140359593Y-69195950D01*
X140353626Y-69218866D01*
X140327929Y-69232327D01*
X140272351Y-69238711D01*
X140176746Y-69240396D01*
X140169900Y-69240400D01*
X140071715Y-69238910D01*
X140014135Y-69232857D01*
X139987010Y-69219862D01*
X139980195Y-69197547D01*
X139980208Y-69195950D01*
X140004227Y-69121999D01*
X140063198Y-69064879D01*
X140141814Y-69034036D01*
X140224766Y-69038916D01*
X140231096Y-69041120D01*
X140306852Y-69089034D01*
X140352344Y-69157513D01*
X140359593Y-69195950D01*
X140575955Y-69195950D01*
X140569590Y-69149186D01*
X140531850Y-69037718D01*
X140462709Y-68928831D01*
X140382022Y-68861524D01*
X140277294Y-68828324D01*
X140169900Y-68821300D01*
X140039174Y-68832678D01*
X140039174Y-68832678D01*
G37*
X140039174Y-68832678D02*
X139939516Y-68872285D01*
X139855305Y-68948333D01*
X139807950Y-69011541D01*
X139772678Y-69078150D01*
X139755170Y-69156877D01*
X139750800Y-69256856D01*
X139750800Y-69418200D01*
X140055600Y-69418200D01*
X140184936Y-69418876D01*
X140271725Y-69421708D01*
X140324212Y-69427903D01*
X140350642Y-69438665D01*
X140359260Y-69455199D01*
X140359593Y-69462650D01*
X140336096Y-69539134D01*
X140277242Y-69595638D01*
X140195839Y-69628325D01*
X140104697Y-69633356D01*
X140016625Y-69606895D01*
X139974636Y-69577971D01*
X139943531Y-69557931D01*
X139910272Y-69562668D01*
X139858852Y-69595977D01*
X139840571Y-69609758D01*
X139786016Y-69654169D01*
X139767117Y-69683056D01*
X139777935Y-69710057D01*
X139790495Y-69724761D01*
X139871785Y-69783530D01*
X139985136Y-69826093D01*
X140113533Y-69849371D01*
X140239960Y-69850284D01*
X140347405Y-69825752D01*
X140347700Y-69825629D01*
X140423025Y-69774923D01*
X140496147Y-69694850D01*
X140550700Y-69604828D01*
X140564101Y-69568855D01*
X140587192Y-69435604D01*
X140588609Y-69288920D01*
X140575955Y-69195950D01*
X140359593Y-69195950D01*
X140353626Y-69218866D01*
X140327929Y-69232327D01*
X140272351Y-69238711D01*
X140176746Y-69240396D01*
X140169900Y-69240400D01*
X140071715Y-69238910D01*
X140014135Y-69232857D01*
X139987010Y-69219862D01*
X139980195Y-69197547D01*
X139980208Y-69195950D01*
X140004227Y-69121999D01*
X140063198Y-69064879D01*
X140141814Y-69034036D01*
X140224766Y-69038916D01*
X140231096Y-69041120D01*
X140306852Y-69089034D01*
X140352344Y-69157513D01*
X140359593Y-69195950D01*
X140575955Y-69195950D01*
X140569590Y-69149186D01*
X140531850Y-69037718D01*
X140462709Y-68928831D01*
X140382022Y-68861524D01*
X140277294Y-68828324D01*
X140169900Y-68821300D01*
X140039174Y-68832678D01*
G36*
X147829501Y-67229124D02*
X147723150Y-67261877D01*
X147703450Y-67272323D01*
X147624434Y-67324882D01*
X147570066Y-67381002D01*
X147535958Y-67451362D01*
X147517722Y-67546640D01*
X147510969Y-67677512D01*
X147510500Y-67741800D01*
X147513943Y-67890956D01*
X147527416Y-67999974D01*
X147555639Y-68079238D01*
X147603329Y-68139131D01*
X147675206Y-68190037D01*
X147726919Y-68218050D01*
X147859825Y-68265202D01*
X147992571Y-68266031D01*
X148066270Y-68248925D01*
X148138597Y-68214932D01*
X148202034Y-68168558D01*
X148262291Y-68103051D01*
X148301897Y-68032413D01*
X148324723Y-67944092D01*
X148334638Y-67825539D01*
X148335195Y-67788113D01*
X148105755Y-67788113D01*
X148098001Y-67880603D01*
X148082163Y-67944435D01*
X148080340Y-67948102D01*
X148030968Y-68000019D01*
X147958875Y-68037196D01*
X147921989Y-68044989D01*
X147887122Y-68035442D01*
X147831255Y-68010181D01*
X147829968Y-68009517D01*
X147773820Y-67965225D01*
X147742676Y-67914267D01*
X147730149Y-67830648D01*
X147727554Y-67727242D01*
X147734431Y-67627590D01*
X147749664Y-67556920D01*
X147797978Y-67492296D01*
X147871841Y-67457601D01*
X147955012Y-67453875D01*
X148031255Y-67482160D01*
X148080456Y-67535714D01*
X148096988Y-67595967D01*
X148105419Y-67686667D01*
X148105755Y-67788113D01*
X148335195Y-67788113D01*
X148336000Y-67734117D01*
X148330182Y-67586052D01*
X148309390Y-67475396D01*
X148268618Y-67389744D01*
X148202859Y-67316692D01*
X148150555Y-67274658D01*
X148062596Y-67235616D01*
X147949114Y-67220404D01*
X147829501Y-67229124D01*
X147829501Y-67229124D01*
G37*
X147829501Y-67229124D02*
X147723150Y-67261877D01*
X147703450Y-67272323D01*
X147624434Y-67324882D01*
X147570066Y-67381002D01*
X147535958Y-67451362D01*
X147517722Y-67546640D01*
X147510969Y-67677512D01*
X147510500Y-67741800D01*
X147513943Y-67890956D01*
X147527416Y-67999974D01*
X147555639Y-68079238D01*
X147603329Y-68139131D01*
X147675206Y-68190037D01*
X147726919Y-68218050D01*
X147859825Y-68265202D01*
X147992571Y-68266031D01*
X148066270Y-68248925D01*
X148138597Y-68214932D01*
X148202034Y-68168558D01*
X148262291Y-68103051D01*
X148301897Y-68032413D01*
X148324723Y-67944092D01*
X148334638Y-67825539D01*
X148335195Y-67788113D01*
X148105755Y-67788113D01*
X148098001Y-67880603D01*
X148082163Y-67944435D01*
X148080340Y-67948102D01*
X148030968Y-68000019D01*
X147958875Y-68037196D01*
X147921989Y-68044989D01*
X147887122Y-68035442D01*
X147831255Y-68010181D01*
X147829968Y-68009517D01*
X147773820Y-67965225D01*
X147742676Y-67914267D01*
X147730149Y-67830648D01*
X147727554Y-67727242D01*
X147734431Y-67627590D01*
X147749664Y-67556920D01*
X147797978Y-67492296D01*
X147871841Y-67457601D01*
X147955012Y-67453875D01*
X148031255Y-67482160D01*
X148080456Y-67535714D01*
X148096988Y-67595967D01*
X148105419Y-67686667D01*
X148105755Y-67788113D01*
X148335195Y-67788113D01*
X148336000Y-67734117D01*
X148330182Y-67586052D01*
X148309390Y-67475396D01*
X148268618Y-67389744D01*
X148202859Y-67316692D01*
X148150555Y-67274658D01*
X148062596Y-67235616D01*
X147949114Y-67220404D01*
X147829501Y-67229124D01*
G36*
X145827794Y-67243131D02*
X145706002Y-67304760D01*
X145616012Y-67403945D01*
X145560467Y-67537797D01*
X145542000Y-67699019D01*
X145542000Y-67843400D01*
X145858703Y-67843400D01*
X145990182Y-67843939D01*
X146078595Y-67846317D01*
X146131670Y-67851677D01*
X146157138Y-67861158D01*
X146162726Y-67875903D01*
X146159718Y-67887850D01*
X146131417Y-67939197D01*
X146092588Y-67989450D01*
X146022142Y-68033521D01*
X145930865Y-68046596D01*
X145839084Y-68027459D01*
X145801386Y-68006872D01*
X145727697Y-67980556D01*
X145653408Y-68004790D01*
X145602738Y-68049652D01*
X145573519Y-68086416D01*
X145574954Y-68113561D01*
X145610747Y-68149946D01*
X145624830Y-68162121D01*
X145743979Y-68232978D01*
X145886654Y-68267322D01*
X146038835Y-68262857D01*
X146120646Y-68243304D01*
X146227986Y-68183532D01*
X146312051Y-68085221D01*
X146369424Y-67956593D01*
X146396688Y-67805867D01*
X146390425Y-67641263D01*
X146390251Y-67640200D01*
X146177146Y-67640200D01*
X145973873Y-67640200D01*
X145879485Y-67638593D01*
X145808404Y-67634323D01*
X145772647Y-67628215D01*
X145770600Y-67626238D01*
X145781157Y-67596252D01*
X145806805Y-67542292D01*
X145809162Y-67537706D01*
X145868201Y-67469835D01*
X145945721Y-67440141D01*
X146027673Y-67447786D01*
X146100004Y-67491932D01*
X146143476Y-67557650D01*
X146177146Y-67640200D01*
X146390251Y-67640200D01*
X146384891Y-67607626D01*
X146338940Y-67449044D01*
X146267115Y-67333510D01*
X146167672Y-67259366D01*
X146038867Y-67224956D01*
X145978743Y-67221946D01*
X145827794Y-67243131D01*
X145827794Y-67243131D01*
G37*
X145827794Y-67243131D02*
X145706002Y-67304760D01*
X145616012Y-67403945D01*
X145560467Y-67537797D01*
X145542000Y-67699019D01*
X145542000Y-67843400D01*
X145858703Y-67843400D01*
X145990182Y-67843939D01*
X146078595Y-67846317D01*
X146131670Y-67851677D01*
X146157138Y-67861158D01*
X146162726Y-67875903D01*
X146159718Y-67887850D01*
X146131417Y-67939197D01*
X146092588Y-67989450D01*
X146022142Y-68033521D01*
X145930865Y-68046596D01*
X145839084Y-68027459D01*
X145801386Y-68006872D01*
X145727697Y-67980556D01*
X145653408Y-68004790D01*
X145602738Y-68049652D01*
X145573519Y-68086416D01*
X145574954Y-68113561D01*
X145610747Y-68149946D01*
X145624830Y-68162121D01*
X145743979Y-68232978D01*
X145886654Y-68267322D01*
X146038835Y-68262857D01*
X146120646Y-68243304D01*
X146227986Y-68183532D01*
X146312051Y-68085221D01*
X146369424Y-67956593D01*
X146396688Y-67805867D01*
X146390425Y-67641263D01*
X146390251Y-67640200D01*
X146177146Y-67640200D01*
X145973873Y-67640200D01*
X145879485Y-67638593D01*
X145808404Y-67634323D01*
X145772647Y-67628215D01*
X145770600Y-67626238D01*
X145781157Y-67596252D01*
X145806805Y-67542292D01*
X145809162Y-67537706D01*
X145868201Y-67469835D01*
X145945721Y-67440141D01*
X146027673Y-67447786D01*
X146100004Y-67491932D01*
X146143476Y-67557650D01*
X146177146Y-67640200D01*
X146390251Y-67640200D01*
X146384891Y-67607626D01*
X146338940Y-67449044D01*
X146267115Y-67333510D01*
X146167672Y-67259366D01*
X146038867Y-67224956D01*
X145978743Y-67221946D01*
X145827794Y-67243131D01*
G36*
X143362431Y-67252088D02*
X143275050Y-67291538D01*
X143216794Y-67327125D01*
X143183194Y-67353538D01*
X143179927Y-67359127D01*
X143194411Y-67386400D01*
X143230134Y-67435875D01*
X143240732Y-67449339D01*
X143301410Y-67525179D01*
X143393867Y-67481089D01*
X143498508Y-67445195D01*
X143595437Y-67436546D01*
X143674408Y-67453363D01*
X143725174Y-67493867D01*
X143738600Y-67540962D01*
X143732597Y-67571366D01*
X143708217Y-67592576D01*
X143655904Y-67608427D01*
X143566105Y-67622754D01*
X143520332Y-67628576D01*
X143399644Y-67646798D01*
X143317283Y-67669899D01*
X143260782Y-67703589D01*
X143217676Y-67753582D01*
X143205307Y-67772916D01*
X143160144Y-67888609D01*
X143161522Y-68001379D01*
X143205461Y-68103026D01*
X143287977Y-68185351D01*
X143405087Y-68240155D01*
X143436016Y-68247902D01*
X143546322Y-68267742D01*
X143632508Y-68270781D01*
X143718678Y-68256199D01*
X143789400Y-68235849D01*
X143878756Y-68199134D01*
X143961225Y-68151566D01*
X143979900Y-68137562D01*
X144056100Y-68075088D01*
X143896866Y-67913742D01*
X143819363Y-67971043D01*
X143733653Y-68015283D01*
X143632934Y-68039798D01*
X143534518Y-68042938D01*
X143455714Y-68023052D01*
X143433096Y-68007862D01*
X143391061Y-67949993D01*
X143395756Y-67900343D01*
X143443226Y-67863709D01*
X143529517Y-67844890D01*
X143568656Y-67843400D01*
X143710271Y-67831496D01*
X143818075Y-67793201D01*
X143892527Y-67736365D01*
X143939951Y-67679599D01*
X143961918Y-67619659D01*
X143967200Y-67534692D01*
X143961589Y-67448066D01*
X143939122Y-67388229D01*
X143895014Y-67335505D01*
X143787945Y-67262333D01*
X143655133Y-67223446D01*
X143509117Y-67219735D01*
X143362431Y-67252088D01*
X143362431Y-67252088D01*
G37*
X143362431Y-67252088D02*
X143275050Y-67291538D01*
X143216794Y-67327125D01*
X143183194Y-67353538D01*
X143179927Y-67359127D01*
X143194411Y-67386400D01*
X143230134Y-67435875D01*
X143240732Y-67449339D01*
X143301410Y-67525179D01*
X143393867Y-67481089D01*
X143498508Y-67445195D01*
X143595437Y-67436546D01*
X143674408Y-67453363D01*
X143725174Y-67493867D01*
X143738600Y-67540962D01*
X143732597Y-67571366D01*
X143708217Y-67592576D01*
X143655904Y-67608427D01*
X143566105Y-67622754D01*
X143520332Y-67628576D01*
X143399644Y-67646798D01*
X143317283Y-67669899D01*
X143260782Y-67703589D01*
X143217676Y-67753582D01*
X143205307Y-67772916D01*
X143160144Y-67888609D01*
X143161522Y-68001379D01*
X143205461Y-68103026D01*
X143287977Y-68185351D01*
X143405087Y-68240155D01*
X143436016Y-68247902D01*
X143546322Y-68267742D01*
X143632508Y-68270781D01*
X143718678Y-68256199D01*
X143789400Y-68235849D01*
X143878756Y-68199134D01*
X143961225Y-68151566D01*
X143979900Y-68137562D01*
X144056100Y-68075088D01*
X143896866Y-67913742D01*
X143819363Y-67971043D01*
X143733653Y-68015283D01*
X143632934Y-68039798D01*
X143534518Y-68042938D01*
X143455714Y-68023052D01*
X143433096Y-68007862D01*
X143391061Y-67949993D01*
X143395756Y-67900343D01*
X143443226Y-67863709D01*
X143529517Y-67844890D01*
X143568656Y-67843400D01*
X143710271Y-67831496D01*
X143818075Y-67793201D01*
X143892527Y-67736365D01*
X143939951Y-67679599D01*
X143961918Y-67619659D01*
X143967200Y-67534692D01*
X143961589Y-67448066D01*
X143939122Y-67388229D01*
X143895014Y-67335505D01*
X143787945Y-67262333D01*
X143655133Y-67223446D01*
X143509117Y-67219735D01*
X143362431Y-67252088D01*
G36*
X142560053Y-67224161D02*
X142428548Y-67268256D01*
X142343214Y-67325239D01*
X142280199Y-67396655D01*
X142239694Y-67490266D01*
X142219485Y-67614466D01*
X142217358Y-67777648D01*
X142218174Y-67799305D01*
X142230115Y-67940589D01*
X142256384Y-68043401D01*
X142303275Y-68119430D01*
X142377085Y-68180365D01*
X142443719Y-68218050D01*
X142576625Y-68265202D01*
X142709371Y-68266031D01*
X142783070Y-68248925D01*
X142881468Y-68197517D01*
X142970499Y-68112098D01*
X143017114Y-68041511D01*
X143038125Y-67968825D01*
X143050126Y-67851836D01*
X143052800Y-67741800D01*
X143052616Y-67736421D01*
X142824200Y-67736421D01*
X142817364Y-67861851D01*
X142794615Y-67946771D01*
X142752598Y-67999899D01*
X142714590Y-68021022D01*
X142656713Y-68040792D01*
X142612960Y-68039164D01*
X142555973Y-68014253D01*
X142546617Y-68009439D01*
X142494816Y-67976110D01*
X142463643Y-67933512D01*
X142448131Y-67868794D01*
X142443317Y-67769110D01*
X142443200Y-67741800D01*
X142446349Y-67632958D01*
X142459143Y-67561816D01*
X142486602Y-67515486D01*
X142533746Y-67481079D01*
X142547659Y-67473621D01*
X142643046Y-67444229D01*
X142721184Y-67460862D01*
X142779249Y-67520837D01*
X142814418Y-67621470D01*
X142824200Y-67736421D01*
X143052616Y-67736421D01*
X143047813Y-67596138D01*
X143033310Y-67490538D01*
X143017114Y-67442088D01*
X142933700Y-67332017D01*
X142822882Y-67257820D01*
X142694915Y-67221275D01*
X142560053Y-67224161D01*
X142560053Y-67224161D01*
G37*
X142560053Y-67224161D02*
X142428548Y-67268256D01*
X142343214Y-67325239D01*
X142280199Y-67396655D01*
X142239694Y-67490266D01*
X142219485Y-67614466D01*
X142217358Y-67777648D01*
X142218174Y-67799305D01*
X142230115Y-67940589D01*
X142256384Y-68043401D01*
X142303275Y-68119430D01*
X142377085Y-68180365D01*
X142443719Y-68218050D01*
X142576625Y-68265202D01*
X142709371Y-68266031D01*
X142783070Y-68248925D01*
X142881468Y-68197517D01*
X142970499Y-68112098D01*
X143017114Y-68041511D01*
X143038125Y-67968825D01*
X143050126Y-67851836D01*
X143052800Y-67741800D01*
X143052616Y-67736421D01*
X142824200Y-67736421D01*
X142817364Y-67861851D01*
X142794615Y-67946771D01*
X142752598Y-67999899D01*
X142714590Y-68021022D01*
X142656713Y-68040792D01*
X142612960Y-68039164D01*
X142555973Y-68014253D01*
X142546617Y-68009439D01*
X142494816Y-67976110D01*
X142463643Y-67933512D01*
X142448131Y-67868794D01*
X142443317Y-67769110D01*
X142443200Y-67741800D01*
X142446349Y-67632958D01*
X142459143Y-67561816D01*
X142486602Y-67515486D01*
X142533746Y-67481079D01*
X142547659Y-67473621D01*
X142643046Y-67444229D01*
X142721184Y-67460862D01*
X142779249Y-67520837D01*
X142814418Y-67621470D01*
X142824200Y-67736421D01*
X143052616Y-67736421D01*
X143047813Y-67596138D01*
X143033310Y-67490538D01*
X143017114Y-67442088D01*
X142933700Y-67332017D01*
X142822882Y-67257820D01*
X142694915Y-67221275D01*
X142560053Y-67224161D01*
G36*
X141833600Y-67550104D02*
X141831273Y-67685054D01*
X141824854Y-67801277D01*
X141815192Y-67887576D01*
X141804906Y-67929388D01*
X141750224Y-67997703D01*
X141674867Y-68029743D01*
X141593671Y-68025556D01*
X141521473Y-67985192D01*
X141480801Y-67928303D01*
X141469538Y-67878343D01*
X141460503Y-67789327D01*
X141454569Y-67672983D01*
X141452600Y-67550104D01*
X141452600Y-67233800D01*
X141224000Y-67233800D01*
X141224000Y-68249800D01*
X141338300Y-68249800D01*
X141415901Y-68244029D01*
X141449879Y-68225482D01*
X141452600Y-68214438D01*
X141461965Y-68196374D01*
X141496605Y-68203523D01*
X141546871Y-68227138D01*
X141639927Y-68264192D01*
X141725942Y-68269375D01*
X141817280Y-68249083D01*
X141899475Y-68216031D01*
X141961774Y-68168248D01*
X142006650Y-68099210D01*
X142036575Y-68002396D01*
X142054020Y-67871283D01*
X142061458Y-67699350D01*
X142062200Y-67602915D01*
X142062200Y-67233800D01*
X141833600Y-67233800D01*
X141833600Y-67550104D01*
X141833600Y-67550104D01*
G37*
X141833600Y-67550104D02*
X141831273Y-67685054D01*
X141824854Y-67801277D01*
X141815192Y-67887576D01*
X141804906Y-67929388D01*
X141750224Y-67997703D01*
X141674867Y-68029743D01*
X141593671Y-68025556D01*
X141521473Y-67985192D01*
X141480801Y-67928303D01*
X141469538Y-67878343D01*
X141460503Y-67789327D01*
X141454569Y-67672983D01*
X141452600Y-67550104D01*
X141452600Y-67233800D01*
X141224000Y-67233800D01*
X141224000Y-68249800D01*
X141338300Y-68249800D01*
X141415901Y-68244029D01*
X141449879Y-68225482D01*
X141452600Y-68214438D01*
X141461965Y-68196374D01*
X141496605Y-68203523D01*
X141546871Y-68227138D01*
X141639927Y-68264192D01*
X141725942Y-68269375D01*
X141817280Y-68249083D01*
X141899475Y-68216031D01*
X141961774Y-68168248D01*
X142006650Y-68099210D01*
X142036575Y-68002396D01*
X142054020Y-67871283D01*
X142061458Y-67699350D01*
X142062200Y-67602915D01*
X142062200Y-67233800D01*
X141833600Y-67233800D01*
X141833600Y-67550104D01*
G36*
X139799971Y-67227006D02*
X139677487Y-67275205D01*
X139595424Y-67330660D01*
X139518954Y-67398985D01*
X139597701Y-67474430D01*
X139651524Y-67520493D01*
X139687977Y-67532930D01*
X139719974Y-67518776D01*
X139830046Y-67462588D01*
X139935328Y-67450782D01*
X140027946Y-67483054D01*
X140081776Y-67532655D01*
X140118663Y-67612868D01*
X140133854Y-67718304D01*
X140127404Y-67828277D01*
X140099367Y-67922101D01*
X140080691Y-67952324D01*
X140001324Y-68017303D01*
X139905054Y-68036538D01*
X139797470Y-68009837D01*
X139719974Y-67964823D01*
X139686092Y-67950569D01*
X139649049Y-67964787D01*
X139597701Y-68009169D01*
X139518954Y-68084614D01*
X139595424Y-68152939D01*
X139718329Y-68230389D01*
X139860773Y-68267350D01*
X140008211Y-68260999D01*
X140068300Y-68244676D01*
X140164524Y-68191566D01*
X140254673Y-68109014D01*
X140320931Y-68014772D01*
X140337062Y-67976853D01*
X140357266Y-67875315D01*
X140364436Y-67748587D01*
X140358575Y-67620577D01*
X140339690Y-67515192D01*
X140336953Y-67506417D01*
X140279922Y-67404641D01*
X140187549Y-67314034D01*
X140075295Y-67245722D01*
X139958618Y-67210831D01*
X139923066Y-67208541D01*
X139799971Y-67227006D01*
X139799971Y-67227006D01*
G37*
X139799971Y-67227006D02*
X139677487Y-67275205D01*
X139595424Y-67330660D01*
X139518954Y-67398985D01*
X139597701Y-67474430D01*
X139651524Y-67520493D01*
X139687977Y-67532930D01*
X139719974Y-67518776D01*
X139830046Y-67462588D01*
X139935328Y-67450782D01*
X140027946Y-67483054D01*
X140081776Y-67532655D01*
X140118663Y-67612868D01*
X140133854Y-67718304D01*
X140127404Y-67828277D01*
X140099367Y-67922101D01*
X140080691Y-67952324D01*
X140001324Y-68017303D01*
X139905054Y-68036538D01*
X139797470Y-68009837D01*
X139719974Y-67964823D01*
X139686092Y-67950569D01*
X139649049Y-67964787D01*
X139597701Y-68009169D01*
X139518954Y-68084614D01*
X139595424Y-68152939D01*
X139718329Y-68230389D01*
X139860773Y-68267350D01*
X140008211Y-68260999D01*
X140068300Y-68244676D01*
X140164524Y-68191566D01*
X140254673Y-68109014D01*
X140320931Y-68014772D01*
X140337062Y-67976853D01*
X140357266Y-67875315D01*
X140364436Y-67748587D01*
X140358575Y-67620577D01*
X140339690Y-67515192D01*
X140336953Y-67506417D01*
X140279922Y-67404641D01*
X140187549Y-67314034D01*
X140075295Y-67245722D01*
X139958618Y-67210831D01*
X139923066Y-67208541D01*
X139799971Y-67227006D01*
G36*
X138976811Y-67227353D02*
X138869511Y-67276747D01*
X138773212Y-67345381D01*
X138715956Y-67409006D01*
X138682297Y-67472356D01*
X138664585Y-67545416D01*
X138658716Y-67646824D01*
X138658600Y-67669356D01*
X138658600Y-67843400D01*
X138963400Y-67843400D01*
X139104066Y-67844834D01*
X139198677Y-67850897D01*
X139251940Y-67864227D01*
X139268559Y-67887463D01*
X139253242Y-67923244D01*
X139210694Y-67974210D01*
X139205913Y-67979391D01*
X139123910Y-68033271D01*
X139024652Y-68044932D01*
X138920949Y-68013102D01*
X138912600Y-68008500D01*
X138852171Y-67979391D01*
X138805851Y-67978978D01*
X138752916Y-68010051D01*
X138722598Y-68034084D01*
X138675046Y-68075381D01*
X138663330Y-68100534D01*
X138683585Y-68125086D01*
X138697198Y-68136163D01*
X138844917Y-68225172D01*
X139002745Y-68266237D01*
X139165035Y-68258135D01*
X139209394Y-68247212D01*
X139310502Y-68194718D01*
X139399333Y-68106757D01*
X139461680Y-67998626D01*
X139473596Y-67962715D01*
X139492163Y-67845277D01*
X139493383Y-67710523D01*
X139482002Y-67605459D01*
X139266971Y-67605459D01*
X139237532Y-67628300D01*
X139165408Y-67638377D01*
X139077700Y-67640200D01*
X138979035Y-67638590D01*
X138921082Y-67632258D01*
X138893815Y-67618950D01*
X138887200Y-67597387D01*
X138903676Y-67549418D01*
X138942428Y-67495787D01*
X139019575Y-67445445D01*
X139105565Y-67438115D01*
X139185141Y-67473343D01*
X139215557Y-67503925D01*
X139258166Y-67565464D01*
X139266971Y-67605459D01*
X139482002Y-67605459D01*
X139478878Y-67576620D01*
X139450272Y-67461734D01*
X139423659Y-67403849D01*
X139349693Y-67322558D01*
X139246353Y-67255794D01*
X139134526Y-67215269D01*
X139075063Y-67208400D01*
X138976811Y-67227353D01*
X138976811Y-67227353D01*
G37*
X138976811Y-67227353D02*
X138869511Y-67276747D01*
X138773212Y-67345381D01*
X138715956Y-67409006D01*
X138682297Y-67472356D01*
X138664585Y-67545416D01*
X138658716Y-67646824D01*
X138658600Y-67669356D01*
X138658600Y-67843400D01*
X138963400Y-67843400D01*
X139104066Y-67844834D01*
X139198677Y-67850897D01*
X139251940Y-67864227D01*
X139268559Y-67887463D01*
X139253242Y-67923244D01*
X139210694Y-67974210D01*
X139205913Y-67979391D01*
X139123910Y-68033271D01*
X139024652Y-68044932D01*
X138920949Y-68013102D01*
X138912600Y-68008500D01*
X138852171Y-67979391D01*
X138805851Y-67978978D01*
X138752916Y-68010051D01*
X138722598Y-68034084D01*
X138675046Y-68075381D01*
X138663330Y-68100534D01*
X138683585Y-68125086D01*
X138697198Y-68136163D01*
X138844917Y-68225172D01*
X139002745Y-68266237D01*
X139165035Y-68258135D01*
X139209394Y-68247212D01*
X139310502Y-68194718D01*
X139399333Y-68106757D01*
X139461680Y-67998626D01*
X139473596Y-67962715D01*
X139492163Y-67845277D01*
X139493383Y-67710523D01*
X139482002Y-67605459D01*
X139266971Y-67605459D01*
X139237532Y-67628300D01*
X139165408Y-67638377D01*
X139077700Y-67640200D01*
X138979035Y-67638590D01*
X138921082Y-67632258D01*
X138893815Y-67618950D01*
X138887200Y-67597387D01*
X138903676Y-67549418D01*
X138942428Y-67495787D01*
X139019575Y-67445445D01*
X139105565Y-67438115D01*
X139185141Y-67473343D01*
X139215557Y-67503925D01*
X139258166Y-67565464D01*
X139266971Y-67605459D01*
X139482002Y-67605459D01*
X139478878Y-67576620D01*
X139450272Y-67461734D01*
X139423659Y-67403849D01*
X139349693Y-67322558D01*
X139246353Y-67255794D01*
X139134526Y-67215269D01*
X139075063Y-67208400D01*
X138976811Y-67227353D01*
G36*
X144876805Y-67217922D02*
X144762635Y-67257761D01*
X144698792Y-67291161D01*
X144651355Y-67330325D01*
X144617938Y-67382910D01*
X144596160Y-67456575D01*
X144583636Y-67558977D01*
X144577984Y-67697774D01*
X144576800Y-67854838D01*
X144576800Y-68249800D01*
X144774116Y-68249800D01*
X144784221Y-67904001D01*
X144788575Y-67765434D01*
X144793415Y-67668251D01*
X144800645Y-67603060D01*
X144812168Y-67560464D01*
X144829887Y-67531068D01*
X144855707Y-67505479D01*
X144866938Y-67495745D01*
X144950399Y-67450763D01*
X145033608Y-67455700D01*
X145110359Y-67510024D01*
X145116550Y-67517096D01*
X145135075Y-67546281D01*
X145147750Y-67588390D01*
X145155607Y-67652514D01*
X145159673Y-67747747D01*
X145160979Y-67883181D01*
X145161000Y-67909713D01*
X145161000Y-68249800D01*
X145389600Y-68249800D01*
X145389600Y-67233800D01*
X145277417Y-67233800D01*
X145207643Y-67239333D01*
X145163127Y-67253281D01*
X145156259Y-67260724D01*
X145129249Y-67270390D01*
X145071592Y-67248180D01*
X144975507Y-67214466D01*
X144876805Y-67217922D01*
X144876805Y-67217922D01*
G37*
X144876805Y-67217922D02*
X144762635Y-67257761D01*
X144698792Y-67291161D01*
X144651355Y-67330325D01*
X144617938Y-67382910D01*
X144596160Y-67456575D01*
X144583636Y-67558977D01*
X144577984Y-67697774D01*
X144576800Y-67854838D01*
X144576800Y-68249800D01*
X144774116Y-68249800D01*
X144784221Y-67904001D01*
X144788575Y-67765434D01*
X144793415Y-67668251D01*
X144800645Y-67603060D01*
X144812168Y-67560464D01*
X144829887Y-67531068D01*
X144855707Y-67505479D01*
X144866938Y-67495745D01*
X144950399Y-67450763D01*
X145033608Y-67455700D01*
X145110359Y-67510024D01*
X145116550Y-67517096D01*
X145135075Y-67546281D01*
X145147750Y-67588390D01*
X145155607Y-67652514D01*
X145159673Y-67747747D01*
X145160979Y-67883181D01*
X145161000Y-67909713D01*
X145161000Y-68249800D01*
X145389600Y-68249800D01*
X145389600Y-67233800D01*
X145277417Y-67233800D01*
X145207643Y-67239333D01*
X145163127Y-67253281D01*
X145156259Y-67260724D01*
X145129249Y-67270390D01*
X145071592Y-67248180D01*
X144975507Y-67214466D01*
X144876805Y-67217922D01*
G36*
X140509883Y-67217306D02*
X140440248Y-67239116D01*
X140377655Y-67266932D01*
X140339532Y-67293701D01*
X140335000Y-67303313D01*
X140350071Y-67334370D01*
X140387842Y-67386657D01*
X140404850Y-67407475D01*
X140451968Y-67458650D01*
X140488822Y-67476591D01*
X140536071Y-67468365D01*
X140559510Y-67460393D01*
X140624351Y-67443914D01*
X140673161Y-67455260D01*
X140711910Y-67480872D01*
X140738549Y-67502267D01*
X140757253Y-67525919D01*
X140769642Y-67560738D01*
X140777341Y-67615630D01*
X140781972Y-67699504D01*
X140785158Y-67821267D01*
X140786548Y-67890545D01*
X140793595Y-68249800D01*
X141020800Y-68249800D01*
X141020800Y-67233800D01*
X140908617Y-67233800D01*
X140838843Y-67239333D01*
X140794327Y-67253281D01*
X140787459Y-67260724D01*
X140760449Y-67270390D01*
X140702792Y-67248180D01*
X140631773Y-67220102D01*
X140569135Y-67208556D01*
X140509883Y-67217306D01*
X140509883Y-67217306D01*
G37*
X140509883Y-67217306D02*
X140440248Y-67239116D01*
X140377655Y-67266932D01*
X140339532Y-67293701D01*
X140335000Y-67303313D01*
X140350071Y-67334370D01*
X140387842Y-67386657D01*
X140404850Y-67407475D01*
X140451968Y-67458650D01*
X140488822Y-67476591D01*
X140536071Y-67468365D01*
X140559510Y-67460393D01*
X140624351Y-67443914D01*
X140673161Y-67455260D01*
X140711910Y-67480872D01*
X140738549Y-67502267D01*
X140757253Y-67525919D01*
X140769642Y-67560738D01*
X140777341Y-67615630D01*
X140781972Y-67699504D01*
X140785158Y-67821267D01*
X140786548Y-67890545D01*
X140793595Y-68249800D01*
X141020800Y-68249800D01*
X141020800Y-67233800D01*
X140908617Y-67233800D01*
X140838843Y-67239333D01*
X140794327Y-67253281D01*
X140787459Y-67260724D01*
X140760449Y-67270390D01*
X140702792Y-67248180D01*
X140631773Y-67220102D01*
X140569135Y-67208556D01*
X140509883Y-67217306D01*
G36*
X142872733Y-60192976D02*
X142843253Y-60345331D01*
X142815237Y-60480845D01*
X142790499Y-60591463D01*
X142770849Y-60669127D01*
X142758099Y-60705781D01*
X142757141Y-60707019D01*
X142725439Y-60725086D01*
X142657186Y-60756745D01*
X142563312Y-60797528D01*
X142454748Y-60842968D01*
X142342424Y-60888598D01*
X142237272Y-60929951D01*
X142150222Y-60962561D01*
X142092205Y-60981960D01*
X142075950Y-60985400D01*
X142047131Y-60971622D01*
X141983685Y-60933299D01*
X141892654Y-60874944D01*
X141781080Y-60801073D01*
X141656003Y-60716199D01*
X141655128Y-60715598D01*
X141529298Y-60629743D01*
X141416445Y-60553731D01*
X141323783Y-60492338D01*
X141258522Y-60450346D01*
X141227968Y-60432566D01*
X141200044Y-60445516D01*
X141144217Y-60489063D01*
X141067173Y-60556602D01*
X140975599Y-60641526D01*
X140876180Y-60737227D01*
X140775604Y-60837099D01*
X140680556Y-60934535D01*
X140597724Y-61022928D01*
X140533792Y-61095672D01*
X140495448Y-61146159D01*
X140487400Y-61164332D01*
X140501186Y-61197168D01*
X140539511Y-61264311D01*
X140597829Y-61358419D01*
X140671594Y-61472149D01*
X140754100Y-61594999D01*
X140838425Y-61720182D01*
X140911782Y-61832205D01*
X140969647Y-61923899D01*
X141007493Y-61988099D01*
X141020800Y-62017468D01*
X141011025Y-62051884D01*
X140984724Y-62121922D01*
X140946439Y-62216977D01*
X140900710Y-62326445D01*
X140852077Y-62439721D01*
X140805080Y-62546200D01*
X140764261Y-62635277D01*
X140734158Y-62696348D01*
X140720954Y-62717806D01*
X140693240Y-62726485D01*
X140624976Y-62742641D01*
X140525542Y-62764391D01*
X140404319Y-62789851D01*
X140270687Y-62817139D01*
X140134026Y-62844371D01*
X140003717Y-62869664D01*
X139889140Y-62891134D01*
X139799675Y-62906899D01*
X139744702Y-62915074D01*
X139734778Y-62915800D01*
X139729457Y-62939666D01*
X139725893Y-63005201D01*
X139723947Y-63103310D01*
X139723483Y-63224896D01*
X139724362Y-63360864D01*
X139726448Y-63502117D01*
X139729602Y-63639561D01*
X139733689Y-63764100D01*
X139738569Y-63866637D01*
X139744106Y-63938077D01*
X139750163Y-63969325D01*
X139750698Y-63969836D01*
X139782818Y-63979381D01*
X139856389Y-63996245D01*
X139962891Y-64018631D01*
X140093798Y-64044739D01*
X140222484Y-64069379D01*
X140370785Y-64098830D01*
X140501423Y-64127782D01*
X140605930Y-64154127D01*
X140675840Y-64175757D01*
X140701500Y-64188593D01*
X140722284Y-64224370D01*
X140756168Y-64296753D01*
X140798801Y-64394940D01*
X140845827Y-64508133D01*
X140892896Y-64625531D01*
X140935653Y-64736334D01*
X140969745Y-64829742D01*
X140990819Y-64894956D01*
X140995495Y-64917993D01*
X140981622Y-64949003D01*
X140943200Y-65014114D01*
X140884930Y-65105893D01*
X140811512Y-65216905D01*
X140741400Y-65319832D01*
X140658730Y-65442006D01*
X140587311Y-65552044D01*
X140531868Y-65642296D01*
X140497128Y-65705115D01*
X140487400Y-65730979D01*
X140504524Y-65759492D01*
X140551431Y-65816352D01*
X140621430Y-65894677D01*
X140707829Y-65987586D01*
X140803934Y-66088198D01*
X140903054Y-66189629D01*
X140998495Y-66285000D01*
X141083566Y-66367427D01*
X141151573Y-66430030D01*
X141195825Y-66465926D01*
X141207850Y-66471800D01*
X141234881Y-66458091D01*
X141296276Y-66420135D01*
X141384689Y-66362682D01*
X141492776Y-66290484D01*
X141581926Y-66229796D01*
X141701778Y-66148289D01*
X141809188Y-66076569D01*
X141896273Y-66019797D01*
X141955148Y-65983134D01*
X141975580Y-65972110D01*
X142017428Y-65975005D01*
X142089822Y-65997444D01*
X142178561Y-66034917D01*
X142189200Y-66040000D01*
X142277032Y-66078661D01*
X142349988Y-66103843D01*
X142394044Y-66110825D01*
X142397225Y-66110036D01*
X142412464Y-66085343D01*
X142444300Y-66020229D01*
X142489939Y-65921223D01*
X142546585Y-65794855D01*
X142611441Y-65647657D01*
X142681712Y-65486158D01*
X142754601Y-65316889D01*
X142827313Y-65146380D01*
X142897052Y-64981161D01*
X142961021Y-64827763D01*
X143016426Y-64692715D01*
X143060469Y-64582548D01*
X143090355Y-64503793D01*
X143103289Y-64462980D01*
X143103600Y-64460210D01*
X143084573Y-64439085D01*
X143033764Y-64396037D01*
X142960585Y-64338874D01*
X142926783Y-64313528D01*
X142749765Y-64154540D01*
X142615015Y-63974987D01*
X142522947Y-63780597D01*
X142473973Y-63577103D01*
X142468508Y-63370233D01*
X142506963Y-63165719D01*
X142589752Y-62969291D01*
X142717288Y-62786680D01*
X142809833Y-62691274D01*
X142985003Y-62560989D01*
X143173171Y-62475450D01*
X143368670Y-62432156D01*
X143565831Y-62428606D01*
X143758990Y-62462300D01*
X143942476Y-62530736D01*
X144110625Y-62631414D01*
X144257767Y-62761833D01*
X144378237Y-62919492D01*
X144466365Y-63101891D01*
X144516487Y-63306528D01*
X144526000Y-63448566D01*
X144501989Y-63676087D01*
X144430445Y-63886383D01*
X144312105Y-64078062D01*
X144147705Y-64249736D01*
X144067818Y-64313528D01*
X143988265Y-64374182D01*
X143927277Y-64423877D01*
X143894265Y-64454808D01*
X143891000Y-64460210D01*
X143900664Y-64493832D01*
X143927790Y-64566524D01*
X143969579Y-64671756D01*
X144023234Y-64802996D01*
X144085956Y-64953716D01*
X144154946Y-65117383D01*
X144227406Y-65287469D01*
X144300539Y-65457442D01*
X144371545Y-65620772D01*
X144437627Y-65770928D01*
X144495985Y-65901381D01*
X144543822Y-66005599D01*
X144578340Y-66077052D01*
X144596739Y-66109210D01*
X144598076Y-66110305D01*
X144636593Y-66106152D01*
X144706361Y-66082737D01*
X144793853Y-66044784D01*
X144814975Y-66034538D01*
X144995900Y-65944967D01*
X145380927Y-66208383D01*
X145504383Y-66292073D01*
X145613819Y-66364795D01*
X145702228Y-66422011D01*
X145762601Y-66459184D01*
X145787667Y-66471800D01*
X145811527Y-66454616D01*
X145865176Y-66406744D01*
X145942766Y-66333697D01*
X146038450Y-66240991D01*
X146146382Y-66134140D01*
X146158291Y-66122221D01*
X146266446Y-66011764D01*
X146360959Y-65911237D01*
X146436271Y-65826883D01*
X146486823Y-65764948D01*
X146507057Y-65731674D01*
X146507200Y-65730310D01*
X146493310Y-65696402D01*
X146454789Y-65628667D01*
X146396359Y-65534740D01*
X146322746Y-65422255D01*
X146253200Y-65319832D01*
X146170673Y-65198389D01*
X146099336Y-65089921D01*
X146043890Y-65001862D01*
X146009034Y-64941644D01*
X145999106Y-64917993D01*
X146008533Y-64878817D01*
X146034012Y-64803919D01*
X146071189Y-64704099D01*
X146115712Y-64590157D01*
X146163228Y-64472893D01*
X146209383Y-64363107D01*
X146249824Y-64271599D01*
X146280198Y-64209168D01*
X146293101Y-64188593D01*
X146327968Y-64172459D01*
X146404440Y-64149867D01*
X146514051Y-64122923D01*
X146648334Y-64093735D01*
X146772117Y-64069379D01*
X146917457Y-64041481D01*
X147045895Y-64015723D01*
X147148908Y-63993903D01*
X147217973Y-63977819D01*
X147243903Y-63969836D01*
X147249998Y-63942426D01*
X147255585Y-63874049D01*
X147260526Y-63773802D01*
X147264686Y-63650781D01*
X147267925Y-63514080D01*
X147270107Y-63372797D01*
X147271094Y-63236026D01*
X147270749Y-63112863D01*
X147268934Y-63012404D01*
X147265513Y-62943745D01*
X147260348Y-62915982D01*
X147259823Y-62915800D01*
X147220492Y-62911018D01*
X147143088Y-62897928D01*
X147036990Y-62878414D01*
X146911579Y-62854358D01*
X146776236Y-62827644D01*
X146640341Y-62800155D01*
X146513274Y-62773775D01*
X146404415Y-62750386D01*
X146323145Y-62731872D01*
X146278844Y-62720117D01*
X146273647Y-62717806D01*
X146255199Y-62686301D01*
X146222453Y-62618426D01*
X146179949Y-62524787D01*
X146132228Y-62415987D01*
X146083831Y-62302633D01*
X146039297Y-62195327D01*
X146003166Y-62104676D01*
X145979980Y-62041284D01*
X145973800Y-62017468D01*
X145987543Y-61987306D01*
X146025754Y-61922598D01*
X146083909Y-61830512D01*
X146157482Y-61718216D01*
X146240500Y-61594999D01*
X146324953Y-61469201D01*
X146398395Y-61355862D01*
X146456280Y-61262324D01*
X146494061Y-61195930D01*
X146507201Y-61164332D01*
X146489920Y-61132614D01*
X146442537Y-61074177D01*
X146371736Y-60995629D01*
X146284205Y-60903576D01*
X146186630Y-60804625D01*
X146085696Y-60705383D01*
X145988091Y-60612456D01*
X145900501Y-60532452D01*
X145829612Y-60471977D01*
X145782110Y-60437638D01*
X145766633Y-60432566D01*
X145735669Y-60450602D01*
X145670151Y-60492775D01*
X145577291Y-60554309D01*
X145464301Y-60630423D01*
X145339473Y-60715598D01*
X145214329Y-60800531D01*
X145102640Y-60874492D01*
X145011447Y-60932966D01*
X144947791Y-60971440D01*
X144918713Y-60985399D01*
X144918651Y-60985399D01*
X144883085Y-60975977D01*
X144811985Y-60950686D01*
X144716282Y-60913995D01*
X144606906Y-60870370D01*
X144494789Y-60824279D01*
X144390861Y-60780188D01*
X144306052Y-60742564D01*
X144251293Y-60715875D01*
X144237460Y-60707019D01*
X144225636Y-60675693D01*
X144206701Y-60602414D01*
X144182464Y-60495238D01*
X144154739Y-60362222D01*
X144125336Y-60211422D01*
X144121868Y-60192976D01*
X144030042Y-59702700D01*
X142964559Y-59702700D01*
X142872733Y-60192976D01*
X142872733Y-60192976D01*
G37*
X142872733Y-60192976D02*
X142843253Y-60345331D01*
X142815237Y-60480845D01*
X142790499Y-60591463D01*
X142770849Y-60669127D01*
X142758099Y-60705781D01*
X142757141Y-60707019D01*
X142725439Y-60725086D01*
X142657186Y-60756745D01*
X142563312Y-60797528D01*
X142454748Y-60842968D01*
X142342424Y-60888598D01*
X142237272Y-60929951D01*
X142150222Y-60962561D01*
X142092205Y-60981960D01*
X142075950Y-60985400D01*
X142047131Y-60971622D01*
X141983685Y-60933299D01*
X141892654Y-60874944D01*
X141781080Y-60801073D01*
X141656003Y-60716199D01*
X141655128Y-60715598D01*
X141529298Y-60629743D01*
X141416445Y-60553731D01*
X141323783Y-60492338D01*
X141258522Y-60450346D01*
X141227968Y-60432566D01*
X141200044Y-60445516D01*
X141144217Y-60489063D01*
X141067173Y-60556602D01*
X140975599Y-60641526D01*
X140876180Y-60737227D01*
X140775604Y-60837099D01*
X140680556Y-60934535D01*
X140597724Y-61022928D01*
X140533792Y-61095672D01*
X140495448Y-61146159D01*
X140487400Y-61164332D01*
X140501186Y-61197168D01*
X140539511Y-61264311D01*
X140597829Y-61358419D01*
X140671594Y-61472149D01*
X140754100Y-61594999D01*
X140838425Y-61720182D01*
X140911782Y-61832205D01*
X140969647Y-61923899D01*
X141007493Y-61988099D01*
X141020800Y-62017468D01*
X141011025Y-62051884D01*
X140984724Y-62121922D01*
X140946439Y-62216977D01*
X140900710Y-62326445D01*
X140852077Y-62439721D01*
X140805080Y-62546200D01*
X140764261Y-62635277D01*
X140734158Y-62696348D01*
X140720954Y-62717806D01*
X140693240Y-62726485D01*
X140624976Y-62742641D01*
X140525542Y-62764391D01*
X140404319Y-62789851D01*
X140270687Y-62817139D01*
X140134026Y-62844371D01*
X140003717Y-62869664D01*
X139889140Y-62891134D01*
X139799675Y-62906899D01*
X139744702Y-62915074D01*
X139734778Y-62915800D01*
X139729457Y-62939666D01*
X139725893Y-63005201D01*
X139723947Y-63103310D01*
X139723483Y-63224896D01*
X139724362Y-63360864D01*
X139726448Y-63502117D01*
X139729602Y-63639561D01*
X139733689Y-63764100D01*
X139738569Y-63866637D01*
X139744106Y-63938077D01*
X139750163Y-63969325D01*
X139750698Y-63969836D01*
X139782818Y-63979381D01*
X139856389Y-63996245D01*
X139962891Y-64018631D01*
X140093798Y-64044739D01*
X140222484Y-64069379D01*
X140370785Y-64098830D01*
X140501423Y-64127782D01*
X140605930Y-64154127D01*
X140675840Y-64175757D01*
X140701500Y-64188593D01*
X140722284Y-64224370D01*
X140756168Y-64296753D01*
X140798801Y-64394940D01*
X140845827Y-64508133D01*
X140892896Y-64625531D01*
X140935653Y-64736334D01*
X140969745Y-64829742D01*
X140990819Y-64894956D01*
X140995495Y-64917993D01*
X140981622Y-64949003D01*
X140943200Y-65014114D01*
X140884930Y-65105893D01*
X140811512Y-65216905D01*
X140741400Y-65319832D01*
X140658730Y-65442006D01*
X140587311Y-65552044D01*
X140531868Y-65642296D01*
X140497128Y-65705115D01*
X140487400Y-65730979D01*
X140504524Y-65759492D01*
X140551431Y-65816352D01*
X140621430Y-65894677D01*
X140707829Y-65987586D01*
X140803934Y-66088198D01*
X140903054Y-66189629D01*
X140998495Y-66285000D01*
X141083566Y-66367427D01*
X141151573Y-66430030D01*
X141195825Y-66465926D01*
X141207850Y-66471800D01*
X141234881Y-66458091D01*
X141296276Y-66420135D01*
X141384689Y-66362682D01*
X141492776Y-66290484D01*
X141581926Y-66229796D01*
X141701778Y-66148289D01*
X141809188Y-66076569D01*
X141896273Y-66019797D01*
X141955148Y-65983134D01*
X141975580Y-65972110D01*
X142017428Y-65975005D01*
X142089822Y-65997444D01*
X142178561Y-66034917D01*
X142189200Y-66040000D01*
X142277032Y-66078661D01*
X142349988Y-66103843D01*
X142394044Y-66110825D01*
X142397225Y-66110036D01*
X142412464Y-66085343D01*
X142444300Y-66020229D01*
X142489939Y-65921223D01*
X142546585Y-65794855D01*
X142611441Y-65647657D01*
X142681712Y-65486158D01*
X142754601Y-65316889D01*
X142827313Y-65146380D01*
X142897052Y-64981161D01*
X142961021Y-64827763D01*
X143016426Y-64692715D01*
X143060469Y-64582548D01*
X143090355Y-64503793D01*
X143103289Y-64462980D01*
X143103600Y-64460210D01*
X143084573Y-64439085D01*
X143033764Y-64396037D01*
X142960585Y-64338874D01*
X142926783Y-64313528D01*
X142749765Y-64154540D01*
X142615015Y-63974987D01*
X142522947Y-63780597D01*
X142473973Y-63577103D01*
X142468508Y-63370233D01*
X142506963Y-63165719D01*
X142589752Y-62969291D01*
X142717288Y-62786680D01*
X142809833Y-62691274D01*
X142985003Y-62560989D01*
X143173171Y-62475450D01*
X143368670Y-62432156D01*
X143565831Y-62428606D01*
X143758990Y-62462300D01*
X143942476Y-62530736D01*
X144110625Y-62631414D01*
X144257767Y-62761833D01*
X144378237Y-62919492D01*
X144466365Y-63101891D01*
X144516487Y-63306528D01*
X144526000Y-63448566D01*
X144501989Y-63676087D01*
X144430445Y-63886383D01*
X144312105Y-64078062D01*
X144147705Y-64249736D01*
X144067818Y-64313528D01*
X143988265Y-64374182D01*
X143927277Y-64423877D01*
X143894265Y-64454808D01*
X143891000Y-64460210D01*
X143900664Y-64493832D01*
X143927790Y-64566524D01*
X143969579Y-64671756D01*
X144023234Y-64802996D01*
X144085956Y-64953716D01*
X144154946Y-65117383D01*
X144227406Y-65287469D01*
X144300539Y-65457442D01*
X144371545Y-65620772D01*
X144437627Y-65770928D01*
X144495985Y-65901381D01*
X144543822Y-66005599D01*
X144578340Y-66077052D01*
X144596739Y-66109210D01*
X144598076Y-66110305D01*
X144636593Y-66106152D01*
X144706361Y-66082737D01*
X144793853Y-66044784D01*
X144814975Y-66034538D01*
X144995900Y-65944967D01*
X145380927Y-66208383D01*
X145504383Y-66292073D01*
X145613819Y-66364795D01*
X145702228Y-66422011D01*
X145762601Y-66459184D01*
X145787667Y-66471800D01*
X145811527Y-66454616D01*
X145865176Y-66406744D01*
X145942766Y-66333697D01*
X146038450Y-66240991D01*
X146146382Y-66134140D01*
X146158291Y-66122221D01*
X146266446Y-66011764D01*
X146360959Y-65911237D01*
X146436271Y-65826883D01*
X146486823Y-65764948D01*
X146507057Y-65731674D01*
X146507200Y-65730310D01*
X146493310Y-65696402D01*
X146454789Y-65628667D01*
X146396359Y-65534740D01*
X146322746Y-65422255D01*
X146253200Y-65319832D01*
X146170673Y-65198389D01*
X146099336Y-65089921D01*
X146043890Y-65001862D01*
X146009034Y-64941644D01*
X145999106Y-64917993D01*
X146008533Y-64878817D01*
X146034012Y-64803919D01*
X146071189Y-64704099D01*
X146115712Y-64590157D01*
X146163228Y-64472893D01*
X146209383Y-64363107D01*
X146249824Y-64271599D01*
X146280198Y-64209168D01*
X146293101Y-64188593D01*
X146327968Y-64172459D01*
X146404440Y-64149867D01*
X146514051Y-64122923D01*
X146648334Y-64093735D01*
X146772117Y-64069379D01*
X146917457Y-64041481D01*
X147045895Y-64015723D01*
X147148908Y-63993903D01*
X147217973Y-63977819D01*
X147243903Y-63969836D01*
X147249998Y-63942426D01*
X147255585Y-63874049D01*
X147260526Y-63773802D01*
X147264686Y-63650781D01*
X147267925Y-63514080D01*
X147270107Y-63372797D01*
X147271094Y-63236026D01*
X147270749Y-63112863D01*
X147268934Y-63012404D01*
X147265513Y-62943745D01*
X147260348Y-62915982D01*
X147259823Y-62915800D01*
X147220492Y-62911018D01*
X147143088Y-62897928D01*
X147036990Y-62878414D01*
X146911579Y-62854358D01*
X146776236Y-62827644D01*
X146640341Y-62800155D01*
X146513274Y-62773775D01*
X146404415Y-62750386D01*
X146323145Y-62731872D01*
X146278844Y-62720117D01*
X146273647Y-62717806D01*
X146255199Y-62686301D01*
X146222453Y-62618426D01*
X146179949Y-62524787D01*
X146132228Y-62415987D01*
X146083831Y-62302633D01*
X146039297Y-62195327D01*
X146003166Y-62104676D01*
X145979980Y-62041284D01*
X145973800Y-62017468D01*
X145987543Y-61987306D01*
X146025754Y-61922598D01*
X146083909Y-61830512D01*
X146157482Y-61718216D01*
X146240500Y-61594999D01*
X146324953Y-61469201D01*
X146398395Y-61355862D01*
X146456280Y-61262324D01*
X146494061Y-61195930D01*
X146507201Y-61164332D01*
X146489920Y-61132614D01*
X146442537Y-61074177D01*
X146371736Y-60995629D01*
X146284205Y-60903576D01*
X146186630Y-60804625D01*
X146085696Y-60705383D01*
X145988091Y-60612456D01*
X145900501Y-60532452D01*
X145829612Y-60471977D01*
X145782110Y-60437638D01*
X145766633Y-60432566D01*
X145735669Y-60450602D01*
X145670151Y-60492775D01*
X145577291Y-60554309D01*
X145464301Y-60630423D01*
X145339473Y-60715598D01*
X145214329Y-60800531D01*
X145102640Y-60874492D01*
X145011447Y-60932966D01*
X144947791Y-60971440D01*
X144918713Y-60985399D01*
X144918651Y-60985399D01*
X144883085Y-60975977D01*
X144811985Y-60950686D01*
X144716282Y-60913995D01*
X144606906Y-60870370D01*
X144494789Y-60824279D01*
X144390861Y-60780188D01*
X144306052Y-60742564D01*
X144251293Y-60715875D01*
X144237460Y-60707019D01*
X144225636Y-60675693D01*
X144206701Y-60602414D01*
X144182464Y-60495238D01*
X144154739Y-60362222D01*
X144125336Y-60211422D01*
X144121868Y-60192976D01*
X144030042Y-59702700D01*
X142964559Y-59702700D01*
X142872733Y-60192976D01*
M02*
