G04 #@! TF.FileFunction,Copper,L1,Top,Signal*
%FSLAX46Y46*%
G04 Gerber Fmt 4.6, Leading zero omitted, Abs format (unit mm)*
G04 Created by KiCad (PCBNEW 4.0.4-stable) date 10/20/16 10:06:23*
%MOMM*%
%LPD*%
G01*
G04 APERTURE LIST*
%ADD10C,0.100000*%
%ADD11R,1.727200X1.727200*%
%ADD12O,1.727200X1.727200*%
%ADD13C,1.998980*%
%ADD14R,1.727200X2.032000*%
%ADD15O,1.727200X2.032000*%
%ADD16R,2.000000X2.000000*%
%ADD17C,2.000000*%
%ADD18O,2.032000X1.727200*%
%ADD19R,2.032000X1.727200*%
%ADD20C,0.508000*%
%ADD21C,0.762000*%
%ADD22C,0.254000*%
G04 APERTURE END LIST*
D10*
D11*
X119634000Y-40132000D03*
D12*
X119634000Y-37592000D03*
X122174000Y-40132000D03*
X122174000Y-37592000D03*
X124714000Y-40132000D03*
X124714000Y-37592000D03*
X127254000Y-40132000D03*
X127254000Y-37592000D03*
X129794000Y-40132000D03*
X129794000Y-37592000D03*
X132334000Y-40132000D03*
X132334000Y-37592000D03*
X134874000Y-40132000D03*
X134874000Y-37592000D03*
X137414000Y-40132000D03*
X137414000Y-37592000D03*
X139954000Y-40132000D03*
X139954000Y-37592000D03*
X142494000Y-40132000D03*
X142494000Y-37592000D03*
X145034000Y-40132000D03*
X145034000Y-37592000D03*
X147574000Y-40132000D03*
X147574000Y-37592000D03*
X150114000Y-40132000D03*
X150114000Y-37592000D03*
X152654000Y-40132000D03*
X152654000Y-37592000D03*
X155194000Y-40132000D03*
X155194000Y-37592000D03*
X157734000Y-40132000D03*
X157734000Y-37592000D03*
X160274000Y-40132000D03*
X160274000Y-37592000D03*
X162814000Y-40132000D03*
X162814000Y-37592000D03*
X165354000Y-40132000D03*
X165354000Y-37592000D03*
X167894000Y-40132000D03*
X167894000Y-37592000D03*
D13*
X140335000Y-82550000D03*
X140335000Y-72390000D03*
D14*
X114300000Y-52705000D03*
D15*
X116840000Y-52705000D03*
X119380000Y-52705000D03*
X121920000Y-52705000D03*
D14*
X114300000Y-55880000D03*
D15*
X116840000Y-55880000D03*
X119380000Y-55880000D03*
D16*
X139065000Y-86995000D03*
D17*
X139065000Y-89535000D03*
D16*
X143510000Y-86995000D03*
D17*
X143510000Y-89535000D03*
D16*
X147955000Y-86995000D03*
D17*
X147955000Y-89535000D03*
D13*
X143510000Y-82550000D03*
X143510000Y-72390000D03*
X146685000Y-82550000D03*
X146685000Y-72390000D03*
X113665000Y-46990000D03*
X123825000Y-46990000D03*
X123825000Y-43815000D03*
X113665000Y-43815000D03*
D18*
X114300000Y-67945000D03*
D19*
X114300000Y-65405000D03*
D18*
X114300000Y-70485000D03*
X114300000Y-73025000D03*
X114300000Y-75565000D03*
X114300000Y-78105000D03*
X172720000Y-78105000D03*
X172720000Y-75565000D03*
X172720000Y-73025000D03*
X172720000Y-70485000D03*
D19*
X172720000Y-65405000D03*
D18*
X172720000Y-67945000D03*
D14*
X129540000Y-55880000D03*
D15*
X132080000Y-55880000D03*
X134620000Y-55880000D03*
X137160000Y-55880000D03*
X139700000Y-55880000D03*
X142240000Y-55880000D03*
X144780000Y-55880000D03*
D14*
X149860000Y-55880000D03*
D15*
X152400000Y-55880000D03*
X154940000Y-55880000D03*
X157480000Y-55880000D03*
X160020000Y-55880000D03*
X162560000Y-55880000D03*
X165100000Y-55880000D03*
X167640000Y-55880000D03*
X170180000Y-55880000D03*
X172720000Y-55880000D03*
D20*
X119634000Y-40132000D02*
X119634000Y-47371000D01*
X119634000Y-47371000D02*
X115824000Y-51181000D01*
X115824000Y-51181000D02*
X115671600Y-51181000D01*
X115671600Y-51181000D02*
X114300000Y-52552600D01*
X114300000Y-52552600D02*
X114300000Y-52705000D01*
X129540000Y-55880000D02*
X129540000Y-50800000D01*
X139954000Y-40132000D02*
X129540000Y-50546000D01*
X129540000Y-50546000D02*
X129540000Y-50800000D01*
X149860000Y-55880000D02*
X149860000Y-56032400D01*
X149860000Y-56032400D02*
X145415000Y-60477400D01*
X145415000Y-60477400D02*
X129540000Y-60477400D01*
X129540000Y-55880000D02*
X129540000Y-54356000D01*
X128422400Y-89535000D02*
X147955000Y-89535000D01*
X114300000Y-75565000D02*
X114452400Y-75565000D01*
X114452400Y-75565000D02*
X128422400Y-89535000D01*
X114452400Y-75565000D02*
X129540000Y-60477400D01*
X129540000Y-60477400D02*
X129540000Y-57404000D01*
X129540000Y-57404000D02*
X129540000Y-55880000D01*
X129540000Y-55727600D02*
X129540000Y-55880000D01*
D21*
X112140979Y-62357021D02*
X112140979Y-58420000D01*
X112140979Y-58420000D02*
X112140979Y-50933069D01*
X116840000Y-55880000D02*
X116840000Y-56362602D01*
X114782602Y-58420000D02*
X112140979Y-58420000D01*
X116840000Y-56362602D02*
X114782602Y-58420000D01*
X112140979Y-50933069D02*
X112801399Y-50272649D01*
X119634000Y-37592000D02*
X118412686Y-37592000D01*
X118412686Y-37592000D02*
X118110000Y-37894686D01*
X118110000Y-37894686D02*
X118110000Y-44964048D01*
X118110000Y-44964048D02*
X112801399Y-50272649D01*
X112140979Y-76098379D02*
X114147600Y-78105000D01*
X112140979Y-62357021D02*
X112140979Y-76098379D01*
X114147600Y-78105000D02*
X114300000Y-78105000D01*
X119634000Y-37592000D02*
X122174000Y-37592000D01*
D22*
X114300000Y-73025000D02*
X114452400Y-73025000D01*
X125958601Y-61518799D02*
X125958601Y-39534591D01*
X114452400Y-73025000D02*
X125958601Y-61518799D01*
X123037599Y-39268401D02*
X122174000Y-40132000D01*
X125958601Y-39534591D02*
X125311409Y-38887399D01*
X125311409Y-38887399D02*
X123418601Y-38887399D01*
X123418601Y-38887399D02*
X123037599Y-39268401D01*
X114300000Y-70485000D02*
X114452400Y-70485000D01*
X114452400Y-70485000D02*
X125205491Y-59731909D01*
X125205491Y-59731909D02*
X125205491Y-41844805D01*
X125205491Y-41844805D02*
X124714000Y-41353314D01*
X124714000Y-41353314D02*
X124714000Y-40132000D01*
X140335011Y-52552589D02*
X140335011Y-42290989D01*
X140335011Y-42290989D02*
X142494000Y-40132000D01*
X137160000Y-55727600D02*
X140335011Y-52552589D01*
X137160000Y-55880000D02*
X137160000Y-55727600D01*
X145034000Y-40132000D02*
X145034000Y-53086000D01*
X145034000Y-53086000D02*
X142240000Y-55880000D01*
X147574000Y-37592000D02*
X146329399Y-38836601D01*
X146329399Y-38836601D02*
X144487389Y-38836601D01*
X144487389Y-38836601D02*
X143789399Y-39534591D01*
X143789399Y-39534591D02*
X143789399Y-51638201D01*
X143789399Y-51638201D02*
X139700000Y-55727600D01*
X139700000Y-55727600D02*
X139700000Y-55880000D01*
X147574000Y-40132000D02*
X147574000Y-48514000D01*
X147574000Y-48514000D02*
X153670000Y-54610000D01*
X153670000Y-54610000D02*
X153822400Y-54610000D01*
X153822400Y-54610000D02*
X154940000Y-55727600D01*
X154940000Y-55727600D02*
X154940000Y-55880000D01*
X170180000Y-55880000D02*
X170180000Y-55727600D01*
X170180000Y-55727600D02*
X155829001Y-41376601D01*
X155829001Y-41376601D02*
X151929591Y-41376601D01*
X151929591Y-41376601D02*
X151409399Y-40856409D01*
X151409399Y-40856409D02*
X151409399Y-38887399D01*
X150977599Y-38455599D02*
X150114000Y-37592000D01*
X151409399Y-38887399D02*
X150977599Y-38455599D01*
X140335000Y-82550000D02*
X139065000Y-83820000D01*
X139065000Y-83820000D02*
X139065000Y-86995000D01*
X143510000Y-82550000D02*
X143510000Y-86995000D01*
X146685000Y-82550000D02*
X147955000Y-83820000D01*
X147955000Y-83820000D02*
X147955000Y-86995000D01*
X160503373Y-53450491D02*
X148869399Y-41816517D01*
X148869399Y-41816517D02*
X148869399Y-37045389D01*
X148171409Y-36347399D02*
X138658601Y-36347399D01*
X148869399Y-37045389D02*
X148171409Y-36347399D01*
X138658601Y-36347399D02*
X138277599Y-36728401D01*
X138277599Y-36728401D02*
X137414000Y-37592000D01*
X165362891Y-53450491D02*
X160503373Y-53450491D01*
X167640000Y-55727600D02*
X165362891Y-53450491D01*
X167640000Y-55880000D02*
X167640000Y-55727600D01*
G36*
X169418000Y-41910000D02*
X169426685Y-41956159D01*
X169427652Y-41957662D01*
X169428006Y-41959410D01*
X169441248Y-41978791D01*
X169453965Y-41998553D01*
X169455440Y-41999560D01*
X169456447Y-42001035D01*
X169476209Y-42013752D01*
X169495590Y-42026994D01*
X169497338Y-42027348D01*
X169498841Y-42028315D01*
X169545000Y-42037000D01*
X175615000Y-42037000D01*
X175615000Y-84328000D01*
X169545000Y-84328000D01*
X169495590Y-84338006D01*
X169453965Y-84366447D01*
X169426685Y-84408841D01*
X169418000Y-84455000D01*
X169418000Y-90580000D01*
X149222435Y-90580000D01*
X149340278Y-90462363D01*
X149589716Y-89861648D01*
X149590284Y-89211205D01*
X149341894Y-88610057D01*
X149275379Y-88543426D01*
X149406441Y-88459090D01*
X149551431Y-88246890D01*
X149602440Y-87995000D01*
X149602440Y-85995000D01*
X149558162Y-85759683D01*
X149419090Y-85543559D01*
X149206890Y-85398569D01*
X148955000Y-85347560D01*
X148717000Y-85347560D01*
X148717000Y-83820000D01*
X148658996Y-83528395D01*
X148623088Y-83474655D01*
X148493815Y-83281184D01*
X148251715Y-83039084D01*
X148319206Y-82876547D01*
X148319774Y-82226306D01*
X148071462Y-81625345D01*
X147612073Y-81165154D01*
X147011547Y-80915794D01*
X146361306Y-80915226D01*
X145760345Y-81163538D01*
X145300154Y-81622927D01*
X145097309Y-82111432D01*
X144896462Y-81625345D01*
X144437073Y-81165154D01*
X143836547Y-80915794D01*
X143186306Y-80915226D01*
X142585345Y-81163538D01*
X142125154Y-81622927D01*
X141922309Y-82111432D01*
X141721462Y-81625345D01*
X141262073Y-81165154D01*
X140661547Y-80915794D01*
X140011306Y-80915226D01*
X139410345Y-81163538D01*
X138950154Y-81622927D01*
X138700794Y-82223453D01*
X138700226Y-82873694D01*
X138768482Y-83038887D01*
X138526186Y-83281184D01*
X138526185Y-83281185D01*
X138361004Y-83528395D01*
X138303000Y-83820000D01*
X138303000Y-85347560D01*
X138065000Y-85347560D01*
X137829683Y-85391838D01*
X137613559Y-85530910D01*
X137468569Y-85743110D01*
X137417560Y-85995000D01*
X137417560Y-87995000D01*
X137461838Y-88230317D01*
X137600910Y-88446441D01*
X137743561Y-88543910D01*
X137679722Y-88607637D01*
X137663792Y-88646000D01*
X128790636Y-88646000D01*
X115937934Y-75793298D01*
X115983345Y-75565000D01*
X115937934Y-75336702D01*
X118560942Y-72713694D01*
X138700226Y-72713694D01*
X138948538Y-73314655D01*
X139407927Y-73774846D01*
X140008453Y-74024206D01*
X140658694Y-74024774D01*
X141259655Y-73776462D01*
X141719846Y-73317073D01*
X141922691Y-72828568D01*
X142123538Y-73314655D01*
X142582927Y-73774846D01*
X143183453Y-74024206D01*
X143833694Y-74024774D01*
X144434655Y-73776462D01*
X144894846Y-73317073D01*
X145097691Y-72828568D01*
X145298538Y-73314655D01*
X145757927Y-73774846D01*
X146358453Y-74024206D01*
X147008694Y-74024774D01*
X147609655Y-73776462D01*
X148069846Y-73317073D01*
X148319206Y-72716547D01*
X148319774Y-72066306D01*
X148071462Y-71465345D01*
X147612073Y-71005154D01*
X147011547Y-70755794D01*
X146361306Y-70755226D01*
X145760345Y-71003538D01*
X145300154Y-71462927D01*
X145097309Y-71951432D01*
X144896462Y-71465345D01*
X144437073Y-71005154D01*
X143836547Y-70755794D01*
X143186306Y-70755226D01*
X142585345Y-71003538D01*
X142125154Y-71462927D01*
X141922309Y-71951432D01*
X141721462Y-71465345D01*
X141262073Y-71005154D01*
X140661547Y-70755794D01*
X140011306Y-70755226D01*
X139410345Y-71003538D01*
X138950154Y-71462927D01*
X138700794Y-72063453D01*
X138700226Y-72713694D01*
X118560942Y-72713694D01*
X123329636Y-67945000D01*
X171036655Y-67945000D01*
X171150729Y-68518489D01*
X171475585Y-69004670D01*
X171790366Y-69215000D01*
X171475585Y-69425330D01*
X171150729Y-69911511D01*
X171036655Y-70485000D01*
X171150729Y-71058489D01*
X171475585Y-71544670D01*
X171790366Y-71755000D01*
X171475585Y-71965330D01*
X171150729Y-72451511D01*
X171036655Y-73025000D01*
X171150729Y-73598489D01*
X171475585Y-74084670D01*
X171790366Y-74295000D01*
X171475585Y-74505330D01*
X171150729Y-74991511D01*
X171036655Y-75565000D01*
X171150729Y-76138489D01*
X171475585Y-76624670D01*
X171790366Y-76835000D01*
X171475585Y-77045330D01*
X171150729Y-77531511D01*
X171036655Y-78105000D01*
X171150729Y-78678489D01*
X171475585Y-79164670D01*
X171961766Y-79489526D01*
X172535255Y-79603600D01*
X172904745Y-79603600D01*
X173478234Y-79489526D01*
X173964415Y-79164670D01*
X174289271Y-78678489D01*
X174403345Y-78105000D01*
X174289271Y-77531511D01*
X173964415Y-77045330D01*
X173649634Y-76835000D01*
X173964415Y-76624670D01*
X174289271Y-76138489D01*
X174403345Y-75565000D01*
X174289271Y-74991511D01*
X173964415Y-74505330D01*
X173649634Y-74295000D01*
X173964415Y-74084670D01*
X174289271Y-73598489D01*
X174403345Y-73025000D01*
X174289271Y-72451511D01*
X173964415Y-71965330D01*
X173649634Y-71755000D01*
X173964415Y-71544670D01*
X174289271Y-71058489D01*
X174403345Y-70485000D01*
X174289271Y-69911511D01*
X173964415Y-69425330D01*
X173649634Y-69215000D01*
X173964415Y-69004670D01*
X174289271Y-68518489D01*
X174403345Y-67945000D01*
X174289271Y-67371511D01*
X173964415Y-66885330D01*
X173942220Y-66870500D01*
X174095698Y-66806927D01*
X174274327Y-66628299D01*
X174371000Y-66394910D01*
X174371000Y-65690750D01*
X174212250Y-65532000D01*
X172847000Y-65532000D01*
X172847000Y-65552000D01*
X172593000Y-65552000D01*
X172593000Y-65532000D01*
X171227750Y-65532000D01*
X171069000Y-65690750D01*
X171069000Y-66394910D01*
X171165673Y-66628299D01*
X171344302Y-66806927D01*
X171497780Y-66870500D01*
X171475585Y-66885330D01*
X171150729Y-67371511D01*
X171036655Y-67945000D01*
X123329636Y-67945000D01*
X126859546Y-64415090D01*
X171069000Y-64415090D01*
X171069000Y-65119250D01*
X171227750Y-65278000D01*
X172593000Y-65278000D01*
X172593000Y-64065150D01*
X172847000Y-64065150D01*
X172847000Y-65278000D01*
X174212250Y-65278000D01*
X174371000Y-65119250D01*
X174371000Y-64415090D01*
X174274327Y-64181701D01*
X174095698Y-64003073D01*
X173862309Y-63906400D01*
X173005750Y-63906400D01*
X172847000Y-64065150D01*
X172593000Y-64065150D01*
X172434250Y-63906400D01*
X171577691Y-63906400D01*
X171344302Y-64003073D01*
X171165673Y-64181701D01*
X171069000Y-64415090D01*
X126859546Y-64415090D01*
X129908236Y-61366400D01*
X145415000Y-61366400D01*
X145755206Y-61298729D01*
X146043618Y-61106018D01*
X149606196Y-57543440D01*
X150723600Y-57543440D01*
X150958917Y-57499162D01*
X151175041Y-57360090D01*
X151320031Y-57147890D01*
X151339232Y-57053073D01*
X151497964Y-57230732D01*
X152025209Y-57484709D01*
X152040974Y-57487358D01*
X152273000Y-57366217D01*
X152273000Y-56007000D01*
X152253000Y-56007000D01*
X152253000Y-55753000D01*
X152273000Y-55753000D01*
X152273000Y-55733000D01*
X152527000Y-55733000D01*
X152527000Y-55753000D01*
X152547000Y-55753000D01*
X152547000Y-56007000D01*
X152527000Y-56007000D01*
X152527000Y-57366217D01*
X152759026Y-57487358D01*
X152774791Y-57484709D01*
X153302036Y-57230732D01*
X153673539Y-56814931D01*
X153880330Y-57124415D01*
X154366511Y-57449271D01*
X154940000Y-57563345D01*
X155513489Y-57449271D01*
X155999670Y-57124415D01*
X156210000Y-56809634D01*
X156420330Y-57124415D01*
X156906511Y-57449271D01*
X157480000Y-57563345D01*
X158053489Y-57449271D01*
X158539670Y-57124415D01*
X158750000Y-56809634D01*
X158960330Y-57124415D01*
X159446511Y-57449271D01*
X160020000Y-57563345D01*
X160593489Y-57449271D01*
X161079670Y-57124415D01*
X161290000Y-56809634D01*
X161500330Y-57124415D01*
X161986511Y-57449271D01*
X162560000Y-57563345D01*
X163133489Y-57449271D01*
X163619670Y-57124415D01*
X163830000Y-56809634D01*
X164040330Y-57124415D01*
X164526511Y-57449271D01*
X165100000Y-57563345D01*
X165673489Y-57449271D01*
X166159670Y-57124415D01*
X166370000Y-56809634D01*
X166580330Y-57124415D01*
X167066511Y-57449271D01*
X167640000Y-57563345D01*
X168213489Y-57449271D01*
X168699670Y-57124415D01*
X168910000Y-56809634D01*
X169120330Y-57124415D01*
X169606511Y-57449271D01*
X170180000Y-57563345D01*
X170753489Y-57449271D01*
X171239670Y-57124415D01*
X171446461Y-56814931D01*
X171817964Y-57230732D01*
X172345209Y-57484709D01*
X172360974Y-57487358D01*
X172593000Y-57366217D01*
X172593000Y-56007000D01*
X172847000Y-56007000D01*
X172847000Y-57366217D01*
X173079026Y-57487358D01*
X173094791Y-57484709D01*
X173622036Y-57230732D01*
X174011954Y-56794320D01*
X174205184Y-56241913D01*
X174060924Y-56007000D01*
X172847000Y-56007000D01*
X172593000Y-56007000D01*
X172573000Y-56007000D01*
X172573000Y-55753000D01*
X172593000Y-55753000D01*
X172593000Y-54393783D01*
X172847000Y-54393783D01*
X172847000Y-55753000D01*
X174060924Y-55753000D01*
X174205184Y-55518087D01*
X174011954Y-54965680D01*
X173622036Y-54529268D01*
X173094791Y-54275291D01*
X173079026Y-54272642D01*
X172847000Y-54393783D01*
X172593000Y-54393783D01*
X172360974Y-54272642D01*
X172345209Y-54275291D01*
X171817964Y-54529268D01*
X171446461Y-54945069D01*
X171239670Y-54635585D01*
X170753489Y-54310729D01*
X170180000Y-54196655D01*
X169801896Y-54271865D01*
X156905566Y-41375536D01*
X157160511Y-41545885D01*
X157734000Y-41659959D01*
X158307489Y-41545885D01*
X158793670Y-41221029D01*
X159004000Y-40906248D01*
X159214330Y-41221029D01*
X159700511Y-41545885D01*
X160274000Y-41659959D01*
X160847489Y-41545885D01*
X161333670Y-41221029D01*
X161544000Y-40906248D01*
X161754330Y-41221029D01*
X162240511Y-41545885D01*
X162814000Y-41659959D01*
X163387489Y-41545885D01*
X163873670Y-41221029D01*
X164084000Y-40906248D01*
X164294330Y-41221029D01*
X164780511Y-41545885D01*
X165354000Y-41659959D01*
X165927489Y-41545885D01*
X166413670Y-41221029D01*
X166629664Y-40897772D01*
X166687179Y-41020490D01*
X167119053Y-41414688D01*
X167534974Y-41586958D01*
X167767000Y-41465817D01*
X167767000Y-40259000D01*
X168021000Y-40259000D01*
X168021000Y-41465817D01*
X168253026Y-41586958D01*
X168668947Y-41414688D01*
X169100821Y-41020490D01*
X169348968Y-40491027D01*
X169228469Y-40259000D01*
X168021000Y-40259000D01*
X167767000Y-40259000D01*
X167747000Y-40259000D01*
X167747000Y-40005000D01*
X167767000Y-40005000D01*
X167767000Y-39985000D01*
X168021000Y-39985000D01*
X168021000Y-40005000D01*
X169228469Y-40005000D01*
X169348968Y-39772973D01*
X169100821Y-39243510D01*
X168682839Y-38861992D01*
X168953670Y-38681029D01*
X169278526Y-38194848D01*
X169392600Y-37621359D01*
X169392600Y-37562641D01*
X169278526Y-36989152D01*
X168953670Y-36502971D01*
X168467489Y-36178115D01*
X167894000Y-36064041D01*
X167320511Y-36178115D01*
X166834330Y-36502971D01*
X166624000Y-36817752D01*
X166413670Y-36502971D01*
X165927489Y-36178115D01*
X165354000Y-36064041D01*
X164780511Y-36178115D01*
X164294330Y-36502971D01*
X164084000Y-36817752D01*
X163873670Y-36502971D01*
X163387489Y-36178115D01*
X162814000Y-36064041D01*
X162240511Y-36178115D01*
X161754330Y-36502971D01*
X161538336Y-36826228D01*
X161480821Y-36703510D01*
X161048947Y-36309312D01*
X160633026Y-36137042D01*
X160401000Y-36258183D01*
X160401000Y-37465000D01*
X160421000Y-37465000D01*
X160421000Y-37719000D01*
X160401000Y-37719000D01*
X160401000Y-37739000D01*
X160147000Y-37739000D01*
X160147000Y-37719000D01*
X160127000Y-37719000D01*
X160127000Y-37465000D01*
X160147000Y-37465000D01*
X160147000Y-36258183D01*
X159914974Y-36137042D01*
X159499053Y-36309312D01*
X159067179Y-36703510D01*
X159009664Y-36826228D01*
X158793670Y-36502971D01*
X158307489Y-36178115D01*
X157734000Y-36064041D01*
X157160511Y-36178115D01*
X156674330Y-36502971D01*
X156458336Y-36826228D01*
X156400821Y-36703510D01*
X155968947Y-36309312D01*
X155553026Y-36137042D01*
X155321000Y-36258183D01*
X155321000Y-37465000D01*
X155341000Y-37465000D01*
X155341000Y-37719000D01*
X155321000Y-37719000D01*
X155321000Y-37739000D01*
X155067000Y-37739000D01*
X155067000Y-37719000D01*
X155047000Y-37719000D01*
X155047000Y-37465000D01*
X155067000Y-37465000D01*
X155067000Y-36258183D01*
X154834974Y-36137042D01*
X154419053Y-36309312D01*
X153987179Y-36703510D01*
X153929664Y-36826228D01*
X153713670Y-36502971D01*
X153227489Y-36178115D01*
X152654000Y-36064041D01*
X152080511Y-36178115D01*
X151594330Y-36502971D01*
X151384000Y-36817752D01*
X151173670Y-36502971D01*
X150687489Y-36178115D01*
X150114000Y-36064041D01*
X149540511Y-36178115D01*
X149264308Y-36362668D01*
X148851640Y-35950000D01*
X169418000Y-35950000D01*
X169418000Y-41910000D01*
X169418000Y-41910000D01*
G37*
X169418000Y-41910000D02*
X169426685Y-41956159D01*
X169427652Y-41957662D01*
X169428006Y-41959410D01*
X169441248Y-41978791D01*
X169453965Y-41998553D01*
X169455440Y-41999560D01*
X169456447Y-42001035D01*
X169476209Y-42013752D01*
X169495590Y-42026994D01*
X169497338Y-42027348D01*
X169498841Y-42028315D01*
X169545000Y-42037000D01*
X175615000Y-42037000D01*
X175615000Y-84328000D01*
X169545000Y-84328000D01*
X169495590Y-84338006D01*
X169453965Y-84366447D01*
X169426685Y-84408841D01*
X169418000Y-84455000D01*
X169418000Y-90580000D01*
X149222435Y-90580000D01*
X149340278Y-90462363D01*
X149589716Y-89861648D01*
X149590284Y-89211205D01*
X149341894Y-88610057D01*
X149275379Y-88543426D01*
X149406441Y-88459090D01*
X149551431Y-88246890D01*
X149602440Y-87995000D01*
X149602440Y-85995000D01*
X149558162Y-85759683D01*
X149419090Y-85543559D01*
X149206890Y-85398569D01*
X148955000Y-85347560D01*
X148717000Y-85347560D01*
X148717000Y-83820000D01*
X148658996Y-83528395D01*
X148623088Y-83474655D01*
X148493815Y-83281184D01*
X148251715Y-83039084D01*
X148319206Y-82876547D01*
X148319774Y-82226306D01*
X148071462Y-81625345D01*
X147612073Y-81165154D01*
X147011547Y-80915794D01*
X146361306Y-80915226D01*
X145760345Y-81163538D01*
X145300154Y-81622927D01*
X145097309Y-82111432D01*
X144896462Y-81625345D01*
X144437073Y-81165154D01*
X143836547Y-80915794D01*
X143186306Y-80915226D01*
X142585345Y-81163538D01*
X142125154Y-81622927D01*
X141922309Y-82111432D01*
X141721462Y-81625345D01*
X141262073Y-81165154D01*
X140661547Y-80915794D01*
X140011306Y-80915226D01*
X139410345Y-81163538D01*
X138950154Y-81622927D01*
X138700794Y-82223453D01*
X138700226Y-82873694D01*
X138768482Y-83038887D01*
X138526186Y-83281184D01*
X138526185Y-83281185D01*
X138361004Y-83528395D01*
X138303000Y-83820000D01*
X138303000Y-85347560D01*
X138065000Y-85347560D01*
X137829683Y-85391838D01*
X137613559Y-85530910D01*
X137468569Y-85743110D01*
X137417560Y-85995000D01*
X137417560Y-87995000D01*
X137461838Y-88230317D01*
X137600910Y-88446441D01*
X137743561Y-88543910D01*
X137679722Y-88607637D01*
X137663792Y-88646000D01*
X128790636Y-88646000D01*
X115937934Y-75793298D01*
X115983345Y-75565000D01*
X115937934Y-75336702D01*
X118560942Y-72713694D01*
X138700226Y-72713694D01*
X138948538Y-73314655D01*
X139407927Y-73774846D01*
X140008453Y-74024206D01*
X140658694Y-74024774D01*
X141259655Y-73776462D01*
X141719846Y-73317073D01*
X141922691Y-72828568D01*
X142123538Y-73314655D01*
X142582927Y-73774846D01*
X143183453Y-74024206D01*
X143833694Y-74024774D01*
X144434655Y-73776462D01*
X144894846Y-73317073D01*
X145097691Y-72828568D01*
X145298538Y-73314655D01*
X145757927Y-73774846D01*
X146358453Y-74024206D01*
X147008694Y-74024774D01*
X147609655Y-73776462D01*
X148069846Y-73317073D01*
X148319206Y-72716547D01*
X148319774Y-72066306D01*
X148071462Y-71465345D01*
X147612073Y-71005154D01*
X147011547Y-70755794D01*
X146361306Y-70755226D01*
X145760345Y-71003538D01*
X145300154Y-71462927D01*
X145097309Y-71951432D01*
X144896462Y-71465345D01*
X144437073Y-71005154D01*
X143836547Y-70755794D01*
X143186306Y-70755226D01*
X142585345Y-71003538D01*
X142125154Y-71462927D01*
X141922309Y-71951432D01*
X141721462Y-71465345D01*
X141262073Y-71005154D01*
X140661547Y-70755794D01*
X140011306Y-70755226D01*
X139410345Y-71003538D01*
X138950154Y-71462927D01*
X138700794Y-72063453D01*
X138700226Y-72713694D01*
X118560942Y-72713694D01*
X123329636Y-67945000D01*
X171036655Y-67945000D01*
X171150729Y-68518489D01*
X171475585Y-69004670D01*
X171790366Y-69215000D01*
X171475585Y-69425330D01*
X171150729Y-69911511D01*
X171036655Y-70485000D01*
X171150729Y-71058489D01*
X171475585Y-71544670D01*
X171790366Y-71755000D01*
X171475585Y-71965330D01*
X171150729Y-72451511D01*
X171036655Y-73025000D01*
X171150729Y-73598489D01*
X171475585Y-74084670D01*
X171790366Y-74295000D01*
X171475585Y-74505330D01*
X171150729Y-74991511D01*
X171036655Y-75565000D01*
X171150729Y-76138489D01*
X171475585Y-76624670D01*
X171790366Y-76835000D01*
X171475585Y-77045330D01*
X171150729Y-77531511D01*
X171036655Y-78105000D01*
X171150729Y-78678489D01*
X171475585Y-79164670D01*
X171961766Y-79489526D01*
X172535255Y-79603600D01*
X172904745Y-79603600D01*
X173478234Y-79489526D01*
X173964415Y-79164670D01*
X174289271Y-78678489D01*
X174403345Y-78105000D01*
X174289271Y-77531511D01*
X173964415Y-77045330D01*
X173649634Y-76835000D01*
X173964415Y-76624670D01*
X174289271Y-76138489D01*
X174403345Y-75565000D01*
X174289271Y-74991511D01*
X173964415Y-74505330D01*
X173649634Y-74295000D01*
X173964415Y-74084670D01*
X174289271Y-73598489D01*
X174403345Y-73025000D01*
X174289271Y-72451511D01*
X173964415Y-71965330D01*
X173649634Y-71755000D01*
X173964415Y-71544670D01*
X174289271Y-71058489D01*
X174403345Y-70485000D01*
X174289271Y-69911511D01*
X173964415Y-69425330D01*
X173649634Y-69215000D01*
X173964415Y-69004670D01*
X174289271Y-68518489D01*
X174403345Y-67945000D01*
X174289271Y-67371511D01*
X173964415Y-66885330D01*
X173942220Y-66870500D01*
X174095698Y-66806927D01*
X174274327Y-66628299D01*
X174371000Y-66394910D01*
X174371000Y-65690750D01*
X174212250Y-65532000D01*
X172847000Y-65532000D01*
X172847000Y-65552000D01*
X172593000Y-65552000D01*
X172593000Y-65532000D01*
X171227750Y-65532000D01*
X171069000Y-65690750D01*
X171069000Y-66394910D01*
X171165673Y-66628299D01*
X171344302Y-66806927D01*
X171497780Y-66870500D01*
X171475585Y-66885330D01*
X171150729Y-67371511D01*
X171036655Y-67945000D01*
X123329636Y-67945000D01*
X126859546Y-64415090D01*
X171069000Y-64415090D01*
X171069000Y-65119250D01*
X171227750Y-65278000D01*
X172593000Y-65278000D01*
X172593000Y-64065150D01*
X172847000Y-64065150D01*
X172847000Y-65278000D01*
X174212250Y-65278000D01*
X174371000Y-65119250D01*
X174371000Y-64415090D01*
X174274327Y-64181701D01*
X174095698Y-64003073D01*
X173862309Y-63906400D01*
X173005750Y-63906400D01*
X172847000Y-64065150D01*
X172593000Y-64065150D01*
X172434250Y-63906400D01*
X171577691Y-63906400D01*
X171344302Y-64003073D01*
X171165673Y-64181701D01*
X171069000Y-64415090D01*
X126859546Y-64415090D01*
X129908236Y-61366400D01*
X145415000Y-61366400D01*
X145755206Y-61298729D01*
X146043618Y-61106018D01*
X149606196Y-57543440D01*
X150723600Y-57543440D01*
X150958917Y-57499162D01*
X151175041Y-57360090D01*
X151320031Y-57147890D01*
X151339232Y-57053073D01*
X151497964Y-57230732D01*
X152025209Y-57484709D01*
X152040974Y-57487358D01*
X152273000Y-57366217D01*
X152273000Y-56007000D01*
X152253000Y-56007000D01*
X152253000Y-55753000D01*
X152273000Y-55753000D01*
X152273000Y-55733000D01*
X152527000Y-55733000D01*
X152527000Y-55753000D01*
X152547000Y-55753000D01*
X152547000Y-56007000D01*
X152527000Y-56007000D01*
X152527000Y-57366217D01*
X152759026Y-57487358D01*
X152774791Y-57484709D01*
X153302036Y-57230732D01*
X153673539Y-56814931D01*
X153880330Y-57124415D01*
X154366511Y-57449271D01*
X154940000Y-57563345D01*
X155513489Y-57449271D01*
X155999670Y-57124415D01*
X156210000Y-56809634D01*
X156420330Y-57124415D01*
X156906511Y-57449271D01*
X157480000Y-57563345D01*
X158053489Y-57449271D01*
X158539670Y-57124415D01*
X158750000Y-56809634D01*
X158960330Y-57124415D01*
X159446511Y-57449271D01*
X160020000Y-57563345D01*
X160593489Y-57449271D01*
X161079670Y-57124415D01*
X161290000Y-56809634D01*
X161500330Y-57124415D01*
X161986511Y-57449271D01*
X162560000Y-57563345D01*
X163133489Y-57449271D01*
X163619670Y-57124415D01*
X163830000Y-56809634D01*
X164040330Y-57124415D01*
X164526511Y-57449271D01*
X165100000Y-57563345D01*
X165673489Y-57449271D01*
X166159670Y-57124415D01*
X166370000Y-56809634D01*
X166580330Y-57124415D01*
X167066511Y-57449271D01*
X167640000Y-57563345D01*
X168213489Y-57449271D01*
X168699670Y-57124415D01*
X168910000Y-56809634D01*
X169120330Y-57124415D01*
X169606511Y-57449271D01*
X170180000Y-57563345D01*
X170753489Y-57449271D01*
X171239670Y-57124415D01*
X171446461Y-56814931D01*
X171817964Y-57230732D01*
X172345209Y-57484709D01*
X172360974Y-57487358D01*
X172593000Y-57366217D01*
X172593000Y-56007000D01*
X172847000Y-56007000D01*
X172847000Y-57366217D01*
X173079026Y-57487358D01*
X173094791Y-57484709D01*
X173622036Y-57230732D01*
X174011954Y-56794320D01*
X174205184Y-56241913D01*
X174060924Y-56007000D01*
X172847000Y-56007000D01*
X172593000Y-56007000D01*
X172573000Y-56007000D01*
X172573000Y-55753000D01*
X172593000Y-55753000D01*
X172593000Y-54393783D01*
X172847000Y-54393783D01*
X172847000Y-55753000D01*
X174060924Y-55753000D01*
X174205184Y-55518087D01*
X174011954Y-54965680D01*
X173622036Y-54529268D01*
X173094791Y-54275291D01*
X173079026Y-54272642D01*
X172847000Y-54393783D01*
X172593000Y-54393783D01*
X172360974Y-54272642D01*
X172345209Y-54275291D01*
X171817964Y-54529268D01*
X171446461Y-54945069D01*
X171239670Y-54635585D01*
X170753489Y-54310729D01*
X170180000Y-54196655D01*
X169801896Y-54271865D01*
X156905566Y-41375536D01*
X157160511Y-41545885D01*
X157734000Y-41659959D01*
X158307489Y-41545885D01*
X158793670Y-41221029D01*
X159004000Y-40906248D01*
X159214330Y-41221029D01*
X159700511Y-41545885D01*
X160274000Y-41659959D01*
X160847489Y-41545885D01*
X161333670Y-41221029D01*
X161544000Y-40906248D01*
X161754330Y-41221029D01*
X162240511Y-41545885D01*
X162814000Y-41659959D01*
X163387489Y-41545885D01*
X163873670Y-41221029D01*
X164084000Y-40906248D01*
X164294330Y-41221029D01*
X164780511Y-41545885D01*
X165354000Y-41659959D01*
X165927489Y-41545885D01*
X166413670Y-41221029D01*
X166629664Y-40897772D01*
X166687179Y-41020490D01*
X167119053Y-41414688D01*
X167534974Y-41586958D01*
X167767000Y-41465817D01*
X167767000Y-40259000D01*
X168021000Y-40259000D01*
X168021000Y-41465817D01*
X168253026Y-41586958D01*
X168668947Y-41414688D01*
X169100821Y-41020490D01*
X169348968Y-40491027D01*
X169228469Y-40259000D01*
X168021000Y-40259000D01*
X167767000Y-40259000D01*
X167747000Y-40259000D01*
X167747000Y-40005000D01*
X167767000Y-40005000D01*
X167767000Y-39985000D01*
X168021000Y-39985000D01*
X168021000Y-40005000D01*
X169228469Y-40005000D01*
X169348968Y-39772973D01*
X169100821Y-39243510D01*
X168682839Y-38861992D01*
X168953670Y-38681029D01*
X169278526Y-38194848D01*
X169392600Y-37621359D01*
X169392600Y-37562641D01*
X169278526Y-36989152D01*
X168953670Y-36502971D01*
X168467489Y-36178115D01*
X167894000Y-36064041D01*
X167320511Y-36178115D01*
X166834330Y-36502971D01*
X166624000Y-36817752D01*
X166413670Y-36502971D01*
X165927489Y-36178115D01*
X165354000Y-36064041D01*
X164780511Y-36178115D01*
X164294330Y-36502971D01*
X164084000Y-36817752D01*
X163873670Y-36502971D01*
X163387489Y-36178115D01*
X162814000Y-36064041D01*
X162240511Y-36178115D01*
X161754330Y-36502971D01*
X161538336Y-36826228D01*
X161480821Y-36703510D01*
X161048947Y-36309312D01*
X160633026Y-36137042D01*
X160401000Y-36258183D01*
X160401000Y-37465000D01*
X160421000Y-37465000D01*
X160421000Y-37719000D01*
X160401000Y-37719000D01*
X160401000Y-37739000D01*
X160147000Y-37739000D01*
X160147000Y-37719000D01*
X160127000Y-37719000D01*
X160127000Y-37465000D01*
X160147000Y-37465000D01*
X160147000Y-36258183D01*
X159914974Y-36137042D01*
X159499053Y-36309312D01*
X159067179Y-36703510D01*
X159009664Y-36826228D01*
X158793670Y-36502971D01*
X158307489Y-36178115D01*
X157734000Y-36064041D01*
X157160511Y-36178115D01*
X156674330Y-36502971D01*
X156458336Y-36826228D01*
X156400821Y-36703510D01*
X155968947Y-36309312D01*
X155553026Y-36137042D01*
X155321000Y-36258183D01*
X155321000Y-37465000D01*
X155341000Y-37465000D01*
X155341000Y-37719000D01*
X155321000Y-37719000D01*
X155321000Y-37739000D01*
X155067000Y-37739000D01*
X155067000Y-37719000D01*
X155047000Y-37719000D01*
X155047000Y-37465000D01*
X155067000Y-37465000D01*
X155067000Y-36258183D01*
X154834974Y-36137042D01*
X154419053Y-36309312D01*
X153987179Y-36703510D01*
X153929664Y-36826228D01*
X153713670Y-36502971D01*
X153227489Y-36178115D01*
X152654000Y-36064041D01*
X152080511Y-36178115D01*
X151594330Y-36502971D01*
X151384000Y-36817752D01*
X151173670Y-36502971D01*
X150687489Y-36178115D01*
X150114000Y-36064041D01*
X149540511Y-36178115D01*
X149264308Y-36362668D01*
X148851640Y-35950000D01*
X169418000Y-35950000D01*
X169418000Y-41910000D01*
G36*
X129921000Y-40005000D02*
X129941000Y-40005000D01*
X129941000Y-40259000D01*
X129921000Y-40259000D01*
X129921000Y-41465817D01*
X130153026Y-41586958D01*
X130568947Y-41414688D01*
X131000821Y-41020490D01*
X131058336Y-40897772D01*
X131274330Y-41221029D01*
X131760511Y-41545885D01*
X132334000Y-41659959D01*
X132907489Y-41545885D01*
X133393670Y-41221029D01*
X133604000Y-40906248D01*
X133814330Y-41221029D01*
X134300511Y-41545885D01*
X134874000Y-41659959D01*
X135447489Y-41545885D01*
X135933670Y-41221029D01*
X136144000Y-40906248D01*
X136354330Y-41221029D01*
X136840511Y-41545885D01*
X137209485Y-41619279D01*
X128911382Y-49917382D01*
X128718671Y-50205794D01*
X128651000Y-50546000D01*
X128651000Y-54221339D01*
X128441083Y-54260838D01*
X128224959Y-54399910D01*
X128079969Y-54612110D01*
X128028960Y-54864000D01*
X128028960Y-56896000D01*
X128073238Y-57131317D01*
X128212310Y-57347441D01*
X128424510Y-57492431D01*
X128651000Y-57538296D01*
X128651000Y-60109164D01*
X115942169Y-72817995D01*
X115908135Y-72646895D01*
X126497417Y-62057614D01*
X126662598Y-61810403D01*
X126720601Y-61518799D01*
X126720601Y-41553859D01*
X127254000Y-41659959D01*
X127827489Y-41545885D01*
X128313670Y-41221029D01*
X128529664Y-40897772D01*
X128587179Y-41020490D01*
X129019053Y-41414688D01*
X129434974Y-41586958D01*
X129667000Y-41465817D01*
X129667000Y-40259000D01*
X129647000Y-40259000D01*
X129647000Y-40005000D01*
X129667000Y-40005000D01*
X129667000Y-39985000D01*
X129921000Y-39985000D01*
X129921000Y-40005000D01*
X129921000Y-40005000D01*
G37*
X129921000Y-40005000D02*
X129941000Y-40005000D01*
X129941000Y-40259000D01*
X129921000Y-40259000D01*
X129921000Y-41465817D01*
X130153026Y-41586958D01*
X130568947Y-41414688D01*
X131000821Y-41020490D01*
X131058336Y-40897772D01*
X131274330Y-41221029D01*
X131760511Y-41545885D01*
X132334000Y-41659959D01*
X132907489Y-41545885D01*
X133393670Y-41221029D01*
X133604000Y-40906248D01*
X133814330Y-41221029D01*
X134300511Y-41545885D01*
X134874000Y-41659959D01*
X135447489Y-41545885D01*
X135933670Y-41221029D01*
X136144000Y-40906248D01*
X136354330Y-41221029D01*
X136840511Y-41545885D01*
X137209485Y-41619279D01*
X128911382Y-49917382D01*
X128718671Y-50205794D01*
X128651000Y-50546000D01*
X128651000Y-54221339D01*
X128441083Y-54260838D01*
X128224959Y-54399910D01*
X128079969Y-54612110D01*
X128028960Y-54864000D01*
X128028960Y-56896000D01*
X128073238Y-57131317D01*
X128212310Y-57347441D01*
X128424510Y-57492431D01*
X128651000Y-57538296D01*
X128651000Y-60109164D01*
X115942169Y-72817995D01*
X115908135Y-72646895D01*
X126497417Y-62057614D01*
X126662598Y-61810403D01*
X126720601Y-61518799D01*
X126720601Y-41553859D01*
X127254000Y-41659959D01*
X127827489Y-41545885D01*
X128313670Y-41221029D01*
X128529664Y-40897772D01*
X128587179Y-41020490D01*
X129019053Y-41414688D01*
X129434974Y-41586958D01*
X129667000Y-41465817D01*
X129667000Y-40259000D01*
X129647000Y-40259000D01*
X129647000Y-40005000D01*
X129667000Y-40005000D01*
X129667000Y-39985000D01*
X129921000Y-39985000D01*
X129921000Y-40005000D01*
G36*
X123654330Y-41221029D02*
X123967281Y-41430136D01*
X124010004Y-41644919D01*
X124081670Y-41752174D01*
X124175185Y-41892129D01*
X124443491Y-42160436D01*
X124443491Y-42302020D01*
X124151547Y-42180794D01*
X123501306Y-42180226D01*
X122900345Y-42428538D01*
X122440154Y-42887927D01*
X122190794Y-43488453D01*
X122190226Y-44138694D01*
X122438538Y-44739655D01*
X122897927Y-45199846D01*
X123386432Y-45402691D01*
X122900345Y-45603538D01*
X122440154Y-46062927D01*
X122190794Y-46663453D01*
X122190226Y-47313694D01*
X122438538Y-47914655D01*
X122897927Y-48374846D01*
X123498453Y-48624206D01*
X124148694Y-48624774D01*
X124443491Y-48502966D01*
X124443491Y-59416279D01*
X115971968Y-67887802D01*
X115869271Y-67371511D01*
X115544415Y-66885330D01*
X115522220Y-66870500D01*
X115675698Y-66806927D01*
X115854327Y-66628299D01*
X115951000Y-66394910D01*
X115951000Y-65690750D01*
X115792250Y-65532000D01*
X114427000Y-65532000D01*
X114427000Y-65552000D01*
X114173000Y-65552000D01*
X114173000Y-65532000D01*
X114153000Y-65532000D01*
X114153000Y-65278000D01*
X114173000Y-65278000D01*
X114173000Y-64065150D01*
X114427000Y-64065150D01*
X114427000Y-65278000D01*
X115792250Y-65278000D01*
X115951000Y-65119250D01*
X115951000Y-64415090D01*
X115854327Y-64181701D01*
X115675698Y-64003073D01*
X115442309Y-63906400D01*
X114585750Y-63906400D01*
X114427000Y-64065150D01*
X114173000Y-64065150D01*
X114014250Y-63906400D01*
X113157691Y-63906400D01*
X113156979Y-63906695D01*
X113156979Y-59436000D01*
X114782602Y-59436000D01*
X115106902Y-59371493D01*
X115171409Y-59358662D01*
X115501022Y-59138420D01*
X117134722Y-57504721D01*
X117413489Y-57449271D01*
X117899670Y-57124415D01*
X118106461Y-56814931D01*
X118477964Y-57230732D01*
X119005209Y-57484709D01*
X119020974Y-57487358D01*
X119253000Y-57366217D01*
X119253000Y-56007000D01*
X119507000Y-56007000D01*
X119507000Y-57366217D01*
X119739026Y-57487358D01*
X119754791Y-57484709D01*
X120282036Y-57230732D01*
X120671954Y-56794320D01*
X120865184Y-56241913D01*
X120720924Y-56007000D01*
X119507000Y-56007000D01*
X119253000Y-56007000D01*
X119233000Y-56007000D01*
X119233000Y-55753000D01*
X119253000Y-55753000D01*
X119253000Y-55733000D01*
X119507000Y-55733000D01*
X119507000Y-55753000D01*
X120720924Y-55753000D01*
X120865184Y-55518087D01*
X120671954Y-54965680D01*
X120282036Y-54529268D01*
X119811362Y-54302542D01*
X119953489Y-54274271D01*
X120439670Y-53949415D01*
X120646461Y-53639931D01*
X121017964Y-54055732D01*
X121545209Y-54309709D01*
X121560974Y-54312358D01*
X121793000Y-54191217D01*
X121793000Y-52832000D01*
X122047000Y-52832000D01*
X122047000Y-54191217D01*
X122279026Y-54312358D01*
X122294791Y-54309709D01*
X122822036Y-54055732D01*
X123211954Y-53619320D01*
X123405184Y-53066913D01*
X123260924Y-52832000D01*
X122047000Y-52832000D01*
X121793000Y-52832000D01*
X121773000Y-52832000D01*
X121773000Y-52578000D01*
X121793000Y-52578000D01*
X121793000Y-51218783D01*
X122047000Y-51218783D01*
X122047000Y-52578000D01*
X123260924Y-52578000D01*
X123405184Y-52343087D01*
X123211954Y-51790680D01*
X122822036Y-51354268D01*
X122294791Y-51100291D01*
X122279026Y-51097642D01*
X122047000Y-51218783D01*
X121793000Y-51218783D01*
X121560974Y-51097642D01*
X121545209Y-51100291D01*
X121017964Y-51354268D01*
X120646461Y-51770069D01*
X120439670Y-51460585D01*
X119953489Y-51135729D01*
X119380000Y-51021655D01*
X118806511Y-51135729D01*
X118320330Y-51460585D01*
X118110000Y-51775366D01*
X117899670Y-51460585D01*
X117413489Y-51135729D01*
X117174120Y-51088116D01*
X120262618Y-47999618D01*
X120455330Y-47711205D01*
X120523000Y-47371000D01*
X120523000Y-41638261D01*
X120732917Y-41598762D01*
X120949041Y-41459690D01*
X121094031Y-41247490D01*
X121102864Y-41203869D01*
X121114330Y-41221029D01*
X121600511Y-41545885D01*
X122174000Y-41659959D01*
X122747489Y-41545885D01*
X123233670Y-41221029D01*
X123444000Y-40906248D01*
X123654330Y-41221029D01*
X123654330Y-41221029D01*
G37*
X123654330Y-41221029D02*
X123967281Y-41430136D01*
X124010004Y-41644919D01*
X124081670Y-41752174D01*
X124175185Y-41892129D01*
X124443491Y-42160436D01*
X124443491Y-42302020D01*
X124151547Y-42180794D01*
X123501306Y-42180226D01*
X122900345Y-42428538D01*
X122440154Y-42887927D01*
X122190794Y-43488453D01*
X122190226Y-44138694D01*
X122438538Y-44739655D01*
X122897927Y-45199846D01*
X123386432Y-45402691D01*
X122900345Y-45603538D01*
X122440154Y-46062927D01*
X122190794Y-46663453D01*
X122190226Y-47313694D01*
X122438538Y-47914655D01*
X122897927Y-48374846D01*
X123498453Y-48624206D01*
X124148694Y-48624774D01*
X124443491Y-48502966D01*
X124443491Y-59416279D01*
X115971968Y-67887802D01*
X115869271Y-67371511D01*
X115544415Y-66885330D01*
X115522220Y-66870500D01*
X115675698Y-66806927D01*
X115854327Y-66628299D01*
X115951000Y-66394910D01*
X115951000Y-65690750D01*
X115792250Y-65532000D01*
X114427000Y-65532000D01*
X114427000Y-65552000D01*
X114173000Y-65552000D01*
X114173000Y-65532000D01*
X114153000Y-65532000D01*
X114153000Y-65278000D01*
X114173000Y-65278000D01*
X114173000Y-64065150D01*
X114427000Y-64065150D01*
X114427000Y-65278000D01*
X115792250Y-65278000D01*
X115951000Y-65119250D01*
X115951000Y-64415090D01*
X115854327Y-64181701D01*
X115675698Y-64003073D01*
X115442309Y-63906400D01*
X114585750Y-63906400D01*
X114427000Y-64065150D01*
X114173000Y-64065150D01*
X114014250Y-63906400D01*
X113157691Y-63906400D01*
X113156979Y-63906695D01*
X113156979Y-59436000D01*
X114782602Y-59436000D01*
X115106902Y-59371493D01*
X115171409Y-59358662D01*
X115501022Y-59138420D01*
X117134722Y-57504721D01*
X117413489Y-57449271D01*
X117899670Y-57124415D01*
X118106461Y-56814931D01*
X118477964Y-57230732D01*
X119005209Y-57484709D01*
X119020974Y-57487358D01*
X119253000Y-57366217D01*
X119253000Y-56007000D01*
X119507000Y-56007000D01*
X119507000Y-57366217D01*
X119739026Y-57487358D01*
X119754791Y-57484709D01*
X120282036Y-57230732D01*
X120671954Y-56794320D01*
X120865184Y-56241913D01*
X120720924Y-56007000D01*
X119507000Y-56007000D01*
X119253000Y-56007000D01*
X119233000Y-56007000D01*
X119233000Y-55753000D01*
X119253000Y-55753000D01*
X119253000Y-55733000D01*
X119507000Y-55733000D01*
X119507000Y-55753000D01*
X120720924Y-55753000D01*
X120865184Y-55518087D01*
X120671954Y-54965680D01*
X120282036Y-54529268D01*
X119811362Y-54302542D01*
X119953489Y-54274271D01*
X120439670Y-53949415D01*
X120646461Y-53639931D01*
X121017964Y-54055732D01*
X121545209Y-54309709D01*
X121560974Y-54312358D01*
X121793000Y-54191217D01*
X121793000Y-52832000D01*
X122047000Y-52832000D01*
X122047000Y-54191217D01*
X122279026Y-54312358D01*
X122294791Y-54309709D01*
X122822036Y-54055732D01*
X123211954Y-53619320D01*
X123405184Y-53066913D01*
X123260924Y-52832000D01*
X122047000Y-52832000D01*
X121793000Y-52832000D01*
X121773000Y-52832000D01*
X121773000Y-52578000D01*
X121793000Y-52578000D01*
X121793000Y-51218783D01*
X122047000Y-51218783D01*
X122047000Y-52578000D01*
X123260924Y-52578000D01*
X123405184Y-52343087D01*
X123211954Y-51790680D01*
X122822036Y-51354268D01*
X122294791Y-51100291D01*
X122279026Y-51097642D01*
X122047000Y-51218783D01*
X121793000Y-51218783D01*
X121560974Y-51097642D01*
X121545209Y-51100291D01*
X121017964Y-51354268D01*
X120646461Y-51770069D01*
X120439670Y-51460585D01*
X119953489Y-51135729D01*
X119380000Y-51021655D01*
X118806511Y-51135729D01*
X118320330Y-51460585D01*
X118110000Y-51775366D01*
X117899670Y-51460585D01*
X117413489Y-51135729D01*
X117174120Y-51088116D01*
X120262618Y-47999618D01*
X120455330Y-47711205D01*
X120523000Y-47371000D01*
X120523000Y-41638261D01*
X120732917Y-41598762D01*
X120949041Y-41459690D01*
X121094031Y-41247490D01*
X121102864Y-41203869D01*
X121114330Y-41221029D01*
X121600511Y-41545885D01*
X122174000Y-41659959D01*
X122747489Y-41545885D01*
X123233670Y-41221029D01*
X123444000Y-40906248D01*
X123654330Y-41221029D01*
G36*
X146514330Y-41221029D02*
X146812000Y-41419926D01*
X146812000Y-48514000D01*
X146870004Y-48805605D01*
X147035185Y-49052815D01*
X152272998Y-54290628D01*
X152272998Y-54393782D01*
X152040974Y-54272642D01*
X152025209Y-54275291D01*
X151497964Y-54529268D01*
X151341093Y-54704845D01*
X151326762Y-54628683D01*
X151187690Y-54412559D01*
X150975490Y-54267569D01*
X150723600Y-54216560D01*
X148996400Y-54216560D01*
X148761083Y-54260838D01*
X148544959Y-54399910D01*
X148399969Y-54612110D01*
X148348960Y-54864000D01*
X148348960Y-56286204D01*
X145046764Y-59588400D01*
X130429000Y-59588400D01*
X130429000Y-57538661D01*
X130638917Y-57499162D01*
X130855041Y-57360090D01*
X131000031Y-57147890D01*
X131019232Y-57053073D01*
X131177964Y-57230732D01*
X131705209Y-57484709D01*
X131720974Y-57487358D01*
X131953000Y-57366217D01*
X131953000Y-56007000D01*
X131933000Y-56007000D01*
X131933000Y-55753000D01*
X131953000Y-55753000D01*
X131953000Y-54393783D01*
X131720974Y-54272642D01*
X131705209Y-54275291D01*
X131177964Y-54529268D01*
X131021093Y-54704845D01*
X131006762Y-54628683D01*
X130867690Y-54412559D01*
X130655490Y-54267569D01*
X130429000Y-54221704D01*
X130429000Y-50914236D01*
X139728193Y-41615043D01*
X139899293Y-41649077D01*
X139796196Y-41752174D01*
X139631015Y-41999384D01*
X139573011Y-42290989D01*
X139573011Y-52236958D01*
X137538105Y-54271865D01*
X137160000Y-54196655D01*
X136586511Y-54310729D01*
X136100330Y-54635585D01*
X135890000Y-54950366D01*
X135679670Y-54635585D01*
X135193489Y-54310729D01*
X134620000Y-54196655D01*
X134046511Y-54310729D01*
X133560330Y-54635585D01*
X133353539Y-54945069D01*
X132982036Y-54529268D01*
X132454791Y-54275291D01*
X132439026Y-54272642D01*
X132207000Y-54393783D01*
X132207000Y-55753000D01*
X132227000Y-55753000D01*
X132227000Y-56007000D01*
X132207000Y-56007000D01*
X132207000Y-57366217D01*
X132439026Y-57487358D01*
X132454791Y-57484709D01*
X132982036Y-57230732D01*
X133353539Y-56814931D01*
X133560330Y-57124415D01*
X134046511Y-57449271D01*
X134620000Y-57563345D01*
X135193489Y-57449271D01*
X135679670Y-57124415D01*
X135890000Y-56809634D01*
X136100330Y-57124415D01*
X136586511Y-57449271D01*
X137160000Y-57563345D01*
X137733489Y-57449271D01*
X138219670Y-57124415D01*
X138430000Y-56809634D01*
X138640330Y-57124415D01*
X139126511Y-57449271D01*
X139700000Y-57563345D01*
X140273489Y-57449271D01*
X140759670Y-57124415D01*
X140970000Y-56809634D01*
X141180330Y-57124415D01*
X141666511Y-57449271D01*
X142240000Y-57563345D01*
X142813489Y-57449271D01*
X143299670Y-57124415D01*
X143506461Y-56814931D01*
X143877964Y-57230732D01*
X144405209Y-57484709D01*
X144420974Y-57487358D01*
X144653000Y-57366217D01*
X144653000Y-56007000D01*
X144907000Y-56007000D01*
X144907000Y-57366217D01*
X145139026Y-57487358D01*
X145154791Y-57484709D01*
X145682036Y-57230732D01*
X146071954Y-56794320D01*
X146265184Y-56241913D01*
X146120924Y-56007000D01*
X144907000Y-56007000D01*
X144653000Y-56007000D01*
X144633000Y-56007000D01*
X144633000Y-55753000D01*
X144653000Y-55753000D01*
X144653000Y-55733000D01*
X144907000Y-55733000D01*
X144907000Y-55753000D01*
X146120924Y-55753000D01*
X146265184Y-55518087D01*
X146071954Y-54965680D01*
X145682036Y-54529268D01*
X145154791Y-54275291D01*
X145139026Y-54272642D01*
X144907002Y-54393782D01*
X144907002Y-54290629D01*
X145572816Y-53624815D01*
X145695236Y-53441600D01*
X145737996Y-53377605D01*
X145796000Y-53086000D01*
X145796000Y-41419926D01*
X146093670Y-41221029D01*
X146304000Y-40906248D01*
X146514330Y-41221029D01*
X146514330Y-41221029D01*
G37*
X146514330Y-41221029D02*
X146812000Y-41419926D01*
X146812000Y-48514000D01*
X146870004Y-48805605D01*
X147035185Y-49052815D01*
X152272998Y-54290628D01*
X152272998Y-54393782D01*
X152040974Y-54272642D01*
X152025209Y-54275291D01*
X151497964Y-54529268D01*
X151341093Y-54704845D01*
X151326762Y-54628683D01*
X151187690Y-54412559D01*
X150975490Y-54267569D01*
X150723600Y-54216560D01*
X148996400Y-54216560D01*
X148761083Y-54260838D01*
X148544959Y-54399910D01*
X148399969Y-54612110D01*
X148348960Y-54864000D01*
X148348960Y-56286204D01*
X145046764Y-59588400D01*
X130429000Y-59588400D01*
X130429000Y-57538661D01*
X130638917Y-57499162D01*
X130855041Y-57360090D01*
X131000031Y-57147890D01*
X131019232Y-57053073D01*
X131177964Y-57230732D01*
X131705209Y-57484709D01*
X131720974Y-57487358D01*
X131953000Y-57366217D01*
X131953000Y-56007000D01*
X131933000Y-56007000D01*
X131933000Y-55753000D01*
X131953000Y-55753000D01*
X131953000Y-54393783D01*
X131720974Y-54272642D01*
X131705209Y-54275291D01*
X131177964Y-54529268D01*
X131021093Y-54704845D01*
X131006762Y-54628683D01*
X130867690Y-54412559D01*
X130655490Y-54267569D01*
X130429000Y-54221704D01*
X130429000Y-50914236D01*
X139728193Y-41615043D01*
X139899293Y-41649077D01*
X139796196Y-41752174D01*
X139631015Y-41999384D01*
X139573011Y-42290989D01*
X139573011Y-52236958D01*
X137538105Y-54271865D01*
X137160000Y-54196655D01*
X136586511Y-54310729D01*
X136100330Y-54635585D01*
X135890000Y-54950366D01*
X135679670Y-54635585D01*
X135193489Y-54310729D01*
X134620000Y-54196655D01*
X134046511Y-54310729D01*
X133560330Y-54635585D01*
X133353539Y-54945069D01*
X132982036Y-54529268D01*
X132454791Y-54275291D01*
X132439026Y-54272642D01*
X132207000Y-54393783D01*
X132207000Y-55753000D01*
X132227000Y-55753000D01*
X132227000Y-56007000D01*
X132207000Y-56007000D01*
X132207000Y-57366217D01*
X132439026Y-57487358D01*
X132454791Y-57484709D01*
X132982036Y-57230732D01*
X133353539Y-56814931D01*
X133560330Y-57124415D01*
X134046511Y-57449271D01*
X134620000Y-57563345D01*
X135193489Y-57449271D01*
X135679670Y-57124415D01*
X135890000Y-56809634D01*
X136100330Y-57124415D01*
X136586511Y-57449271D01*
X137160000Y-57563345D01*
X137733489Y-57449271D01*
X138219670Y-57124415D01*
X138430000Y-56809634D01*
X138640330Y-57124415D01*
X139126511Y-57449271D01*
X139700000Y-57563345D01*
X140273489Y-57449271D01*
X140759670Y-57124415D01*
X140970000Y-56809634D01*
X141180330Y-57124415D01*
X141666511Y-57449271D01*
X142240000Y-57563345D01*
X142813489Y-57449271D01*
X143299670Y-57124415D01*
X143506461Y-56814931D01*
X143877964Y-57230732D01*
X144405209Y-57484709D01*
X144420974Y-57487358D01*
X144653000Y-57366217D01*
X144653000Y-56007000D01*
X144907000Y-56007000D01*
X144907000Y-57366217D01*
X145139026Y-57487358D01*
X145154791Y-57484709D01*
X145682036Y-57230732D01*
X146071954Y-56794320D01*
X146265184Y-56241913D01*
X146120924Y-56007000D01*
X144907000Y-56007000D01*
X144653000Y-56007000D01*
X144633000Y-56007000D01*
X144633000Y-55753000D01*
X144653000Y-55753000D01*
X144653000Y-55733000D01*
X144907000Y-55733000D01*
X144907000Y-55753000D01*
X146120924Y-55753000D01*
X146265184Y-55518087D01*
X146071954Y-54965680D01*
X145682036Y-54529268D01*
X145154791Y-54275291D01*
X145139026Y-54272642D01*
X144907002Y-54393782D01*
X144907002Y-54290629D01*
X145572816Y-53624815D01*
X145695236Y-53441600D01*
X145737996Y-53377605D01*
X145796000Y-53086000D01*
X145796000Y-41419926D01*
X146093670Y-41221029D01*
X146304000Y-40906248D01*
X146514330Y-41221029D01*
G36*
X150241000Y-40005000D02*
X150261000Y-40005000D01*
X150261000Y-40259000D01*
X150241000Y-40259000D01*
X150241000Y-41465817D01*
X150473026Y-41586958D01*
X150888947Y-41414688D01*
X150889523Y-41414163D01*
X151390776Y-41915417D01*
X151637987Y-42080598D01*
X151929591Y-42138601D01*
X155513371Y-42138601D01*
X167582802Y-54208032D01*
X167261895Y-54271865D01*
X165901706Y-52911676D01*
X165800712Y-52844194D01*
X165654496Y-52746495D01*
X165362891Y-52688491D01*
X160819003Y-52688491D01*
X149690953Y-41560441D01*
X149754974Y-41586958D01*
X149987000Y-41465817D01*
X149987000Y-40259000D01*
X149967000Y-40259000D01*
X149967000Y-40005000D01*
X149987000Y-40005000D01*
X149987000Y-39985000D01*
X150241000Y-39985000D01*
X150241000Y-40005000D01*
X150241000Y-40005000D01*
G37*
X150241000Y-40005000D02*
X150261000Y-40005000D01*
X150261000Y-40259000D01*
X150241000Y-40259000D01*
X150241000Y-41465817D01*
X150473026Y-41586958D01*
X150888947Y-41414688D01*
X150889523Y-41414163D01*
X151390776Y-41915417D01*
X151637987Y-42080598D01*
X151929591Y-42138601D01*
X155513371Y-42138601D01*
X167582802Y-54208032D01*
X167261895Y-54271865D01*
X165901706Y-52911676D01*
X165800712Y-52844194D01*
X165654496Y-52746495D01*
X165362891Y-52688491D01*
X160819003Y-52688491D01*
X149690953Y-41560441D01*
X149754974Y-41586958D01*
X149987000Y-41465817D01*
X149987000Y-40259000D01*
X149967000Y-40259000D01*
X149967000Y-40005000D01*
X149987000Y-40005000D01*
X149987000Y-39985000D01*
X150241000Y-39985000D01*
X150241000Y-40005000D01*
G36*
X117094000Y-44543207D02*
X115203618Y-46433590D01*
X115051462Y-46065345D01*
X114592073Y-45605154D01*
X114118035Y-45408316D01*
X114538958Y-45233965D01*
X114637557Y-44967163D01*
X113665000Y-43994605D01*
X112692443Y-44967163D01*
X112791042Y-45233965D01*
X113235333Y-45399013D01*
X112740345Y-45603538D01*
X112280154Y-46062927D01*
X112030794Y-46663453D01*
X112030226Y-47313694D01*
X112278538Y-47914655D01*
X112737927Y-48374846D01*
X113108491Y-48528717D01*
X112082982Y-49554226D01*
X112082979Y-49554228D01*
X111985000Y-49652207D01*
X111985000Y-43550582D01*
X112019599Y-43550582D01*
X112043659Y-44200377D01*
X112246035Y-44688958D01*
X112512837Y-44787557D01*
X113485395Y-43815000D01*
X113844605Y-43815000D01*
X114817163Y-44787557D01*
X115083965Y-44688958D01*
X115310401Y-44079418D01*
X115286341Y-43429623D01*
X115083965Y-42941042D01*
X114817163Y-42842443D01*
X113844605Y-43815000D01*
X113485395Y-43815000D01*
X112512837Y-42842443D01*
X112246035Y-42941042D01*
X112019599Y-43550582D01*
X111985000Y-43550582D01*
X111985000Y-42662837D01*
X112692443Y-42662837D01*
X113665000Y-43635395D01*
X114637557Y-42662837D01*
X114538958Y-42396035D01*
X113929418Y-42169599D01*
X113279623Y-42193659D01*
X112791042Y-42396035D01*
X112692443Y-42662837D01*
X111985000Y-42662837D01*
X111985000Y-42037000D01*
X117094000Y-42037000D01*
X117094000Y-44543207D01*
X117094000Y-44543207D01*
G37*
X117094000Y-44543207D02*
X115203618Y-46433590D01*
X115051462Y-46065345D01*
X114592073Y-45605154D01*
X114118035Y-45408316D01*
X114538958Y-45233965D01*
X114637557Y-44967163D01*
X113665000Y-43994605D01*
X112692443Y-44967163D01*
X112791042Y-45233965D01*
X113235333Y-45399013D01*
X112740345Y-45603538D01*
X112280154Y-46062927D01*
X112030794Y-46663453D01*
X112030226Y-47313694D01*
X112278538Y-47914655D01*
X112737927Y-48374846D01*
X113108491Y-48528717D01*
X112082982Y-49554226D01*
X112082979Y-49554228D01*
X111985000Y-49652207D01*
X111985000Y-43550582D01*
X112019599Y-43550582D01*
X112043659Y-44200377D01*
X112246035Y-44688958D01*
X112512837Y-44787557D01*
X113485395Y-43815000D01*
X113844605Y-43815000D01*
X114817163Y-44787557D01*
X115083965Y-44688958D01*
X115310401Y-44079418D01*
X115286341Y-43429623D01*
X115083965Y-42941042D01*
X114817163Y-42842443D01*
X113844605Y-43815000D01*
X113485395Y-43815000D01*
X112512837Y-42842443D01*
X112246035Y-42941042D01*
X112019599Y-43550582D01*
X111985000Y-43550582D01*
X111985000Y-42662837D01*
X112692443Y-42662837D01*
X113665000Y-43635395D01*
X114637557Y-42662837D01*
X114538958Y-42396035D01*
X113929418Y-42169599D01*
X113279623Y-42193659D01*
X112791042Y-42396035D01*
X112692443Y-42662837D01*
X111985000Y-42662837D01*
X111985000Y-42037000D01*
X117094000Y-42037000D01*
X117094000Y-44543207D01*
G36*
X142621000Y-37465000D02*
X142641000Y-37465000D01*
X142641000Y-37719000D01*
X142621000Y-37719000D01*
X142621000Y-37739000D01*
X142367000Y-37739000D01*
X142367000Y-37719000D01*
X142347000Y-37719000D01*
X142347000Y-37465000D01*
X142367000Y-37465000D01*
X142367000Y-37445000D01*
X142621000Y-37445000D01*
X142621000Y-37465000D01*
X142621000Y-37465000D01*
G37*
X142621000Y-37465000D02*
X142641000Y-37465000D01*
X142641000Y-37719000D01*
X142621000Y-37719000D01*
X142621000Y-37739000D01*
X142367000Y-37739000D01*
X142367000Y-37719000D01*
X142347000Y-37719000D01*
X142347000Y-37465000D01*
X142367000Y-37465000D01*
X142367000Y-37445000D01*
X142621000Y-37445000D01*
X142621000Y-37465000D01*
G36*
X137789615Y-36138755D02*
X137414000Y-36064041D01*
X136840511Y-36178115D01*
X136354330Y-36502971D01*
X136138336Y-36826228D01*
X136080821Y-36703510D01*
X135648947Y-36309312D01*
X135233026Y-36137042D01*
X135001000Y-36258183D01*
X135001000Y-37465000D01*
X135021000Y-37465000D01*
X135021000Y-37719000D01*
X135001000Y-37719000D01*
X135001000Y-37739000D01*
X134747000Y-37739000D01*
X134747000Y-37719000D01*
X134727000Y-37719000D01*
X134727000Y-37465000D01*
X134747000Y-37465000D01*
X134747000Y-36258183D01*
X134514974Y-36137042D01*
X134099053Y-36309312D01*
X133667179Y-36703510D01*
X133609664Y-36826228D01*
X133393670Y-36502971D01*
X132907489Y-36178115D01*
X132334000Y-36064041D01*
X131760511Y-36178115D01*
X131274330Y-36502971D01*
X131064000Y-36817752D01*
X130853670Y-36502971D01*
X130367489Y-36178115D01*
X129794000Y-36064041D01*
X129220511Y-36178115D01*
X128734330Y-36502971D01*
X128524000Y-36817752D01*
X128313670Y-36502971D01*
X127827489Y-36178115D01*
X127254000Y-36064041D01*
X126680511Y-36178115D01*
X126194330Y-36502971D01*
X125978336Y-36826228D01*
X125920821Y-36703510D01*
X125488947Y-36309312D01*
X125073026Y-36137042D01*
X124841000Y-36258183D01*
X124841000Y-37465000D01*
X124861000Y-37465000D01*
X124861000Y-37719000D01*
X124841000Y-37719000D01*
X124841000Y-37739000D01*
X124587000Y-37739000D01*
X124587000Y-37719000D01*
X124567000Y-37719000D01*
X124567000Y-37465000D01*
X124587000Y-37465000D01*
X124587000Y-36258183D01*
X124354974Y-36137042D01*
X123939053Y-36309312D01*
X123507179Y-36703510D01*
X123449664Y-36826228D01*
X123233670Y-36502971D01*
X122747489Y-36178115D01*
X122174000Y-36064041D01*
X121600511Y-36178115D01*
X121114330Y-36502971D01*
X121065534Y-36576000D01*
X120742466Y-36576000D01*
X120693670Y-36502971D01*
X120207489Y-36178115D01*
X119634000Y-36064041D01*
X119060511Y-36178115D01*
X118574330Y-36502971D01*
X118525534Y-36576000D01*
X118412686Y-36576000D01*
X118023879Y-36653338D01*
X117694266Y-36873579D01*
X117602000Y-36965845D01*
X117602000Y-35950000D01*
X137978369Y-35950000D01*
X137789615Y-36138755D01*
X137789615Y-36138755D01*
G37*
X137789615Y-36138755D02*
X137414000Y-36064041D01*
X136840511Y-36178115D01*
X136354330Y-36502971D01*
X136138336Y-36826228D01*
X136080821Y-36703510D01*
X135648947Y-36309312D01*
X135233026Y-36137042D01*
X135001000Y-36258183D01*
X135001000Y-37465000D01*
X135021000Y-37465000D01*
X135021000Y-37719000D01*
X135001000Y-37719000D01*
X135001000Y-37739000D01*
X134747000Y-37739000D01*
X134747000Y-37719000D01*
X134727000Y-37719000D01*
X134727000Y-37465000D01*
X134747000Y-37465000D01*
X134747000Y-36258183D01*
X134514974Y-36137042D01*
X134099053Y-36309312D01*
X133667179Y-36703510D01*
X133609664Y-36826228D01*
X133393670Y-36502971D01*
X132907489Y-36178115D01*
X132334000Y-36064041D01*
X131760511Y-36178115D01*
X131274330Y-36502971D01*
X131064000Y-36817752D01*
X130853670Y-36502971D01*
X130367489Y-36178115D01*
X129794000Y-36064041D01*
X129220511Y-36178115D01*
X128734330Y-36502971D01*
X128524000Y-36817752D01*
X128313670Y-36502971D01*
X127827489Y-36178115D01*
X127254000Y-36064041D01*
X126680511Y-36178115D01*
X126194330Y-36502971D01*
X125978336Y-36826228D01*
X125920821Y-36703510D01*
X125488947Y-36309312D01*
X125073026Y-36137042D01*
X124841000Y-36258183D01*
X124841000Y-37465000D01*
X124861000Y-37465000D01*
X124861000Y-37719000D01*
X124841000Y-37719000D01*
X124841000Y-37739000D01*
X124587000Y-37739000D01*
X124587000Y-37719000D01*
X124567000Y-37719000D01*
X124567000Y-37465000D01*
X124587000Y-37465000D01*
X124587000Y-36258183D01*
X124354974Y-36137042D01*
X123939053Y-36309312D01*
X123507179Y-36703510D01*
X123449664Y-36826228D01*
X123233670Y-36502971D01*
X122747489Y-36178115D01*
X122174000Y-36064041D01*
X121600511Y-36178115D01*
X121114330Y-36502971D01*
X121065534Y-36576000D01*
X120742466Y-36576000D01*
X120693670Y-36502971D01*
X120207489Y-36178115D01*
X119634000Y-36064041D01*
X119060511Y-36178115D01*
X118574330Y-36502971D01*
X118525534Y-36576000D01*
X118412686Y-36576000D01*
X118023879Y-36653338D01*
X117694266Y-36873579D01*
X117602000Y-36965845D01*
X117602000Y-35950000D01*
X137978369Y-35950000D01*
X137789615Y-36138755D01*
M02*
