G04 #@! TF.GenerationSoftware,KiCad,Pcbnew,(5.1.0-0)*
G04 #@! TF.CreationDate,2019-04-27T17:28:38+08:00*
G04 #@! TF.ProjectId,RASPmini,52415350-6d69-46e6-992e-6b696361645f,rev?*
G04 #@! TF.SameCoordinates,Original*
G04 #@! TF.FileFunction,Soldermask,Top*
G04 #@! TF.FilePolarity,Negative*
%FSLAX46Y46*%
G04 Gerber Fmt 4.6, Leading zero omitted, Abs format (unit mm)*
G04 Created by KiCad (PCBNEW (5.1.0-0)) date 2019-04-27 17:28:38*
%MOMM*%
%LPD*%
G04 APERTURE LIST*
%ADD10R,2.127200X2.127200*%
%ADD11O,2.127200X2.127200*%
%ADD12C,2.398980*%
%ADD13R,2.127200X2.432000*%
%ADD14O,2.127200X2.432000*%
%ADD15R,2.400000X2.400000*%
%ADD16C,2.400000*%
%ADD17O,2.432000X2.127200*%
%ADD18R,2.432000X2.127200*%
G04 APERTURE END LIST*
D10*
X119634000Y-40132000D03*
D11*
X119634000Y-37592000D03*
X122174000Y-40132000D03*
X122174000Y-37592000D03*
X124714000Y-40132000D03*
X124714000Y-37592000D03*
X127254000Y-40132000D03*
X127254000Y-37592000D03*
X129794000Y-40132000D03*
X129794000Y-37592000D03*
X132334000Y-40132000D03*
X132334000Y-37592000D03*
X134874000Y-40132000D03*
X134874000Y-37592000D03*
X137414000Y-40132000D03*
X137414000Y-37592000D03*
X139954000Y-40132000D03*
X139954000Y-37592000D03*
X142494000Y-40132000D03*
X142494000Y-37592000D03*
X145034000Y-40132000D03*
X145034000Y-37592000D03*
X147574000Y-40132000D03*
X147574000Y-37592000D03*
X150114000Y-40132000D03*
X150114000Y-37592000D03*
X152654000Y-40132000D03*
X152654000Y-37592000D03*
X155194000Y-40132000D03*
X155194000Y-37592000D03*
X157734000Y-40132000D03*
X157734000Y-37592000D03*
X160274000Y-40132000D03*
X160274000Y-37592000D03*
X162814000Y-40132000D03*
X162814000Y-37592000D03*
X165354000Y-40132000D03*
X165354000Y-37592000D03*
X167894000Y-40132000D03*
X167894000Y-37592000D03*
D12*
X140335000Y-82550000D03*
X140335000Y-72390000D03*
D13*
X114300000Y-52705000D03*
D14*
X116840000Y-52705000D03*
X119380000Y-52705000D03*
X121920000Y-52705000D03*
D13*
X114300000Y-55880000D03*
D14*
X116840000Y-55880000D03*
X119380000Y-55880000D03*
D15*
X139065000Y-86995000D03*
D16*
X139065000Y-89535000D03*
D15*
X143510000Y-86995000D03*
D16*
X143510000Y-89535000D03*
D15*
X147955000Y-86995000D03*
D16*
X147955000Y-89535000D03*
D12*
X143510000Y-82550000D03*
X143510000Y-72390000D03*
X146685000Y-82550000D03*
X146685000Y-72390000D03*
X113665000Y-46990000D03*
X123825000Y-46990000D03*
X123825000Y-43815000D03*
X113665000Y-43815000D03*
D17*
X114300000Y-67945000D03*
D18*
X114300000Y-65405000D03*
D17*
X114300000Y-70485000D03*
X114300000Y-73025000D03*
X114300000Y-75565000D03*
X114300000Y-78105000D03*
X172720000Y-78105000D03*
X172720000Y-75565000D03*
X172720000Y-73025000D03*
X172720000Y-70485000D03*
D18*
X172720000Y-65405000D03*
D17*
X172720000Y-67945000D03*
D13*
X129540000Y-55880000D03*
D14*
X132080000Y-55880000D03*
X134620000Y-55880000D03*
X137160000Y-55880000D03*
X139700000Y-55880000D03*
X142240000Y-55880000D03*
X144780000Y-55880000D03*
D13*
X149860000Y-55880000D03*
D14*
X152400000Y-55880000D03*
X154940000Y-55880000D03*
X157480000Y-55880000D03*
X160020000Y-55880000D03*
X162560000Y-55880000D03*
X165100000Y-55880000D03*
X167640000Y-55880000D03*
X170180000Y-55880000D03*
X172720000Y-55880000D03*
M02*
